G04 #@! TF.GenerationSoftware,KiCad,Pcbnew,(5.1.2)-2*
G04 #@! TF.CreationDate,2019-11-23T11:04:55-05:00*
G04 #@! TF.ProjectId,tdm_mainboard,74646d5f-6d61-4696-9e62-6f6172642e6b,rev?*
G04 #@! TF.SameCoordinates,Original*
G04 #@! TF.FileFunction,Copper,L2,Bot*
G04 #@! TF.FilePolarity,Positive*
%FSLAX46Y46*%
G04 Gerber Fmt 4.6, Leading zero omitted, Abs format (unit mm)*
G04 Created by KiCad (PCBNEW (5.1.2)-2) date 2019-11-23 11:04:55*
%MOMM*%
%LPD*%
G04 APERTURE LIST*
%ADD10C,1.400000*%
%ADD11C,1.500000*%
%ADD12C,1.524000*%
%ADD13C,1.785000*%
%ADD14O,1.700000X1.700000*%
%ADD15R,1.700000X1.700000*%
%ADD16R,2.800000X3.600000*%
%ADD17C,2.000000*%
%ADD18C,0.600000*%
%ADD19C,0.800000*%
%ADD20C,0.127000*%
%ADD21C,0.250000*%
%ADD22C,0.500000*%
%ADD23C,0.254000*%
G04 APERTURE END LIST*
D10*
X30099000Y-63881000D03*
X30099000Y-66421000D03*
D11*
X22352000Y-81026000D03*
D10*
X37211000Y-64135000D03*
X34671000Y-64135000D03*
D12*
X57620000Y-118510000D03*
X57620000Y-115970000D03*
X42380000Y-118510000D03*
X42380000Y-115970000D03*
X42380000Y-113430000D03*
X42380000Y-110890000D03*
X42380000Y-108350000D03*
X42380000Y-105810000D03*
X42380000Y-103270000D03*
X42380000Y-100730000D03*
X42380000Y-98190000D03*
X42380000Y-95650000D03*
X42380000Y-93110000D03*
X42380000Y-90570000D03*
X42380000Y-88030000D03*
X42380000Y-85490000D03*
X57620000Y-85490000D03*
X57620000Y-88030000D03*
X57620000Y-90570000D03*
X57620000Y-93110000D03*
X57620000Y-95650000D03*
X57620000Y-98190000D03*
X57620000Y-100730000D03*
X57620000Y-103270000D03*
X57620000Y-105810000D03*
X57620000Y-108350000D03*
X57620000Y-110890000D03*
X57620000Y-113430000D03*
D13*
X22570000Y-46210000D03*
X22570000Y-31790000D03*
X77430000Y-31790000D03*
X77430000Y-46210000D03*
D14*
X43300000Y-25540000D03*
X43300000Y-23000000D03*
X45840000Y-25540000D03*
X45840000Y-23000000D03*
X48380000Y-25540000D03*
X48380000Y-23000000D03*
X50920000Y-25540000D03*
X50920000Y-23000000D03*
X53460000Y-25540000D03*
X53460000Y-23000000D03*
X56000000Y-25540000D03*
D15*
X56000000Y-23000000D03*
D10*
X55000000Y-31000000D03*
X57540000Y-31000000D03*
X44000000Y-31000000D03*
X46540000Y-31000000D03*
D16*
X21800000Y-39000000D03*
X33200000Y-39000000D03*
D17*
X25000000Y-46500000D03*
X27500000Y-46500000D03*
X30000000Y-46500000D03*
D16*
X66800000Y-39000000D03*
X78200000Y-39000000D03*
D17*
X70000000Y-46500000D03*
X72500000Y-46500000D03*
X75000000Y-46500000D03*
D18*
X35000000Y-114000000D03*
X30019000Y-106219000D03*
X29130000Y-98853000D03*
X45767000Y-100377000D03*
X30600000Y-42200000D03*
X24130000Y-51689000D03*
X27305000Y-44577000D03*
X46600000Y-105100000D03*
X46300000Y-83600000D03*
X50200000Y-48800000D03*
D19*
X40005000Y-99568000D03*
D18*
X35734000Y-98726000D03*
X36115000Y-94662000D03*
X45767000Y-101520000D03*
X40179000Y-102028000D03*
X32051000Y-69262000D03*
X34210000Y-70405000D03*
X38989000Y-71247000D03*
X35900000Y-91500000D03*
X37000000Y-87300000D03*
X37700000Y-79000000D03*
X70000000Y-33700000D03*
X68500000Y-35100000D03*
D19*
X34798000Y-73152000D03*
X24892000Y-69977000D03*
X27686000Y-87249000D03*
X34290000Y-77216000D03*
X34163000Y-80092510D03*
D18*
X27606000Y-99234000D03*
X33448000Y-92757000D03*
D19*
X40640000Y-93218000D03*
X38735000Y-92964000D03*
D18*
X42291000Y-72771000D03*
X41910000Y-69088000D03*
X21844000Y-106807000D03*
X36957000Y-78994000D03*
X37084000Y-77597000D03*
X46990000Y-60579000D03*
X46990000Y-58801000D03*
X36576000Y-35814000D03*
X35052000Y-35814000D03*
X21844000Y-105664000D03*
X28448000Y-70612000D03*
X28448000Y-69342000D03*
X30734000Y-49784000D03*
X29591000Y-48641000D03*
X29591000Y-22098000D03*
X26577157Y-77816843D03*
X26785888Y-79051866D03*
X21717000Y-103378000D03*
X24384000Y-79248000D03*
X25019000Y-77470000D03*
X27686000Y-70612000D03*
X27686000Y-69342000D03*
X27940000Y-60325000D03*
X31750000Y-59182000D03*
X38989000Y-50038000D03*
X38989000Y-46355000D03*
X37084000Y-36703000D03*
X34544000Y-36449000D03*
X33782000Y-31242000D03*
X35560000Y-24892000D03*
X35560000Y-23241000D03*
X69389000Y-103679000D03*
X68500000Y-55400000D03*
X54100000Y-89500000D03*
X52800000Y-87500000D03*
X43100000Y-82000000D03*
X25700000Y-56200000D03*
X73900000Y-54600000D03*
X54600000Y-90300000D03*
X52200000Y-86900000D03*
X43200000Y-81200000D03*
X30700000Y-56200000D03*
X35480000Y-101901000D03*
X29892000Y-112188000D03*
X46400000Y-98900000D03*
X51000000Y-50400000D03*
X49600000Y-33600000D03*
X41100000Y-69100000D03*
X41200000Y-75400000D03*
X34210000Y-110918000D03*
X34337000Y-103679000D03*
X34210000Y-104568000D03*
X34972000Y-104822000D03*
X34845000Y-105711000D03*
X40941000Y-106473000D03*
X29892000Y-98599000D03*
X48400000Y-46800000D03*
X51100000Y-46400000D03*
X71100000Y-27800000D03*
D19*
X44069000Y-91821000D03*
X50165000Y-85090000D03*
X52578000Y-84963000D03*
X59690000Y-83185000D03*
X77597000Y-43942000D03*
X75946000Y-40005000D03*
X75946000Y-26822174D03*
X78207010Y-49403000D03*
D18*
X32178000Y-98980000D03*
X49600000Y-48300000D03*
X50900000Y-48200000D03*
X68700000Y-31600000D03*
X46228000Y-34544000D03*
X45974000Y-35941000D03*
X44450000Y-51308000D03*
X43434000Y-57150000D03*
X39624000Y-76454000D03*
X39624000Y-79248000D03*
X39751000Y-84582000D03*
X39878000Y-87249000D03*
X40386000Y-86487000D03*
X40386000Y-83947000D03*
X40132000Y-80264000D03*
X38989000Y-75946000D03*
X42799000Y-58166000D03*
X43942000Y-55880000D03*
X42926000Y-51943000D03*
X43815000Y-50800000D03*
X45085000Y-35814000D03*
X48006000Y-33655000D03*
X44196000Y-79375000D03*
X41783000Y-79375000D03*
X46355000Y-72009000D03*
X46228000Y-60198000D03*
X46355000Y-58166000D03*
X46355000Y-55753000D03*
X47625000Y-53721000D03*
X49403000Y-36830000D03*
X52578000Y-33655000D03*
X52705000Y-31242000D03*
X52578000Y-27686000D03*
X48768000Y-33655000D03*
X46736000Y-36449000D03*
X44704000Y-52070000D03*
X45593000Y-59690000D03*
X40386000Y-76962000D03*
X40640000Y-78105000D03*
X42555000Y-78095000D03*
X56000000Y-88700000D03*
X55800000Y-86800000D03*
X57000000Y-82400000D03*
X58300000Y-80300000D03*
X58500000Y-70200000D03*
X58100000Y-67700000D03*
X57300000Y-57000000D03*
X56100000Y-55600000D03*
X50800000Y-33600000D03*
X51100000Y-31600000D03*
X68100000Y-26900000D03*
X67000000Y-90000000D03*
X73978000Y-91978000D03*
X64750000Y-95750000D03*
D19*
X76581000Y-91313000D03*
D18*
X53594000Y-87503000D03*
X53594000Y-88646000D03*
X45212000Y-107950000D03*
X42037000Y-32385000D03*
X44196000Y-34290000D03*
X44196000Y-35687000D03*
X43053000Y-50292000D03*
X42291000Y-51562000D03*
X41148000Y-52832000D03*
X40259000Y-53848000D03*
X42545000Y-68580000D03*
X44196000Y-68072000D03*
X45085000Y-70739000D03*
X52959000Y-76454000D03*
X58801000Y-79629000D03*
X55880000Y-105283000D03*
X52197000Y-108839000D03*
X53600000Y-101300000D03*
X55100000Y-100000000D03*
X55200000Y-88700000D03*
X55200000Y-87400000D03*
X57000000Y-81500000D03*
X57400000Y-80200000D03*
X58800000Y-69000000D03*
X58800000Y-67200000D03*
X62200000Y-49500000D03*
X62200000Y-48100000D03*
X57600000Y-33900000D03*
X54400000Y-110400000D03*
X53000000Y-110200000D03*
X50500000Y-103500000D03*
X49400000Y-102800000D03*
X51500000Y-88700000D03*
X52600000Y-61100000D03*
X53900000Y-59800000D03*
X51500000Y-54900000D03*
X47700000Y-54700000D03*
X49500000Y-35900000D03*
X51700000Y-33600000D03*
X51900000Y-31400000D03*
X51700000Y-27900000D03*
D19*
X24384000Y-41402000D03*
X48133000Y-90170000D03*
X42164000Y-82677000D03*
X39878000Y-82296000D03*
X35179000Y-79502000D03*
X28956000Y-79121000D03*
X25146000Y-75692000D03*
X23622000Y-76327000D03*
D20*
X30019000Y-106219000D02*
X29130000Y-105330000D01*
X29130000Y-105330000D02*
X29130000Y-98853000D01*
D21*
X35570000Y-113430000D02*
X35000000Y-114000000D01*
X42380000Y-113430000D02*
X35570000Y-113430000D01*
X21082000Y-48641000D02*
X24130000Y-51689000D01*
X21082000Y-45466000D02*
X21082000Y-48641000D01*
X22098000Y-44450000D02*
X21082000Y-45466000D01*
X27178000Y-44450000D02*
X22098000Y-44450000D01*
X27305000Y-44577000D02*
X27178000Y-44450000D01*
X42380000Y-113430000D02*
X42770000Y-113430000D01*
X42770000Y-113430000D02*
X46600000Y-109600000D01*
X46600000Y-109600000D02*
X46600000Y-105100000D01*
X46300000Y-83600000D02*
X49500000Y-83600000D01*
X49500000Y-83600000D02*
X50200000Y-82900000D01*
X50200000Y-82900000D02*
X50200000Y-48800000D01*
X55960000Y-25540000D02*
X56000000Y-25540000D01*
X50200000Y-31300000D02*
X55960000Y-25540000D01*
X50200000Y-35100000D02*
X50200000Y-31300000D01*
X50200000Y-48800000D02*
X50200000Y-35100000D01*
D20*
X43735000Y-99488000D02*
X44878000Y-99488000D01*
X44878000Y-99488000D02*
X45767000Y-100377000D01*
X43735000Y-99488000D02*
X40085000Y-99488000D01*
X40085000Y-99488000D02*
X40005000Y-99568000D01*
D21*
X45767000Y-100377000D02*
X45767000Y-90452964D01*
X50817002Y-85402962D02*
X50817002Y-84777038D01*
X50817002Y-84777038D02*
X49639964Y-83600000D01*
X45767000Y-90452964D02*
X50817002Y-85402962D01*
X46724264Y-83600000D02*
X46300000Y-83600000D01*
X49639964Y-83600000D02*
X46724264Y-83600000D01*
D20*
X35734000Y-98726000D02*
X36115000Y-98345000D01*
X36115000Y-98345000D02*
X36115000Y-94662000D01*
X45767000Y-101520000D02*
X43862000Y-101520000D01*
X43862000Y-101520000D02*
X43608000Y-101774000D01*
X43608000Y-101774000D02*
X40433000Y-101774000D01*
X40433000Y-101774000D02*
X40179000Y-102028000D01*
X32051000Y-69262000D02*
X33194000Y-70405000D01*
X33194000Y-70405000D02*
X34210000Y-70405000D01*
D21*
X38147000Y-70405000D02*
X34210000Y-70405000D01*
X38989000Y-71247000D02*
X38147000Y-70405000D01*
D20*
X36115000Y-94662000D02*
X36115000Y-91715000D01*
X36115000Y-91715000D02*
X35900000Y-91500000D01*
X37000000Y-87300000D02*
X37700000Y-86600000D01*
X37700000Y-86600000D02*
X37700000Y-79000000D01*
D21*
X70000000Y-33700000D02*
X68600000Y-35100000D01*
X68600000Y-35100000D02*
X68500000Y-35100000D01*
X77430000Y-38230000D02*
X78200000Y-39000000D01*
X77430000Y-31790000D02*
X77430000Y-38230000D01*
X34798000Y-73152000D02*
X34798000Y-71374000D01*
X34798000Y-71374000D02*
X32639000Y-71374000D01*
X32639000Y-71374000D02*
X31242000Y-69977000D01*
X31242000Y-69977000D02*
X24892000Y-69977000D01*
X45800000Y-35100000D02*
X50200000Y-35100000D01*
X36147000Y-35100000D02*
X45800000Y-35100000D01*
X35900000Y-35347000D02*
X36147000Y-35100000D01*
X35900000Y-40600000D02*
X35900000Y-35347000D01*
X30600000Y-42200000D02*
X34300000Y-42200000D01*
X34300000Y-42200000D02*
X35900000Y-40600000D01*
D20*
X30099000Y-68834000D02*
X31242000Y-69977000D01*
X30099000Y-66421000D02*
X30099000Y-68834000D01*
D21*
X34798000Y-73152000D02*
X34798000Y-76708000D01*
X34798000Y-76708000D02*
X34290000Y-77216000D01*
X33763001Y-80492509D02*
X34163000Y-80092510D01*
X27686000Y-87249000D02*
X27686000Y-86569510D01*
X27686000Y-86569510D02*
X33763001Y-80492509D01*
D20*
X27606000Y-99234000D02*
X28721491Y-98118509D01*
X28721491Y-98118509D02*
X29356491Y-98118509D01*
X29356491Y-98118509D02*
X30019000Y-97456000D01*
X30019000Y-97456000D02*
X31543000Y-97456000D01*
X31543000Y-97456000D02*
X33448000Y-95551000D01*
X33448000Y-95551000D02*
X33448000Y-92757000D01*
X40640000Y-93218000D02*
X38989000Y-93218000D01*
X38989000Y-93218000D02*
X38735000Y-92964000D01*
D21*
X42291000Y-72771000D02*
X41910000Y-72390000D01*
X41910000Y-72390000D02*
X41910000Y-69088000D01*
X37211000Y-64389000D02*
X37211000Y-64135000D01*
X41910000Y-69088000D02*
X37211000Y-64389000D01*
D20*
X21844000Y-106807000D02*
X27051000Y-101600000D01*
X27051000Y-101600000D02*
X27051000Y-88900000D01*
X27051000Y-88900000D02*
X36957000Y-78994000D01*
X37084000Y-77597000D02*
X44704000Y-77597000D01*
X44704000Y-77597000D02*
X46990000Y-75311000D01*
X46990000Y-75311000D02*
X46990000Y-60579000D01*
X46990000Y-58801000D02*
X46990000Y-55245000D01*
X46990000Y-55245000D02*
X36576000Y-44831000D01*
X36576000Y-44831000D02*
X36576000Y-35814000D01*
X35052000Y-31248000D02*
X43300000Y-23000000D01*
X35052000Y-35814000D02*
X35052000Y-31248000D01*
X28448000Y-69342000D02*
X28448000Y-59309000D01*
X28448000Y-59309000D02*
X31242000Y-56515000D01*
X31242000Y-56515000D02*
X31242000Y-50292000D01*
X31242000Y-50292000D02*
X30734000Y-49784000D01*
X29591000Y-48641000D02*
X30226000Y-48006000D01*
X30226000Y-48006000D02*
X31369000Y-48006000D01*
X31369000Y-48006000D02*
X31877000Y-47498000D01*
X31877000Y-47498000D02*
X31877000Y-45974000D01*
X31877000Y-45974000D02*
X27178000Y-41275000D01*
X27178000Y-41275000D02*
X27178000Y-24511000D01*
X27178000Y-24511000D02*
X29591000Y-22098000D01*
X28448000Y-75946000D02*
X26877156Y-77516844D01*
X26877156Y-77516844D02*
X26577157Y-77816843D01*
X28448000Y-70612000D02*
X28448000Y-75946000D01*
X26785888Y-79476130D02*
X26785888Y-79051866D01*
X21844000Y-105664000D02*
X26785888Y-100722112D01*
X26785888Y-100722112D02*
X26785888Y-79476130D01*
X21717000Y-103378000D02*
X24257000Y-100838000D01*
X24257000Y-100838000D02*
X25908000Y-100838000D01*
X25908000Y-100838000D02*
X24384000Y-99314000D01*
X24384000Y-99314000D02*
X24384000Y-79248000D01*
X25019000Y-77470000D02*
X25146000Y-77343000D01*
X25146000Y-77343000D02*
X26289000Y-77343000D01*
X26289000Y-77343000D02*
X26289000Y-72009000D01*
X26289000Y-72009000D02*
X27686000Y-70612000D01*
X27686000Y-69342000D02*
X27686000Y-60579000D01*
X27686000Y-60579000D02*
X27940000Y-60325000D01*
X31750000Y-59182000D02*
X33655000Y-59182000D01*
X33655000Y-59182000D02*
X38989000Y-53848000D01*
X38989000Y-53848000D02*
X38989000Y-50038000D01*
X38989000Y-46355000D02*
X38989000Y-38608000D01*
X38989000Y-38608000D02*
X37084000Y-36703000D01*
X34544000Y-36449000D02*
X34544000Y-32004000D01*
X34544000Y-32004000D02*
X33782000Y-31242000D01*
X35560000Y-24892000D02*
X35560000Y-23241000D01*
D21*
X63420000Y-109648000D02*
X51242000Y-109648000D01*
X51242000Y-109648000D02*
X42380000Y-118510000D01*
X69389000Y-103679000D02*
X63420000Y-109648000D01*
D20*
X60534513Y-82796344D02*
X59600000Y-81861831D01*
X59600000Y-101290000D02*
X59600000Y-84508169D01*
X60534513Y-83573656D02*
X60534513Y-82796344D01*
X59600000Y-84508169D02*
X60534513Y-83573656D01*
X57620000Y-103270000D02*
X59600000Y-101290000D01*
X59600000Y-81861831D02*
X59600000Y-64300000D01*
X68200001Y-55699999D02*
X68500000Y-55400000D01*
X59600000Y-64300000D02*
X68200001Y-55699999D01*
X54100000Y-89500000D02*
X53300000Y-89500000D01*
X53300000Y-89500000D02*
X52800000Y-89000000D01*
X52800000Y-89000000D02*
X52800000Y-87500000D01*
X22600000Y-59300000D02*
X25400001Y-56499999D01*
X24161356Y-78561356D02*
X22600000Y-77000000D01*
X26981313Y-78497856D02*
X26917813Y-78561356D01*
X25400001Y-56499999D02*
X25700000Y-56200000D01*
X26917813Y-78561356D02*
X24161356Y-78561356D01*
X22600000Y-77000000D02*
X22600000Y-59300000D01*
X39597856Y-78497856D02*
X26981313Y-78497856D01*
X43100000Y-82000000D02*
X39597856Y-78497856D01*
X59300000Y-81921056D02*
X59300000Y-63700000D01*
X73475736Y-54600000D02*
X73900000Y-54600000D01*
X68400000Y-54600000D02*
X73475736Y-54600000D01*
X59300000Y-99050000D02*
X59300000Y-84448944D01*
X60280502Y-82901558D02*
X59300000Y-81921056D01*
X59300000Y-84448944D02*
X60280502Y-83468442D01*
X60280502Y-83468442D02*
X60280502Y-82901558D01*
X57620000Y-100730000D02*
X59300000Y-99050000D01*
X59300000Y-63700000D02*
X68400000Y-54600000D01*
X54600000Y-90300000D02*
X53500000Y-90300000D01*
X53500000Y-90300000D02*
X52200000Y-89000000D01*
X52200000Y-89000000D02*
X52200000Y-86900000D01*
X43200000Y-81200000D02*
X42300000Y-80300000D01*
X42300000Y-80300000D02*
X41900000Y-80300000D01*
X41900000Y-80300000D02*
X39700000Y-78100000D01*
X39700000Y-78100000D02*
X27019944Y-78100000D01*
X23200000Y-63700000D02*
X30400001Y-56499999D01*
X27019944Y-78100000D02*
X26812599Y-78307345D01*
X23200000Y-75875056D02*
X23200000Y-63700000D01*
X30400001Y-56499999D02*
X30700000Y-56200000D01*
X23031498Y-76043558D02*
X23200000Y-75875056D01*
X23031498Y-76631498D02*
X23031498Y-76043558D01*
X24707345Y-78307345D02*
X23031498Y-76631498D01*
X26812599Y-78307345D02*
X24707345Y-78307345D01*
X35480000Y-101901000D02*
X35480000Y-100504000D01*
X42154000Y-100504000D02*
X42380000Y-100730000D01*
X35480000Y-100504000D02*
X42154000Y-100504000D01*
X29892000Y-112188000D02*
X31416000Y-110664000D01*
X31416000Y-110664000D02*
X31416000Y-105203000D01*
X34718000Y-101901000D02*
X35480000Y-101901000D01*
X31416000Y-105203000D02*
X34718000Y-101901000D01*
X51000000Y-82800000D02*
X51000000Y-50824264D01*
X51000000Y-50824264D02*
X51000000Y-50400000D01*
X51132513Y-82932513D02*
X51000000Y-82800000D01*
X51132513Y-85533650D02*
X51132513Y-82932513D01*
X46400000Y-90266163D02*
X51132513Y-85533650D01*
X46400000Y-98900000D02*
X46400000Y-90266163D01*
X49600000Y-33600000D02*
X49800000Y-33400000D01*
X49800000Y-33400000D02*
X49800000Y-31253802D01*
X49800000Y-31253802D02*
X54700000Y-26353802D01*
X54700000Y-24240000D02*
X53460000Y-23000000D01*
X54700000Y-26353802D02*
X54700000Y-24240000D01*
X41100000Y-69100000D02*
X41200000Y-69200000D01*
X41200000Y-69200000D02*
X41200000Y-75400000D01*
X34238000Y-110890000D02*
X42380000Y-110890000D01*
X34210000Y-110918000D02*
X34238000Y-110890000D01*
X39871010Y-103806000D02*
X41522010Y-102155000D01*
X34337000Y-103806000D02*
X39871010Y-103806000D01*
X41522010Y-102155000D02*
X51115000Y-102155000D01*
X51115000Y-102155000D02*
X57620000Y-95650000D01*
X34210000Y-104568000D02*
X34519501Y-104258499D01*
X34519501Y-104258499D02*
X39742499Y-104258499D01*
X39742499Y-104258499D02*
X39925000Y-104441000D01*
X51369000Y-104441000D02*
X57620000Y-98190000D01*
X39925000Y-104441000D02*
X51369000Y-104441000D01*
X35960000Y-105810000D02*
X42380000Y-105810000D01*
X34972000Y-104822000D02*
X35960000Y-105810000D01*
X34845000Y-105711000D02*
X35607000Y-106473000D01*
X35607000Y-106473000D02*
X40941000Y-106473000D01*
X29892000Y-98599000D02*
X30654000Y-97837000D01*
X30654000Y-97837000D02*
X31670000Y-97837000D01*
X31670000Y-97837000D02*
X34083000Y-95424000D01*
X34083000Y-95424000D02*
X34083000Y-91360000D01*
X34083000Y-91360000D02*
X34083000Y-91117000D01*
X34083000Y-91117000D02*
X41700000Y-83500000D01*
X41700000Y-83500000D02*
X44000000Y-83500000D01*
X44000000Y-83500000D02*
X45400000Y-82100000D01*
X45400000Y-82100000D02*
X48600000Y-82100000D01*
X48600000Y-82100000D02*
X48400000Y-81900000D01*
X48400000Y-81900000D02*
X48400000Y-46800000D01*
X51100000Y-46400000D02*
X51300000Y-46600000D01*
X51300000Y-46600000D02*
X60400000Y-46600000D01*
X60400000Y-46600000D02*
X61100000Y-45900000D01*
X61100000Y-45900000D02*
X61100000Y-37800000D01*
X61100000Y-37800000D02*
X71100000Y-27800000D01*
D21*
X44069000Y-91186000D02*
X50165000Y-85090000D01*
X44069000Y-91821000D02*
X44069000Y-91186000D01*
X54356000Y-83185000D02*
X59690000Y-83185000D01*
X52578000Y-84963000D02*
X54356000Y-83185000D01*
X75946000Y-40005000D02*
X75946000Y-26822174D01*
X77597000Y-43942000D02*
X78607009Y-44952009D01*
X78607009Y-49003001D02*
X78207010Y-49403000D01*
X78607009Y-44952009D02*
X78607009Y-49003001D01*
D20*
X32178000Y-98980000D02*
X32178000Y-98345000D01*
X32178000Y-98345000D02*
X32178000Y-98299461D01*
X32178000Y-98299461D02*
X35353000Y-95124461D01*
X35353000Y-91553000D02*
X35353000Y-90747000D01*
X35353000Y-91553000D02*
X35353000Y-91360000D01*
X35353000Y-95124461D02*
X35353000Y-91553000D01*
X35353000Y-90747000D02*
X41800000Y-84300000D01*
X41800000Y-84300000D02*
X45000000Y-84300000D01*
X45000000Y-84300000D02*
X45700000Y-83600000D01*
X45700000Y-83600000D02*
X45700000Y-82900000D01*
X45700000Y-82900000D02*
X45800000Y-83000000D01*
X45800000Y-83000000D02*
X49400000Y-83000000D01*
X49400000Y-83000000D02*
X49600000Y-82800000D01*
X49600000Y-82800000D02*
X49600000Y-48300000D01*
X50900000Y-48200000D02*
X51000000Y-48300000D01*
X51000000Y-48300000D02*
X61000000Y-48300000D01*
X61000000Y-48300000D02*
X62000000Y-47300000D01*
X62000000Y-47300000D02*
X62000000Y-38300000D01*
X62000000Y-38300000D02*
X68700000Y-31600000D01*
X45840000Y-23000000D02*
X45199000Y-23000000D01*
X45199000Y-23000000D02*
X44577000Y-23622000D01*
X44577000Y-23622000D02*
X44577000Y-29718000D01*
X44577000Y-29718000D02*
X45339000Y-30480000D01*
X45339000Y-30480000D02*
X45339000Y-33655000D01*
X45339000Y-33655000D02*
X46228000Y-34544000D01*
X45974000Y-35941000D02*
X45974000Y-36830000D01*
X45974000Y-36830000D02*
X44450000Y-38354000D01*
X44450000Y-38354000D02*
X44450000Y-51308000D01*
X43434000Y-57150000D02*
X43434000Y-75311000D01*
X43434000Y-75311000D02*
X42291000Y-76454000D01*
X42291000Y-76454000D02*
X39624000Y-76454000D01*
X42380000Y-89751000D02*
X42380000Y-90570000D01*
X39878000Y-87249000D02*
X42380000Y-89751000D01*
X39033487Y-83864487D02*
X39451001Y-84282001D01*
X39624000Y-79248000D02*
X39033487Y-79838513D01*
X39033487Y-79838513D02*
X39033487Y-83864487D01*
X39451001Y-84282001D02*
X39751000Y-84582000D01*
X42380000Y-88030000D02*
X41929000Y-88030000D01*
X41929000Y-88030000D02*
X40386000Y-86487000D01*
X38989000Y-75946000D02*
X42291000Y-75946000D01*
X42291000Y-75946000D02*
X43053000Y-75184000D01*
X43053000Y-75184000D02*
X43053000Y-58420000D01*
X43053000Y-58420000D02*
X42799000Y-58166000D01*
X43942000Y-55880000D02*
X43942000Y-52959000D01*
X43942000Y-52959000D02*
X42926000Y-51943000D01*
X43815000Y-50800000D02*
X43815000Y-37084000D01*
X43815000Y-37084000D02*
X45085000Y-35814000D01*
X48006000Y-33655000D02*
X47371000Y-33655000D01*
X47371000Y-33655000D02*
X45593000Y-31877000D01*
X45593000Y-25787000D02*
X45840000Y-25540000D01*
X45593000Y-31877000D02*
X45593000Y-25787000D01*
X40386000Y-83947000D02*
X39287498Y-82848498D01*
X39832001Y-80563999D02*
X40132000Y-80264000D01*
X39287498Y-81108502D02*
X39832001Y-80563999D01*
X39287498Y-82848498D02*
X39287498Y-81108502D01*
X44196000Y-79375000D02*
X41783000Y-79375000D01*
X46355000Y-72009000D02*
X46355000Y-60325000D01*
X46355000Y-60325000D02*
X46228000Y-60198000D01*
X46355000Y-58166000D02*
X46355000Y-55753000D01*
X47625000Y-53721000D02*
X45847000Y-51943000D01*
X45847000Y-51943000D02*
X45847000Y-40386000D01*
X45847000Y-40386000D02*
X49403000Y-36830000D01*
X52578000Y-33655000D02*
X52705000Y-33528000D01*
X52705000Y-33528000D02*
X52705000Y-31242000D01*
X52578000Y-27686000D02*
X52197000Y-28067000D01*
X52197000Y-28067000D02*
X52197000Y-28321000D01*
X52197000Y-28321000D02*
X49657000Y-30861000D01*
X49657000Y-26817000D02*
X48380000Y-25540000D01*
X49657000Y-30861000D02*
X49657000Y-26817000D01*
X48380000Y-23000000D02*
X48380000Y-23502000D01*
X48380000Y-23502000D02*
X47117000Y-24765000D01*
X47117000Y-24765000D02*
X47117000Y-29464000D01*
X47117000Y-29464000D02*
X48768000Y-31115000D01*
X48768000Y-31115000D02*
X48768000Y-33655000D01*
X46736000Y-36449000D02*
X44958000Y-38227000D01*
X44958000Y-38227000D02*
X44958000Y-51816000D01*
X44958000Y-51816000D02*
X44704000Y-52070000D01*
X45593000Y-59690000D02*
X45593000Y-73787000D01*
X45593000Y-73787000D02*
X42291000Y-77089000D01*
X42291000Y-77089000D02*
X40513000Y-77089000D01*
X40513000Y-77089000D02*
X40386000Y-76962000D01*
X40640000Y-78105000D02*
X42545000Y-78105000D01*
X42545000Y-78105000D02*
X42555000Y-78095000D01*
X57620000Y-90570000D02*
X57470000Y-90570000D01*
X56000000Y-88700000D02*
X55800000Y-88500000D01*
X55800000Y-88500000D02*
X55800000Y-86800000D01*
X57000000Y-82400000D02*
X58300000Y-81100000D01*
X58300000Y-81100000D02*
X58300000Y-80300000D01*
X58500000Y-70200000D02*
X58100000Y-69800000D01*
X58100000Y-69800000D02*
X58100000Y-67700000D01*
X57300000Y-57000000D02*
X56100000Y-55800000D01*
X56100000Y-55800000D02*
X56100000Y-55600000D01*
X50800000Y-33600000D02*
X51100000Y-33300000D01*
X51100000Y-33300000D02*
X51100000Y-31600000D01*
X59100000Y-26900000D02*
X55000000Y-31000000D01*
X68100000Y-26900000D02*
X59100000Y-26900000D01*
D21*
X44000000Y-31000000D02*
X44000000Y-30538000D01*
D22*
X77430000Y-90464000D02*
X76581000Y-91313000D01*
X77430000Y-46210000D02*
X77430000Y-90464000D01*
D20*
X53594000Y-87503000D02*
X53594000Y-88646000D01*
X44812000Y-108350000D02*
X42380000Y-108350000D01*
X45212000Y-107950000D02*
X44812000Y-108350000D01*
X42037000Y-32385000D02*
X42291000Y-32385000D01*
X42291000Y-32385000D02*
X44196000Y-34290000D01*
X44196000Y-35687000D02*
X44196000Y-36195000D01*
X44196000Y-36195000D02*
X43561000Y-36830000D01*
X43561000Y-36830000D02*
X43561000Y-49784000D01*
X43561000Y-49784000D02*
X43053000Y-50292000D01*
X42291000Y-51562000D02*
X42291000Y-51689000D01*
X42291000Y-51689000D02*
X41148000Y-52832000D01*
X40259000Y-53848000D02*
X40259000Y-66294000D01*
X40259000Y-66294000D02*
X42545000Y-68580000D01*
X44196000Y-68072000D02*
X44196000Y-69850000D01*
X44196000Y-69850000D02*
X45085000Y-70739000D01*
X52959000Y-76454000D02*
X56134000Y-79629000D01*
X56134000Y-79629000D02*
X58801000Y-79629000D01*
X55880000Y-105283000D02*
X55753000Y-105283000D01*
X55753000Y-105283000D02*
X52197000Y-108839000D01*
X53600000Y-101300000D02*
X53800000Y-101300000D01*
X53800000Y-101300000D02*
X55100000Y-100000000D01*
X55200000Y-88700000D02*
X55200000Y-87400000D01*
X57000000Y-81500000D02*
X57400000Y-81100000D01*
X57400000Y-81100000D02*
X57400000Y-80200000D01*
X58800000Y-69000000D02*
X58800000Y-67200000D01*
X62200000Y-49500000D02*
X62200000Y-48100000D01*
X57600000Y-31060000D02*
X57540000Y-31000000D01*
X57600000Y-33900000D02*
X57600000Y-31060000D01*
X54400000Y-110400000D02*
X54200000Y-110200000D01*
X54200000Y-110200000D02*
X53000000Y-110200000D01*
X50500000Y-103500000D02*
X49800000Y-102800000D01*
X49800000Y-102800000D02*
X49400000Y-102800000D01*
X51500000Y-88700000D02*
X51400000Y-88600000D01*
X51400000Y-88600000D02*
X51400000Y-62300000D01*
X51400000Y-62300000D02*
X52600000Y-61100000D01*
X53900000Y-59800000D02*
X51500000Y-57400000D01*
X51500000Y-57400000D02*
X51500000Y-54900000D01*
X47700000Y-54700000D02*
X45400000Y-52400000D01*
X45400000Y-52400000D02*
X45400000Y-40000000D01*
X45400000Y-40000000D02*
X49500000Y-35900000D01*
X51700000Y-33600000D02*
X51700000Y-31600000D01*
X51700000Y-31600000D02*
X51900000Y-31400000D01*
X51700000Y-26320000D02*
X50920000Y-25540000D01*
X51700000Y-27900000D02*
X51700000Y-26320000D01*
D22*
X24384000Y-33604000D02*
X22570000Y-31790000D01*
X24384000Y-41402000D02*
X24384000Y-33604000D01*
D20*
X51073000Y-93110000D02*
X48133000Y-90170000D01*
X57620000Y-93110000D02*
X51073000Y-93110000D01*
X42164000Y-82677000D02*
X40259000Y-82677000D01*
X40259000Y-82677000D02*
X39878000Y-82296000D01*
X29337000Y-79502000D02*
X28956000Y-79121000D01*
X35179000Y-79502000D02*
X29337000Y-79502000D01*
X24511000Y-76327000D02*
X23622000Y-76327000D01*
X25146000Y-75692000D02*
X24511000Y-76327000D01*
D23*
G36*
X52100932Y-110472729D02*
G01*
X52171414Y-110642889D01*
X52273738Y-110796028D01*
X52403972Y-110926262D01*
X52557111Y-111028586D01*
X52727271Y-111099068D01*
X52907911Y-111135000D01*
X53092089Y-111135000D01*
X53272729Y-111099068D01*
X53442889Y-111028586D01*
X53596028Y-110926262D01*
X53614667Y-110907623D01*
X53673738Y-110996028D01*
X53803972Y-111126262D01*
X53957111Y-111228586D01*
X54127271Y-111299068D01*
X54307911Y-111335000D01*
X54492089Y-111335000D01*
X54672729Y-111299068D01*
X54842889Y-111228586D01*
X54996028Y-111126262D01*
X55126262Y-110996028D01*
X55228586Y-110842889D01*
X55299068Y-110672729D01*
X55335000Y-110492089D01*
X55335000Y-110408000D01*
X56307549Y-110408000D01*
X56276686Y-110482510D01*
X56223000Y-110752408D01*
X56223000Y-111027592D01*
X56276686Y-111297490D01*
X56381995Y-111551727D01*
X56534880Y-111780535D01*
X56729465Y-111975120D01*
X56958273Y-112128005D01*
X57035515Y-112160000D01*
X56958273Y-112191995D01*
X56729465Y-112344880D01*
X56534880Y-112539465D01*
X56381995Y-112768273D01*
X56276686Y-113022510D01*
X56223000Y-113292408D01*
X56223000Y-113567592D01*
X56276686Y-113837490D01*
X56381995Y-114091727D01*
X56534880Y-114320535D01*
X56729465Y-114515120D01*
X56958273Y-114668005D01*
X57035515Y-114700000D01*
X56958273Y-114731995D01*
X56729465Y-114884880D01*
X56534880Y-115079465D01*
X56381995Y-115308273D01*
X56276686Y-115562510D01*
X56223000Y-115832408D01*
X56223000Y-116107592D01*
X56276686Y-116377490D01*
X56381995Y-116631727D01*
X56534880Y-116860535D01*
X56729465Y-117055120D01*
X56958273Y-117208005D01*
X57029943Y-117237692D01*
X57016977Y-117242364D01*
X56901020Y-117304344D01*
X56834040Y-117544435D01*
X57620000Y-118330395D01*
X58405960Y-117544435D01*
X58338980Y-117304344D01*
X58203240Y-117240515D01*
X58281727Y-117208005D01*
X58510535Y-117055120D01*
X58705120Y-116860535D01*
X58858005Y-116631727D01*
X58963314Y-116377490D01*
X59017000Y-116107592D01*
X59017000Y-115832408D01*
X58963314Y-115562510D01*
X58858005Y-115308273D01*
X58705120Y-115079465D01*
X58510535Y-114884880D01*
X58281727Y-114731995D01*
X58204485Y-114700000D01*
X58281727Y-114668005D01*
X58510535Y-114515120D01*
X58705120Y-114320535D01*
X58858005Y-114091727D01*
X58963314Y-113837490D01*
X59017000Y-113567592D01*
X59017000Y-113292408D01*
X58963314Y-113022510D01*
X58858005Y-112768273D01*
X58705120Y-112539465D01*
X58510535Y-112344880D01*
X58281727Y-112191995D01*
X58204485Y-112160000D01*
X58281727Y-112128005D01*
X58510535Y-111975120D01*
X58705120Y-111780535D01*
X58858005Y-111551727D01*
X58963314Y-111297490D01*
X59017000Y-111027592D01*
X59017000Y-110752408D01*
X58963314Y-110482510D01*
X58932451Y-110408000D01*
X59873000Y-110408000D01*
X59873000Y-119340000D01*
X58629608Y-119340000D01*
X58585567Y-119295959D01*
X58825656Y-119228980D01*
X58942756Y-118979952D01*
X59009023Y-118712865D01*
X59021910Y-118437983D01*
X58980922Y-118165867D01*
X58887636Y-117906977D01*
X58825656Y-117791020D01*
X58585565Y-117724040D01*
X57799605Y-118510000D01*
X57813748Y-118524143D01*
X57634143Y-118703748D01*
X57620000Y-118689605D01*
X57605858Y-118703748D01*
X57426253Y-118524143D01*
X57440395Y-118510000D01*
X56654435Y-117724040D01*
X56414344Y-117791020D01*
X56297244Y-118040048D01*
X56230977Y-118307135D01*
X56218090Y-118582017D01*
X56259078Y-118854133D01*
X56352364Y-119113023D01*
X56414344Y-119228980D01*
X56654433Y-119295959D01*
X56610392Y-119340000D01*
X43505568Y-119340000D01*
X43618005Y-119171727D01*
X43723314Y-118917490D01*
X43777000Y-118647592D01*
X43777000Y-118372408D01*
X43746372Y-118218429D01*
X51556802Y-110408000D01*
X52088056Y-110408000D01*
X52100932Y-110472729D01*
X52100932Y-110472729D01*
G37*
X52100932Y-110472729D02*
X52171414Y-110642889D01*
X52273738Y-110796028D01*
X52403972Y-110926262D01*
X52557111Y-111028586D01*
X52727271Y-111099068D01*
X52907911Y-111135000D01*
X53092089Y-111135000D01*
X53272729Y-111099068D01*
X53442889Y-111028586D01*
X53596028Y-110926262D01*
X53614667Y-110907623D01*
X53673738Y-110996028D01*
X53803972Y-111126262D01*
X53957111Y-111228586D01*
X54127271Y-111299068D01*
X54307911Y-111335000D01*
X54492089Y-111335000D01*
X54672729Y-111299068D01*
X54842889Y-111228586D01*
X54996028Y-111126262D01*
X55126262Y-110996028D01*
X55228586Y-110842889D01*
X55299068Y-110672729D01*
X55335000Y-110492089D01*
X55335000Y-110408000D01*
X56307549Y-110408000D01*
X56276686Y-110482510D01*
X56223000Y-110752408D01*
X56223000Y-111027592D01*
X56276686Y-111297490D01*
X56381995Y-111551727D01*
X56534880Y-111780535D01*
X56729465Y-111975120D01*
X56958273Y-112128005D01*
X57035515Y-112160000D01*
X56958273Y-112191995D01*
X56729465Y-112344880D01*
X56534880Y-112539465D01*
X56381995Y-112768273D01*
X56276686Y-113022510D01*
X56223000Y-113292408D01*
X56223000Y-113567592D01*
X56276686Y-113837490D01*
X56381995Y-114091727D01*
X56534880Y-114320535D01*
X56729465Y-114515120D01*
X56958273Y-114668005D01*
X57035515Y-114700000D01*
X56958273Y-114731995D01*
X56729465Y-114884880D01*
X56534880Y-115079465D01*
X56381995Y-115308273D01*
X56276686Y-115562510D01*
X56223000Y-115832408D01*
X56223000Y-116107592D01*
X56276686Y-116377490D01*
X56381995Y-116631727D01*
X56534880Y-116860535D01*
X56729465Y-117055120D01*
X56958273Y-117208005D01*
X57029943Y-117237692D01*
X57016977Y-117242364D01*
X56901020Y-117304344D01*
X56834040Y-117544435D01*
X57620000Y-118330395D01*
X58405960Y-117544435D01*
X58338980Y-117304344D01*
X58203240Y-117240515D01*
X58281727Y-117208005D01*
X58510535Y-117055120D01*
X58705120Y-116860535D01*
X58858005Y-116631727D01*
X58963314Y-116377490D01*
X59017000Y-116107592D01*
X59017000Y-115832408D01*
X58963314Y-115562510D01*
X58858005Y-115308273D01*
X58705120Y-115079465D01*
X58510535Y-114884880D01*
X58281727Y-114731995D01*
X58204485Y-114700000D01*
X58281727Y-114668005D01*
X58510535Y-114515120D01*
X58705120Y-114320535D01*
X58858005Y-114091727D01*
X58963314Y-113837490D01*
X59017000Y-113567592D01*
X59017000Y-113292408D01*
X58963314Y-113022510D01*
X58858005Y-112768273D01*
X58705120Y-112539465D01*
X58510535Y-112344880D01*
X58281727Y-112191995D01*
X58204485Y-112160000D01*
X58281727Y-112128005D01*
X58510535Y-111975120D01*
X58705120Y-111780535D01*
X58858005Y-111551727D01*
X58963314Y-111297490D01*
X59017000Y-111027592D01*
X59017000Y-110752408D01*
X58963314Y-110482510D01*
X58932451Y-110408000D01*
X59873000Y-110408000D01*
X59873000Y-119340000D01*
X58629608Y-119340000D01*
X58585567Y-119295959D01*
X58825656Y-119228980D01*
X58942756Y-118979952D01*
X59009023Y-118712865D01*
X59021910Y-118437983D01*
X58980922Y-118165867D01*
X58887636Y-117906977D01*
X58825656Y-117791020D01*
X58585565Y-117724040D01*
X57799605Y-118510000D01*
X57813748Y-118524143D01*
X57634143Y-118703748D01*
X57620000Y-118689605D01*
X57605858Y-118703748D01*
X57426253Y-118524143D01*
X57440395Y-118510000D01*
X56654435Y-117724040D01*
X56414344Y-117791020D01*
X56297244Y-118040048D01*
X56230977Y-118307135D01*
X56218090Y-118582017D01*
X56259078Y-118854133D01*
X56352364Y-119113023D01*
X56414344Y-119228980D01*
X56654433Y-119295959D01*
X56610392Y-119340000D01*
X43505568Y-119340000D01*
X43618005Y-119171727D01*
X43723314Y-118917490D01*
X43777000Y-118647592D01*
X43777000Y-118372408D01*
X43746372Y-118218429D01*
X51556802Y-110408000D01*
X52088056Y-110408000D01*
X52100932Y-110472729D01*
G36*
X78259659Y-20688625D02*
G01*
X78509429Y-20764035D01*
X78739792Y-20886522D01*
X78941980Y-21051422D01*
X79108286Y-21252450D01*
X79232378Y-21481954D01*
X79309531Y-21731195D01*
X79340001Y-22021098D01*
X79340001Y-36562645D01*
X78485750Y-36565000D01*
X78327000Y-36723750D01*
X78327000Y-38873000D01*
X78347000Y-38873000D01*
X78347000Y-39127000D01*
X78327000Y-39127000D01*
X78327000Y-41276250D01*
X78485750Y-41435000D01*
X79340001Y-41437355D01*
X79340001Y-44750240D01*
X79312555Y-44659762D01*
X79241983Y-44527733D01*
X79206840Y-44484911D01*
X79170808Y-44441005D01*
X79170804Y-44441001D01*
X79147010Y-44412008D01*
X79118018Y-44388215D01*
X78632000Y-43902198D01*
X78632000Y-43840061D01*
X78592226Y-43640102D01*
X78514205Y-43451744D01*
X78400937Y-43282226D01*
X78256774Y-43138063D01*
X78087256Y-43024795D01*
X77898898Y-42946774D01*
X77698939Y-42907000D01*
X77495061Y-42907000D01*
X77295102Y-42946774D01*
X77106744Y-43024795D01*
X76937226Y-43138063D01*
X76793063Y-43282226D01*
X76679795Y-43451744D01*
X76601774Y-43640102D01*
X76562000Y-43840061D01*
X76562000Y-44043939D01*
X76601774Y-44243898D01*
X76679795Y-44432256D01*
X76793063Y-44601774D01*
X76937226Y-44745937D01*
X76950920Y-44755087D01*
X76706457Y-44856347D01*
X76456275Y-45023513D01*
X76243513Y-45236275D01*
X76165407Y-45353168D01*
X76042252Y-45230013D01*
X75774463Y-45051082D01*
X75476912Y-44927832D01*
X75161033Y-44865000D01*
X74838967Y-44865000D01*
X74523088Y-44927832D01*
X74225537Y-45051082D01*
X73957748Y-45230013D01*
X73730013Y-45457748D01*
X73665075Y-45554935D01*
X73635413Y-45544192D01*
X72679605Y-46500000D01*
X73635413Y-47455808D01*
X73665075Y-47445065D01*
X73730013Y-47542252D01*
X73957748Y-47769987D01*
X74225537Y-47948918D01*
X74523088Y-48072168D01*
X74838967Y-48135000D01*
X75161033Y-48135000D01*
X75476912Y-48072168D01*
X75774463Y-47948918D01*
X76042252Y-47769987D01*
X76269987Y-47542252D01*
X76402989Y-47343201D01*
X76456275Y-47396487D01*
X76545000Y-47455771D01*
X76545001Y-88873000D01*
X60298500Y-88873000D01*
X60298500Y-84797496D01*
X61004175Y-84091822D01*
X61030815Y-84069959D01*
X61052680Y-84043317D01*
X61052687Y-84043310D01*
X61118104Y-83963600D01*
X61182964Y-83842255D01*
X61182965Y-83842252D01*
X61222906Y-83710586D01*
X61233013Y-83607965D01*
X61233013Y-83607954D01*
X61236391Y-83573656D01*
X61233013Y-83539358D01*
X61233013Y-82830642D01*
X61236391Y-82796344D01*
X61233013Y-82762046D01*
X61233013Y-82762035D01*
X61222906Y-82659414D01*
X61182965Y-82527747D01*
X61182964Y-82527745D01*
X61118104Y-82406400D01*
X61052687Y-82326690D01*
X61052684Y-82326687D01*
X61030816Y-82300041D01*
X61004170Y-82278173D01*
X60298500Y-81572504D01*
X60298500Y-64589327D01*
X68552828Y-56335000D01*
X68592089Y-56335000D01*
X68772729Y-56299068D01*
X68942889Y-56228586D01*
X69096028Y-56126262D01*
X69226262Y-55996028D01*
X69328586Y-55842889D01*
X69399068Y-55672729D01*
X69435000Y-55492089D01*
X69435000Y-55307911D01*
X69433128Y-55298500D01*
X73276210Y-55298500D01*
X73303972Y-55326262D01*
X73457111Y-55428586D01*
X73627271Y-55499068D01*
X73807911Y-55535000D01*
X73992089Y-55535000D01*
X74172729Y-55499068D01*
X74342889Y-55428586D01*
X74496028Y-55326262D01*
X74626262Y-55196028D01*
X74728586Y-55042889D01*
X74799068Y-54872729D01*
X74835000Y-54692089D01*
X74835000Y-54507911D01*
X74799068Y-54327271D01*
X74728586Y-54157111D01*
X74626262Y-54003972D01*
X74496028Y-53873738D01*
X74342889Y-53771414D01*
X74172729Y-53700932D01*
X73992089Y-53665000D01*
X73807911Y-53665000D01*
X73627271Y-53700932D01*
X73457111Y-53771414D01*
X73303972Y-53873738D01*
X73276210Y-53901500D01*
X68434297Y-53901500D01*
X68399999Y-53898122D01*
X68365701Y-53901500D01*
X68365691Y-53901500D01*
X68263070Y-53911607D01*
X68131403Y-53951548D01*
X68131401Y-53951549D01*
X68010056Y-54016409D01*
X67930345Y-54081827D01*
X67903697Y-54103697D01*
X67881829Y-54130343D01*
X58830344Y-63181829D01*
X58803698Y-63203697D01*
X58781830Y-63230343D01*
X58781826Y-63230347D01*
X58716409Y-63310057D01*
X58651549Y-63431402D01*
X58651549Y-63431403D01*
X58611608Y-63563070D01*
X58602894Y-63651548D01*
X58598122Y-63700000D01*
X58601501Y-63734308D01*
X58601501Y-66286167D01*
X58527271Y-66300932D01*
X58357111Y-66371414D01*
X58203972Y-66473738D01*
X58073738Y-66603972D01*
X57971414Y-66757111D01*
X57964576Y-66773620D01*
X57827271Y-66800932D01*
X57657111Y-66871414D01*
X57503972Y-66973738D01*
X57373738Y-67103972D01*
X57271414Y-67257111D01*
X57200932Y-67427271D01*
X57165000Y-67607911D01*
X57165000Y-67792089D01*
X57200932Y-67972729D01*
X57271414Y-68142889D01*
X57373738Y-68296028D01*
X57401501Y-68323791D01*
X57401500Y-69765701D01*
X57398122Y-69800000D01*
X57401500Y-69834298D01*
X57401500Y-69834308D01*
X57411607Y-69936929D01*
X57451447Y-70068262D01*
X57451549Y-70068598D01*
X57516409Y-70189943D01*
X57565000Y-70249151D01*
X57565000Y-70292089D01*
X57600932Y-70472729D01*
X57671414Y-70642889D01*
X57773738Y-70796028D01*
X57903972Y-70926262D01*
X58057111Y-71028586D01*
X58227271Y-71099068D01*
X58407911Y-71135000D01*
X58592089Y-71135000D01*
X58601501Y-71133128D01*
X58601500Y-78715366D01*
X58528271Y-78729932D01*
X58358111Y-78800414D01*
X58204972Y-78902738D01*
X58177210Y-78930500D01*
X56423329Y-78930500D01*
X53894000Y-76401173D01*
X53894000Y-76361911D01*
X53858068Y-76181271D01*
X53787586Y-76011111D01*
X53685262Y-75857972D01*
X53555028Y-75727738D01*
X53401889Y-75625414D01*
X53231729Y-75554932D01*
X53051089Y-75519000D01*
X52866911Y-75519000D01*
X52686271Y-75554932D01*
X52516111Y-75625414D01*
X52362972Y-75727738D01*
X52232738Y-75857972D01*
X52130414Y-76011111D01*
X52098500Y-76088159D01*
X52098500Y-62589327D01*
X52652828Y-62035000D01*
X52692089Y-62035000D01*
X52872729Y-61999068D01*
X53042889Y-61928586D01*
X53196028Y-61826262D01*
X53326262Y-61696028D01*
X53428586Y-61542889D01*
X53499068Y-61372729D01*
X53535000Y-61192089D01*
X53535000Y-61007911D01*
X53499068Y-60827271D01*
X53428586Y-60657111D01*
X53371146Y-60571146D01*
X53457111Y-60628586D01*
X53627271Y-60699068D01*
X53807911Y-60735000D01*
X53992089Y-60735000D01*
X54172729Y-60699068D01*
X54342889Y-60628586D01*
X54496028Y-60526262D01*
X54626262Y-60396028D01*
X54728586Y-60242889D01*
X54799068Y-60072729D01*
X54835000Y-59892089D01*
X54835000Y-59707911D01*
X54799068Y-59527271D01*
X54728586Y-59357111D01*
X54626262Y-59203972D01*
X54496028Y-59073738D01*
X54342889Y-58971414D01*
X54172729Y-58900932D01*
X53992089Y-58865000D01*
X53952828Y-58865000D01*
X52198500Y-57110673D01*
X52198500Y-55523790D01*
X52214379Y-55507911D01*
X55165000Y-55507911D01*
X55165000Y-55692089D01*
X55200932Y-55872729D01*
X55271414Y-56042889D01*
X55373738Y-56196028D01*
X55503972Y-56326262D01*
X55657111Y-56428586D01*
X55799906Y-56487733D01*
X56365000Y-57052828D01*
X56365000Y-57092089D01*
X56400932Y-57272729D01*
X56471414Y-57442889D01*
X56573738Y-57596028D01*
X56703972Y-57726262D01*
X56857111Y-57828586D01*
X57027271Y-57899068D01*
X57207911Y-57935000D01*
X57392089Y-57935000D01*
X57572729Y-57899068D01*
X57742889Y-57828586D01*
X57896028Y-57726262D01*
X58026262Y-57596028D01*
X58128586Y-57442889D01*
X58199068Y-57272729D01*
X58235000Y-57092089D01*
X58235000Y-56907911D01*
X58199068Y-56727271D01*
X58128586Y-56557111D01*
X58026262Y-56403972D01*
X57896028Y-56273738D01*
X57742889Y-56171414D01*
X57572729Y-56100932D01*
X57392089Y-56065000D01*
X57352828Y-56065000D01*
X57025861Y-55738033D01*
X57035000Y-55692089D01*
X57035000Y-55507911D01*
X56999068Y-55327271D01*
X56928586Y-55157111D01*
X56826262Y-55003972D01*
X56696028Y-54873738D01*
X56542889Y-54771414D01*
X56372729Y-54700932D01*
X56192089Y-54665000D01*
X56007911Y-54665000D01*
X55827271Y-54700932D01*
X55657111Y-54771414D01*
X55503972Y-54873738D01*
X55373738Y-55003972D01*
X55271414Y-55157111D01*
X55200932Y-55327271D01*
X55165000Y-55507911D01*
X52214379Y-55507911D01*
X52226262Y-55496028D01*
X52328586Y-55342889D01*
X52399068Y-55172729D01*
X52435000Y-54992089D01*
X52435000Y-54807911D01*
X52399068Y-54627271D01*
X52328586Y-54457111D01*
X52226262Y-54303972D01*
X52096028Y-54173738D01*
X51942889Y-54071414D01*
X51772729Y-54000932D01*
X51698500Y-53986167D01*
X51698500Y-51023790D01*
X51726262Y-50996028D01*
X51828586Y-50842889D01*
X51899068Y-50672729D01*
X51935000Y-50492089D01*
X51935000Y-50307911D01*
X51899068Y-50127271D01*
X51828586Y-49957111D01*
X51726262Y-49803972D01*
X51596028Y-49673738D01*
X51442889Y-49571414D01*
X51272729Y-49500932D01*
X51092089Y-49465000D01*
X50960000Y-49465000D01*
X50960000Y-49345535D01*
X51028586Y-49242889D01*
X51080564Y-49117401D01*
X51172729Y-49099068D01*
X51342889Y-49028586D01*
X51387916Y-48998500D01*
X60965702Y-48998500D01*
X61000000Y-49001878D01*
X61034298Y-48998500D01*
X61034309Y-48998500D01*
X61136930Y-48988393D01*
X61268597Y-48948452D01*
X61389943Y-48883591D01*
X61496303Y-48796303D01*
X61501501Y-48789970D01*
X61501500Y-48876210D01*
X61473738Y-48903972D01*
X61371414Y-49057111D01*
X61300932Y-49227271D01*
X61265000Y-49407911D01*
X61265000Y-49592089D01*
X61300932Y-49772729D01*
X61371414Y-49942889D01*
X61473738Y-50096028D01*
X61603972Y-50226262D01*
X61757111Y-50328586D01*
X61927271Y-50399068D01*
X62107911Y-50435000D01*
X62292089Y-50435000D01*
X62472729Y-50399068D01*
X62642889Y-50328586D01*
X62796028Y-50226262D01*
X62926262Y-50096028D01*
X63028586Y-49942889D01*
X63099068Y-49772729D01*
X63135000Y-49592089D01*
X63135000Y-49407911D01*
X63099068Y-49227271D01*
X63028586Y-49057111D01*
X62926262Y-48903972D01*
X62898500Y-48876210D01*
X62898500Y-48723790D01*
X62926262Y-48696028D01*
X63028586Y-48542889D01*
X63099068Y-48372729D01*
X63135000Y-48192089D01*
X63135000Y-48007911D01*
X63099068Y-47827271D01*
X63028586Y-47657111D01*
X62926262Y-47503972D01*
X62796028Y-47373738D01*
X62700877Y-47310160D01*
X62701878Y-47300000D01*
X62698500Y-47265702D01*
X62698500Y-46338967D01*
X68365000Y-46338967D01*
X68365000Y-46661033D01*
X68427832Y-46976912D01*
X68551082Y-47274463D01*
X68730013Y-47542252D01*
X68957748Y-47769987D01*
X69225537Y-47948918D01*
X69523088Y-48072168D01*
X69838967Y-48135000D01*
X70161033Y-48135000D01*
X70476912Y-48072168D01*
X70774463Y-47948918D01*
X71042252Y-47769987D01*
X71176826Y-47635413D01*
X71544192Y-47635413D01*
X71639956Y-47899814D01*
X71929571Y-48040704D01*
X72241108Y-48122384D01*
X72562595Y-48141718D01*
X72881675Y-48097961D01*
X73186088Y-47992795D01*
X73360044Y-47899814D01*
X73455808Y-47635413D01*
X72500000Y-46679605D01*
X71544192Y-47635413D01*
X71176826Y-47635413D01*
X71269987Y-47542252D01*
X71334925Y-47445065D01*
X71364587Y-47455808D01*
X72320395Y-46500000D01*
X71364587Y-45544192D01*
X71334925Y-45554935D01*
X71269987Y-45457748D01*
X71176826Y-45364587D01*
X71544192Y-45364587D01*
X72500000Y-46320395D01*
X73455808Y-45364587D01*
X73360044Y-45100186D01*
X73070429Y-44959296D01*
X72758892Y-44877616D01*
X72437405Y-44858282D01*
X72118325Y-44902039D01*
X71813912Y-45007205D01*
X71639956Y-45100186D01*
X71544192Y-45364587D01*
X71176826Y-45364587D01*
X71042252Y-45230013D01*
X70774463Y-45051082D01*
X70476912Y-44927832D01*
X70161033Y-44865000D01*
X69838967Y-44865000D01*
X69523088Y-44927832D01*
X69225537Y-45051082D01*
X68957748Y-45230013D01*
X68730013Y-45457748D01*
X68551082Y-45725537D01*
X68427832Y-46023088D01*
X68365000Y-46338967D01*
X62698500Y-46338967D01*
X62698500Y-40800000D01*
X64761928Y-40800000D01*
X64774188Y-40924482D01*
X64810498Y-41044180D01*
X64869463Y-41154494D01*
X64948815Y-41251185D01*
X65045506Y-41330537D01*
X65155820Y-41389502D01*
X65275518Y-41425812D01*
X65400000Y-41438072D01*
X66514250Y-41435000D01*
X66673000Y-41276250D01*
X66673000Y-39127000D01*
X66927000Y-39127000D01*
X66927000Y-41276250D01*
X67085750Y-41435000D01*
X68200000Y-41438072D01*
X68324482Y-41425812D01*
X68444180Y-41389502D01*
X68554494Y-41330537D01*
X68651185Y-41251185D01*
X68730537Y-41154494D01*
X68789502Y-41044180D01*
X68825812Y-40924482D01*
X68838072Y-40800000D01*
X68835000Y-39285750D01*
X68676250Y-39127000D01*
X66927000Y-39127000D01*
X66673000Y-39127000D01*
X64923750Y-39127000D01*
X64765000Y-39285750D01*
X64761928Y-40800000D01*
X62698500Y-40800000D01*
X62698500Y-38589327D01*
X64087827Y-37200000D01*
X64761928Y-37200000D01*
X64765000Y-38714250D01*
X64923750Y-38873000D01*
X66673000Y-38873000D01*
X66673000Y-36723750D01*
X66927000Y-36723750D01*
X66927000Y-38873000D01*
X68676250Y-38873000D01*
X68835000Y-38714250D01*
X68838072Y-37200000D01*
X68825812Y-37075518D01*
X68789502Y-36955820D01*
X68730537Y-36845506D01*
X68651185Y-36748815D01*
X68554494Y-36669463D01*
X68444180Y-36610498D01*
X68324482Y-36574188D01*
X68200000Y-36561928D01*
X67085750Y-36565000D01*
X66927000Y-36723750D01*
X66673000Y-36723750D01*
X66514250Y-36565000D01*
X65400000Y-36561928D01*
X65275518Y-36574188D01*
X65155820Y-36610498D01*
X65045506Y-36669463D01*
X64948815Y-36748815D01*
X64869463Y-36845506D01*
X64810498Y-36955820D01*
X64774188Y-37075518D01*
X64761928Y-37200000D01*
X64087827Y-37200000D01*
X68752828Y-32535000D01*
X68792089Y-32535000D01*
X68972729Y-32499068D01*
X69142889Y-32428586D01*
X69296028Y-32326262D01*
X69426262Y-32196028D01*
X69528586Y-32042889D01*
X69599068Y-31872729D01*
X69635000Y-31692089D01*
X69635000Y-31507911D01*
X69599068Y-31327271D01*
X69528586Y-31157111D01*
X69426262Y-31003972D01*
X69296028Y-30873738D01*
X69142889Y-30771414D01*
X69124168Y-30763660D01*
X71152828Y-28735000D01*
X71192089Y-28735000D01*
X71372729Y-28699068D01*
X71542889Y-28628586D01*
X71696028Y-28526262D01*
X71826262Y-28396028D01*
X71928586Y-28242889D01*
X71999068Y-28072729D01*
X72035000Y-27892089D01*
X72035000Y-27707911D01*
X71999068Y-27527271D01*
X71928586Y-27357111D01*
X71826262Y-27203972D01*
X71696028Y-27073738D01*
X71542889Y-26971414D01*
X71372729Y-26900932D01*
X71192089Y-26865000D01*
X71007911Y-26865000D01*
X70827271Y-26900932D01*
X70657111Y-26971414D01*
X70503972Y-27073738D01*
X70373738Y-27203972D01*
X70271414Y-27357111D01*
X70200932Y-27527271D01*
X70165000Y-27707911D01*
X70165000Y-27747172D01*
X60630344Y-37281829D01*
X60603698Y-37303697D01*
X60581830Y-37330343D01*
X60581826Y-37330347D01*
X60516409Y-37410057D01*
X60451549Y-37531402D01*
X60444008Y-37556262D01*
X60414930Y-37652121D01*
X60411608Y-37663071D01*
X60398122Y-37800000D01*
X60401501Y-37834308D01*
X60401500Y-45610672D01*
X60110673Y-45901500D01*
X51891428Y-45901500D01*
X51826262Y-45803972D01*
X51696028Y-45673738D01*
X51542889Y-45571414D01*
X51372729Y-45500932D01*
X51192089Y-45465000D01*
X51007911Y-45465000D01*
X50960000Y-45474530D01*
X50960000Y-35137332D01*
X50963677Y-35100000D01*
X50960000Y-35062667D01*
X50960000Y-34521491D01*
X51072729Y-34499068D01*
X51242889Y-34428586D01*
X51250000Y-34423835D01*
X51257111Y-34428586D01*
X51427271Y-34499068D01*
X51607911Y-34535000D01*
X51792089Y-34535000D01*
X51972729Y-34499068D01*
X52087274Y-34451622D01*
X52135111Y-34483586D01*
X52305271Y-34554068D01*
X52485911Y-34590000D01*
X52670089Y-34590000D01*
X52850729Y-34554068D01*
X53020889Y-34483586D01*
X53174028Y-34381262D01*
X53304262Y-34251028D01*
X53406586Y-34097889D01*
X53477068Y-33927729D01*
X53513000Y-33747089D01*
X53513000Y-33562911D01*
X53477068Y-33382271D01*
X53406586Y-33212111D01*
X53403500Y-33207492D01*
X53403500Y-31865790D01*
X53431262Y-31838028D01*
X53533586Y-31684889D01*
X53604068Y-31514729D01*
X53640000Y-31334089D01*
X53640000Y-31149911D01*
X53604068Y-30969271D01*
X53562334Y-30868514D01*
X53665000Y-30868514D01*
X53665000Y-31131486D01*
X53716304Y-31389405D01*
X53816939Y-31632359D01*
X53963038Y-31851013D01*
X54148987Y-32036962D01*
X54367641Y-32183061D01*
X54610595Y-32283696D01*
X54868514Y-32335000D01*
X55131486Y-32335000D01*
X55389405Y-32283696D01*
X55632359Y-32183061D01*
X55851013Y-32036962D01*
X56036962Y-31851013D01*
X56183061Y-31632359D01*
X56270000Y-31422470D01*
X56356939Y-31632359D01*
X56503038Y-31851013D01*
X56688987Y-32036962D01*
X56901501Y-32178958D01*
X56901500Y-33276210D01*
X56873738Y-33303972D01*
X56771414Y-33457111D01*
X56700932Y-33627271D01*
X56665000Y-33807911D01*
X56665000Y-33992089D01*
X56700932Y-34172729D01*
X56771414Y-34342889D01*
X56873738Y-34496028D01*
X57003972Y-34626262D01*
X57157111Y-34728586D01*
X57327271Y-34799068D01*
X57507911Y-34835000D01*
X57692089Y-34835000D01*
X57872729Y-34799068D01*
X58042889Y-34728586D01*
X58196028Y-34626262D01*
X58326262Y-34496028D01*
X58428586Y-34342889D01*
X58499068Y-34172729D01*
X58535000Y-33992089D01*
X58535000Y-33807911D01*
X58499068Y-33627271D01*
X58428586Y-33457111D01*
X58326262Y-33303972D01*
X58298500Y-33276210D01*
X58298500Y-32098777D01*
X58391013Y-32036962D01*
X58576962Y-31851013D01*
X58723061Y-31632359D01*
X58823696Y-31389405D01*
X58875000Y-31131486D01*
X58875000Y-30868514D01*
X58823696Y-30610595D01*
X58723061Y-30367641D01*
X58576962Y-30148987D01*
X58391013Y-29963038D01*
X58172359Y-29816939D01*
X57929405Y-29716304D01*
X57671486Y-29665000D01*
X57408514Y-29665000D01*
X57301551Y-29686277D01*
X59389328Y-27598500D01*
X67476210Y-27598500D01*
X67503972Y-27626262D01*
X67657111Y-27728586D01*
X67827271Y-27799068D01*
X68007911Y-27835000D01*
X68192089Y-27835000D01*
X68372729Y-27799068D01*
X68542889Y-27728586D01*
X68696028Y-27626262D01*
X68826262Y-27496028D01*
X68928586Y-27342889D01*
X68999068Y-27172729D01*
X69035000Y-26992089D01*
X69035000Y-26807911D01*
X69001037Y-26637172D01*
X69151013Y-26536962D01*
X69336962Y-26351013D01*
X69483061Y-26132359D01*
X69583696Y-25889405D01*
X69635000Y-25631486D01*
X69635000Y-25368514D01*
X73965000Y-25368514D01*
X73965000Y-25631486D01*
X74016304Y-25889405D01*
X74116939Y-26132359D01*
X74263038Y-26351013D01*
X74448987Y-26536962D01*
X74667641Y-26683061D01*
X74910595Y-26783696D01*
X74911000Y-26783777D01*
X74911000Y-26924113D01*
X74950774Y-27124072D01*
X75028795Y-27312430D01*
X75142063Y-27481948D01*
X75186001Y-27525886D01*
X75186000Y-39301289D01*
X75142063Y-39345226D01*
X75028795Y-39514744D01*
X74950774Y-39703102D01*
X74911000Y-39903061D01*
X74911000Y-40106939D01*
X74950774Y-40306898D01*
X75028795Y-40495256D01*
X75142063Y-40664774D01*
X75286226Y-40808937D01*
X75455744Y-40922205D01*
X75644102Y-41000226D01*
X75844061Y-41040000D01*
X76047939Y-41040000D01*
X76200052Y-41009743D01*
X76210498Y-41044180D01*
X76269463Y-41154494D01*
X76348815Y-41251185D01*
X76445506Y-41330537D01*
X76555820Y-41389502D01*
X76675518Y-41425812D01*
X76800000Y-41438072D01*
X77914250Y-41435000D01*
X78073000Y-41276250D01*
X78073000Y-39127000D01*
X78053000Y-39127000D01*
X78053000Y-38873000D01*
X78073000Y-38873000D01*
X78073000Y-36723750D01*
X77914250Y-36565000D01*
X76800000Y-36561928D01*
X76706000Y-36571186D01*
X76706000Y-33136852D01*
X76904941Y-33232291D01*
X77196407Y-33307012D01*
X77496849Y-33323435D01*
X77794723Y-33280929D01*
X78078580Y-33181127D01*
X78226348Y-33102144D01*
X78309123Y-32848728D01*
X77430000Y-31969605D01*
X77415858Y-31983748D01*
X77236253Y-31804143D01*
X77250395Y-31790000D01*
X77609605Y-31790000D01*
X78488728Y-32669123D01*
X78742144Y-32586348D01*
X78872291Y-32315059D01*
X78947012Y-32023593D01*
X78963435Y-31723151D01*
X78920929Y-31425277D01*
X78821127Y-31141420D01*
X78742144Y-30993652D01*
X78488728Y-30910877D01*
X77609605Y-31790000D01*
X77250395Y-31790000D01*
X77236253Y-31775858D01*
X77415858Y-31596253D01*
X77430000Y-31610395D01*
X78309123Y-30731272D01*
X78226348Y-30477856D01*
X77955059Y-30347709D01*
X77663593Y-30272988D01*
X77363151Y-30256565D01*
X77065277Y-30299071D01*
X76781420Y-30398873D01*
X76706000Y-30439186D01*
X76706000Y-27525885D01*
X76749937Y-27481948D01*
X76863205Y-27312430D01*
X76941226Y-27124072D01*
X76981000Y-26924113D01*
X76981000Y-26720235D01*
X76941226Y-26520276D01*
X76863205Y-26331918D01*
X76749937Y-26162400D01*
X76605774Y-26018237D01*
X76546686Y-25978756D01*
X76583696Y-25889405D01*
X76635000Y-25631486D01*
X76635000Y-25368514D01*
X76583696Y-25110595D01*
X76483061Y-24867641D01*
X76336962Y-24648987D01*
X76151013Y-24463038D01*
X75932359Y-24316939D01*
X75689405Y-24216304D01*
X75431486Y-24165000D01*
X75168514Y-24165000D01*
X74910595Y-24216304D01*
X74667641Y-24316939D01*
X74448987Y-24463038D01*
X74263038Y-24648987D01*
X74116939Y-24867641D01*
X74016304Y-25110595D01*
X73965000Y-25368514D01*
X69635000Y-25368514D01*
X69583696Y-25110595D01*
X69483061Y-24867641D01*
X69336962Y-24648987D01*
X69151013Y-24463038D01*
X68932359Y-24316939D01*
X68689405Y-24216304D01*
X68431486Y-24165000D01*
X68168514Y-24165000D01*
X67910595Y-24216304D01*
X67667641Y-24316939D01*
X67448987Y-24463038D01*
X67263038Y-24648987D01*
X67116939Y-24867641D01*
X67016304Y-25110595D01*
X66965000Y-25368514D01*
X66965000Y-25631486D01*
X67016304Y-25889405D01*
X67116939Y-26132359D01*
X67163137Y-26201500D01*
X59134298Y-26201500D01*
X59100000Y-26198122D01*
X59065702Y-26201500D01*
X59065691Y-26201500D01*
X58963070Y-26211607D01*
X58831403Y-26251548D01*
X58761330Y-26289003D01*
X58710057Y-26316409D01*
X58630346Y-26381826D01*
X58630343Y-26381829D01*
X58603697Y-26403697D01*
X58581829Y-26430343D01*
X55311388Y-29700785D01*
X55131486Y-29665000D01*
X54868514Y-29665000D01*
X54610595Y-29716304D01*
X54367641Y-29816939D01*
X54148987Y-29963038D01*
X53963038Y-30148987D01*
X53816939Y-30367641D01*
X53716304Y-30610595D01*
X53665000Y-30868514D01*
X53562334Y-30868514D01*
X53533586Y-30799111D01*
X53431262Y-30645972D01*
X53301028Y-30515738D01*
X53147889Y-30413414D01*
X52977729Y-30342932D01*
X52797089Y-30307000D01*
X52612911Y-30307000D01*
X52432271Y-30342932D01*
X52262111Y-30413414D01*
X52140674Y-30494556D01*
X52090271Y-30484530D01*
X55603315Y-26971487D01*
X55708889Y-27003513D01*
X55927050Y-27025000D01*
X56072950Y-27025000D01*
X56291111Y-27003513D01*
X56571034Y-26918599D01*
X56829014Y-26780706D01*
X57055134Y-26595134D01*
X57240706Y-26369014D01*
X57378599Y-26111034D01*
X57463513Y-25831111D01*
X57492185Y-25540000D01*
X57463513Y-25248889D01*
X57378599Y-24968966D01*
X57240706Y-24710986D01*
X57055134Y-24484866D01*
X57025313Y-24460393D01*
X57094180Y-24439502D01*
X57204494Y-24380537D01*
X57301185Y-24301185D01*
X57380537Y-24204494D01*
X57439502Y-24094180D01*
X57475812Y-23974482D01*
X57488072Y-23850000D01*
X57485000Y-23285750D01*
X57326250Y-23127000D01*
X56127000Y-23127000D01*
X56127000Y-23147000D01*
X55873000Y-23147000D01*
X55873000Y-23127000D01*
X55853000Y-23127000D01*
X55853000Y-22873000D01*
X55873000Y-22873000D01*
X55873000Y-21673750D01*
X56127000Y-21673750D01*
X56127000Y-22873000D01*
X57326250Y-22873000D01*
X57485000Y-22714250D01*
X57488072Y-22150000D01*
X57475812Y-22025518D01*
X57439502Y-21905820D01*
X57380537Y-21795506D01*
X57301185Y-21698815D01*
X57204494Y-21619463D01*
X57094180Y-21560498D01*
X56974482Y-21524188D01*
X56850000Y-21511928D01*
X56285750Y-21515000D01*
X56127000Y-21673750D01*
X55873000Y-21673750D01*
X55714250Y-21515000D01*
X55150000Y-21511928D01*
X55025518Y-21524188D01*
X54905820Y-21560498D01*
X54795506Y-21619463D01*
X54698815Y-21698815D01*
X54619463Y-21795506D01*
X54560498Y-21905820D01*
X54539607Y-21974687D01*
X54515134Y-21944866D01*
X54289014Y-21759294D01*
X54031034Y-21621401D01*
X53751111Y-21536487D01*
X53532950Y-21515000D01*
X53387050Y-21515000D01*
X53168889Y-21536487D01*
X52888966Y-21621401D01*
X52630986Y-21759294D01*
X52404866Y-21944866D01*
X52219294Y-22170986D01*
X52190000Y-22225791D01*
X52160706Y-22170986D01*
X51975134Y-21944866D01*
X51749014Y-21759294D01*
X51491034Y-21621401D01*
X51211111Y-21536487D01*
X50992950Y-21515000D01*
X50847050Y-21515000D01*
X50628889Y-21536487D01*
X50348966Y-21621401D01*
X50090986Y-21759294D01*
X49864866Y-21944866D01*
X49679294Y-22170986D01*
X49650000Y-22225791D01*
X49620706Y-22170986D01*
X49435134Y-21944866D01*
X49209014Y-21759294D01*
X48951034Y-21621401D01*
X48671111Y-21536487D01*
X48452950Y-21515000D01*
X48307050Y-21515000D01*
X48088889Y-21536487D01*
X47808966Y-21621401D01*
X47550986Y-21759294D01*
X47324866Y-21944866D01*
X47139294Y-22170986D01*
X47110000Y-22225791D01*
X47080706Y-22170986D01*
X46895134Y-21944866D01*
X46669014Y-21759294D01*
X46411034Y-21621401D01*
X46131111Y-21536487D01*
X45912950Y-21515000D01*
X45767050Y-21515000D01*
X45548889Y-21536487D01*
X45268966Y-21621401D01*
X45010986Y-21759294D01*
X44784866Y-21944866D01*
X44599294Y-22170986D01*
X44570000Y-22225791D01*
X44540706Y-22170986D01*
X44355134Y-21944866D01*
X44129014Y-21759294D01*
X43871034Y-21621401D01*
X43591111Y-21536487D01*
X43372950Y-21515000D01*
X43227050Y-21515000D01*
X43008889Y-21536487D01*
X42728966Y-21621401D01*
X42470986Y-21759294D01*
X42244866Y-21944866D01*
X42059294Y-22170986D01*
X41921401Y-22428966D01*
X41836487Y-22708889D01*
X41807815Y-23000000D01*
X41836487Y-23291111D01*
X41879446Y-23432726D01*
X34582344Y-30729829D01*
X34570686Y-30739396D01*
X34508262Y-30645972D01*
X34378028Y-30515738D01*
X34224889Y-30413414D01*
X34054729Y-30342932D01*
X33874089Y-30307000D01*
X33689911Y-30307000D01*
X33509271Y-30342932D01*
X33339111Y-30413414D01*
X33185972Y-30515738D01*
X33055738Y-30645972D01*
X32953414Y-30799111D01*
X32882932Y-30969271D01*
X32847000Y-31149911D01*
X32847000Y-31334089D01*
X32882932Y-31514729D01*
X32953414Y-31684889D01*
X33055738Y-31838028D01*
X33185972Y-31968262D01*
X33339111Y-32070586D01*
X33509271Y-32141068D01*
X33689911Y-32177000D01*
X33729172Y-32177000D01*
X33845501Y-32293329D01*
X33845500Y-35825210D01*
X33817738Y-35852972D01*
X33715414Y-36006111D01*
X33644932Y-36176271D01*
X33609000Y-36356911D01*
X33609000Y-36541089D01*
X33613686Y-36564647D01*
X33485750Y-36565000D01*
X33327000Y-36723750D01*
X33327000Y-38873000D01*
X33347000Y-38873000D01*
X33347000Y-39127000D01*
X33327000Y-39127000D01*
X33327000Y-41276250D01*
X33485750Y-41435000D01*
X33988812Y-41436387D01*
X33985199Y-41440000D01*
X31145535Y-41440000D01*
X31042889Y-41371414D01*
X30872729Y-41300932D01*
X30692089Y-41265000D01*
X30507911Y-41265000D01*
X30327271Y-41300932D01*
X30157111Y-41371414D01*
X30003972Y-41473738D01*
X29873738Y-41603972D01*
X29771414Y-41757111D01*
X29700932Y-41927271D01*
X29665000Y-42107911D01*
X29665000Y-42292089D01*
X29700932Y-42472729D01*
X29771414Y-42642889D01*
X29873738Y-42796028D01*
X30003972Y-42926262D01*
X30157111Y-43028586D01*
X30327271Y-43099068D01*
X30507911Y-43135000D01*
X30692089Y-43135000D01*
X30872729Y-43099068D01*
X31042889Y-43028586D01*
X31145535Y-42960000D01*
X34262678Y-42960000D01*
X34300000Y-42963676D01*
X34337322Y-42960000D01*
X34337333Y-42960000D01*
X34448986Y-42949003D01*
X34592247Y-42905546D01*
X34724276Y-42834974D01*
X34840001Y-42740001D01*
X34863804Y-42710997D01*
X35877500Y-41697301D01*
X35877500Y-44796702D01*
X35874122Y-44831000D01*
X35877500Y-44865298D01*
X35877500Y-44865308D01*
X35887607Y-44967929D01*
X35927548Y-45099596D01*
X35927549Y-45099598D01*
X35992409Y-45220943D01*
X36057826Y-45300653D01*
X36057829Y-45300656D01*
X36079697Y-45327302D01*
X36106344Y-45349171D01*
X41643941Y-50886769D01*
X41564738Y-50965972D01*
X41462414Y-51119111D01*
X41391932Y-51289271D01*
X41356000Y-51469911D01*
X41356000Y-51636172D01*
X41095172Y-51897000D01*
X41055911Y-51897000D01*
X40875271Y-51932932D01*
X40705111Y-52003414D01*
X40551972Y-52105738D01*
X40421738Y-52235972D01*
X40319414Y-52389111D01*
X40248932Y-52559271D01*
X40213000Y-52739911D01*
X40213000Y-52913000D01*
X40166911Y-52913000D01*
X39986271Y-52948932D01*
X39816111Y-53019414D01*
X39687500Y-53105349D01*
X39687500Y-50661790D01*
X39715262Y-50634028D01*
X39817586Y-50480889D01*
X39888068Y-50310729D01*
X39924000Y-50130089D01*
X39924000Y-49945911D01*
X39888068Y-49765271D01*
X39817586Y-49595111D01*
X39715262Y-49441972D01*
X39585028Y-49311738D01*
X39431889Y-49209414D01*
X39261729Y-49138932D01*
X39081089Y-49103000D01*
X38896911Y-49103000D01*
X38716271Y-49138932D01*
X38546111Y-49209414D01*
X38392972Y-49311738D01*
X38262738Y-49441972D01*
X38160414Y-49595111D01*
X38089932Y-49765271D01*
X38054000Y-49945911D01*
X38054000Y-50130089D01*
X38089932Y-50310729D01*
X38160414Y-50480889D01*
X38262738Y-50634028D01*
X38290501Y-50661791D01*
X38290500Y-53558671D01*
X33365673Y-58483500D01*
X32373790Y-58483500D01*
X32346028Y-58455738D01*
X32192889Y-58353414D01*
X32022729Y-58282932D01*
X31842089Y-58247000D01*
X31657911Y-58247000D01*
X31477271Y-58282932D01*
X31307111Y-58353414D01*
X31153972Y-58455738D01*
X31023738Y-58585972D01*
X30921414Y-58739111D01*
X30850932Y-58909271D01*
X30815000Y-59089911D01*
X30815000Y-59274089D01*
X30850932Y-59454729D01*
X30921414Y-59624889D01*
X31023738Y-59778028D01*
X31153972Y-59908262D01*
X31307111Y-60010586D01*
X31477271Y-60081068D01*
X31657911Y-60117000D01*
X31842089Y-60117000D01*
X32022729Y-60081068D01*
X32192889Y-60010586D01*
X32346028Y-59908262D01*
X32373790Y-59880500D01*
X33620702Y-59880500D01*
X33655000Y-59883878D01*
X33689298Y-59880500D01*
X33689309Y-59880500D01*
X33791930Y-59870393D01*
X33923597Y-59830452D01*
X34044943Y-59765591D01*
X34151303Y-59678303D01*
X34173175Y-59651652D01*
X39458667Y-54366162D01*
X39472903Y-54354479D01*
X39532738Y-54444028D01*
X39560500Y-54471790D01*
X39560501Y-65663700D01*
X38473171Y-64576370D01*
X38494696Y-64524405D01*
X38546000Y-64266486D01*
X38546000Y-64003514D01*
X38494696Y-63745595D01*
X38394061Y-63502641D01*
X38247962Y-63283987D01*
X38062013Y-63098038D01*
X37843359Y-62951939D01*
X37600405Y-62851304D01*
X37342486Y-62800000D01*
X37079514Y-62800000D01*
X36821595Y-62851304D01*
X36578641Y-62951939D01*
X36359987Y-63098038D01*
X36174038Y-63283987D01*
X36027939Y-63502641D01*
X35941000Y-63712530D01*
X35854061Y-63502641D01*
X35707962Y-63283987D01*
X35522013Y-63098038D01*
X35303359Y-62951939D01*
X35060405Y-62851304D01*
X34802486Y-62800000D01*
X34539514Y-62800000D01*
X34281595Y-62851304D01*
X34038641Y-62951939D01*
X33819987Y-63098038D01*
X33634038Y-63283987D01*
X33487939Y-63502641D01*
X33387304Y-63745595D01*
X33336000Y-64003514D01*
X33336000Y-64266486D01*
X33387304Y-64524405D01*
X33487939Y-64767359D01*
X33634038Y-64986013D01*
X33819987Y-65171962D01*
X34038641Y-65318061D01*
X34281595Y-65418696D01*
X34539514Y-65470000D01*
X34802486Y-65470000D01*
X35060405Y-65418696D01*
X35303359Y-65318061D01*
X35522013Y-65171962D01*
X35707962Y-64986013D01*
X35854061Y-64767359D01*
X35941000Y-64557470D01*
X36027939Y-64767359D01*
X36174038Y-64986013D01*
X36359987Y-65171962D01*
X36578641Y-65318061D01*
X36821595Y-65418696D01*
X37079514Y-65470000D01*
X37217199Y-65470000D01*
X40324644Y-68577446D01*
X40271414Y-68657111D01*
X40200932Y-68827271D01*
X40165000Y-69007911D01*
X40165000Y-69192089D01*
X40200932Y-69372729D01*
X40271414Y-69542889D01*
X40373738Y-69696028D01*
X40501500Y-69823790D01*
X40501501Y-74776209D01*
X40473738Y-74803972D01*
X40371414Y-74957111D01*
X40300932Y-75127271D01*
X40277017Y-75247500D01*
X39612790Y-75247500D01*
X39585028Y-75219738D01*
X39431889Y-75117414D01*
X39261729Y-75046932D01*
X39081089Y-75011000D01*
X38896911Y-75011000D01*
X38716271Y-75046932D01*
X38546111Y-75117414D01*
X38392972Y-75219738D01*
X38262738Y-75349972D01*
X38160414Y-75503111D01*
X38089932Y-75673271D01*
X38054000Y-75853911D01*
X38054000Y-76038089D01*
X38089932Y-76218729D01*
X38160414Y-76388889D01*
X38262738Y-76542028D01*
X38392972Y-76672262D01*
X38546111Y-76774586D01*
X38716271Y-76845068D01*
X38779128Y-76857571D01*
X38795414Y-76896889D01*
X38796490Y-76898500D01*
X37707790Y-76898500D01*
X37680028Y-76870738D01*
X37526889Y-76768414D01*
X37356729Y-76697932D01*
X37176089Y-76662000D01*
X36991911Y-76662000D01*
X36811271Y-76697932D01*
X36641111Y-76768414D01*
X36487972Y-76870738D01*
X36357738Y-77000972D01*
X36255414Y-77154111D01*
X36184932Y-77324271D01*
X36169570Y-77401500D01*
X35308379Y-77401500D01*
X35325000Y-77317939D01*
X35325000Y-77258671D01*
X35338001Y-77248001D01*
X35432974Y-77132276D01*
X35503546Y-77000247D01*
X35547003Y-76856986D01*
X35558000Y-76745333D01*
X35558000Y-76745324D01*
X35561676Y-76708001D01*
X35558000Y-76670678D01*
X35558000Y-73855711D01*
X35601937Y-73811774D01*
X35715205Y-73642256D01*
X35793226Y-73453898D01*
X35833000Y-73253939D01*
X35833000Y-73050061D01*
X35793226Y-72850102D01*
X35715205Y-72661744D01*
X35601937Y-72492226D01*
X35558000Y-72448289D01*
X35558000Y-71411333D01*
X35561677Y-71374000D01*
X35547003Y-71225014D01*
X35503546Y-71081753D01*
X35432974Y-70949724D01*
X35338001Y-70833999D01*
X35222276Y-70739026D01*
X35090247Y-70668454D01*
X34946986Y-70624997D01*
X34835333Y-70614000D01*
X34798000Y-70610323D01*
X34760667Y-70614000D01*
X32953802Y-70614000D01*
X31805804Y-69466003D01*
X31782001Y-69436999D01*
X31666276Y-69342026D01*
X31534247Y-69271454D01*
X31519944Y-69267115D01*
X30797500Y-68544673D01*
X30797500Y-67559867D01*
X30950013Y-67457962D01*
X31135962Y-67272013D01*
X31282061Y-67053359D01*
X31382696Y-66810405D01*
X31434000Y-66552486D01*
X31434000Y-66289514D01*
X31382696Y-66031595D01*
X31282061Y-65788641D01*
X31135962Y-65569987D01*
X30950013Y-65384038D01*
X30731359Y-65237939D01*
X30521470Y-65151000D01*
X30731359Y-65064061D01*
X30950013Y-64917962D01*
X31135962Y-64732013D01*
X31282061Y-64513359D01*
X31382696Y-64270405D01*
X31434000Y-64012486D01*
X31434000Y-63749514D01*
X31382696Y-63491595D01*
X31282061Y-63248641D01*
X31135962Y-63029987D01*
X30950013Y-62844038D01*
X30731359Y-62697939D01*
X30488405Y-62597304D01*
X30230486Y-62546000D01*
X29967514Y-62546000D01*
X29709595Y-62597304D01*
X29466641Y-62697939D01*
X29247987Y-62844038D01*
X29146500Y-62945525D01*
X29146500Y-59598327D01*
X31711662Y-57033166D01*
X31738302Y-57011303D01*
X31760167Y-56984661D01*
X31760174Y-56984654D01*
X31825591Y-56904944D01*
X31860260Y-56840083D01*
X31890452Y-56783597D01*
X31930393Y-56651930D01*
X31940500Y-56549309D01*
X31940500Y-56549298D01*
X31943878Y-56515000D01*
X31940500Y-56480702D01*
X31940500Y-50326297D01*
X31943878Y-50291999D01*
X31940500Y-50257701D01*
X31940500Y-50257691D01*
X31930393Y-50155070D01*
X31890452Y-50023403D01*
X31888243Y-50019271D01*
X31825591Y-49902056D01*
X31760173Y-49822345D01*
X31760171Y-49822343D01*
X31738303Y-49795697D01*
X31711657Y-49773829D01*
X31669000Y-49731172D01*
X31669000Y-49691911D01*
X31633068Y-49511271D01*
X31562586Y-49341111D01*
X31460262Y-49187972D01*
X31330028Y-49057738D01*
X31176889Y-48955414D01*
X31006729Y-48884932D01*
X30826089Y-48849000D01*
X30641911Y-48849000D01*
X30497218Y-48877782D01*
X30526000Y-48733089D01*
X30526000Y-48704500D01*
X31334702Y-48704500D01*
X31369000Y-48707878D01*
X31403298Y-48704500D01*
X31403309Y-48704500D01*
X31505930Y-48694393D01*
X31637597Y-48654452D01*
X31758943Y-48589591D01*
X31865303Y-48502303D01*
X31887175Y-48475652D01*
X32346661Y-48016167D01*
X32373302Y-47994303D01*
X32395167Y-47967661D01*
X32395173Y-47967655D01*
X32460591Y-47887944D01*
X32525451Y-47766599D01*
X32525452Y-47766596D01*
X32565393Y-47634930D01*
X32575500Y-47532309D01*
X32575500Y-47532299D01*
X32578878Y-47498001D01*
X32575500Y-47463703D01*
X32575500Y-46008298D01*
X32578878Y-45974000D01*
X32575500Y-45939702D01*
X32575500Y-45939691D01*
X32565393Y-45837070D01*
X32525452Y-45705403D01*
X32460591Y-45584057D01*
X32450215Y-45571414D01*
X32395174Y-45504346D01*
X32395171Y-45504343D01*
X32373303Y-45477697D01*
X32346657Y-45455829D01*
X27876500Y-40985673D01*
X27876500Y-40800000D01*
X31161928Y-40800000D01*
X31174188Y-40924482D01*
X31210498Y-41044180D01*
X31269463Y-41154494D01*
X31348815Y-41251185D01*
X31445506Y-41330537D01*
X31555820Y-41389502D01*
X31675518Y-41425812D01*
X31800000Y-41438072D01*
X32914250Y-41435000D01*
X33073000Y-41276250D01*
X33073000Y-39127000D01*
X31323750Y-39127000D01*
X31165000Y-39285750D01*
X31161928Y-40800000D01*
X27876500Y-40800000D01*
X27876500Y-37200000D01*
X31161928Y-37200000D01*
X31165000Y-38714250D01*
X31323750Y-38873000D01*
X33073000Y-38873000D01*
X33073000Y-36723750D01*
X32914250Y-36565000D01*
X31800000Y-36561928D01*
X31675518Y-36574188D01*
X31555820Y-36610498D01*
X31445506Y-36669463D01*
X31348815Y-36748815D01*
X31269463Y-36845506D01*
X31210498Y-36955820D01*
X31174188Y-37075518D01*
X31161928Y-37200000D01*
X27876500Y-37200000D01*
X27876500Y-25368514D01*
X30765000Y-25368514D01*
X30765000Y-25631486D01*
X30816304Y-25889405D01*
X30916939Y-26132359D01*
X31063038Y-26351013D01*
X31248987Y-26536962D01*
X31467641Y-26683061D01*
X31710595Y-26783696D01*
X31968514Y-26835000D01*
X32231486Y-26835000D01*
X32489405Y-26783696D01*
X32732359Y-26683061D01*
X32951013Y-26536962D01*
X33136962Y-26351013D01*
X33283061Y-26132359D01*
X33383696Y-25889405D01*
X33435000Y-25631486D01*
X33435000Y-25368514D01*
X33383696Y-25110595D01*
X33283061Y-24867641D01*
X33136962Y-24648987D01*
X32951013Y-24463038D01*
X32732359Y-24316939D01*
X32489405Y-24216304D01*
X32231486Y-24165000D01*
X31968514Y-24165000D01*
X31710595Y-24216304D01*
X31467641Y-24316939D01*
X31248987Y-24463038D01*
X31063038Y-24648987D01*
X30916939Y-24867641D01*
X30816304Y-25110595D01*
X30765000Y-25368514D01*
X27876500Y-25368514D01*
X27876500Y-24800327D01*
X29527916Y-23148911D01*
X34625000Y-23148911D01*
X34625000Y-23333089D01*
X34660932Y-23513729D01*
X34731414Y-23683889D01*
X34833738Y-23837028D01*
X34861501Y-23864791D01*
X34861500Y-24268210D01*
X34833738Y-24295972D01*
X34731414Y-24449111D01*
X34660932Y-24619271D01*
X34625000Y-24799911D01*
X34625000Y-24984089D01*
X34660932Y-25164729D01*
X34731414Y-25334889D01*
X34833738Y-25488028D01*
X34963972Y-25618262D01*
X35117111Y-25720586D01*
X35287271Y-25791068D01*
X35467911Y-25827000D01*
X35652089Y-25827000D01*
X35832729Y-25791068D01*
X36002889Y-25720586D01*
X36156028Y-25618262D01*
X36286262Y-25488028D01*
X36388586Y-25334889D01*
X36459068Y-25164729D01*
X36495000Y-24984089D01*
X36495000Y-24799911D01*
X36459068Y-24619271D01*
X36388586Y-24449111D01*
X36286262Y-24295972D01*
X36258500Y-24268210D01*
X36258500Y-23864790D01*
X36286262Y-23837028D01*
X36388586Y-23683889D01*
X36459068Y-23513729D01*
X36495000Y-23333089D01*
X36495000Y-23148911D01*
X36459068Y-22968271D01*
X36388586Y-22798111D01*
X36286262Y-22644972D01*
X36156028Y-22514738D01*
X36002889Y-22412414D01*
X35832729Y-22341932D01*
X35652089Y-22306000D01*
X35467911Y-22306000D01*
X35287271Y-22341932D01*
X35117111Y-22412414D01*
X34963972Y-22514738D01*
X34833738Y-22644972D01*
X34731414Y-22798111D01*
X34660932Y-22968271D01*
X34625000Y-23148911D01*
X29527916Y-23148911D01*
X29643828Y-23033000D01*
X29683089Y-23033000D01*
X29863729Y-22997068D01*
X30033889Y-22926586D01*
X30187028Y-22824262D01*
X30317262Y-22694028D01*
X30419586Y-22540889D01*
X30490068Y-22370729D01*
X30526000Y-22190089D01*
X30526000Y-22005911D01*
X30490068Y-21825271D01*
X30419586Y-21655111D01*
X30317262Y-21501972D01*
X30187028Y-21371738D01*
X30033889Y-21269414D01*
X29863729Y-21198932D01*
X29683089Y-21163000D01*
X29498911Y-21163000D01*
X29318271Y-21198932D01*
X29148111Y-21269414D01*
X28994972Y-21371738D01*
X28864738Y-21501972D01*
X28762414Y-21655111D01*
X28691932Y-21825271D01*
X28656000Y-22005911D01*
X28656000Y-22045172D01*
X26708344Y-23992829D01*
X26681698Y-24014697D01*
X26659830Y-24041343D01*
X26659826Y-24041347D01*
X26594409Y-24121057D01*
X26529549Y-24242402D01*
X26513299Y-24295972D01*
X26489608Y-24374070D01*
X26489162Y-24378599D01*
X26476122Y-24511000D01*
X26479501Y-24545308D01*
X26479500Y-41240702D01*
X26476122Y-41275000D01*
X26479500Y-41309298D01*
X26479500Y-41309308D01*
X26489607Y-41411929D01*
X26529548Y-41543596D01*
X26529549Y-41543598D01*
X26594409Y-41664943D01*
X26659826Y-41744653D01*
X26659829Y-41744656D01*
X26681697Y-41771302D01*
X26708344Y-41793171D01*
X29789927Y-44874755D01*
X29523088Y-44927832D01*
X29225537Y-45051082D01*
X28957748Y-45230013D01*
X28730013Y-45457748D01*
X28665075Y-45554935D01*
X28635413Y-45544192D01*
X27679605Y-46500000D01*
X28635413Y-47455808D01*
X28665075Y-47445065D01*
X28730013Y-47542252D01*
X28957748Y-47769987D01*
X29084678Y-47854799D01*
X28994972Y-47914738D01*
X28864738Y-48044972D01*
X28762414Y-48198111D01*
X28691932Y-48368271D01*
X28656000Y-48548911D01*
X28656000Y-48733089D01*
X28691932Y-48913729D01*
X28762414Y-49083889D01*
X28864738Y-49237028D01*
X28994972Y-49367262D01*
X29148111Y-49469586D01*
X29318271Y-49540068D01*
X29498911Y-49576000D01*
X29683089Y-49576000D01*
X29827782Y-49547218D01*
X29799000Y-49691911D01*
X29799000Y-49876089D01*
X29834932Y-50056729D01*
X29905414Y-50226889D01*
X30007738Y-50380028D01*
X30137972Y-50510262D01*
X30291111Y-50612586D01*
X30461271Y-50683068D01*
X30543501Y-50699425D01*
X30543500Y-55277812D01*
X30427271Y-55300932D01*
X30257111Y-55371414D01*
X30103972Y-55473738D01*
X29973738Y-55603972D01*
X29871414Y-55757111D01*
X29800932Y-55927271D01*
X29765000Y-56107911D01*
X29765000Y-56147171D01*
X23298500Y-62613673D01*
X23298500Y-59589327D01*
X25752828Y-57135000D01*
X25792089Y-57135000D01*
X25972729Y-57099068D01*
X26142889Y-57028586D01*
X26296028Y-56926262D01*
X26426262Y-56796028D01*
X26528586Y-56642889D01*
X26599068Y-56472729D01*
X26635000Y-56292089D01*
X26635000Y-56107911D01*
X26599068Y-55927271D01*
X26528586Y-55757111D01*
X26426262Y-55603972D01*
X26296028Y-55473738D01*
X26142889Y-55371414D01*
X25972729Y-55300932D01*
X25792089Y-55265000D01*
X25607911Y-55265000D01*
X25427271Y-55300932D01*
X25257111Y-55371414D01*
X25103972Y-55473738D01*
X24973738Y-55603972D01*
X24871414Y-55757111D01*
X24800932Y-55927271D01*
X24765000Y-56107911D01*
X24765000Y-56147172D01*
X22130344Y-58781829D01*
X22103698Y-58803697D01*
X22081830Y-58830343D01*
X22081826Y-58830347D01*
X22016409Y-58910057D01*
X21951549Y-59031402D01*
X21939963Y-59069596D01*
X21911608Y-59163070D01*
X21907580Y-59203972D01*
X21898122Y-59300000D01*
X21901501Y-59334308D01*
X21901500Y-76965702D01*
X21898122Y-77000000D01*
X21901500Y-77034298D01*
X21901500Y-77034308D01*
X21911607Y-77136929D01*
X21945301Y-77248001D01*
X21951549Y-77268598D01*
X22016409Y-77389943D01*
X22081826Y-77469653D01*
X22081829Y-77469656D01*
X22103697Y-77496302D01*
X22130344Y-77518171D01*
X23514957Y-78902785D01*
X23484932Y-78975271D01*
X23449000Y-79155911D01*
X23449000Y-79340089D01*
X23484932Y-79520729D01*
X23555414Y-79690889D01*
X23657738Y-79844028D01*
X23685501Y-79871791D01*
X23685501Y-80630688D01*
X23683775Y-80622011D01*
X23579371Y-80369957D01*
X23427799Y-80143114D01*
X23234886Y-79950201D01*
X23008043Y-79798629D01*
X22755989Y-79694225D01*
X22488411Y-79641000D01*
X22215589Y-79641000D01*
X21948011Y-79694225D01*
X21695957Y-79798629D01*
X21469114Y-79950201D01*
X21276201Y-80143114D01*
X21124629Y-80369957D01*
X21020225Y-80622011D01*
X20967000Y-80889589D01*
X20967000Y-81162411D01*
X21020225Y-81429989D01*
X21124629Y-81682043D01*
X21276201Y-81908886D01*
X21469114Y-82101799D01*
X21695957Y-82253371D01*
X21948011Y-82357775D01*
X22215589Y-82411000D01*
X22488411Y-82411000D01*
X22755989Y-82357775D01*
X23008043Y-82253371D01*
X23234886Y-82101799D01*
X23427799Y-81908886D01*
X23579371Y-81682043D01*
X23683775Y-81429989D01*
X23685501Y-81421312D01*
X23685500Y-99279702D01*
X23682122Y-99314000D01*
X23685500Y-99348298D01*
X23685500Y-99348308D01*
X23695607Y-99450929D01*
X23733556Y-99576028D01*
X23735549Y-99582598D01*
X23800409Y-99703943D01*
X23865826Y-99783653D01*
X23865829Y-99783656D01*
X23887697Y-99810302D01*
X23914344Y-99832171D01*
X24221764Y-100139591D01*
X24120070Y-100149607D01*
X23988403Y-100189548D01*
X23988401Y-100189549D01*
X23867056Y-100254409D01*
X23829890Y-100284911D01*
X23760697Y-100341697D01*
X23738829Y-100368343D01*
X21664173Y-102443000D01*
X21624911Y-102443000D01*
X21444271Y-102478932D01*
X21274111Y-102549414D01*
X21120972Y-102651738D01*
X20990738Y-102781972D01*
X20888414Y-102935111D01*
X20817932Y-103105271D01*
X20782000Y-103285911D01*
X20782000Y-103470089D01*
X20817932Y-103650729D01*
X20888414Y-103820889D01*
X20990738Y-103974028D01*
X21120972Y-104104262D01*
X21274111Y-104206586D01*
X21444271Y-104277068D01*
X21624911Y-104313000D01*
X21809089Y-104313000D01*
X21989729Y-104277068D01*
X22159889Y-104206586D01*
X22313028Y-104104262D01*
X22443262Y-103974028D01*
X22545586Y-103820889D01*
X22616068Y-103650729D01*
X22652000Y-103470089D01*
X22652000Y-103430827D01*
X24546328Y-101536500D01*
X24983672Y-101536500D01*
X21791173Y-104729000D01*
X21751911Y-104729000D01*
X21571271Y-104764932D01*
X21401111Y-104835414D01*
X21247972Y-104937738D01*
X21117738Y-105067972D01*
X21015414Y-105221111D01*
X20944932Y-105391271D01*
X20909000Y-105571911D01*
X20909000Y-105756089D01*
X20944932Y-105936729D01*
X21015414Y-106106889D01*
X21101349Y-106235500D01*
X21015414Y-106364111D01*
X20944932Y-106534271D01*
X20909000Y-106714911D01*
X20909000Y-106899089D01*
X20944932Y-107079729D01*
X21015414Y-107249889D01*
X21117738Y-107403028D01*
X21247972Y-107533262D01*
X21401111Y-107635586D01*
X21571271Y-107706068D01*
X21751911Y-107742000D01*
X21936089Y-107742000D01*
X22116729Y-107706068D01*
X22286889Y-107635586D01*
X22440028Y-107533262D01*
X22570262Y-107403028D01*
X22672586Y-107249889D01*
X22743068Y-107079729D01*
X22779000Y-106899089D01*
X22779000Y-106859827D01*
X27520662Y-102118166D01*
X27547302Y-102096303D01*
X27569167Y-102069661D01*
X27569174Y-102069654D01*
X27634591Y-101989944D01*
X27699451Y-101868599D01*
X27700543Y-101865000D01*
X27739393Y-101736930D01*
X27749500Y-101634309D01*
X27749500Y-101634299D01*
X27752878Y-101600001D01*
X27749500Y-101565703D01*
X27749500Y-100158774D01*
X27878729Y-100133068D01*
X28048889Y-100062586D01*
X28202028Y-99960262D01*
X28332262Y-99830028D01*
X28431501Y-99681506D01*
X28431500Y-105295702D01*
X28428122Y-105330000D01*
X28431500Y-105364298D01*
X28431500Y-105364308D01*
X28441607Y-105466929D01*
X28481548Y-105598596D01*
X28481549Y-105598598D01*
X28546409Y-105719943D01*
X28611826Y-105799653D01*
X28611829Y-105799656D01*
X28633697Y-105826302D01*
X28660344Y-105848171D01*
X29084000Y-106271828D01*
X29084000Y-106311089D01*
X29119932Y-106491729D01*
X29190414Y-106661889D01*
X29292738Y-106815028D01*
X29422972Y-106945262D01*
X29576111Y-107047586D01*
X29746271Y-107118068D01*
X29926911Y-107154000D01*
X30111089Y-107154000D01*
X30291729Y-107118068D01*
X30461889Y-107047586D01*
X30615028Y-106945262D01*
X30717501Y-106842789D01*
X30717500Y-110374672D01*
X29839173Y-111253000D01*
X29799911Y-111253000D01*
X29619271Y-111288932D01*
X29449111Y-111359414D01*
X29295972Y-111461738D01*
X29165738Y-111591972D01*
X29063414Y-111745111D01*
X28992932Y-111915271D01*
X28957000Y-112095911D01*
X28957000Y-112280089D01*
X28992932Y-112460729D01*
X29063414Y-112630889D01*
X29165738Y-112784028D01*
X29295972Y-112914262D01*
X29449111Y-113016586D01*
X29619271Y-113087068D01*
X29799911Y-113123000D01*
X29984089Y-113123000D01*
X30164729Y-113087068D01*
X30334889Y-113016586D01*
X30488028Y-112914262D01*
X30618262Y-112784028D01*
X30720586Y-112630889D01*
X30791068Y-112460729D01*
X30827000Y-112280089D01*
X30827000Y-112240827D01*
X31885662Y-111182166D01*
X31912302Y-111160303D01*
X31934167Y-111133661D01*
X31934173Y-111133655D01*
X31999591Y-111053944D01*
X32064451Y-110932599D01*
X32064452Y-110932596D01*
X32104393Y-110800930D01*
X32114500Y-110698309D01*
X32114500Y-110698299D01*
X32117878Y-110664001D01*
X32114500Y-110629703D01*
X32114500Y-105492327D01*
X33310777Y-104296051D01*
X33275000Y-104475911D01*
X33275000Y-104660089D01*
X33310932Y-104840729D01*
X33381414Y-105010889D01*
X33483738Y-105164028D01*
X33613972Y-105294262D01*
X33767111Y-105396586D01*
X33937271Y-105467068D01*
X33940092Y-105467629D01*
X33910000Y-105618911D01*
X33910000Y-105803089D01*
X33945932Y-105983729D01*
X34016414Y-106153889D01*
X34118738Y-106307028D01*
X34248972Y-106437262D01*
X34402111Y-106539586D01*
X34572271Y-106610068D01*
X34752911Y-106646000D01*
X34792172Y-106646000D01*
X35088829Y-106942657D01*
X35110697Y-106969303D01*
X35137343Y-106991171D01*
X35137346Y-106991174D01*
X35217056Y-107056591D01*
X35252616Y-107075598D01*
X35338403Y-107121452D01*
X35470070Y-107161393D01*
X35572691Y-107171500D01*
X35572702Y-107171500D01*
X35607000Y-107174878D01*
X35641298Y-107171500D01*
X40317210Y-107171500D01*
X40344972Y-107199262D01*
X40498111Y-107301586D01*
X40668271Y-107372068D01*
X40848911Y-107408000D01*
X41033089Y-107408000D01*
X41213729Y-107372068D01*
X41383889Y-107301586D01*
X41537028Y-107199262D01*
X41667262Y-107069028D01*
X41692718Y-107030930D01*
X41718273Y-107048005D01*
X41795515Y-107080000D01*
X41718273Y-107111995D01*
X41489465Y-107264880D01*
X41294880Y-107459465D01*
X41141995Y-107688273D01*
X41036686Y-107942510D01*
X40983000Y-108212408D01*
X40983000Y-108487592D01*
X41036686Y-108757490D01*
X41141995Y-109011727D01*
X41294880Y-109240535D01*
X41489465Y-109435120D01*
X41718273Y-109588005D01*
X41795515Y-109620000D01*
X41718273Y-109651995D01*
X41489465Y-109804880D01*
X41294880Y-109999465D01*
X41166566Y-110191500D01*
X34805672Y-110191500D01*
X34652889Y-110089414D01*
X34482729Y-110018932D01*
X34302089Y-109983000D01*
X34117911Y-109983000D01*
X33937271Y-110018932D01*
X33767111Y-110089414D01*
X33613972Y-110191738D01*
X33483738Y-110321972D01*
X33381414Y-110475111D01*
X33310932Y-110645271D01*
X33275000Y-110825911D01*
X33275000Y-111010089D01*
X33310932Y-111190729D01*
X33381414Y-111360889D01*
X33483738Y-111514028D01*
X33613972Y-111644262D01*
X33767111Y-111746586D01*
X33937271Y-111817068D01*
X34117911Y-111853000D01*
X34302089Y-111853000D01*
X34482729Y-111817068D01*
X34652889Y-111746586D01*
X34806028Y-111644262D01*
X34861790Y-111588500D01*
X41166566Y-111588500D01*
X41294880Y-111780535D01*
X41489465Y-111975120D01*
X41718273Y-112128005D01*
X41795515Y-112160000D01*
X41718273Y-112191995D01*
X41489465Y-112344880D01*
X41294880Y-112539465D01*
X41207659Y-112670000D01*
X35607325Y-112670000D01*
X35570000Y-112666324D01*
X35532675Y-112670000D01*
X35532667Y-112670000D01*
X35421014Y-112680997D01*
X35277753Y-112724454D01*
X35145724Y-112795026D01*
X35029999Y-112889999D01*
X35006200Y-112918998D01*
X34848351Y-113076847D01*
X34727271Y-113100932D01*
X34557111Y-113171414D01*
X34403972Y-113273738D01*
X34273738Y-113403972D01*
X34171414Y-113557111D01*
X34100932Y-113727271D01*
X34065000Y-113907911D01*
X34065000Y-114092089D01*
X34100932Y-114272729D01*
X34171414Y-114442889D01*
X34273738Y-114596028D01*
X34403972Y-114726262D01*
X34557111Y-114828586D01*
X34727271Y-114899068D01*
X34907911Y-114935000D01*
X35092089Y-114935000D01*
X35272729Y-114899068D01*
X35442889Y-114828586D01*
X35596028Y-114726262D01*
X35726262Y-114596028D01*
X35828586Y-114442889D01*
X35899068Y-114272729D01*
X35915524Y-114190000D01*
X41207659Y-114190000D01*
X41294880Y-114320535D01*
X41489465Y-114515120D01*
X41718273Y-114668005D01*
X41789943Y-114697692D01*
X41776977Y-114702364D01*
X41661020Y-114764344D01*
X41594040Y-115004435D01*
X42380000Y-115790395D01*
X43165960Y-115004435D01*
X43098980Y-114764344D01*
X42963240Y-114700515D01*
X43041727Y-114668005D01*
X43270535Y-114515120D01*
X43465120Y-114320535D01*
X43618005Y-114091727D01*
X43723314Y-113837490D01*
X43777000Y-113567592D01*
X43777000Y-113497801D01*
X47111004Y-110163798D01*
X47140001Y-110140001D01*
X47188907Y-110080409D01*
X47234974Y-110024277D01*
X47305546Y-109892247D01*
X47305546Y-109892246D01*
X47349003Y-109748986D01*
X47360000Y-109637333D01*
X47360000Y-109637323D01*
X47363676Y-109600000D01*
X47360000Y-109562677D01*
X47360000Y-105645535D01*
X47428586Y-105542889D01*
X47499068Y-105372729D01*
X47535000Y-105192089D01*
X47535000Y-105139500D01*
X51334702Y-105139500D01*
X51369000Y-105142878D01*
X51403298Y-105139500D01*
X51403309Y-105139500D01*
X51505930Y-105129393D01*
X51637597Y-105089452D01*
X51758943Y-105024591D01*
X51865303Y-104937303D01*
X51887175Y-104910652D01*
X56227365Y-100570462D01*
X56223000Y-100592408D01*
X56223000Y-100867592D01*
X56276686Y-101137490D01*
X56381995Y-101391727D01*
X56534880Y-101620535D01*
X56729465Y-101815120D01*
X56958273Y-101968005D01*
X57035515Y-102000000D01*
X56958273Y-102031995D01*
X56729465Y-102184880D01*
X56534880Y-102379465D01*
X56381995Y-102608273D01*
X56276686Y-102862510D01*
X56223000Y-103132408D01*
X56223000Y-103407592D01*
X56276686Y-103677490D01*
X56381995Y-103931727D01*
X56534880Y-104160535D01*
X56729465Y-104355120D01*
X56958273Y-104508005D01*
X57035515Y-104540000D01*
X56958273Y-104571995D01*
X56729465Y-104724880D01*
X56670794Y-104783551D01*
X56606262Y-104686972D01*
X56476028Y-104556738D01*
X56322889Y-104454414D01*
X56152729Y-104383932D01*
X55972089Y-104348000D01*
X55787911Y-104348000D01*
X55607271Y-104383932D01*
X55437111Y-104454414D01*
X55283972Y-104556738D01*
X55153738Y-104686972D01*
X55051414Y-104840111D01*
X54980932Y-105010271D01*
X54966786Y-105081386D01*
X52144173Y-107904000D01*
X52104911Y-107904000D01*
X51924271Y-107939932D01*
X51754111Y-108010414D01*
X51600972Y-108112738D01*
X51470738Y-108242972D01*
X51368414Y-108396111D01*
X51297932Y-108566271D01*
X51262000Y-108746911D01*
X51262000Y-108886293D01*
X51242000Y-108884323D01*
X51204667Y-108888000D01*
X51093014Y-108898997D01*
X50949753Y-108942454D01*
X50817724Y-109013026D01*
X50701999Y-109107999D01*
X50678201Y-109136997D01*
X43775255Y-116039944D01*
X43781910Y-115897983D01*
X43740922Y-115625867D01*
X43647636Y-115366977D01*
X43585656Y-115251020D01*
X43345565Y-115184040D01*
X42559605Y-115970000D01*
X42573748Y-115984143D01*
X42394143Y-116163748D01*
X42380000Y-116149605D01*
X41594040Y-116935565D01*
X41661020Y-117175656D01*
X41796760Y-117239485D01*
X41718273Y-117271995D01*
X41489465Y-117424880D01*
X41294880Y-117619465D01*
X41141995Y-117848273D01*
X41036686Y-118102510D01*
X40983000Y-118372408D01*
X40983000Y-118647592D01*
X41036686Y-118917490D01*
X41141995Y-119171727D01*
X41254432Y-119340000D01*
X22032279Y-119340000D01*
X21740340Y-119311375D01*
X21490571Y-119235965D01*
X21260206Y-119113477D01*
X21058021Y-118948579D01*
X20891712Y-118747546D01*
X20767622Y-118518046D01*
X20690469Y-118268805D01*
X20660000Y-117978911D01*
X20660000Y-115814344D01*
X22115000Y-115814344D01*
X22115000Y-116185656D01*
X22187439Y-116549834D01*
X22329534Y-116892882D01*
X22535825Y-117201618D01*
X22798382Y-117464175D01*
X23107118Y-117670466D01*
X23450166Y-117812561D01*
X23814344Y-117885000D01*
X24185656Y-117885000D01*
X24549834Y-117812561D01*
X24892882Y-117670466D01*
X25201618Y-117464175D01*
X25464175Y-117201618D01*
X25670466Y-116892882D01*
X25812561Y-116549834D01*
X25885000Y-116185656D01*
X25885000Y-116042017D01*
X40978090Y-116042017D01*
X41019078Y-116314133D01*
X41112364Y-116573023D01*
X41174344Y-116688980D01*
X41414435Y-116755960D01*
X42200395Y-115970000D01*
X41414435Y-115184040D01*
X41174344Y-115251020D01*
X41057244Y-115500048D01*
X40990977Y-115767135D01*
X40978090Y-116042017D01*
X25885000Y-116042017D01*
X25885000Y-115814344D01*
X25812561Y-115450166D01*
X25670466Y-115107118D01*
X25464175Y-114798382D01*
X25201618Y-114535825D01*
X24892882Y-114329534D01*
X24549834Y-114187439D01*
X24185656Y-114115000D01*
X23814344Y-114115000D01*
X23450166Y-114187439D01*
X23107118Y-114329534D01*
X22798382Y-114535825D01*
X22535825Y-114798382D01*
X22329534Y-115107118D01*
X22187439Y-115450166D01*
X22115000Y-115814344D01*
X20660000Y-115814344D01*
X20660000Y-49293801D01*
X22681198Y-51315000D01*
X22409951Y-51315000D01*
X22096005Y-51377448D01*
X21800274Y-51499943D01*
X21534123Y-51677780D01*
X21307780Y-51904123D01*
X21129943Y-52170274D01*
X21007448Y-52466005D01*
X20945000Y-52779951D01*
X20945000Y-53100049D01*
X21007448Y-53413995D01*
X21129943Y-53709726D01*
X21307780Y-53975877D01*
X21534123Y-54202220D01*
X21800274Y-54380057D01*
X22096005Y-54502552D01*
X22409951Y-54565000D01*
X22730049Y-54565000D01*
X23043995Y-54502552D01*
X23339726Y-54380057D01*
X23605877Y-54202220D01*
X23832220Y-53975877D01*
X24010057Y-53709726D01*
X24132552Y-53413995D01*
X24195000Y-53100049D01*
X24195000Y-52779951D01*
X24163979Y-52624000D01*
X24222089Y-52624000D01*
X24402729Y-52588068D01*
X24572889Y-52517586D01*
X24726028Y-52415262D01*
X24856262Y-52285028D01*
X24958586Y-52131889D01*
X25029068Y-51961729D01*
X25065000Y-51781089D01*
X25065000Y-51596911D01*
X25029068Y-51416271D01*
X24958586Y-51246111D01*
X24856262Y-51092972D01*
X24726028Y-50962738D01*
X24572889Y-50860414D01*
X24402729Y-50789932D01*
X24281649Y-50765847D01*
X21842000Y-48326199D01*
X21842000Y-47560675D01*
X21846457Y-47563653D01*
X22124445Y-47678799D01*
X22419554Y-47737500D01*
X22720446Y-47737500D01*
X23015555Y-47678799D01*
X23293543Y-47563653D01*
X23543725Y-47396487D01*
X23597011Y-47343201D01*
X23730013Y-47542252D01*
X23957748Y-47769987D01*
X24225537Y-47948918D01*
X24523088Y-48072168D01*
X24838967Y-48135000D01*
X25161033Y-48135000D01*
X25476912Y-48072168D01*
X25774463Y-47948918D01*
X26042252Y-47769987D01*
X26176826Y-47635413D01*
X26544192Y-47635413D01*
X26639956Y-47899814D01*
X26929571Y-48040704D01*
X27241108Y-48122384D01*
X27562595Y-48141718D01*
X27881675Y-48097961D01*
X28186088Y-47992795D01*
X28360044Y-47899814D01*
X28455808Y-47635413D01*
X27500000Y-46679605D01*
X26544192Y-47635413D01*
X26176826Y-47635413D01*
X26269987Y-47542252D01*
X26334925Y-47445065D01*
X26364587Y-47455808D01*
X27320395Y-46500000D01*
X26364587Y-45544192D01*
X26334925Y-45554935D01*
X26269987Y-45457748D01*
X26042252Y-45230013D01*
X26012300Y-45210000D01*
X26600182Y-45210000D01*
X26544192Y-45364587D01*
X27500000Y-46320395D01*
X28455808Y-45364587D01*
X28360044Y-45100186D01*
X28143883Y-44995029D01*
X28204068Y-44849729D01*
X28240000Y-44669089D01*
X28240000Y-44484911D01*
X28204068Y-44304271D01*
X28133586Y-44134111D01*
X28031262Y-43980972D01*
X27901028Y-43850738D01*
X27747889Y-43748414D01*
X27577729Y-43677932D01*
X27397089Y-43642000D01*
X27212911Y-43642000D01*
X27032271Y-43677932D01*
X27003136Y-43690000D01*
X22135322Y-43690000D01*
X22098000Y-43686324D01*
X22060677Y-43690000D01*
X22060667Y-43690000D01*
X21949014Y-43700997D01*
X21805753Y-43744454D01*
X21673723Y-43815026D01*
X21590083Y-43883668D01*
X21557999Y-43909999D01*
X21534201Y-43938997D01*
X20660000Y-44813199D01*
X20660000Y-41437355D01*
X21514250Y-41435000D01*
X21673000Y-41276250D01*
X21673000Y-39127000D01*
X21653000Y-39127000D01*
X21653000Y-38873000D01*
X21673000Y-38873000D01*
X21673000Y-36723750D01*
X21514250Y-36565000D01*
X20660000Y-36562645D01*
X20660000Y-31639554D01*
X21042500Y-31639554D01*
X21042500Y-31940446D01*
X21101201Y-32235555D01*
X21216347Y-32513543D01*
X21383513Y-32763725D01*
X21596275Y-32976487D01*
X21846457Y-33143653D01*
X22124445Y-33258799D01*
X22419554Y-33317500D01*
X22720446Y-33317500D01*
X22825104Y-33296682D01*
X23499001Y-33970580D01*
X23499001Y-36639801D01*
X23444180Y-36610498D01*
X23324482Y-36574188D01*
X23200000Y-36561928D01*
X22085750Y-36565000D01*
X21927000Y-36723750D01*
X21927000Y-38873000D01*
X21947000Y-38873000D01*
X21947000Y-39127000D01*
X21927000Y-39127000D01*
X21927000Y-41276250D01*
X22085750Y-41435000D01*
X23200000Y-41438072D01*
X23324482Y-41425812D01*
X23349000Y-41418375D01*
X23349000Y-41503939D01*
X23388774Y-41703898D01*
X23466795Y-41892256D01*
X23580063Y-42061774D01*
X23724226Y-42205937D01*
X23893744Y-42319205D01*
X24082102Y-42397226D01*
X24282061Y-42437000D01*
X24485939Y-42437000D01*
X24685898Y-42397226D01*
X24874256Y-42319205D01*
X25043774Y-42205937D01*
X25187937Y-42061774D01*
X25301205Y-41892256D01*
X25379226Y-41703898D01*
X25419000Y-41503939D01*
X25419000Y-41300061D01*
X25379226Y-41100102D01*
X25301205Y-40911744D01*
X25269000Y-40863546D01*
X25269000Y-33647465D01*
X25273281Y-33603999D01*
X25269000Y-33560533D01*
X25269000Y-33560523D01*
X25256195Y-33430510D01*
X25205589Y-33263687D01*
X25123411Y-33109941D01*
X25091788Y-33071409D01*
X25040532Y-33008953D01*
X25040530Y-33008951D01*
X25012817Y-32975183D01*
X24979049Y-32947470D01*
X24076682Y-32045104D01*
X24097500Y-31940446D01*
X24097500Y-31639554D01*
X24038799Y-31344445D01*
X23923653Y-31066457D01*
X23756487Y-30816275D01*
X23543725Y-30603513D01*
X23293543Y-30436347D01*
X23015555Y-30321201D01*
X22720446Y-30262500D01*
X22419554Y-30262500D01*
X22124445Y-30321201D01*
X21846457Y-30436347D01*
X21596275Y-30603513D01*
X21383513Y-30816275D01*
X21216347Y-31066457D01*
X21101201Y-31344445D01*
X21042500Y-31639554D01*
X20660000Y-31639554D01*
X20660000Y-25368514D01*
X23765000Y-25368514D01*
X23765000Y-25631486D01*
X23816304Y-25889405D01*
X23916939Y-26132359D01*
X24063038Y-26351013D01*
X24248987Y-26536962D01*
X24467641Y-26683061D01*
X24710595Y-26783696D01*
X24968514Y-26835000D01*
X25231486Y-26835000D01*
X25489405Y-26783696D01*
X25732359Y-26683061D01*
X25951013Y-26536962D01*
X26136962Y-26351013D01*
X26283061Y-26132359D01*
X26383696Y-25889405D01*
X26435000Y-25631486D01*
X26435000Y-25368514D01*
X26383696Y-25110595D01*
X26283061Y-24867641D01*
X26136962Y-24648987D01*
X25951013Y-24463038D01*
X25732359Y-24316939D01*
X25489405Y-24216304D01*
X25231486Y-24165000D01*
X24968514Y-24165000D01*
X24710595Y-24216304D01*
X24467641Y-24316939D01*
X24248987Y-24463038D01*
X24063038Y-24648987D01*
X23916939Y-24867641D01*
X23816304Y-25110595D01*
X23765000Y-25368514D01*
X20660000Y-25368514D01*
X20660000Y-22032279D01*
X20688625Y-21740341D01*
X20764035Y-21490571D01*
X20886522Y-21260208D01*
X21051422Y-21058020D01*
X21252450Y-20891714D01*
X21481954Y-20767622D01*
X21731195Y-20690469D01*
X22021088Y-20660000D01*
X77967721Y-20660000D01*
X78259659Y-20688625D01*
X78259659Y-20688625D01*
G37*
X78259659Y-20688625D02*
X78509429Y-20764035D01*
X78739792Y-20886522D01*
X78941980Y-21051422D01*
X79108286Y-21252450D01*
X79232378Y-21481954D01*
X79309531Y-21731195D01*
X79340001Y-22021098D01*
X79340001Y-36562645D01*
X78485750Y-36565000D01*
X78327000Y-36723750D01*
X78327000Y-38873000D01*
X78347000Y-38873000D01*
X78347000Y-39127000D01*
X78327000Y-39127000D01*
X78327000Y-41276250D01*
X78485750Y-41435000D01*
X79340001Y-41437355D01*
X79340001Y-44750240D01*
X79312555Y-44659762D01*
X79241983Y-44527733D01*
X79206840Y-44484911D01*
X79170808Y-44441005D01*
X79170804Y-44441001D01*
X79147010Y-44412008D01*
X79118018Y-44388215D01*
X78632000Y-43902198D01*
X78632000Y-43840061D01*
X78592226Y-43640102D01*
X78514205Y-43451744D01*
X78400937Y-43282226D01*
X78256774Y-43138063D01*
X78087256Y-43024795D01*
X77898898Y-42946774D01*
X77698939Y-42907000D01*
X77495061Y-42907000D01*
X77295102Y-42946774D01*
X77106744Y-43024795D01*
X76937226Y-43138063D01*
X76793063Y-43282226D01*
X76679795Y-43451744D01*
X76601774Y-43640102D01*
X76562000Y-43840061D01*
X76562000Y-44043939D01*
X76601774Y-44243898D01*
X76679795Y-44432256D01*
X76793063Y-44601774D01*
X76937226Y-44745937D01*
X76950920Y-44755087D01*
X76706457Y-44856347D01*
X76456275Y-45023513D01*
X76243513Y-45236275D01*
X76165407Y-45353168D01*
X76042252Y-45230013D01*
X75774463Y-45051082D01*
X75476912Y-44927832D01*
X75161033Y-44865000D01*
X74838967Y-44865000D01*
X74523088Y-44927832D01*
X74225537Y-45051082D01*
X73957748Y-45230013D01*
X73730013Y-45457748D01*
X73665075Y-45554935D01*
X73635413Y-45544192D01*
X72679605Y-46500000D01*
X73635413Y-47455808D01*
X73665075Y-47445065D01*
X73730013Y-47542252D01*
X73957748Y-47769987D01*
X74225537Y-47948918D01*
X74523088Y-48072168D01*
X74838967Y-48135000D01*
X75161033Y-48135000D01*
X75476912Y-48072168D01*
X75774463Y-47948918D01*
X76042252Y-47769987D01*
X76269987Y-47542252D01*
X76402989Y-47343201D01*
X76456275Y-47396487D01*
X76545000Y-47455771D01*
X76545001Y-88873000D01*
X60298500Y-88873000D01*
X60298500Y-84797496D01*
X61004175Y-84091822D01*
X61030815Y-84069959D01*
X61052680Y-84043317D01*
X61052687Y-84043310D01*
X61118104Y-83963600D01*
X61182964Y-83842255D01*
X61182965Y-83842252D01*
X61222906Y-83710586D01*
X61233013Y-83607965D01*
X61233013Y-83607954D01*
X61236391Y-83573656D01*
X61233013Y-83539358D01*
X61233013Y-82830642D01*
X61236391Y-82796344D01*
X61233013Y-82762046D01*
X61233013Y-82762035D01*
X61222906Y-82659414D01*
X61182965Y-82527747D01*
X61182964Y-82527745D01*
X61118104Y-82406400D01*
X61052687Y-82326690D01*
X61052684Y-82326687D01*
X61030816Y-82300041D01*
X61004170Y-82278173D01*
X60298500Y-81572504D01*
X60298500Y-64589327D01*
X68552828Y-56335000D01*
X68592089Y-56335000D01*
X68772729Y-56299068D01*
X68942889Y-56228586D01*
X69096028Y-56126262D01*
X69226262Y-55996028D01*
X69328586Y-55842889D01*
X69399068Y-55672729D01*
X69435000Y-55492089D01*
X69435000Y-55307911D01*
X69433128Y-55298500D01*
X73276210Y-55298500D01*
X73303972Y-55326262D01*
X73457111Y-55428586D01*
X73627271Y-55499068D01*
X73807911Y-55535000D01*
X73992089Y-55535000D01*
X74172729Y-55499068D01*
X74342889Y-55428586D01*
X74496028Y-55326262D01*
X74626262Y-55196028D01*
X74728586Y-55042889D01*
X74799068Y-54872729D01*
X74835000Y-54692089D01*
X74835000Y-54507911D01*
X74799068Y-54327271D01*
X74728586Y-54157111D01*
X74626262Y-54003972D01*
X74496028Y-53873738D01*
X74342889Y-53771414D01*
X74172729Y-53700932D01*
X73992089Y-53665000D01*
X73807911Y-53665000D01*
X73627271Y-53700932D01*
X73457111Y-53771414D01*
X73303972Y-53873738D01*
X73276210Y-53901500D01*
X68434297Y-53901500D01*
X68399999Y-53898122D01*
X68365701Y-53901500D01*
X68365691Y-53901500D01*
X68263070Y-53911607D01*
X68131403Y-53951548D01*
X68131401Y-53951549D01*
X68010056Y-54016409D01*
X67930345Y-54081827D01*
X67903697Y-54103697D01*
X67881829Y-54130343D01*
X58830344Y-63181829D01*
X58803698Y-63203697D01*
X58781830Y-63230343D01*
X58781826Y-63230347D01*
X58716409Y-63310057D01*
X58651549Y-63431402D01*
X58651549Y-63431403D01*
X58611608Y-63563070D01*
X58602894Y-63651548D01*
X58598122Y-63700000D01*
X58601501Y-63734308D01*
X58601501Y-66286167D01*
X58527271Y-66300932D01*
X58357111Y-66371414D01*
X58203972Y-66473738D01*
X58073738Y-66603972D01*
X57971414Y-66757111D01*
X57964576Y-66773620D01*
X57827271Y-66800932D01*
X57657111Y-66871414D01*
X57503972Y-66973738D01*
X57373738Y-67103972D01*
X57271414Y-67257111D01*
X57200932Y-67427271D01*
X57165000Y-67607911D01*
X57165000Y-67792089D01*
X57200932Y-67972729D01*
X57271414Y-68142889D01*
X57373738Y-68296028D01*
X57401501Y-68323791D01*
X57401500Y-69765701D01*
X57398122Y-69800000D01*
X57401500Y-69834298D01*
X57401500Y-69834308D01*
X57411607Y-69936929D01*
X57451447Y-70068262D01*
X57451549Y-70068598D01*
X57516409Y-70189943D01*
X57565000Y-70249151D01*
X57565000Y-70292089D01*
X57600932Y-70472729D01*
X57671414Y-70642889D01*
X57773738Y-70796028D01*
X57903972Y-70926262D01*
X58057111Y-71028586D01*
X58227271Y-71099068D01*
X58407911Y-71135000D01*
X58592089Y-71135000D01*
X58601501Y-71133128D01*
X58601500Y-78715366D01*
X58528271Y-78729932D01*
X58358111Y-78800414D01*
X58204972Y-78902738D01*
X58177210Y-78930500D01*
X56423329Y-78930500D01*
X53894000Y-76401173D01*
X53894000Y-76361911D01*
X53858068Y-76181271D01*
X53787586Y-76011111D01*
X53685262Y-75857972D01*
X53555028Y-75727738D01*
X53401889Y-75625414D01*
X53231729Y-75554932D01*
X53051089Y-75519000D01*
X52866911Y-75519000D01*
X52686271Y-75554932D01*
X52516111Y-75625414D01*
X52362972Y-75727738D01*
X52232738Y-75857972D01*
X52130414Y-76011111D01*
X52098500Y-76088159D01*
X52098500Y-62589327D01*
X52652828Y-62035000D01*
X52692089Y-62035000D01*
X52872729Y-61999068D01*
X53042889Y-61928586D01*
X53196028Y-61826262D01*
X53326262Y-61696028D01*
X53428586Y-61542889D01*
X53499068Y-61372729D01*
X53535000Y-61192089D01*
X53535000Y-61007911D01*
X53499068Y-60827271D01*
X53428586Y-60657111D01*
X53371146Y-60571146D01*
X53457111Y-60628586D01*
X53627271Y-60699068D01*
X53807911Y-60735000D01*
X53992089Y-60735000D01*
X54172729Y-60699068D01*
X54342889Y-60628586D01*
X54496028Y-60526262D01*
X54626262Y-60396028D01*
X54728586Y-60242889D01*
X54799068Y-60072729D01*
X54835000Y-59892089D01*
X54835000Y-59707911D01*
X54799068Y-59527271D01*
X54728586Y-59357111D01*
X54626262Y-59203972D01*
X54496028Y-59073738D01*
X54342889Y-58971414D01*
X54172729Y-58900932D01*
X53992089Y-58865000D01*
X53952828Y-58865000D01*
X52198500Y-57110673D01*
X52198500Y-55523790D01*
X52214379Y-55507911D01*
X55165000Y-55507911D01*
X55165000Y-55692089D01*
X55200932Y-55872729D01*
X55271414Y-56042889D01*
X55373738Y-56196028D01*
X55503972Y-56326262D01*
X55657111Y-56428586D01*
X55799906Y-56487733D01*
X56365000Y-57052828D01*
X56365000Y-57092089D01*
X56400932Y-57272729D01*
X56471414Y-57442889D01*
X56573738Y-57596028D01*
X56703972Y-57726262D01*
X56857111Y-57828586D01*
X57027271Y-57899068D01*
X57207911Y-57935000D01*
X57392089Y-57935000D01*
X57572729Y-57899068D01*
X57742889Y-57828586D01*
X57896028Y-57726262D01*
X58026262Y-57596028D01*
X58128586Y-57442889D01*
X58199068Y-57272729D01*
X58235000Y-57092089D01*
X58235000Y-56907911D01*
X58199068Y-56727271D01*
X58128586Y-56557111D01*
X58026262Y-56403972D01*
X57896028Y-56273738D01*
X57742889Y-56171414D01*
X57572729Y-56100932D01*
X57392089Y-56065000D01*
X57352828Y-56065000D01*
X57025861Y-55738033D01*
X57035000Y-55692089D01*
X57035000Y-55507911D01*
X56999068Y-55327271D01*
X56928586Y-55157111D01*
X56826262Y-55003972D01*
X56696028Y-54873738D01*
X56542889Y-54771414D01*
X56372729Y-54700932D01*
X56192089Y-54665000D01*
X56007911Y-54665000D01*
X55827271Y-54700932D01*
X55657111Y-54771414D01*
X55503972Y-54873738D01*
X55373738Y-55003972D01*
X55271414Y-55157111D01*
X55200932Y-55327271D01*
X55165000Y-55507911D01*
X52214379Y-55507911D01*
X52226262Y-55496028D01*
X52328586Y-55342889D01*
X52399068Y-55172729D01*
X52435000Y-54992089D01*
X52435000Y-54807911D01*
X52399068Y-54627271D01*
X52328586Y-54457111D01*
X52226262Y-54303972D01*
X52096028Y-54173738D01*
X51942889Y-54071414D01*
X51772729Y-54000932D01*
X51698500Y-53986167D01*
X51698500Y-51023790D01*
X51726262Y-50996028D01*
X51828586Y-50842889D01*
X51899068Y-50672729D01*
X51935000Y-50492089D01*
X51935000Y-50307911D01*
X51899068Y-50127271D01*
X51828586Y-49957111D01*
X51726262Y-49803972D01*
X51596028Y-49673738D01*
X51442889Y-49571414D01*
X51272729Y-49500932D01*
X51092089Y-49465000D01*
X50960000Y-49465000D01*
X50960000Y-49345535D01*
X51028586Y-49242889D01*
X51080564Y-49117401D01*
X51172729Y-49099068D01*
X51342889Y-49028586D01*
X51387916Y-48998500D01*
X60965702Y-48998500D01*
X61000000Y-49001878D01*
X61034298Y-48998500D01*
X61034309Y-48998500D01*
X61136930Y-48988393D01*
X61268597Y-48948452D01*
X61389943Y-48883591D01*
X61496303Y-48796303D01*
X61501501Y-48789970D01*
X61501500Y-48876210D01*
X61473738Y-48903972D01*
X61371414Y-49057111D01*
X61300932Y-49227271D01*
X61265000Y-49407911D01*
X61265000Y-49592089D01*
X61300932Y-49772729D01*
X61371414Y-49942889D01*
X61473738Y-50096028D01*
X61603972Y-50226262D01*
X61757111Y-50328586D01*
X61927271Y-50399068D01*
X62107911Y-50435000D01*
X62292089Y-50435000D01*
X62472729Y-50399068D01*
X62642889Y-50328586D01*
X62796028Y-50226262D01*
X62926262Y-50096028D01*
X63028586Y-49942889D01*
X63099068Y-49772729D01*
X63135000Y-49592089D01*
X63135000Y-49407911D01*
X63099068Y-49227271D01*
X63028586Y-49057111D01*
X62926262Y-48903972D01*
X62898500Y-48876210D01*
X62898500Y-48723790D01*
X62926262Y-48696028D01*
X63028586Y-48542889D01*
X63099068Y-48372729D01*
X63135000Y-48192089D01*
X63135000Y-48007911D01*
X63099068Y-47827271D01*
X63028586Y-47657111D01*
X62926262Y-47503972D01*
X62796028Y-47373738D01*
X62700877Y-47310160D01*
X62701878Y-47300000D01*
X62698500Y-47265702D01*
X62698500Y-46338967D01*
X68365000Y-46338967D01*
X68365000Y-46661033D01*
X68427832Y-46976912D01*
X68551082Y-47274463D01*
X68730013Y-47542252D01*
X68957748Y-47769987D01*
X69225537Y-47948918D01*
X69523088Y-48072168D01*
X69838967Y-48135000D01*
X70161033Y-48135000D01*
X70476912Y-48072168D01*
X70774463Y-47948918D01*
X71042252Y-47769987D01*
X71176826Y-47635413D01*
X71544192Y-47635413D01*
X71639956Y-47899814D01*
X71929571Y-48040704D01*
X72241108Y-48122384D01*
X72562595Y-48141718D01*
X72881675Y-48097961D01*
X73186088Y-47992795D01*
X73360044Y-47899814D01*
X73455808Y-47635413D01*
X72500000Y-46679605D01*
X71544192Y-47635413D01*
X71176826Y-47635413D01*
X71269987Y-47542252D01*
X71334925Y-47445065D01*
X71364587Y-47455808D01*
X72320395Y-46500000D01*
X71364587Y-45544192D01*
X71334925Y-45554935D01*
X71269987Y-45457748D01*
X71176826Y-45364587D01*
X71544192Y-45364587D01*
X72500000Y-46320395D01*
X73455808Y-45364587D01*
X73360044Y-45100186D01*
X73070429Y-44959296D01*
X72758892Y-44877616D01*
X72437405Y-44858282D01*
X72118325Y-44902039D01*
X71813912Y-45007205D01*
X71639956Y-45100186D01*
X71544192Y-45364587D01*
X71176826Y-45364587D01*
X71042252Y-45230013D01*
X70774463Y-45051082D01*
X70476912Y-44927832D01*
X70161033Y-44865000D01*
X69838967Y-44865000D01*
X69523088Y-44927832D01*
X69225537Y-45051082D01*
X68957748Y-45230013D01*
X68730013Y-45457748D01*
X68551082Y-45725537D01*
X68427832Y-46023088D01*
X68365000Y-46338967D01*
X62698500Y-46338967D01*
X62698500Y-40800000D01*
X64761928Y-40800000D01*
X64774188Y-40924482D01*
X64810498Y-41044180D01*
X64869463Y-41154494D01*
X64948815Y-41251185D01*
X65045506Y-41330537D01*
X65155820Y-41389502D01*
X65275518Y-41425812D01*
X65400000Y-41438072D01*
X66514250Y-41435000D01*
X66673000Y-41276250D01*
X66673000Y-39127000D01*
X66927000Y-39127000D01*
X66927000Y-41276250D01*
X67085750Y-41435000D01*
X68200000Y-41438072D01*
X68324482Y-41425812D01*
X68444180Y-41389502D01*
X68554494Y-41330537D01*
X68651185Y-41251185D01*
X68730537Y-41154494D01*
X68789502Y-41044180D01*
X68825812Y-40924482D01*
X68838072Y-40800000D01*
X68835000Y-39285750D01*
X68676250Y-39127000D01*
X66927000Y-39127000D01*
X66673000Y-39127000D01*
X64923750Y-39127000D01*
X64765000Y-39285750D01*
X64761928Y-40800000D01*
X62698500Y-40800000D01*
X62698500Y-38589327D01*
X64087827Y-37200000D01*
X64761928Y-37200000D01*
X64765000Y-38714250D01*
X64923750Y-38873000D01*
X66673000Y-38873000D01*
X66673000Y-36723750D01*
X66927000Y-36723750D01*
X66927000Y-38873000D01*
X68676250Y-38873000D01*
X68835000Y-38714250D01*
X68838072Y-37200000D01*
X68825812Y-37075518D01*
X68789502Y-36955820D01*
X68730537Y-36845506D01*
X68651185Y-36748815D01*
X68554494Y-36669463D01*
X68444180Y-36610498D01*
X68324482Y-36574188D01*
X68200000Y-36561928D01*
X67085750Y-36565000D01*
X66927000Y-36723750D01*
X66673000Y-36723750D01*
X66514250Y-36565000D01*
X65400000Y-36561928D01*
X65275518Y-36574188D01*
X65155820Y-36610498D01*
X65045506Y-36669463D01*
X64948815Y-36748815D01*
X64869463Y-36845506D01*
X64810498Y-36955820D01*
X64774188Y-37075518D01*
X64761928Y-37200000D01*
X64087827Y-37200000D01*
X68752828Y-32535000D01*
X68792089Y-32535000D01*
X68972729Y-32499068D01*
X69142889Y-32428586D01*
X69296028Y-32326262D01*
X69426262Y-32196028D01*
X69528586Y-32042889D01*
X69599068Y-31872729D01*
X69635000Y-31692089D01*
X69635000Y-31507911D01*
X69599068Y-31327271D01*
X69528586Y-31157111D01*
X69426262Y-31003972D01*
X69296028Y-30873738D01*
X69142889Y-30771414D01*
X69124168Y-30763660D01*
X71152828Y-28735000D01*
X71192089Y-28735000D01*
X71372729Y-28699068D01*
X71542889Y-28628586D01*
X71696028Y-28526262D01*
X71826262Y-28396028D01*
X71928586Y-28242889D01*
X71999068Y-28072729D01*
X72035000Y-27892089D01*
X72035000Y-27707911D01*
X71999068Y-27527271D01*
X71928586Y-27357111D01*
X71826262Y-27203972D01*
X71696028Y-27073738D01*
X71542889Y-26971414D01*
X71372729Y-26900932D01*
X71192089Y-26865000D01*
X71007911Y-26865000D01*
X70827271Y-26900932D01*
X70657111Y-26971414D01*
X70503972Y-27073738D01*
X70373738Y-27203972D01*
X70271414Y-27357111D01*
X70200932Y-27527271D01*
X70165000Y-27707911D01*
X70165000Y-27747172D01*
X60630344Y-37281829D01*
X60603698Y-37303697D01*
X60581830Y-37330343D01*
X60581826Y-37330347D01*
X60516409Y-37410057D01*
X60451549Y-37531402D01*
X60444008Y-37556262D01*
X60414930Y-37652121D01*
X60411608Y-37663071D01*
X60398122Y-37800000D01*
X60401501Y-37834308D01*
X60401500Y-45610672D01*
X60110673Y-45901500D01*
X51891428Y-45901500D01*
X51826262Y-45803972D01*
X51696028Y-45673738D01*
X51542889Y-45571414D01*
X51372729Y-45500932D01*
X51192089Y-45465000D01*
X51007911Y-45465000D01*
X50960000Y-45474530D01*
X50960000Y-35137332D01*
X50963677Y-35100000D01*
X50960000Y-35062667D01*
X50960000Y-34521491D01*
X51072729Y-34499068D01*
X51242889Y-34428586D01*
X51250000Y-34423835D01*
X51257111Y-34428586D01*
X51427271Y-34499068D01*
X51607911Y-34535000D01*
X51792089Y-34535000D01*
X51972729Y-34499068D01*
X52087274Y-34451622D01*
X52135111Y-34483586D01*
X52305271Y-34554068D01*
X52485911Y-34590000D01*
X52670089Y-34590000D01*
X52850729Y-34554068D01*
X53020889Y-34483586D01*
X53174028Y-34381262D01*
X53304262Y-34251028D01*
X53406586Y-34097889D01*
X53477068Y-33927729D01*
X53513000Y-33747089D01*
X53513000Y-33562911D01*
X53477068Y-33382271D01*
X53406586Y-33212111D01*
X53403500Y-33207492D01*
X53403500Y-31865790D01*
X53431262Y-31838028D01*
X53533586Y-31684889D01*
X53604068Y-31514729D01*
X53640000Y-31334089D01*
X53640000Y-31149911D01*
X53604068Y-30969271D01*
X53562334Y-30868514D01*
X53665000Y-30868514D01*
X53665000Y-31131486D01*
X53716304Y-31389405D01*
X53816939Y-31632359D01*
X53963038Y-31851013D01*
X54148987Y-32036962D01*
X54367641Y-32183061D01*
X54610595Y-32283696D01*
X54868514Y-32335000D01*
X55131486Y-32335000D01*
X55389405Y-32283696D01*
X55632359Y-32183061D01*
X55851013Y-32036962D01*
X56036962Y-31851013D01*
X56183061Y-31632359D01*
X56270000Y-31422470D01*
X56356939Y-31632359D01*
X56503038Y-31851013D01*
X56688987Y-32036962D01*
X56901501Y-32178958D01*
X56901500Y-33276210D01*
X56873738Y-33303972D01*
X56771414Y-33457111D01*
X56700932Y-33627271D01*
X56665000Y-33807911D01*
X56665000Y-33992089D01*
X56700932Y-34172729D01*
X56771414Y-34342889D01*
X56873738Y-34496028D01*
X57003972Y-34626262D01*
X57157111Y-34728586D01*
X57327271Y-34799068D01*
X57507911Y-34835000D01*
X57692089Y-34835000D01*
X57872729Y-34799068D01*
X58042889Y-34728586D01*
X58196028Y-34626262D01*
X58326262Y-34496028D01*
X58428586Y-34342889D01*
X58499068Y-34172729D01*
X58535000Y-33992089D01*
X58535000Y-33807911D01*
X58499068Y-33627271D01*
X58428586Y-33457111D01*
X58326262Y-33303972D01*
X58298500Y-33276210D01*
X58298500Y-32098777D01*
X58391013Y-32036962D01*
X58576962Y-31851013D01*
X58723061Y-31632359D01*
X58823696Y-31389405D01*
X58875000Y-31131486D01*
X58875000Y-30868514D01*
X58823696Y-30610595D01*
X58723061Y-30367641D01*
X58576962Y-30148987D01*
X58391013Y-29963038D01*
X58172359Y-29816939D01*
X57929405Y-29716304D01*
X57671486Y-29665000D01*
X57408514Y-29665000D01*
X57301551Y-29686277D01*
X59389328Y-27598500D01*
X67476210Y-27598500D01*
X67503972Y-27626262D01*
X67657111Y-27728586D01*
X67827271Y-27799068D01*
X68007911Y-27835000D01*
X68192089Y-27835000D01*
X68372729Y-27799068D01*
X68542889Y-27728586D01*
X68696028Y-27626262D01*
X68826262Y-27496028D01*
X68928586Y-27342889D01*
X68999068Y-27172729D01*
X69035000Y-26992089D01*
X69035000Y-26807911D01*
X69001037Y-26637172D01*
X69151013Y-26536962D01*
X69336962Y-26351013D01*
X69483061Y-26132359D01*
X69583696Y-25889405D01*
X69635000Y-25631486D01*
X69635000Y-25368514D01*
X73965000Y-25368514D01*
X73965000Y-25631486D01*
X74016304Y-25889405D01*
X74116939Y-26132359D01*
X74263038Y-26351013D01*
X74448987Y-26536962D01*
X74667641Y-26683061D01*
X74910595Y-26783696D01*
X74911000Y-26783777D01*
X74911000Y-26924113D01*
X74950774Y-27124072D01*
X75028795Y-27312430D01*
X75142063Y-27481948D01*
X75186001Y-27525886D01*
X75186000Y-39301289D01*
X75142063Y-39345226D01*
X75028795Y-39514744D01*
X74950774Y-39703102D01*
X74911000Y-39903061D01*
X74911000Y-40106939D01*
X74950774Y-40306898D01*
X75028795Y-40495256D01*
X75142063Y-40664774D01*
X75286226Y-40808937D01*
X75455744Y-40922205D01*
X75644102Y-41000226D01*
X75844061Y-41040000D01*
X76047939Y-41040000D01*
X76200052Y-41009743D01*
X76210498Y-41044180D01*
X76269463Y-41154494D01*
X76348815Y-41251185D01*
X76445506Y-41330537D01*
X76555820Y-41389502D01*
X76675518Y-41425812D01*
X76800000Y-41438072D01*
X77914250Y-41435000D01*
X78073000Y-41276250D01*
X78073000Y-39127000D01*
X78053000Y-39127000D01*
X78053000Y-38873000D01*
X78073000Y-38873000D01*
X78073000Y-36723750D01*
X77914250Y-36565000D01*
X76800000Y-36561928D01*
X76706000Y-36571186D01*
X76706000Y-33136852D01*
X76904941Y-33232291D01*
X77196407Y-33307012D01*
X77496849Y-33323435D01*
X77794723Y-33280929D01*
X78078580Y-33181127D01*
X78226348Y-33102144D01*
X78309123Y-32848728D01*
X77430000Y-31969605D01*
X77415858Y-31983748D01*
X77236253Y-31804143D01*
X77250395Y-31790000D01*
X77609605Y-31790000D01*
X78488728Y-32669123D01*
X78742144Y-32586348D01*
X78872291Y-32315059D01*
X78947012Y-32023593D01*
X78963435Y-31723151D01*
X78920929Y-31425277D01*
X78821127Y-31141420D01*
X78742144Y-30993652D01*
X78488728Y-30910877D01*
X77609605Y-31790000D01*
X77250395Y-31790000D01*
X77236253Y-31775858D01*
X77415858Y-31596253D01*
X77430000Y-31610395D01*
X78309123Y-30731272D01*
X78226348Y-30477856D01*
X77955059Y-30347709D01*
X77663593Y-30272988D01*
X77363151Y-30256565D01*
X77065277Y-30299071D01*
X76781420Y-30398873D01*
X76706000Y-30439186D01*
X76706000Y-27525885D01*
X76749937Y-27481948D01*
X76863205Y-27312430D01*
X76941226Y-27124072D01*
X76981000Y-26924113D01*
X76981000Y-26720235D01*
X76941226Y-26520276D01*
X76863205Y-26331918D01*
X76749937Y-26162400D01*
X76605774Y-26018237D01*
X76546686Y-25978756D01*
X76583696Y-25889405D01*
X76635000Y-25631486D01*
X76635000Y-25368514D01*
X76583696Y-25110595D01*
X76483061Y-24867641D01*
X76336962Y-24648987D01*
X76151013Y-24463038D01*
X75932359Y-24316939D01*
X75689405Y-24216304D01*
X75431486Y-24165000D01*
X75168514Y-24165000D01*
X74910595Y-24216304D01*
X74667641Y-24316939D01*
X74448987Y-24463038D01*
X74263038Y-24648987D01*
X74116939Y-24867641D01*
X74016304Y-25110595D01*
X73965000Y-25368514D01*
X69635000Y-25368514D01*
X69583696Y-25110595D01*
X69483061Y-24867641D01*
X69336962Y-24648987D01*
X69151013Y-24463038D01*
X68932359Y-24316939D01*
X68689405Y-24216304D01*
X68431486Y-24165000D01*
X68168514Y-24165000D01*
X67910595Y-24216304D01*
X67667641Y-24316939D01*
X67448987Y-24463038D01*
X67263038Y-24648987D01*
X67116939Y-24867641D01*
X67016304Y-25110595D01*
X66965000Y-25368514D01*
X66965000Y-25631486D01*
X67016304Y-25889405D01*
X67116939Y-26132359D01*
X67163137Y-26201500D01*
X59134298Y-26201500D01*
X59100000Y-26198122D01*
X59065702Y-26201500D01*
X59065691Y-26201500D01*
X58963070Y-26211607D01*
X58831403Y-26251548D01*
X58761330Y-26289003D01*
X58710057Y-26316409D01*
X58630346Y-26381826D01*
X58630343Y-26381829D01*
X58603697Y-26403697D01*
X58581829Y-26430343D01*
X55311388Y-29700785D01*
X55131486Y-29665000D01*
X54868514Y-29665000D01*
X54610595Y-29716304D01*
X54367641Y-29816939D01*
X54148987Y-29963038D01*
X53963038Y-30148987D01*
X53816939Y-30367641D01*
X53716304Y-30610595D01*
X53665000Y-30868514D01*
X53562334Y-30868514D01*
X53533586Y-30799111D01*
X53431262Y-30645972D01*
X53301028Y-30515738D01*
X53147889Y-30413414D01*
X52977729Y-30342932D01*
X52797089Y-30307000D01*
X52612911Y-30307000D01*
X52432271Y-30342932D01*
X52262111Y-30413414D01*
X52140674Y-30494556D01*
X52090271Y-30484530D01*
X55603315Y-26971487D01*
X55708889Y-27003513D01*
X55927050Y-27025000D01*
X56072950Y-27025000D01*
X56291111Y-27003513D01*
X56571034Y-26918599D01*
X56829014Y-26780706D01*
X57055134Y-26595134D01*
X57240706Y-26369014D01*
X57378599Y-26111034D01*
X57463513Y-25831111D01*
X57492185Y-25540000D01*
X57463513Y-25248889D01*
X57378599Y-24968966D01*
X57240706Y-24710986D01*
X57055134Y-24484866D01*
X57025313Y-24460393D01*
X57094180Y-24439502D01*
X57204494Y-24380537D01*
X57301185Y-24301185D01*
X57380537Y-24204494D01*
X57439502Y-24094180D01*
X57475812Y-23974482D01*
X57488072Y-23850000D01*
X57485000Y-23285750D01*
X57326250Y-23127000D01*
X56127000Y-23127000D01*
X56127000Y-23147000D01*
X55873000Y-23147000D01*
X55873000Y-23127000D01*
X55853000Y-23127000D01*
X55853000Y-22873000D01*
X55873000Y-22873000D01*
X55873000Y-21673750D01*
X56127000Y-21673750D01*
X56127000Y-22873000D01*
X57326250Y-22873000D01*
X57485000Y-22714250D01*
X57488072Y-22150000D01*
X57475812Y-22025518D01*
X57439502Y-21905820D01*
X57380537Y-21795506D01*
X57301185Y-21698815D01*
X57204494Y-21619463D01*
X57094180Y-21560498D01*
X56974482Y-21524188D01*
X56850000Y-21511928D01*
X56285750Y-21515000D01*
X56127000Y-21673750D01*
X55873000Y-21673750D01*
X55714250Y-21515000D01*
X55150000Y-21511928D01*
X55025518Y-21524188D01*
X54905820Y-21560498D01*
X54795506Y-21619463D01*
X54698815Y-21698815D01*
X54619463Y-21795506D01*
X54560498Y-21905820D01*
X54539607Y-21974687D01*
X54515134Y-21944866D01*
X54289014Y-21759294D01*
X54031034Y-21621401D01*
X53751111Y-21536487D01*
X53532950Y-21515000D01*
X53387050Y-21515000D01*
X53168889Y-21536487D01*
X52888966Y-21621401D01*
X52630986Y-21759294D01*
X52404866Y-21944866D01*
X52219294Y-22170986D01*
X52190000Y-22225791D01*
X52160706Y-22170986D01*
X51975134Y-21944866D01*
X51749014Y-21759294D01*
X51491034Y-21621401D01*
X51211111Y-21536487D01*
X50992950Y-21515000D01*
X50847050Y-21515000D01*
X50628889Y-21536487D01*
X50348966Y-21621401D01*
X50090986Y-21759294D01*
X49864866Y-21944866D01*
X49679294Y-22170986D01*
X49650000Y-22225791D01*
X49620706Y-22170986D01*
X49435134Y-21944866D01*
X49209014Y-21759294D01*
X48951034Y-21621401D01*
X48671111Y-21536487D01*
X48452950Y-21515000D01*
X48307050Y-21515000D01*
X48088889Y-21536487D01*
X47808966Y-21621401D01*
X47550986Y-21759294D01*
X47324866Y-21944866D01*
X47139294Y-22170986D01*
X47110000Y-22225791D01*
X47080706Y-22170986D01*
X46895134Y-21944866D01*
X46669014Y-21759294D01*
X46411034Y-21621401D01*
X46131111Y-21536487D01*
X45912950Y-21515000D01*
X45767050Y-21515000D01*
X45548889Y-21536487D01*
X45268966Y-21621401D01*
X45010986Y-21759294D01*
X44784866Y-21944866D01*
X44599294Y-22170986D01*
X44570000Y-22225791D01*
X44540706Y-22170986D01*
X44355134Y-21944866D01*
X44129014Y-21759294D01*
X43871034Y-21621401D01*
X43591111Y-21536487D01*
X43372950Y-21515000D01*
X43227050Y-21515000D01*
X43008889Y-21536487D01*
X42728966Y-21621401D01*
X42470986Y-21759294D01*
X42244866Y-21944866D01*
X42059294Y-22170986D01*
X41921401Y-22428966D01*
X41836487Y-22708889D01*
X41807815Y-23000000D01*
X41836487Y-23291111D01*
X41879446Y-23432726D01*
X34582344Y-30729829D01*
X34570686Y-30739396D01*
X34508262Y-30645972D01*
X34378028Y-30515738D01*
X34224889Y-30413414D01*
X34054729Y-30342932D01*
X33874089Y-30307000D01*
X33689911Y-30307000D01*
X33509271Y-30342932D01*
X33339111Y-30413414D01*
X33185972Y-30515738D01*
X33055738Y-30645972D01*
X32953414Y-30799111D01*
X32882932Y-30969271D01*
X32847000Y-31149911D01*
X32847000Y-31334089D01*
X32882932Y-31514729D01*
X32953414Y-31684889D01*
X33055738Y-31838028D01*
X33185972Y-31968262D01*
X33339111Y-32070586D01*
X33509271Y-32141068D01*
X33689911Y-32177000D01*
X33729172Y-32177000D01*
X33845501Y-32293329D01*
X33845500Y-35825210D01*
X33817738Y-35852972D01*
X33715414Y-36006111D01*
X33644932Y-36176271D01*
X33609000Y-36356911D01*
X33609000Y-36541089D01*
X33613686Y-36564647D01*
X33485750Y-36565000D01*
X33327000Y-36723750D01*
X33327000Y-38873000D01*
X33347000Y-38873000D01*
X33347000Y-39127000D01*
X33327000Y-39127000D01*
X33327000Y-41276250D01*
X33485750Y-41435000D01*
X33988812Y-41436387D01*
X33985199Y-41440000D01*
X31145535Y-41440000D01*
X31042889Y-41371414D01*
X30872729Y-41300932D01*
X30692089Y-41265000D01*
X30507911Y-41265000D01*
X30327271Y-41300932D01*
X30157111Y-41371414D01*
X30003972Y-41473738D01*
X29873738Y-41603972D01*
X29771414Y-41757111D01*
X29700932Y-41927271D01*
X29665000Y-42107911D01*
X29665000Y-42292089D01*
X29700932Y-42472729D01*
X29771414Y-42642889D01*
X29873738Y-42796028D01*
X30003972Y-42926262D01*
X30157111Y-43028586D01*
X30327271Y-43099068D01*
X30507911Y-43135000D01*
X30692089Y-43135000D01*
X30872729Y-43099068D01*
X31042889Y-43028586D01*
X31145535Y-42960000D01*
X34262678Y-42960000D01*
X34300000Y-42963676D01*
X34337322Y-42960000D01*
X34337333Y-42960000D01*
X34448986Y-42949003D01*
X34592247Y-42905546D01*
X34724276Y-42834974D01*
X34840001Y-42740001D01*
X34863804Y-42710997D01*
X35877500Y-41697301D01*
X35877500Y-44796702D01*
X35874122Y-44831000D01*
X35877500Y-44865298D01*
X35877500Y-44865308D01*
X35887607Y-44967929D01*
X35927548Y-45099596D01*
X35927549Y-45099598D01*
X35992409Y-45220943D01*
X36057826Y-45300653D01*
X36057829Y-45300656D01*
X36079697Y-45327302D01*
X36106344Y-45349171D01*
X41643941Y-50886769D01*
X41564738Y-50965972D01*
X41462414Y-51119111D01*
X41391932Y-51289271D01*
X41356000Y-51469911D01*
X41356000Y-51636172D01*
X41095172Y-51897000D01*
X41055911Y-51897000D01*
X40875271Y-51932932D01*
X40705111Y-52003414D01*
X40551972Y-52105738D01*
X40421738Y-52235972D01*
X40319414Y-52389111D01*
X40248932Y-52559271D01*
X40213000Y-52739911D01*
X40213000Y-52913000D01*
X40166911Y-52913000D01*
X39986271Y-52948932D01*
X39816111Y-53019414D01*
X39687500Y-53105349D01*
X39687500Y-50661790D01*
X39715262Y-50634028D01*
X39817586Y-50480889D01*
X39888068Y-50310729D01*
X39924000Y-50130089D01*
X39924000Y-49945911D01*
X39888068Y-49765271D01*
X39817586Y-49595111D01*
X39715262Y-49441972D01*
X39585028Y-49311738D01*
X39431889Y-49209414D01*
X39261729Y-49138932D01*
X39081089Y-49103000D01*
X38896911Y-49103000D01*
X38716271Y-49138932D01*
X38546111Y-49209414D01*
X38392972Y-49311738D01*
X38262738Y-49441972D01*
X38160414Y-49595111D01*
X38089932Y-49765271D01*
X38054000Y-49945911D01*
X38054000Y-50130089D01*
X38089932Y-50310729D01*
X38160414Y-50480889D01*
X38262738Y-50634028D01*
X38290501Y-50661791D01*
X38290500Y-53558671D01*
X33365673Y-58483500D01*
X32373790Y-58483500D01*
X32346028Y-58455738D01*
X32192889Y-58353414D01*
X32022729Y-58282932D01*
X31842089Y-58247000D01*
X31657911Y-58247000D01*
X31477271Y-58282932D01*
X31307111Y-58353414D01*
X31153972Y-58455738D01*
X31023738Y-58585972D01*
X30921414Y-58739111D01*
X30850932Y-58909271D01*
X30815000Y-59089911D01*
X30815000Y-59274089D01*
X30850932Y-59454729D01*
X30921414Y-59624889D01*
X31023738Y-59778028D01*
X31153972Y-59908262D01*
X31307111Y-60010586D01*
X31477271Y-60081068D01*
X31657911Y-60117000D01*
X31842089Y-60117000D01*
X32022729Y-60081068D01*
X32192889Y-60010586D01*
X32346028Y-59908262D01*
X32373790Y-59880500D01*
X33620702Y-59880500D01*
X33655000Y-59883878D01*
X33689298Y-59880500D01*
X33689309Y-59880500D01*
X33791930Y-59870393D01*
X33923597Y-59830452D01*
X34044943Y-59765591D01*
X34151303Y-59678303D01*
X34173175Y-59651652D01*
X39458667Y-54366162D01*
X39472903Y-54354479D01*
X39532738Y-54444028D01*
X39560500Y-54471790D01*
X39560501Y-65663700D01*
X38473171Y-64576370D01*
X38494696Y-64524405D01*
X38546000Y-64266486D01*
X38546000Y-64003514D01*
X38494696Y-63745595D01*
X38394061Y-63502641D01*
X38247962Y-63283987D01*
X38062013Y-63098038D01*
X37843359Y-62951939D01*
X37600405Y-62851304D01*
X37342486Y-62800000D01*
X37079514Y-62800000D01*
X36821595Y-62851304D01*
X36578641Y-62951939D01*
X36359987Y-63098038D01*
X36174038Y-63283987D01*
X36027939Y-63502641D01*
X35941000Y-63712530D01*
X35854061Y-63502641D01*
X35707962Y-63283987D01*
X35522013Y-63098038D01*
X35303359Y-62951939D01*
X35060405Y-62851304D01*
X34802486Y-62800000D01*
X34539514Y-62800000D01*
X34281595Y-62851304D01*
X34038641Y-62951939D01*
X33819987Y-63098038D01*
X33634038Y-63283987D01*
X33487939Y-63502641D01*
X33387304Y-63745595D01*
X33336000Y-64003514D01*
X33336000Y-64266486D01*
X33387304Y-64524405D01*
X33487939Y-64767359D01*
X33634038Y-64986013D01*
X33819987Y-65171962D01*
X34038641Y-65318061D01*
X34281595Y-65418696D01*
X34539514Y-65470000D01*
X34802486Y-65470000D01*
X35060405Y-65418696D01*
X35303359Y-65318061D01*
X35522013Y-65171962D01*
X35707962Y-64986013D01*
X35854061Y-64767359D01*
X35941000Y-64557470D01*
X36027939Y-64767359D01*
X36174038Y-64986013D01*
X36359987Y-65171962D01*
X36578641Y-65318061D01*
X36821595Y-65418696D01*
X37079514Y-65470000D01*
X37217199Y-65470000D01*
X40324644Y-68577446D01*
X40271414Y-68657111D01*
X40200932Y-68827271D01*
X40165000Y-69007911D01*
X40165000Y-69192089D01*
X40200932Y-69372729D01*
X40271414Y-69542889D01*
X40373738Y-69696028D01*
X40501500Y-69823790D01*
X40501501Y-74776209D01*
X40473738Y-74803972D01*
X40371414Y-74957111D01*
X40300932Y-75127271D01*
X40277017Y-75247500D01*
X39612790Y-75247500D01*
X39585028Y-75219738D01*
X39431889Y-75117414D01*
X39261729Y-75046932D01*
X39081089Y-75011000D01*
X38896911Y-75011000D01*
X38716271Y-75046932D01*
X38546111Y-75117414D01*
X38392972Y-75219738D01*
X38262738Y-75349972D01*
X38160414Y-75503111D01*
X38089932Y-75673271D01*
X38054000Y-75853911D01*
X38054000Y-76038089D01*
X38089932Y-76218729D01*
X38160414Y-76388889D01*
X38262738Y-76542028D01*
X38392972Y-76672262D01*
X38546111Y-76774586D01*
X38716271Y-76845068D01*
X38779128Y-76857571D01*
X38795414Y-76896889D01*
X38796490Y-76898500D01*
X37707790Y-76898500D01*
X37680028Y-76870738D01*
X37526889Y-76768414D01*
X37356729Y-76697932D01*
X37176089Y-76662000D01*
X36991911Y-76662000D01*
X36811271Y-76697932D01*
X36641111Y-76768414D01*
X36487972Y-76870738D01*
X36357738Y-77000972D01*
X36255414Y-77154111D01*
X36184932Y-77324271D01*
X36169570Y-77401500D01*
X35308379Y-77401500D01*
X35325000Y-77317939D01*
X35325000Y-77258671D01*
X35338001Y-77248001D01*
X35432974Y-77132276D01*
X35503546Y-77000247D01*
X35547003Y-76856986D01*
X35558000Y-76745333D01*
X35558000Y-76745324D01*
X35561676Y-76708001D01*
X35558000Y-76670678D01*
X35558000Y-73855711D01*
X35601937Y-73811774D01*
X35715205Y-73642256D01*
X35793226Y-73453898D01*
X35833000Y-73253939D01*
X35833000Y-73050061D01*
X35793226Y-72850102D01*
X35715205Y-72661744D01*
X35601937Y-72492226D01*
X35558000Y-72448289D01*
X35558000Y-71411333D01*
X35561677Y-71374000D01*
X35547003Y-71225014D01*
X35503546Y-71081753D01*
X35432974Y-70949724D01*
X35338001Y-70833999D01*
X35222276Y-70739026D01*
X35090247Y-70668454D01*
X34946986Y-70624997D01*
X34835333Y-70614000D01*
X34798000Y-70610323D01*
X34760667Y-70614000D01*
X32953802Y-70614000D01*
X31805804Y-69466003D01*
X31782001Y-69436999D01*
X31666276Y-69342026D01*
X31534247Y-69271454D01*
X31519944Y-69267115D01*
X30797500Y-68544673D01*
X30797500Y-67559867D01*
X30950013Y-67457962D01*
X31135962Y-67272013D01*
X31282061Y-67053359D01*
X31382696Y-66810405D01*
X31434000Y-66552486D01*
X31434000Y-66289514D01*
X31382696Y-66031595D01*
X31282061Y-65788641D01*
X31135962Y-65569987D01*
X30950013Y-65384038D01*
X30731359Y-65237939D01*
X30521470Y-65151000D01*
X30731359Y-65064061D01*
X30950013Y-64917962D01*
X31135962Y-64732013D01*
X31282061Y-64513359D01*
X31382696Y-64270405D01*
X31434000Y-64012486D01*
X31434000Y-63749514D01*
X31382696Y-63491595D01*
X31282061Y-63248641D01*
X31135962Y-63029987D01*
X30950013Y-62844038D01*
X30731359Y-62697939D01*
X30488405Y-62597304D01*
X30230486Y-62546000D01*
X29967514Y-62546000D01*
X29709595Y-62597304D01*
X29466641Y-62697939D01*
X29247987Y-62844038D01*
X29146500Y-62945525D01*
X29146500Y-59598327D01*
X31711662Y-57033166D01*
X31738302Y-57011303D01*
X31760167Y-56984661D01*
X31760174Y-56984654D01*
X31825591Y-56904944D01*
X31860260Y-56840083D01*
X31890452Y-56783597D01*
X31930393Y-56651930D01*
X31940500Y-56549309D01*
X31940500Y-56549298D01*
X31943878Y-56515000D01*
X31940500Y-56480702D01*
X31940500Y-50326297D01*
X31943878Y-50291999D01*
X31940500Y-50257701D01*
X31940500Y-50257691D01*
X31930393Y-50155070D01*
X31890452Y-50023403D01*
X31888243Y-50019271D01*
X31825591Y-49902056D01*
X31760173Y-49822345D01*
X31760171Y-49822343D01*
X31738303Y-49795697D01*
X31711657Y-49773829D01*
X31669000Y-49731172D01*
X31669000Y-49691911D01*
X31633068Y-49511271D01*
X31562586Y-49341111D01*
X31460262Y-49187972D01*
X31330028Y-49057738D01*
X31176889Y-48955414D01*
X31006729Y-48884932D01*
X30826089Y-48849000D01*
X30641911Y-48849000D01*
X30497218Y-48877782D01*
X30526000Y-48733089D01*
X30526000Y-48704500D01*
X31334702Y-48704500D01*
X31369000Y-48707878D01*
X31403298Y-48704500D01*
X31403309Y-48704500D01*
X31505930Y-48694393D01*
X31637597Y-48654452D01*
X31758943Y-48589591D01*
X31865303Y-48502303D01*
X31887175Y-48475652D01*
X32346661Y-48016167D01*
X32373302Y-47994303D01*
X32395167Y-47967661D01*
X32395173Y-47967655D01*
X32460591Y-47887944D01*
X32525451Y-47766599D01*
X32525452Y-47766596D01*
X32565393Y-47634930D01*
X32575500Y-47532309D01*
X32575500Y-47532299D01*
X32578878Y-47498001D01*
X32575500Y-47463703D01*
X32575500Y-46008298D01*
X32578878Y-45974000D01*
X32575500Y-45939702D01*
X32575500Y-45939691D01*
X32565393Y-45837070D01*
X32525452Y-45705403D01*
X32460591Y-45584057D01*
X32450215Y-45571414D01*
X32395174Y-45504346D01*
X32395171Y-45504343D01*
X32373303Y-45477697D01*
X32346657Y-45455829D01*
X27876500Y-40985673D01*
X27876500Y-40800000D01*
X31161928Y-40800000D01*
X31174188Y-40924482D01*
X31210498Y-41044180D01*
X31269463Y-41154494D01*
X31348815Y-41251185D01*
X31445506Y-41330537D01*
X31555820Y-41389502D01*
X31675518Y-41425812D01*
X31800000Y-41438072D01*
X32914250Y-41435000D01*
X33073000Y-41276250D01*
X33073000Y-39127000D01*
X31323750Y-39127000D01*
X31165000Y-39285750D01*
X31161928Y-40800000D01*
X27876500Y-40800000D01*
X27876500Y-37200000D01*
X31161928Y-37200000D01*
X31165000Y-38714250D01*
X31323750Y-38873000D01*
X33073000Y-38873000D01*
X33073000Y-36723750D01*
X32914250Y-36565000D01*
X31800000Y-36561928D01*
X31675518Y-36574188D01*
X31555820Y-36610498D01*
X31445506Y-36669463D01*
X31348815Y-36748815D01*
X31269463Y-36845506D01*
X31210498Y-36955820D01*
X31174188Y-37075518D01*
X31161928Y-37200000D01*
X27876500Y-37200000D01*
X27876500Y-25368514D01*
X30765000Y-25368514D01*
X30765000Y-25631486D01*
X30816304Y-25889405D01*
X30916939Y-26132359D01*
X31063038Y-26351013D01*
X31248987Y-26536962D01*
X31467641Y-26683061D01*
X31710595Y-26783696D01*
X31968514Y-26835000D01*
X32231486Y-26835000D01*
X32489405Y-26783696D01*
X32732359Y-26683061D01*
X32951013Y-26536962D01*
X33136962Y-26351013D01*
X33283061Y-26132359D01*
X33383696Y-25889405D01*
X33435000Y-25631486D01*
X33435000Y-25368514D01*
X33383696Y-25110595D01*
X33283061Y-24867641D01*
X33136962Y-24648987D01*
X32951013Y-24463038D01*
X32732359Y-24316939D01*
X32489405Y-24216304D01*
X32231486Y-24165000D01*
X31968514Y-24165000D01*
X31710595Y-24216304D01*
X31467641Y-24316939D01*
X31248987Y-24463038D01*
X31063038Y-24648987D01*
X30916939Y-24867641D01*
X30816304Y-25110595D01*
X30765000Y-25368514D01*
X27876500Y-25368514D01*
X27876500Y-24800327D01*
X29527916Y-23148911D01*
X34625000Y-23148911D01*
X34625000Y-23333089D01*
X34660932Y-23513729D01*
X34731414Y-23683889D01*
X34833738Y-23837028D01*
X34861501Y-23864791D01*
X34861500Y-24268210D01*
X34833738Y-24295972D01*
X34731414Y-24449111D01*
X34660932Y-24619271D01*
X34625000Y-24799911D01*
X34625000Y-24984089D01*
X34660932Y-25164729D01*
X34731414Y-25334889D01*
X34833738Y-25488028D01*
X34963972Y-25618262D01*
X35117111Y-25720586D01*
X35287271Y-25791068D01*
X35467911Y-25827000D01*
X35652089Y-25827000D01*
X35832729Y-25791068D01*
X36002889Y-25720586D01*
X36156028Y-25618262D01*
X36286262Y-25488028D01*
X36388586Y-25334889D01*
X36459068Y-25164729D01*
X36495000Y-24984089D01*
X36495000Y-24799911D01*
X36459068Y-24619271D01*
X36388586Y-24449111D01*
X36286262Y-24295972D01*
X36258500Y-24268210D01*
X36258500Y-23864790D01*
X36286262Y-23837028D01*
X36388586Y-23683889D01*
X36459068Y-23513729D01*
X36495000Y-23333089D01*
X36495000Y-23148911D01*
X36459068Y-22968271D01*
X36388586Y-22798111D01*
X36286262Y-22644972D01*
X36156028Y-22514738D01*
X36002889Y-22412414D01*
X35832729Y-22341932D01*
X35652089Y-22306000D01*
X35467911Y-22306000D01*
X35287271Y-22341932D01*
X35117111Y-22412414D01*
X34963972Y-22514738D01*
X34833738Y-22644972D01*
X34731414Y-22798111D01*
X34660932Y-22968271D01*
X34625000Y-23148911D01*
X29527916Y-23148911D01*
X29643828Y-23033000D01*
X29683089Y-23033000D01*
X29863729Y-22997068D01*
X30033889Y-22926586D01*
X30187028Y-22824262D01*
X30317262Y-22694028D01*
X30419586Y-22540889D01*
X30490068Y-22370729D01*
X30526000Y-22190089D01*
X30526000Y-22005911D01*
X30490068Y-21825271D01*
X30419586Y-21655111D01*
X30317262Y-21501972D01*
X30187028Y-21371738D01*
X30033889Y-21269414D01*
X29863729Y-21198932D01*
X29683089Y-21163000D01*
X29498911Y-21163000D01*
X29318271Y-21198932D01*
X29148111Y-21269414D01*
X28994972Y-21371738D01*
X28864738Y-21501972D01*
X28762414Y-21655111D01*
X28691932Y-21825271D01*
X28656000Y-22005911D01*
X28656000Y-22045172D01*
X26708344Y-23992829D01*
X26681698Y-24014697D01*
X26659830Y-24041343D01*
X26659826Y-24041347D01*
X26594409Y-24121057D01*
X26529549Y-24242402D01*
X26513299Y-24295972D01*
X26489608Y-24374070D01*
X26489162Y-24378599D01*
X26476122Y-24511000D01*
X26479501Y-24545308D01*
X26479500Y-41240702D01*
X26476122Y-41275000D01*
X26479500Y-41309298D01*
X26479500Y-41309308D01*
X26489607Y-41411929D01*
X26529548Y-41543596D01*
X26529549Y-41543598D01*
X26594409Y-41664943D01*
X26659826Y-41744653D01*
X26659829Y-41744656D01*
X26681697Y-41771302D01*
X26708344Y-41793171D01*
X29789927Y-44874755D01*
X29523088Y-44927832D01*
X29225537Y-45051082D01*
X28957748Y-45230013D01*
X28730013Y-45457748D01*
X28665075Y-45554935D01*
X28635413Y-45544192D01*
X27679605Y-46500000D01*
X28635413Y-47455808D01*
X28665075Y-47445065D01*
X28730013Y-47542252D01*
X28957748Y-47769987D01*
X29084678Y-47854799D01*
X28994972Y-47914738D01*
X28864738Y-48044972D01*
X28762414Y-48198111D01*
X28691932Y-48368271D01*
X28656000Y-48548911D01*
X28656000Y-48733089D01*
X28691932Y-48913729D01*
X28762414Y-49083889D01*
X28864738Y-49237028D01*
X28994972Y-49367262D01*
X29148111Y-49469586D01*
X29318271Y-49540068D01*
X29498911Y-49576000D01*
X29683089Y-49576000D01*
X29827782Y-49547218D01*
X29799000Y-49691911D01*
X29799000Y-49876089D01*
X29834932Y-50056729D01*
X29905414Y-50226889D01*
X30007738Y-50380028D01*
X30137972Y-50510262D01*
X30291111Y-50612586D01*
X30461271Y-50683068D01*
X30543501Y-50699425D01*
X30543500Y-55277812D01*
X30427271Y-55300932D01*
X30257111Y-55371414D01*
X30103972Y-55473738D01*
X29973738Y-55603972D01*
X29871414Y-55757111D01*
X29800932Y-55927271D01*
X29765000Y-56107911D01*
X29765000Y-56147171D01*
X23298500Y-62613673D01*
X23298500Y-59589327D01*
X25752828Y-57135000D01*
X25792089Y-57135000D01*
X25972729Y-57099068D01*
X26142889Y-57028586D01*
X26296028Y-56926262D01*
X26426262Y-56796028D01*
X26528586Y-56642889D01*
X26599068Y-56472729D01*
X26635000Y-56292089D01*
X26635000Y-56107911D01*
X26599068Y-55927271D01*
X26528586Y-55757111D01*
X26426262Y-55603972D01*
X26296028Y-55473738D01*
X26142889Y-55371414D01*
X25972729Y-55300932D01*
X25792089Y-55265000D01*
X25607911Y-55265000D01*
X25427271Y-55300932D01*
X25257111Y-55371414D01*
X25103972Y-55473738D01*
X24973738Y-55603972D01*
X24871414Y-55757111D01*
X24800932Y-55927271D01*
X24765000Y-56107911D01*
X24765000Y-56147172D01*
X22130344Y-58781829D01*
X22103698Y-58803697D01*
X22081830Y-58830343D01*
X22081826Y-58830347D01*
X22016409Y-58910057D01*
X21951549Y-59031402D01*
X21939963Y-59069596D01*
X21911608Y-59163070D01*
X21907580Y-59203972D01*
X21898122Y-59300000D01*
X21901501Y-59334308D01*
X21901500Y-76965702D01*
X21898122Y-77000000D01*
X21901500Y-77034298D01*
X21901500Y-77034308D01*
X21911607Y-77136929D01*
X21945301Y-77248001D01*
X21951549Y-77268598D01*
X22016409Y-77389943D01*
X22081826Y-77469653D01*
X22081829Y-77469656D01*
X22103697Y-77496302D01*
X22130344Y-77518171D01*
X23514957Y-78902785D01*
X23484932Y-78975271D01*
X23449000Y-79155911D01*
X23449000Y-79340089D01*
X23484932Y-79520729D01*
X23555414Y-79690889D01*
X23657738Y-79844028D01*
X23685501Y-79871791D01*
X23685501Y-80630688D01*
X23683775Y-80622011D01*
X23579371Y-80369957D01*
X23427799Y-80143114D01*
X23234886Y-79950201D01*
X23008043Y-79798629D01*
X22755989Y-79694225D01*
X22488411Y-79641000D01*
X22215589Y-79641000D01*
X21948011Y-79694225D01*
X21695957Y-79798629D01*
X21469114Y-79950201D01*
X21276201Y-80143114D01*
X21124629Y-80369957D01*
X21020225Y-80622011D01*
X20967000Y-80889589D01*
X20967000Y-81162411D01*
X21020225Y-81429989D01*
X21124629Y-81682043D01*
X21276201Y-81908886D01*
X21469114Y-82101799D01*
X21695957Y-82253371D01*
X21948011Y-82357775D01*
X22215589Y-82411000D01*
X22488411Y-82411000D01*
X22755989Y-82357775D01*
X23008043Y-82253371D01*
X23234886Y-82101799D01*
X23427799Y-81908886D01*
X23579371Y-81682043D01*
X23683775Y-81429989D01*
X23685501Y-81421312D01*
X23685500Y-99279702D01*
X23682122Y-99314000D01*
X23685500Y-99348298D01*
X23685500Y-99348308D01*
X23695607Y-99450929D01*
X23733556Y-99576028D01*
X23735549Y-99582598D01*
X23800409Y-99703943D01*
X23865826Y-99783653D01*
X23865829Y-99783656D01*
X23887697Y-99810302D01*
X23914344Y-99832171D01*
X24221764Y-100139591D01*
X24120070Y-100149607D01*
X23988403Y-100189548D01*
X23988401Y-100189549D01*
X23867056Y-100254409D01*
X23829890Y-100284911D01*
X23760697Y-100341697D01*
X23738829Y-100368343D01*
X21664173Y-102443000D01*
X21624911Y-102443000D01*
X21444271Y-102478932D01*
X21274111Y-102549414D01*
X21120972Y-102651738D01*
X20990738Y-102781972D01*
X20888414Y-102935111D01*
X20817932Y-103105271D01*
X20782000Y-103285911D01*
X20782000Y-103470089D01*
X20817932Y-103650729D01*
X20888414Y-103820889D01*
X20990738Y-103974028D01*
X21120972Y-104104262D01*
X21274111Y-104206586D01*
X21444271Y-104277068D01*
X21624911Y-104313000D01*
X21809089Y-104313000D01*
X21989729Y-104277068D01*
X22159889Y-104206586D01*
X22313028Y-104104262D01*
X22443262Y-103974028D01*
X22545586Y-103820889D01*
X22616068Y-103650729D01*
X22652000Y-103470089D01*
X22652000Y-103430827D01*
X24546328Y-101536500D01*
X24983672Y-101536500D01*
X21791173Y-104729000D01*
X21751911Y-104729000D01*
X21571271Y-104764932D01*
X21401111Y-104835414D01*
X21247972Y-104937738D01*
X21117738Y-105067972D01*
X21015414Y-105221111D01*
X20944932Y-105391271D01*
X20909000Y-105571911D01*
X20909000Y-105756089D01*
X20944932Y-105936729D01*
X21015414Y-106106889D01*
X21101349Y-106235500D01*
X21015414Y-106364111D01*
X20944932Y-106534271D01*
X20909000Y-106714911D01*
X20909000Y-106899089D01*
X20944932Y-107079729D01*
X21015414Y-107249889D01*
X21117738Y-107403028D01*
X21247972Y-107533262D01*
X21401111Y-107635586D01*
X21571271Y-107706068D01*
X21751911Y-107742000D01*
X21936089Y-107742000D01*
X22116729Y-107706068D01*
X22286889Y-107635586D01*
X22440028Y-107533262D01*
X22570262Y-107403028D01*
X22672586Y-107249889D01*
X22743068Y-107079729D01*
X22779000Y-106899089D01*
X22779000Y-106859827D01*
X27520662Y-102118166D01*
X27547302Y-102096303D01*
X27569167Y-102069661D01*
X27569174Y-102069654D01*
X27634591Y-101989944D01*
X27699451Y-101868599D01*
X27700543Y-101865000D01*
X27739393Y-101736930D01*
X27749500Y-101634309D01*
X27749500Y-101634299D01*
X27752878Y-101600001D01*
X27749500Y-101565703D01*
X27749500Y-100158774D01*
X27878729Y-100133068D01*
X28048889Y-100062586D01*
X28202028Y-99960262D01*
X28332262Y-99830028D01*
X28431501Y-99681506D01*
X28431500Y-105295702D01*
X28428122Y-105330000D01*
X28431500Y-105364298D01*
X28431500Y-105364308D01*
X28441607Y-105466929D01*
X28481548Y-105598596D01*
X28481549Y-105598598D01*
X28546409Y-105719943D01*
X28611826Y-105799653D01*
X28611829Y-105799656D01*
X28633697Y-105826302D01*
X28660344Y-105848171D01*
X29084000Y-106271828D01*
X29084000Y-106311089D01*
X29119932Y-106491729D01*
X29190414Y-106661889D01*
X29292738Y-106815028D01*
X29422972Y-106945262D01*
X29576111Y-107047586D01*
X29746271Y-107118068D01*
X29926911Y-107154000D01*
X30111089Y-107154000D01*
X30291729Y-107118068D01*
X30461889Y-107047586D01*
X30615028Y-106945262D01*
X30717501Y-106842789D01*
X30717500Y-110374672D01*
X29839173Y-111253000D01*
X29799911Y-111253000D01*
X29619271Y-111288932D01*
X29449111Y-111359414D01*
X29295972Y-111461738D01*
X29165738Y-111591972D01*
X29063414Y-111745111D01*
X28992932Y-111915271D01*
X28957000Y-112095911D01*
X28957000Y-112280089D01*
X28992932Y-112460729D01*
X29063414Y-112630889D01*
X29165738Y-112784028D01*
X29295972Y-112914262D01*
X29449111Y-113016586D01*
X29619271Y-113087068D01*
X29799911Y-113123000D01*
X29984089Y-113123000D01*
X30164729Y-113087068D01*
X30334889Y-113016586D01*
X30488028Y-112914262D01*
X30618262Y-112784028D01*
X30720586Y-112630889D01*
X30791068Y-112460729D01*
X30827000Y-112280089D01*
X30827000Y-112240827D01*
X31885662Y-111182166D01*
X31912302Y-111160303D01*
X31934167Y-111133661D01*
X31934173Y-111133655D01*
X31999591Y-111053944D01*
X32064451Y-110932599D01*
X32064452Y-110932596D01*
X32104393Y-110800930D01*
X32114500Y-110698309D01*
X32114500Y-110698299D01*
X32117878Y-110664001D01*
X32114500Y-110629703D01*
X32114500Y-105492327D01*
X33310777Y-104296051D01*
X33275000Y-104475911D01*
X33275000Y-104660089D01*
X33310932Y-104840729D01*
X33381414Y-105010889D01*
X33483738Y-105164028D01*
X33613972Y-105294262D01*
X33767111Y-105396586D01*
X33937271Y-105467068D01*
X33940092Y-105467629D01*
X33910000Y-105618911D01*
X33910000Y-105803089D01*
X33945932Y-105983729D01*
X34016414Y-106153889D01*
X34118738Y-106307028D01*
X34248972Y-106437262D01*
X34402111Y-106539586D01*
X34572271Y-106610068D01*
X34752911Y-106646000D01*
X34792172Y-106646000D01*
X35088829Y-106942657D01*
X35110697Y-106969303D01*
X35137343Y-106991171D01*
X35137346Y-106991174D01*
X35217056Y-107056591D01*
X35252616Y-107075598D01*
X35338403Y-107121452D01*
X35470070Y-107161393D01*
X35572691Y-107171500D01*
X35572702Y-107171500D01*
X35607000Y-107174878D01*
X35641298Y-107171500D01*
X40317210Y-107171500D01*
X40344972Y-107199262D01*
X40498111Y-107301586D01*
X40668271Y-107372068D01*
X40848911Y-107408000D01*
X41033089Y-107408000D01*
X41213729Y-107372068D01*
X41383889Y-107301586D01*
X41537028Y-107199262D01*
X41667262Y-107069028D01*
X41692718Y-107030930D01*
X41718273Y-107048005D01*
X41795515Y-107080000D01*
X41718273Y-107111995D01*
X41489465Y-107264880D01*
X41294880Y-107459465D01*
X41141995Y-107688273D01*
X41036686Y-107942510D01*
X40983000Y-108212408D01*
X40983000Y-108487592D01*
X41036686Y-108757490D01*
X41141995Y-109011727D01*
X41294880Y-109240535D01*
X41489465Y-109435120D01*
X41718273Y-109588005D01*
X41795515Y-109620000D01*
X41718273Y-109651995D01*
X41489465Y-109804880D01*
X41294880Y-109999465D01*
X41166566Y-110191500D01*
X34805672Y-110191500D01*
X34652889Y-110089414D01*
X34482729Y-110018932D01*
X34302089Y-109983000D01*
X34117911Y-109983000D01*
X33937271Y-110018932D01*
X33767111Y-110089414D01*
X33613972Y-110191738D01*
X33483738Y-110321972D01*
X33381414Y-110475111D01*
X33310932Y-110645271D01*
X33275000Y-110825911D01*
X33275000Y-111010089D01*
X33310932Y-111190729D01*
X33381414Y-111360889D01*
X33483738Y-111514028D01*
X33613972Y-111644262D01*
X33767111Y-111746586D01*
X33937271Y-111817068D01*
X34117911Y-111853000D01*
X34302089Y-111853000D01*
X34482729Y-111817068D01*
X34652889Y-111746586D01*
X34806028Y-111644262D01*
X34861790Y-111588500D01*
X41166566Y-111588500D01*
X41294880Y-111780535D01*
X41489465Y-111975120D01*
X41718273Y-112128005D01*
X41795515Y-112160000D01*
X41718273Y-112191995D01*
X41489465Y-112344880D01*
X41294880Y-112539465D01*
X41207659Y-112670000D01*
X35607325Y-112670000D01*
X35570000Y-112666324D01*
X35532675Y-112670000D01*
X35532667Y-112670000D01*
X35421014Y-112680997D01*
X35277753Y-112724454D01*
X35145724Y-112795026D01*
X35029999Y-112889999D01*
X35006200Y-112918998D01*
X34848351Y-113076847D01*
X34727271Y-113100932D01*
X34557111Y-113171414D01*
X34403972Y-113273738D01*
X34273738Y-113403972D01*
X34171414Y-113557111D01*
X34100932Y-113727271D01*
X34065000Y-113907911D01*
X34065000Y-114092089D01*
X34100932Y-114272729D01*
X34171414Y-114442889D01*
X34273738Y-114596028D01*
X34403972Y-114726262D01*
X34557111Y-114828586D01*
X34727271Y-114899068D01*
X34907911Y-114935000D01*
X35092089Y-114935000D01*
X35272729Y-114899068D01*
X35442889Y-114828586D01*
X35596028Y-114726262D01*
X35726262Y-114596028D01*
X35828586Y-114442889D01*
X35899068Y-114272729D01*
X35915524Y-114190000D01*
X41207659Y-114190000D01*
X41294880Y-114320535D01*
X41489465Y-114515120D01*
X41718273Y-114668005D01*
X41789943Y-114697692D01*
X41776977Y-114702364D01*
X41661020Y-114764344D01*
X41594040Y-115004435D01*
X42380000Y-115790395D01*
X43165960Y-115004435D01*
X43098980Y-114764344D01*
X42963240Y-114700515D01*
X43041727Y-114668005D01*
X43270535Y-114515120D01*
X43465120Y-114320535D01*
X43618005Y-114091727D01*
X43723314Y-113837490D01*
X43777000Y-113567592D01*
X43777000Y-113497801D01*
X47111004Y-110163798D01*
X47140001Y-110140001D01*
X47188907Y-110080409D01*
X47234974Y-110024277D01*
X47305546Y-109892247D01*
X47305546Y-109892246D01*
X47349003Y-109748986D01*
X47360000Y-109637333D01*
X47360000Y-109637323D01*
X47363676Y-109600000D01*
X47360000Y-109562677D01*
X47360000Y-105645535D01*
X47428586Y-105542889D01*
X47499068Y-105372729D01*
X47535000Y-105192089D01*
X47535000Y-105139500D01*
X51334702Y-105139500D01*
X51369000Y-105142878D01*
X51403298Y-105139500D01*
X51403309Y-105139500D01*
X51505930Y-105129393D01*
X51637597Y-105089452D01*
X51758943Y-105024591D01*
X51865303Y-104937303D01*
X51887175Y-104910652D01*
X56227365Y-100570462D01*
X56223000Y-100592408D01*
X56223000Y-100867592D01*
X56276686Y-101137490D01*
X56381995Y-101391727D01*
X56534880Y-101620535D01*
X56729465Y-101815120D01*
X56958273Y-101968005D01*
X57035515Y-102000000D01*
X56958273Y-102031995D01*
X56729465Y-102184880D01*
X56534880Y-102379465D01*
X56381995Y-102608273D01*
X56276686Y-102862510D01*
X56223000Y-103132408D01*
X56223000Y-103407592D01*
X56276686Y-103677490D01*
X56381995Y-103931727D01*
X56534880Y-104160535D01*
X56729465Y-104355120D01*
X56958273Y-104508005D01*
X57035515Y-104540000D01*
X56958273Y-104571995D01*
X56729465Y-104724880D01*
X56670794Y-104783551D01*
X56606262Y-104686972D01*
X56476028Y-104556738D01*
X56322889Y-104454414D01*
X56152729Y-104383932D01*
X55972089Y-104348000D01*
X55787911Y-104348000D01*
X55607271Y-104383932D01*
X55437111Y-104454414D01*
X55283972Y-104556738D01*
X55153738Y-104686972D01*
X55051414Y-104840111D01*
X54980932Y-105010271D01*
X54966786Y-105081386D01*
X52144173Y-107904000D01*
X52104911Y-107904000D01*
X51924271Y-107939932D01*
X51754111Y-108010414D01*
X51600972Y-108112738D01*
X51470738Y-108242972D01*
X51368414Y-108396111D01*
X51297932Y-108566271D01*
X51262000Y-108746911D01*
X51262000Y-108886293D01*
X51242000Y-108884323D01*
X51204667Y-108888000D01*
X51093014Y-108898997D01*
X50949753Y-108942454D01*
X50817724Y-109013026D01*
X50701999Y-109107999D01*
X50678201Y-109136997D01*
X43775255Y-116039944D01*
X43781910Y-115897983D01*
X43740922Y-115625867D01*
X43647636Y-115366977D01*
X43585656Y-115251020D01*
X43345565Y-115184040D01*
X42559605Y-115970000D01*
X42573748Y-115984143D01*
X42394143Y-116163748D01*
X42380000Y-116149605D01*
X41594040Y-116935565D01*
X41661020Y-117175656D01*
X41796760Y-117239485D01*
X41718273Y-117271995D01*
X41489465Y-117424880D01*
X41294880Y-117619465D01*
X41141995Y-117848273D01*
X41036686Y-118102510D01*
X40983000Y-118372408D01*
X40983000Y-118647592D01*
X41036686Y-118917490D01*
X41141995Y-119171727D01*
X41254432Y-119340000D01*
X22032279Y-119340000D01*
X21740340Y-119311375D01*
X21490571Y-119235965D01*
X21260206Y-119113477D01*
X21058021Y-118948579D01*
X20891712Y-118747546D01*
X20767622Y-118518046D01*
X20690469Y-118268805D01*
X20660000Y-117978911D01*
X20660000Y-115814344D01*
X22115000Y-115814344D01*
X22115000Y-116185656D01*
X22187439Y-116549834D01*
X22329534Y-116892882D01*
X22535825Y-117201618D01*
X22798382Y-117464175D01*
X23107118Y-117670466D01*
X23450166Y-117812561D01*
X23814344Y-117885000D01*
X24185656Y-117885000D01*
X24549834Y-117812561D01*
X24892882Y-117670466D01*
X25201618Y-117464175D01*
X25464175Y-117201618D01*
X25670466Y-116892882D01*
X25812561Y-116549834D01*
X25885000Y-116185656D01*
X25885000Y-116042017D01*
X40978090Y-116042017D01*
X41019078Y-116314133D01*
X41112364Y-116573023D01*
X41174344Y-116688980D01*
X41414435Y-116755960D01*
X42200395Y-115970000D01*
X41414435Y-115184040D01*
X41174344Y-115251020D01*
X41057244Y-115500048D01*
X40990977Y-115767135D01*
X40978090Y-116042017D01*
X25885000Y-116042017D01*
X25885000Y-115814344D01*
X25812561Y-115450166D01*
X25670466Y-115107118D01*
X25464175Y-114798382D01*
X25201618Y-114535825D01*
X24892882Y-114329534D01*
X24549834Y-114187439D01*
X24185656Y-114115000D01*
X23814344Y-114115000D01*
X23450166Y-114187439D01*
X23107118Y-114329534D01*
X22798382Y-114535825D01*
X22535825Y-114798382D01*
X22329534Y-115107118D01*
X22187439Y-115450166D01*
X22115000Y-115814344D01*
X20660000Y-115814344D01*
X20660000Y-49293801D01*
X22681198Y-51315000D01*
X22409951Y-51315000D01*
X22096005Y-51377448D01*
X21800274Y-51499943D01*
X21534123Y-51677780D01*
X21307780Y-51904123D01*
X21129943Y-52170274D01*
X21007448Y-52466005D01*
X20945000Y-52779951D01*
X20945000Y-53100049D01*
X21007448Y-53413995D01*
X21129943Y-53709726D01*
X21307780Y-53975877D01*
X21534123Y-54202220D01*
X21800274Y-54380057D01*
X22096005Y-54502552D01*
X22409951Y-54565000D01*
X22730049Y-54565000D01*
X23043995Y-54502552D01*
X23339726Y-54380057D01*
X23605877Y-54202220D01*
X23832220Y-53975877D01*
X24010057Y-53709726D01*
X24132552Y-53413995D01*
X24195000Y-53100049D01*
X24195000Y-52779951D01*
X24163979Y-52624000D01*
X24222089Y-52624000D01*
X24402729Y-52588068D01*
X24572889Y-52517586D01*
X24726028Y-52415262D01*
X24856262Y-52285028D01*
X24958586Y-52131889D01*
X25029068Y-51961729D01*
X25065000Y-51781089D01*
X25065000Y-51596911D01*
X25029068Y-51416271D01*
X24958586Y-51246111D01*
X24856262Y-51092972D01*
X24726028Y-50962738D01*
X24572889Y-50860414D01*
X24402729Y-50789932D01*
X24281649Y-50765847D01*
X21842000Y-48326199D01*
X21842000Y-47560675D01*
X21846457Y-47563653D01*
X22124445Y-47678799D01*
X22419554Y-47737500D01*
X22720446Y-47737500D01*
X23015555Y-47678799D01*
X23293543Y-47563653D01*
X23543725Y-47396487D01*
X23597011Y-47343201D01*
X23730013Y-47542252D01*
X23957748Y-47769987D01*
X24225537Y-47948918D01*
X24523088Y-48072168D01*
X24838967Y-48135000D01*
X25161033Y-48135000D01*
X25476912Y-48072168D01*
X25774463Y-47948918D01*
X26042252Y-47769987D01*
X26176826Y-47635413D01*
X26544192Y-47635413D01*
X26639956Y-47899814D01*
X26929571Y-48040704D01*
X27241108Y-48122384D01*
X27562595Y-48141718D01*
X27881675Y-48097961D01*
X28186088Y-47992795D01*
X28360044Y-47899814D01*
X28455808Y-47635413D01*
X27500000Y-46679605D01*
X26544192Y-47635413D01*
X26176826Y-47635413D01*
X26269987Y-47542252D01*
X26334925Y-47445065D01*
X26364587Y-47455808D01*
X27320395Y-46500000D01*
X26364587Y-45544192D01*
X26334925Y-45554935D01*
X26269987Y-45457748D01*
X26042252Y-45230013D01*
X26012300Y-45210000D01*
X26600182Y-45210000D01*
X26544192Y-45364587D01*
X27500000Y-46320395D01*
X28455808Y-45364587D01*
X28360044Y-45100186D01*
X28143883Y-44995029D01*
X28204068Y-44849729D01*
X28240000Y-44669089D01*
X28240000Y-44484911D01*
X28204068Y-44304271D01*
X28133586Y-44134111D01*
X28031262Y-43980972D01*
X27901028Y-43850738D01*
X27747889Y-43748414D01*
X27577729Y-43677932D01*
X27397089Y-43642000D01*
X27212911Y-43642000D01*
X27032271Y-43677932D01*
X27003136Y-43690000D01*
X22135322Y-43690000D01*
X22098000Y-43686324D01*
X22060677Y-43690000D01*
X22060667Y-43690000D01*
X21949014Y-43700997D01*
X21805753Y-43744454D01*
X21673723Y-43815026D01*
X21590083Y-43883668D01*
X21557999Y-43909999D01*
X21534201Y-43938997D01*
X20660000Y-44813199D01*
X20660000Y-41437355D01*
X21514250Y-41435000D01*
X21673000Y-41276250D01*
X21673000Y-39127000D01*
X21653000Y-39127000D01*
X21653000Y-38873000D01*
X21673000Y-38873000D01*
X21673000Y-36723750D01*
X21514250Y-36565000D01*
X20660000Y-36562645D01*
X20660000Y-31639554D01*
X21042500Y-31639554D01*
X21042500Y-31940446D01*
X21101201Y-32235555D01*
X21216347Y-32513543D01*
X21383513Y-32763725D01*
X21596275Y-32976487D01*
X21846457Y-33143653D01*
X22124445Y-33258799D01*
X22419554Y-33317500D01*
X22720446Y-33317500D01*
X22825104Y-33296682D01*
X23499001Y-33970580D01*
X23499001Y-36639801D01*
X23444180Y-36610498D01*
X23324482Y-36574188D01*
X23200000Y-36561928D01*
X22085750Y-36565000D01*
X21927000Y-36723750D01*
X21927000Y-38873000D01*
X21947000Y-38873000D01*
X21947000Y-39127000D01*
X21927000Y-39127000D01*
X21927000Y-41276250D01*
X22085750Y-41435000D01*
X23200000Y-41438072D01*
X23324482Y-41425812D01*
X23349000Y-41418375D01*
X23349000Y-41503939D01*
X23388774Y-41703898D01*
X23466795Y-41892256D01*
X23580063Y-42061774D01*
X23724226Y-42205937D01*
X23893744Y-42319205D01*
X24082102Y-42397226D01*
X24282061Y-42437000D01*
X24485939Y-42437000D01*
X24685898Y-42397226D01*
X24874256Y-42319205D01*
X25043774Y-42205937D01*
X25187937Y-42061774D01*
X25301205Y-41892256D01*
X25379226Y-41703898D01*
X25419000Y-41503939D01*
X25419000Y-41300061D01*
X25379226Y-41100102D01*
X25301205Y-40911744D01*
X25269000Y-40863546D01*
X25269000Y-33647465D01*
X25273281Y-33603999D01*
X25269000Y-33560533D01*
X25269000Y-33560523D01*
X25256195Y-33430510D01*
X25205589Y-33263687D01*
X25123411Y-33109941D01*
X25091788Y-33071409D01*
X25040532Y-33008953D01*
X25040530Y-33008951D01*
X25012817Y-32975183D01*
X24979049Y-32947470D01*
X24076682Y-32045104D01*
X24097500Y-31940446D01*
X24097500Y-31639554D01*
X24038799Y-31344445D01*
X23923653Y-31066457D01*
X23756487Y-30816275D01*
X23543725Y-30603513D01*
X23293543Y-30436347D01*
X23015555Y-30321201D01*
X22720446Y-30262500D01*
X22419554Y-30262500D01*
X22124445Y-30321201D01*
X21846457Y-30436347D01*
X21596275Y-30603513D01*
X21383513Y-30816275D01*
X21216347Y-31066457D01*
X21101201Y-31344445D01*
X21042500Y-31639554D01*
X20660000Y-31639554D01*
X20660000Y-25368514D01*
X23765000Y-25368514D01*
X23765000Y-25631486D01*
X23816304Y-25889405D01*
X23916939Y-26132359D01*
X24063038Y-26351013D01*
X24248987Y-26536962D01*
X24467641Y-26683061D01*
X24710595Y-26783696D01*
X24968514Y-26835000D01*
X25231486Y-26835000D01*
X25489405Y-26783696D01*
X25732359Y-26683061D01*
X25951013Y-26536962D01*
X26136962Y-26351013D01*
X26283061Y-26132359D01*
X26383696Y-25889405D01*
X26435000Y-25631486D01*
X26435000Y-25368514D01*
X26383696Y-25110595D01*
X26283061Y-24867641D01*
X26136962Y-24648987D01*
X25951013Y-24463038D01*
X25732359Y-24316939D01*
X25489405Y-24216304D01*
X25231486Y-24165000D01*
X24968514Y-24165000D01*
X24710595Y-24216304D01*
X24467641Y-24316939D01*
X24248987Y-24463038D01*
X24063038Y-24648987D01*
X23916939Y-24867641D01*
X23816304Y-25110595D01*
X23765000Y-25368514D01*
X20660000Y-25368514D01*
X20660000Y-22032279D01*
X20688625Y-21740341D01*
X20764035Y-21490571D01*
X20886522Y-21260208D01*
X21051422Y-21058020D01*
X21252450Y-20891714D01*
X21481954Y-20767622D01*
X21731195Y-20690469D01*
X22021088Y-20660000D01*
X77967721Y-20660000D01*
X78259659Y-20688625D01*
G36*
X39281972Y-87975262D02*
G01*
X39435111Y-88077586D01*
X39605271Y-88148068D01*
X39785911Y-88184000D01*
X39825173Y-88184000D01*
X41307759Y-89666586D01*
X41294880Y-89679465D01*
X41141995Y-89908273D01*
X41036686Y-90162510D01*
X40983000Y-90432408D01*
X40983000Y-90707592D01*
X41036686Y-90977490D01*
X41141995Y-91231727D01*
X41294880Y-91460535D01*
X41489465Y-91655120D01*
X41718273Y-91808005D01*
X41795515Y-91840000D01*
X41718273Y-91871995D01*
X41489465Y-92024880D01*
X41294880Y-92219465D01*
X41206498Y-92351738D01*
X41130256Y-92300795D01*
X40941898Y-92222774D01*
X40741939Y-92183000D01*
X40538061Y-92183000D01*
X40338102Y-92222774D01*
X40149744Y-92300795D01*
X39980226Y-92414063D01*
X39874789Y-92519500D01*
X39671158Y-92519500D01*
X39652205Y-92473744D01*
X39538937Y-92304226D01*
X39394774Y-92160063D01*
X39225256Y-92046795D01*
X39036898Y-91968774D01*
X38836939Y-91929000D01*
X38633061Y-91929000D01*
X38433102Y-91968774D01*
X38244744Y-92046795D01*
X38075226Y-92160063D01*
X37931063Y-92304226D01*
X37817795Y-92473744D01*
X37739774Y-92662102D01*
X37700000Y-92862061D01*
X37700000Y-93065939D01*
X37739774Y-93265898D01*
X37817795Y-93454256D01*
X37931063Y-93623774D01*
X38075226Y-93767937D01*
X38244744Y-93881205D01*
X38433102Y-93959226D01*
X38633061Y-93999000D01*
X38836939Y-93999000D01*
X39036898Y-93959226D01*
X39140047Y-93916500D01*
X39874789Y-93916500D01*
X39980226Y-94021937D01*
X40149744Y-94135205D01*
X40338102Y-94213226D01*
X40538061Y-94253000D01*
X40741939Y-94253000D01*
X40941898Y-94213226D01*
X41130256Y-94135205D01*
X41299774Y-94021937D01*
X41308028Y-94013683D01*
X41489465Y-94195120D01*
X41718273Y-94348005D01*
X41795515Y-94380000D01*
X41718273Y-94411995D01*
X41489465Y-94564880D01*
X41294880Y-94759465D01*
X41141995Y-94988273D01*
X41036686Y-95242510D01*
X40983000Y-95512408D01*
X40983000Y-95787592D01*
X41036686Y-96057490D01*
X41141995Y-96311727D01*
X41294880Y-96540535D01*
X41489465Y-96735120D01*
X41718273Y-96888005D01*
X41795515Y-96920000D01*
X41718273Y-96951995D01*
X41489465Y-97104880D01*
X41294880Y-97299465D01*
X41141995Y-97528273D01*
X41036686Y-97782510D01*
X40983000Y-98052408D01*
X40983000Y-98327592D01*
X41036686Y-98597490D01*
X41116220Y-98789500D01*
X40690211Y-98789500D01*
X40664774Y-98764063D01*
X40495256Y-98650795D01*
X40306898Y-98572774D01*
X40106939Y-98533000D01*
X39903061Y-98533000D01*
X39703102Y-98572774D01*
X39514744Y-98650795D01*
X39345226Y-98764063D01*
X39201063Y-98908226D01*
X39087795Y-99077744D01*
X39009774Y-99266102D01*
X38970000Y-99466061D01*
X38970000Y-99669939D01*
X38996965Y-99805500D01*
X35514309Y-99805500D01*
X35480000Y-99802121D01*
X35445692Y-99805500D01*
X35445691Y-99805500D01*
X35343070Y-99815607D01*
X35211403Y-99855548D01*
X35090057Y-99920409D01*
X34983697Y-100007697D01*
X34896409Y-100114057D01*
X34831548Y-100235403D01*
X34791607Y-100367070D01*
X34778121Y-100504000D01*
X34781501Y-100538318D01*
X34781500Y-101202500D01*
X34752297Y-101202500D01*
X34717999Y-101199122D01*
X34683701Y-101202500D01*
X34683691Y-101202500D01*
X34581070Y-101212607D01*
X34449403Y-101252548D01*
X34449401Y-101252549D01*
X34328056Y-101317409D01*
X34248345Y-101382826D01*
X34248337Y-101382834D01*
X34221697Y-101404697D01*
X34199834Y-101431337D01*
X30946344Y-104684829D01*
X30919698Y-104706697D01*
X30897830Y-104733343D01*
X30897826Y-104733347D01*
X30832409Y-104813057D01*
X30767549Y-104934402D01*
X30760408Y-104957943D01*
X30727608Y-105066070D01*
X30723134Y-105111500D01*
X30714122Y-105203000D01*
X30717501Y-105237308D01*
X30717501Y-105595211D01*
X30615028Y-105492738D01*
X30461889Y-105390414D01*
X30291729Y-105319932D01*
X30111089Y-105284000D01*
X30071828Y-105284000D01*
X29828500Y-105040673D01*
X29828500Y-99534000D01*
X29984089Y-99534000D01*
X30164729Y-99498068D01*
X30334889Y-99427586D01*
X30488028Y-99325262D01*
X30618262Y-99195028D01*
X30720586Y-99041889D01*
X30791068Y-98871729D01*
X30827000Y-98691089D01*
X30827000Y-98651828D01*
X30943328Y-98535500D01*
X31350490Y-98535500D01*
X31349414Y-98537111D01*
X31278932Y-98707271D01*
X31243000Y-98887911D01*
X31243000Y-99072089D01*
X31278932Y-99252729D01*
X31349414Y-99422889D01*
X31451738Y-99576028D01*
X31581972Y-99706262D01*
X31735111Y-99808586D01*
X31905271Y-99879068D01*
X32085911Y-99915000D01*
X32270089Y-99915000D01*
X32450729Y-99879068D01*
X32620889Y-99808586D01*
X32774028Y-99706262D01*
X32904262Y-99576028D01*
X33006586Y-99422889D01*
X33077068Y-99252729D01*
X33113000Y-99072089D01*
X33113000Y-98887911D01*
X33077068Y-98707271D01*
X33006586Y-98537111D01*
X32975180Y-98490108D01*
X35822667Y-95642623D01*
X35849302Y-95620764D01*
X35871162Y-95594128D01*
X35871174Y-95594116D01*
X35936591Y-95514405D01*
X36001451Y-95393060D01*
X36001452Y-95393057D01*
X36041393Y-95261391D01*
X36051500Y-95158770D01*
X36051500Y-95158760D01*
X36054878Y-95124462D01*
X36051500Y-95090164D01*
X36051500Y-91036327D01*
X39197269Y-87890559D01*
X39281972Y-87975262D01*
X39281972Y-87975262D01*
G37*
X39281972Y-87975262D02*
X39435111Y-88077586D01*
X39605271Y-88148068D01*
X39785911Y-88184000D01*
X39825173Y-88184000D01*
X41307759Y-89666586D01*
X41294880Y-89679465D01*
X41141995Y-89908273D01*
X41036686Y-90162510D01*
X40983000Y-90432408D01*
X40983000Y-90707592D01*
X41036686Y-90977490D01*
X41141995Y-91231727D01*
X41294880Y-91460535D01*
X41489465Y-91655120D01*
X41718273Y-91808005D01*
X41795515Y-91840000D01*
X41718273Y-91871995D01*
X41489465Y-92024880D01*
X41294880Y-92219465D01*
X41206498Y-92351738D01*
X41130256Y-92300795D01*
X40941898Y-92222774D01*
X40741939Y-92183000D01*
X40538061Y-92183000D01*
X40338102Y-92222774D01*
X40149744Y-92300795D01*
X39980226Y-92414063D01*
X39874789Y-92519500D01*
X39671158Y-92519500D01*
X39652205Y-92473744D01*
X39538937Y-92304226D01*
X39394774Y-92160063D01*
X39225256Y-92046795D01*
X39036898Y-91968774D01*
X38836939Y-91929000D01*
X38633061Y-91929000D01*
X38433102Y-91968774D01*
X38244744Y-92046795D01*
X38075226Y-92160063D01*
X37931063Y-92304226D01*
X37817795Y-92473744D01*
X37739774Y-92662102D01*
X37700000Y-92862061D01*
X37700000Y-93065939D01*
X37739774Y-93265898D01*
X37817795Y-93454256D01*
X37931063Y-93623774D01*
X38075226Y-93767937D01*
X38244744Y-93881205D01*
X38433102Y-93959226D01*
X38633061Y-93999000D01*
X38836939Y-93999000D01*
X39036898Y-93959226D01*
X39140047Y-93916500D01*
X39874789Y-93916500D01*
X39980226Y-94021937D01*
X40149744Y-94135205D01*
X40338102Y-94213226D01*
X40538061Y-94253000D01*
X40741939Y-94253000D01*
X40941898Y-94213226D01*
X41130256Y-94135205D01*
X41299774Y-94021937D01*
X41308028Y-94013683D01*
X41489465Y-94195120D01*
X41718273Y-94348005D01*
X41795515Y-94380000D01*
X41718273Y-94411995D01*
X41489465Y-94564880D01*
X41294880Y-94759465D01*
X41141995Y-94988273D01*
X41036686Y-95242510D01*
X40983000Y-95512408D01*
X40983000Y-95787592D01*
X41036686Y-96057490D01*
X41141995Y-96311727D01*
X41294880Y-96540535D01*
X41489465Y-96735120D01*
X41718273Y-96888005D01*
X41795515Y-96920000D01*
X41718273Y-96951995D01*
X41489465Y-97104880D01*
X41294880Y-97299465D01*
X41141995Y-97528273D01*
X41036686Y-97782510D01*
X40983000Y-98052408D01*
X40983000Y-98327592D01*
X41036686Y-98597490D01*
X41116220Y-98789500D01*
X40690211Y-98789500D01*
X40664774Y-98764063D01*
X40495256Y-98650795D01*
X40306898Y-98572774D01*
X40106939Y-98533000D01*
X39903061Y-98533000D01*
X39703102Y-98572774D01*
X39514744Y-98650795D01*
X39345226Y-98764063D01*
X39201063Y-98908226D01*
X39087795Y-99077744D01*
X39009774Y-99266102D01*
X38970000Y-99466061D01*
X38970000Y-99669939D01*
X38996965Y-99805500D01*
X35514309Y-99805500D01*
X35480000Y-99802121D01*
X35445692Y-99805500D01*
X35445691Y-99805500D01*
X35343070Y-99815607D01*
X35211403Y-99855548D01*
X35090057Y-99920409D01*
X34983697Y-100007697D01*
X34896409Y-100114057D01*
X34831548Y-100235403D01*
X34791607Y-100367070D01*
X34778121Y-100504000D01*
X34781501Y-100538318D01*
X34781500Y-101202500D01*
X34752297Y-101202500D01*
X34717999Y-101199122D01*
X34683701Y-101202500D01*
X34683691Y-101202500D01*
X34581070Y-101212607D01*
X34449403Y-101252548D01*
X34449401Y-101252549D01*
X34328056Y-101317409D01*
X34248345Y-101382826D01*
X34248337Y-101382834D01*
X34221697Y-101404697D01*
X34199834Y-101431337D01*
X30946344Y-104684829D01*
X30919698Y-104706697D01*
X30897830Y-104733343D01*
X30897826Y-104733347D01*
X30832409Y-104813057D01*
X30767549Y-104934402D01*
X30760408Y-104957943D01*
X30727608Y-105066070D01*
X30723134Y-105111500D01*
X30714122Y-105203000D01*
X30717501Y-105237308D01*
X30717501Y-105595211D01*
X30615028Y-105492738D01*
X30461889Y-105390414D01*
X30291729Y-105319932D01*
X30111089Y-105284000D01*
X30071828Y-105284000D01*
X29828500Y-105040673D01*
X29828500Y-99534000D01*
X29984089Y-99534000D01*
X30164729Y-99498068D01*
X30334889Y-99427586D01*
X30488028Y-99325262D01*
X30618262Y-99195028D01*
X30720586Y-99041889D01*
X30791068Y-98871729D01*
X30827000Y-98691089D01*
X30827000Y-98651828D01*
X30943328Y-98535500D01*
X31350490Y-98535500D01*
X31349414Y-98537111D01*
X31278932Y-98707271D01*
X31243000Y-98887911D01*
X31243000Y-99072089D01*
X31278932Y-99252729D01*
X31349414Y-99422889D01*
X31451738Y-99576028D01*
X31581972Y-99706262D01*
X31735111Y-99808586D01*
X31905271Y-99879068D01*
X32085911Y-99915000D01*
X32270089Y-99915000D01*
X32450729Y-99879068D01*
X32620889Y-99808586D01*
X32774028Y-99706262D01*
X32904262Y-99576028D01*
X33006586Y-99422889D01*
X33077068Y-99252729D01*
X33113000Y-99072089D01*
X33113000Y-98887911D01*
X33077068Y-98707271D01*
X33006586Y-98537111D01*
X32975180Y-98490108D01*
X35822667Y-95642623D01*
X35849302Y-95620764D01*
X35871162Y-95594128D01*
X35871174Y-95594116D01*
X35936591Y-95514405D01*
X36001451Y-95393060D01*
X36001452Y-95393057D01*
X36041393Y-95261391D01*
X36051500Y-95158770D01*
X36051500Y-95158760D01*
X36054878Y-95124462D01*
X36051500Y-95090164D01*
X36051500Y-91036327D01*
X39197269Y-87890559D01*
X39281972Y-87975262D01*
G36*
X41141995Y-101391727D02*
G01*
X41227847Y-101520213D01*
X41156035Y-101558598D01*
X41132067Y-101571409D01*
X41052356Y-101636826D01*
X41052353Y-101636829D01*
X41025707Y-101658697D01*
X41003839Y-101685343D01*
X39581683Y-103107500D01*
X35079651Y-103107500D01*
X35063262Y-103082972D01*
X34933028Y-102952738D01*
X34779889Y-102850414D01*
X34763290Y-102843539D01*
X34941277Y-102665552D01*
X35037111Y-102729586D01*
X35207271Y-102800068D01*
X35387911Y-102836000D01*
X35572089Y-102836000D01*
X35752729Y-102800068D01*
X35922889Y-102729586D01*
X36076028Y-102627262D01*
X36206262Y-102497028D01*
X36308586Y-102343889D01*
X36379068Y-102173729D01*
X36415000Y-101993089D01*
X36415000Y-101808911D01*
X36379068Y-101628271D01*
X36308586Y-101458111D01*
X36206262Y-101304972D01*
X36178500Y-101277210D01*
X36178500Y-101202500D01*
X41063614Y-101202500D01*
X41141995Y-101391727D01*
X41141995Y-101391727D01*
G37*
X41141995Y-101391727D02*
X41227847Y-101520213D01*
X41156035Y-101558598D01*
X41132067Y-101571409D01*
X41052356Y-101636826D01*
X41052353Y-101636829D01*
X41025707Y-101658697D01*
X41003839Y-101685343D01*
X39581683Y-103107500D01*
X35079651Y-103107500D01*
X35063262Y-103082972D01*
X34933028Y-102952738D01*
X34779889Y-102850414D01*
X34763290Y-102843539D01*
X34941277Y-102665552D01*
X35037111Y-102729586D01*
X35207271Y-102800068D01*
X35387911Y-102836000D01*
X35572089Y-102836000D01*
X35752729Y-102800068D01*
X35922889Y-102729586D01*
X36076028Y-102627262D01*
X36206262Y-102497028D01*
X36308586Y-102343889D01*
X36379068Y-102173729D01*
X36415000Y-101993089D01*
X36415000Y-101808911D01*
X36379068Y-101628271D01*
X36308586Y-101458111D01*
X36206262Y-101304972D01*
X36178500Y-101277210D01*
X36178500Y-101202500D01*
X41063614Y-101202500D01*
X41141995Y-101391727D01*
G36*
X47215795Y-90660256D02*
G01*
X47329063Y-90829774D01*
X47473226Y-90973937D01*
X47642744Y-91087205D01*
X47831102Y-91165226D01*
X48031061Y-91205000D01*
X48180173Y-91205000D01*
X50554829Y-93579657D01*
X50576697Y-93606303D01*
X50603343Y-93628171D01*
X50603346Y-93628174D01*
X50683056Y-93693591D01*
X50710493Y-93708256D01*
X50804403Y-93758452D01*
X50936070Y-93798393D01*
X51038691Y-93808500D01*
X51038702Y-93808500D01*
X51073000Y-93811878D01*
X51107298Y-93808500D01*
X56406566Y-93808500D01*
X56534880Y-94000535D01*
X56729465Y-94195120D01*
X56958273Y-94348005D01*
X57035515Y-94380000D01*
X56958273Y-94411995D01*
X56729465Y-94564880D01*
X56534880Y-94759465D01*
X56381995Y-94988273D01*
X56276686Y-95242510D01*
X56223000Y-95512408D01*
X56223000Y-95787592D01*
X56268058Y-96014113D01*
X50825673Y-101456500D01*
X43574725Y-101456500D01*
X43618005Y-101391727D01*
X43723314Y-101137490D01*
X43777000Y-100867592D01*
X43777000Y-100592408D01*
X43723314Y-100322510D01*
X43666976Y-100186500D01*
X44588673Y-100186500D01*
X44832000Y-100429828D01*
X44832000Y-100469089D01*
X44867932Y-100649729D01*
X44938414Y-100819889D01*
X45040738Y-100973028D01*
X45170972Y-101103262D01*
X45324111Y-101205586D01*
X45494271Y-101276068D01*
X45674911Y-101312000D01*
X45859089Y-101312000D01*
X46039729Y-101276068D01*
X46209889Y-101205586D01*
X46363028Y-101103262D01*
X46493262Y-100973028D01*
X46595586Y-100819889D01*
X46666068Y-100649729D01*
X46702000Y-100469089D01*
X46702000Y-100284911D01*
X46666068Y-100104271D01*
X46595586Y-99934111D01*
X46527000Y-99831465D01*
X46527000Y-99828056D01*
X46672729Y-99799068D01*
X46842889Y-99728586D01*
X46996028Y-99626262D01*
X47126262Y-99496028D01*
X47228586Y-99342889D01*
X47299068Y-99172729D01*
X47335000Y-98992089D01*
X47335000Y-98807911D01*
X47299068Y-98627271D01*
X47228586Y-98457111D01*
X47126262Y-98303972D01*
X47098500Y-98276210D01*
X47098500Y-90555490D01*
X47150755Y-90503236D01*
X47215795Y-90660256D01*
X47215795Y-90660256D01*
G37*
X47215795Y-90660256D02*
X47329063Y-90829774D01*
X47473226Y-90973937D01*
X47642744Y-91087205D01*
X47831102Y-91165226D01*
X48031061Y-91205000D01*
X48180173Y-91205000D01*
X50554829Y-93579657D01*
X50576697Y-93606303D01*
X50603343Y-93628171D01*
X50603346Y-93628174D01*
X50683056Y-93693591D01*
X50710493Y-93708256D01*
X50804403Y-93758452D01*
X50936070Y-93798393D01*
X51038691Y-93808500D01*
X51038702Y-93808500D01*
X51073000Y-93811878D01*
X51107298Y-93808500D01*
X56406566Y-93808500D01*
X56534880Y-94000535D01*
X56729465Y-94195120D01*
X56958273Y-94348005D01*
X57035515Y-94380000D01*
X56958273Y-94411995D01*
X56729465Y-94564880D01*
X56534880Y-94759465D01*
X56381995Y-94988273D01*
X56276686Y-95242510D01*
X56223000Y-95512408D01*
X56223000Y-95787592D01*
X56268058Y-96014113D01*
X50825673Y-101456500D01*
X43574725Y-101456500D01*
X43618005Y-101391727D01*
X43723314Y-101137490D01*
X43777000Y-100867592D01*
X43777000Y-100592408D01*
X43723314Y-100322510D01*
X43666976Y-100186500D01*
X44588673Y-100186500D01*
X44832000Y-100429828D01*
X44832000Y-100469089D01*
X44867932Y-100649729D01*
X44938414Y-100819889D01*
X45040738Y-100973028D01*
X45170972Y-101103262D01*
X45324111Y-101205586D01*
X45494271Y-101276068D01*
X45674911Y-101312000D01*
X45859089Y-101312000D01*
X46039729Y-101276068D01*
X46209889Y-101205586D01*
X46363028Y-101103262D01*
X46493262Y-100973028D01*
X46595586Y-100819889D01*
X46666068Y-100649729D01*
X46702000Y-100469089D01*
X46702000Y-100284911D01*
X46666068Y-100104271D01*
X46595586Y-99934111D01*
X46527000Y-99831465D01*
X46527000Y-99828056D01*
X46672729Y-99799068D01*
X46842889Y-99728586D01*
X46996028Y-99626262D01*
X47126262Y-99496028D01*
X47228586Y-99342889D01*
X47299068Y-99172729D01*
X47335000Y-98992089D01*
X47335000Y-98807911D01*
X47299068Y-98627271D01*
X47228586Y-98457111D01*
X47126262Y-98303972D01*
X47098500Y-98276210D01*
X47098500Y-90555490D01*
X47150755Y-90503236D01*
X47215795Y-90660256D01*
G36*
X38563831Y-79320342D02*
G01*
X38537184Y-79342211D01*
X38515316Y-79368857D01*
X38515313Y-79368860D01*
X38449896Y-79448570D01*
X38385036Y-79569915D01*
X38385035Y-79569917D01*
X38345094Y-79701584D01*
X38334987Y-79804205D01*
X38334987Y-79804215D01*
X38331609Y-79838513D01*
X38334987Y-79872811D01*
X38334988Y-83830179D01*
X38331609Y-83864487D01*
X38334988Y-83898795D01*
X38334988Y-83898796D01*
X38345095Y-84001417D01*
X38357803Y-84043310D01*
X38385036Y-84133085D01*
X38449896Y-84254430D01*
X38515313Y-84334140D01*
X38515317Y-84334144D01*
X38537185Y-84360790D01*
X38563831Y-84382658D01*
X38816000Y-84634827D01*
X38816000Y-84674089D01*
X38851932Y-84854729D01*
X38922414Y-85024889D01*
X39024738Y-85178028D01*
X39029441Y-85182731D01*
X33613344Y-90598829D01*
X33586698Y-90620697D01*
X33564829Y-90647344D01*
X33564826Y-90647347D01*
X33529868Y-90689943D01*
X33499409Y-90727057D01*
X33434548Y-90848403D01*
X33394607Y-90980070D01*
X33384500Y-91082691D01*
X33384500Y-91082702D01*
X33381122Y-91117000D01*
X33384500Y-91151298D01*
X33384500Y-91394308D01*
X33384501Y-91394318D01*
X33384501Y-91822000D01*
X33355911Y-91822000D01*
X33175271Y-91857932D01*
X33005111Y-91928414D01*
X32851972Y-92030738D01*
X32721738Y-92160972D01*
X32619414Y-92314111D01*
X32548932Y-92484271D01*
X32513000Y-92664911D01*
X32513000Y-92849089D01*
X32548932Y-93029729D01*
X32619414Y-93199889D01*
X32721738Y-93353028D01*
X32749501Y-93380791D01*
X32749500Y-95261672D01*
X31253673Y-96757500D01*
X30053297Y-96757500D01*
X30018999Y-96754122D01*
X29984701Y-96757500D01*
X29984691Y-96757500D01*
X29882070Y-96767607D01*
X29750403Y-96807548D01*
X29750401Y-96807549D01*
X29629056Y-96872409D01*
X29549345Y-96937826D01*
X29549337Y-96937834D01*
X29522697Y-96959697D01*
X29500833Y-96986338D01*
X29067163Y-97420009D01*
X28755789Y-97420009D01*
X28721491Y-97416631D01*
X28687193Y-97420009D01*
X28687182Y-97420009D01*
X28584561Y-97430116D01*
X28452894Y-97470057D01*
X28343980Y-97528273D01*
X28331548Y-97534918D01*
X28251837Y-97600335D01*
X28251834Y-97600338D01*
X28225188Y-97622206D01*
X28203320Y-97648852D01*
X27749500Y-98102672D01*
X27749500Y-89189327D01*
X37009828Y-79929000D01*
X37049089Y-79929000D01*
X37229729Y-79893068D01*
X37399889Y-79822586D01*
X37553028Y-79720262D01*
X37683262Y-79590028D01*
X37785586Y-79436889D01*
X37856068Y-79266729D01*
X37870066Y-79196356D01*
X38687817Y-79196356D01*
X38563831Y-79320342D01*
X38563831Y-79320342D01*
G37*
X38563831Y-79320342D02*
X38537184Y-79342211D01*
X38515316Y-79368857D01*
X38515313Y-79368860D01*
X38449896Y-79448570D01*
X38385036Y-79569915D01*
X38385035Y-79569917D01*
X38345094Y-79701584D01*
X38334987Y-79804205D01*
X38334987Y-79804215D01*
X38331609Y-79838513D01*
X38334987Y-79872811D01*
X38334988Y-83830179D01*
X38331609Y-83864487D01*
X38334988Y-83898795D01*
X38334988Y-83898796D01*
X38345095Y-84001417D01*
X38357803Y-84043310D01*
X38385036Y-84133085D01*
X38449896Y-84254430D01*
X38515313Y-84334140D01*
X38515317Y-84334144D01*
X38537185Y-84360790D01*
X38563831Y-84382658D01*
X38816000Y-84634827D01*
X38816000Y-84674089D01*
X38851932Y-84854729D01*
X38922414Y-85024889D01*
X39024738Y-85178028D01*
X39029441Y-85182731D01*
X33613344Y-90598829D01*
X33586698Y-90620697D01*
X33564829Y-90647344D01*
X33564826Y-90647347D01*
X33529868Y-90689943D01*
X33499409Y-90727057D01*
X33434548Y-90848403D01*
X33394607Y-90980070D01*
X33384500Y-91082691D01*
X33384500Y-91082702D01*
X33381122Y-91117000D01*
X33384500Y-91151298D01*
X33384500Y-91394308D01*
X33384501Y-91394318D01*
X33384501Y-91822000D01*
X33355911Y-91822000D01*
X33175271Y-91857932D01*
X33005111Y-91928414D01*
X32851972Y-92030738D01*
X32721738Y-92160972D01*
X32619414Y-92314111D01*
X32548932Y-92484271D01*
X32513000Y-92664911D01*
X32513000Y-92849089D01*
X32548932Y-93029729D01*
X32619414Y-93199889D01*
X32721738Y-93353028D01*
X32749501Y-93380791D01*
X32749500Y-95261672D01*
X31253673Y-96757500D01*
X30053297Y-96757500D01*
X30018999Y-96754122D01*
X29984701Y-96757500D01*
X29984691Y-96757500D01*
X29882070Y-96767607D01*
X29750403Y-96807548D01*
X29750401Y-96807549D01*
X29629056Y-96872409D01*
X29549345Y-96937826D01*
X29549337Y-96937834D01*
X29522697Y-96959697D01*
X29500833Y-96986338D01*
X29067163Y-97420009D01*
X28755789Y-97420009D01*
X28721491Y-97416631D01*
X28687193Y-97420009D01*
X28687182Y-97420009D01*
X28584561Y-97430116D01*
X28452894Y-97470057D01*
X28343980Y-97528273D01*
X28331548Y-97534918D01*
X28251837Y-97600335D01*
X28251834Y-97600338D01*
X28225188Y-97622206D01*
X28203320Y-97648852D01*
X27749500Y-98102672D01*
X27749500Y-89189327D01*
X37009828Y-79929000D01*
X37049089Y-79929000D01*
X37229729Y-79893068D01*
X37399889Y-79822586D01*
X37553028Y-79720262D01*
X37683262Y-79590028D01*
X37785586Y-79436889D01*
X37856068Y-79266729D01*
X37870066Y-79196356D01*
X38687817Y-79196356D01*
X38563831Y-79320342D01*
M02*
