M48
; DRILL file {KiCad (5.1.2)-2} date 11/23/2019 11:04:59 AM
; FORMAT={-:-/ absolute / inch / decimal}
; #@! TF.CreationDate,2019-11-23T11:04:59-05:00
; #@! TF.GenerationSoftware,Kicad,Pcbnew,(5.1.2)-2
FMAT,2
INCH
T1C0.0118
T2C0.0157
T3C0.0300
T4C0.0315
T5C0.0320
T6C0.0394
T7C0.0469
T8C0.0709
T9C0.0551
T10C0.0780
T11C0.0984
%
G90
G05
T1
X0.855Y-4.07
X0.86Y-4.16
X0.86Y-4.205
X0.95Y-2.035
X0.96Y-3.12
X0.985Y-3.05
X1.0118Y-2.2126
X1.0463Y-3.0637
X1.0546Y-3.1123
X1.075Y-1.755
X1.0869Y-3.9069
X1.09Y-2.73
X1.09Y-2.78
X1.1Y-2.375
X1.12Y-2.73
X1.12Y-2.78
X1.1469Y-3.8919
X1.165Y-0.87
X1.165Y-1.915
X1.1769Y-3.8819
X1.1769Y-4.4169
X1.1819Y-4.1819
X1.2047Y-1.6614
X1.2087Y-2.2126
X1.21Y-1.96
X1.25Y-2.33
X1.2619Y-2.7269
X1.2669Y-3.8969
X1.3169Y-3.6519
X1.33Y-1.23
X1.3469Y-2.7719
X1.3469Y-4.1169
X1.3469Y-4.3669
X1.3519Y-4.0819
X1.36Y-1.435
X1.3719Y-4.1619
X1.3769Y-4.1269
X1.378Y-4.4882
X1.38Y-1.41
X1.3969Y-4.0119
X1.4Y-0.915
X1.4Y-0.98
X1.4069Y-3.8869
X1.4134Y-3.6024
X1.4219Y-3.7269
X1.44Y-1.41
X1.455Y-3.11
X1.4567Y-3.437
X1.46Y-1.445
X1.46Y-3.055
X1.4843Y-3.1102
X1.535Y-1.825
X1.535Y-1.97
X1.535Y-2.805
X1.535Y-2.99
X1.56Y-3.01
X1.56Y-3.12
X1.565Y-3.33
X1.57Y-3.435
X1.58Y-3.16
X1.5819Y-4.0169
X1.585Y-2.12
X1.59Y-3.03
X1.59Y-3.305
X1.59Y-3.405
X1.6Y-3.075
X1.6119Y-4.1919
X1.6181Y-2.7205
X1.62Y-2.08
X1.622Y-2.9685
X1.645Y-3.125
X1.65Y-2.72
X1.655Y-1.275
X1.665Y-2.03
X1.665Y-2.865
X1.675Y-2.7
X1.6754Y-3.0746
X1.685Y-2.29
X1.69Y-2.045
X1.695Y-1.98
X1.6969Y-3.2283
X1.7008Y-3.1969
X1.71Y-2.25
X1.725Y-2.0
X1.73Y-2.2
X1.74Y-1.35
X1.74Y-1.405
X1.74Y-2.68
X1.74Y-3.125
X1.75Y-2.02
X1.76Y-2.05
X1.775Y-1.41
X1.775Y-2.785
X1.78Y-4.25
X1.795Y-2.35
X1.8019Y-3.9519
X1.8019Y-3.9969
X1.81Y-1.415
X1.82Y-1.36
X1.82Y-2.37
X1.8228Y-3.2913
X1.825Y-2.195
X1.825Y-2.29
X1.825Y-2.835
X1.8268Y-3.8937
X1.8346Y-4.1378
X1.84Y-1.435
X1.85Y-2.315
X1.85Y-2.385
X1.875Y-2.115
X1.878Y-2.1535
X1.89Y-1.325
X1.9055Y-1.8425
X1.92Y-1.325
X1.9449Y-4.0472
X1.945Y-1.45
X1.9488Y-1.4134
X1.9528Y-1.3228
X1.9528Y-1.9016
X1.9764Y-1.9213
X1.9882Y-4.0748
X2.0Y-1.3228
X2.0039Y-1.8976
X2.0079Y-1.9843
X2.0118Y-1.2441
X2.0118Y-1.8268
X2.0276Y-2.1614
X2.0276Y-3.4921
X2.0354Y-1.0984
X2.0354Y-1.3228
X2.0433Y-1.2362
X2.055Y-4.285
X2.0551Y-3.4213
X2.07Y-1.09
X2.07Y-1.325
X2.0709Y-2.4055
X2.075Y-1.23
X2.0787Y-3.4449
X2.085Y-3.01
X2.0866Y-4.3386
X2.11Y-3.445
X2.11Y-3.49
X2.1102Y-3.9882
X2.122Y-2.3543
X2.1299Y-3.5236
X2.1417Y-4.3465
X2.1496Y-3.5551
X2.1693Y-3.937
X2.1732Y-3.4409
X2.1732Y-3.4921
X2.1969Y-3.4173
X2.2Y-4.145
X2.2047Y-3.4921
X2.2087Y-2.189
X2.2441Y-3.2087
X2.2441Y-3.2441
X2.2559Y-2.2441
X2.2598Y-3.1575
X2.2677Y-1.3346
X2.2874Y-2.6654
X2.2953Y-3.1614
X2.3031Y-2.7638
X2.315Y-2.6457
X2.315Y-2.7165
X2.315Y-3.135
X2.4488Y-1.8937
X2.4488Y-1.9488
X2.5492Y-3.7697
X2.6378Y-3.5433
X2.6811Y-1.0591
X2.6969Y-1.3819
X2.6969Y-2.1811
X2.7047Y-1.2441
X2.7319Y-4.0819
X2.7559Y-1.3268
X2.7992Y-1.0945
X2.9094Y-2.1496
X2.9125Y-3.6212
T2
X0.93Y-3.005
X0.96Y-1.63
X0.98Y-2.755
X0.99Y-2.98
X1.09Y-3.435
X1.14Y-3.115
X1.345Y-3.1532
X1.35Y-3.04
X1.37Y-2.88
X1.385Y-3.13
X1.525Y-3.66
X1.57Y-3.24
X1.575Y-3.92
X1.6Y-3.67
X1.66Y-3.255
X1.735Y-3.615
X1.895Y-3.55
X1.975Y-3.35
X2.07Y-3.345
X2.35Y-3.275
X2.99Y-1.056
X2.99Y-1.575
X3.015Y-3.595
X3.055Y-1.73
X3.079Y-1.945
T3
X1.6685Y-3.3657
X1.6685Y-3.4657
X1.6685Y-3.5657
X1.6685Y-3.6657
X1.6685Y-3.7657
X1.6685Y-3.8657
X1.6685Y-3.9657
X1.6685Y-4.0657
X1.6685Y-4.1657
X1.6685Y-4.2657
X1.6685Y-4.3657
X1.6685Y-4.4657
X1.6685Y-4.5657
X1.6685Y-4.6657
X2.2685Y-3.3657
X2.2685Y-3.4657
X2.2685Y-3.5657
X2.2685Y-3.6657
X2.2685Y-3.7657
X2.2685Y-3.8657
X2.2685Y-3.9657
X2.2685Y-4.0657
X2.2685Y-4.1657
X2.2685Y-4.2657
X2.2685Y-4.3657
X2.2685Y-4.4657
X2.2685Y-4.5657
X2.2685Y-4.6657
T4
X0.88Y-3.19
T5
X1.7323Y-1.2205
X1.8323Y-1.2205
X1.185Y-2.515
X1.185Y-2.615
X1.365Y-2.525
X1.465Y-2.525
X2.1654Y-1.2205
X2.2654Y-1.2205
T6
X1.7047Y-0.9055
X1.7047Y-1.0055
X1.8047Y-0.9055
X1.8047Y-1.0055
X1.9047Y-0.9055
X1.9047Y-1.0055
X2.0047Y-0.9055
X2.0047Y-1.0055
X2.1047Y-0.9055
X2.1047Y-1.0055
X2.2047Y-0.9055
X2.2047Y-1.0055
X0.9843Y-1.8307
X1.0827Y-1.8307
X1.1811Y-1.8307
X2.7559Y-1.8307
X2.8543Y-1.8307
X2.9528Y-1.8307
T7
X0.8886Y-1.2516
X0.8886Y-1.8193
X3.0484Y-1.2516
X3.0484Y-1.8193
T9
X2.689Y-1.0039
X2.9646Y-1.0039
X0.9882Y-1.0039
X1.2638Y-1.0039
T10
X0.8886Y-2.0843
T11
X2.9921Y-4.5669
X0.9449Y-4.5669
T8
G00X0.8583Y-1.5197
M15
G01X0.8583Y-1.5512
M16
G05
G00X1.3071Y-1.5197
M15
G01X1.3071Y-1.5512
M16
G05
G00X2.6299Y-1.5197
M15
G01X2.6299Y-1.5512
M16
G05
G00X3.0787Y-1.5197
M15
G01X3.0787Y-1.5512
M16
G05
T0
M30
