G04 #@! TF.GenerationSoftware,KiCad,Pcbnew,(5.1.2)-2*
G04 #@! TF.CreationDate,2019-11-23T11:04:55-05:00*
G04 #@! TF.ProjectId,tdm_mainboard,74646d5f-6d61-4696-9e62-6f6172642e6b,rev?*
G04 #@! TF.SameCoordinates,Original*
G04 #@! TF.FileFunction,Soldermask,Bot*
G04 #@! TF.FilePolarity,Negative*
%FSLAX46Y46*%
G04 Gerber Fmt 4.6, Leading zero omitted, Abs format (unit mm)*
G04 Created by KiCad (PCBNEW (5.1.2)-2) date 2019-11-23 11:04:55*
%MOMM*%
%LPD*%
G04 APERTURE LIST*
%ADD10C,0.100000*%
G04 APERTURE END LIST*
D10*
G36*
X57857142Y-117728242D02*
G01*
X58005101Y-117789529D01*
X58138255Y-117878499D01*
X58251501Y-117991745D01*
X58340471Y-118124899D01*
X58401758Y-118272858D01*
X58433000Y-118429925D01*
X58433000Y-118590075D01*
X58401758Y-118747142D01*
X58340471Y-118895101D01*
X58251501Y-119028255D01*
X58138255Y-119141501D01*
X58005101Y-119230471D01*
X57857142Y-119291758D01*
X57700075Y-119323000D01*
X57539925Y-119323000D01*
X57382858Y-119291758D01*
X57234899Y-119230471D01*
X57101745Y-119141501D01*
X56988499Y-119028255D01*
X56899529Y-118895101D01*
X56838242Y-118747142D01*
X56807000Y-118590075D01*
X56807000Y-118429925D01*
X56838242Y-118272858D01*
X56899529Y-118124899D01*
X56988499Y-117991745D01*
X57101745Y-117878499D01*
X57234899Y-117789529D01*
X57382858Y-117728242D01*
X57539925Y-117697000D01*
X57700075Y-117697000D01*
X57857142Y-117728242D01*
X57857142Y-117728242D01*
G37*
G36*
X42617142Y-117728242D02*
G01*
X42765101Y-117789529D01*
X42898255Y-117878499D01*
X43011501Y-117991745D01*
X43100471Y-118124899D01*
X43161758Y-118272858D01*
X43193000Y-118429925D01*
X43193000Y-118590075D01*
X43161758Y-118747142D01*
X43100471Y-118895101D01*
X43011501Y-119028255D01*
X42898255Y-119141501D01*
X42765101Y-119230471D01*
X42617142Y-119291758D01*
X42460075Y-119323000D01*
X42299925Y-119323000D01*
X42142858Y-119291758D01*
X41994899Y-119230471D01*
X41861745Y-119141501D01*
X41748499Y-119028255D01*
X41659529Y-118895101D01*
X41598242Y-118747142D01*
X41567000Y-118590075D01*
X41567000Y-118429925D01*
X41598242Y-118272858D01*
X41659529Y-118124899D01*
X41748499Y-117991745D01*
X41861745Y-117878499D01*
X41994899Y-117789529D01*
X42142858Y-117728242D01*
X42299925Y-117697000D01*
X42460075Y-117697000D01*
X42617142Y-117728242D01*
X42617142Y-117728242D01*
G37*
G36*
X24379487Y-114748996D02*
G01*
X24616253Y-114847068D01*
X24616255Y-114847069D01*
X24829339Y-114989447D01*
X25010553Y-115170661D01*
X25122699Y-115338499D01*
X25152932Y-115383747D01*
X25251004Y-115620513D01*
X25301000Y-115871861D01*
X25301000Y-116128139D01*
X25251004Y-116379487D01*
X25159043Y-116601499D01*
X25152931Y-116616255D01*
X25010553Y-116829339D01*
X24829339Y-117010553D01*
X24616255Y-117152931D01*
X24616254Y-117152932D01*
X24616253Y-117152932D01*
X24379487Y-117251004D01*
X24128139Y-117301000D01*
X23871861Y-117301000D01*
X23620513Y-117251004D01*
X23383747Y-117152932D01*
X23383746Y-117152932D01*
X23383745Y-117152931D01*
X23170661Y-117010553D01*
X22989447Y-116829339D01*
X22847069Y-116616255D01*
X22840957Y-116601499D01*
X22748996Y-116379487D01*
X22699000Y-116128139D01*
X22699000Y-115871861D01*
X22748996Y-115620513D01*
X22847068Y-115383747D01*
X22877302Y-115338499D01*
X22989447Y-115170661D01*
X23170661Y-114989447D01*
X23383745Y-114847069D01*
X23383747Y-114847068D01*
X23620513Y-114748996D01*
X23871861Y-114699000D01*
X24128139Y-114699000D01*
X24379487Y-114748996D01*
X24379487Y-114748996D01*
G37*
G36*
X76379487Y-114748996D02*
G01*
X76616253Y-114847068D01*
X76616255Y-114847069D01*
X76829339Y-114989447D01*
X77010553Y-115170661D01*
X77122699Y-115338499D01*
X77152932Y-115383747D01*
X77251004Y-115620513D01*
X77301000Y-115871861D01*
X77301000Y-116128139D01*
X77251004Y-116379487D01*
X77159043Y-116601499D01*
X77152931Y-116616255D01*
X77010553Y-116829339D01*
X76829339Y-117010553D01*
X76616255Y-117152931D01*
X76616254Y-117152932D01*
X76616253Y-117152932D01*
X76379487Y-117251004D01*
X76128139Y-117301000D01*
X75871861Y-117301000D01*
X75620513Y-117251004D01*
X75383747Y-117152932D01*
X75383746Y-117152932D01*
X75383745Y-117152931D01*
X75170661Y-117010553D01*
X74989447Y-116829339D01*
X74847069Y-116616255D01*
X74840957Y-116601499D01*
X74748996Y-116379487D01*
X74699000Y-116128139D01*
X74699000Y-115871861D01*
X74748996Y-115620513D01*
X74847068Y-115383747D01*
X74877302Y-115338499D01*
X74989447Y-115170661D01*
X75170661Y-114989447D01*
X75383745Y-114847069D01*
X75383747Y-114847068D01*
X75620513Y-114748996D01*
X75871861Y-114699000D01*
X76128139Y-114699000D01*
X76379487Y-114748996D01*
X76379487Y-114748996D01*
G37*
G36*
X42617142Y-115188242D02*
G01*
X42765101Y-115249529D01*
X42898255Y-115338499D01*
X43011501Y-115451745D01*
X43100471Y-115584899D01*
X43161758Y-115732858D01*
X43193000Y-115889925D01*
X43193000Y-116050075D01*
X43161758Y-116207142D01*
X43100471Y-116355101D01*
X43011501Y-116488255D01*
X42898255Y-116601501D01*
X42765101Y-116690471D01*
X42617142Y-116751758D01*
X42460075Y-116783000D01*
X42299925Y-116783000D01*
X42142858Y-116751758D01*
X41994899Y-116690471D01*
X41861745Y-116601501D01*
X41748499Y-116488255D01*
X41659529Y-116355101D01*
X41598242Y-116207142D01*
X41567000Y-116050075D01*
X41567000Y-115889925D01*
X41598242Y-115732858D01*
X41659529Y-115584899D01*
X41748499Y-115451745D01*
X41861745Y-115338499D01*
X41994899Y-115249529D01*
X42142858Y-115188242D01*
X42299925Y-115157000D01*
X42460075Y-115157000D01*
X42617142Y-115188242D01*
X42617142Y-115188242D01*
G37*
G36*
X57857142Y-115188242D02*
G01*
X58005101Y-115249529D01*
X58138255Y-115338499D01*
X58251501Y-115451745D01*
X58340471Y-115584899D01*
X58401758Y-115732858D01*
X58433000Y-115889925D01*
X58433000Y-116050075D01*
X58401758Y-116207142D01*
X58340471Y-116355101D01*
X58251501Y-116488255D01*
X58138255Y-116601501D01*
X58005101Y-116690471D01*
X57857142Y-116751758D01*
X57700075Y-116783000D01*
X57539925Y-116783000D01*
X57382858Y-116751758D01*
X57234899Y-116690471D01*
X57101745Y-116601501D01*
X56988499Y-116488255D01*
X56899529Y-116355101D01*
X56838242Y-116207142D01*
X56807000Y-116050075D01*
X56807000Y-115889925D01*
X56838242Y-115732858D01*
X56899529Y-115584899D01*
X56988499Y-115451745D01*
X57101745Y-115338499D01*
X57234899Y-115249529D01*
X57382858Y-115188242D01*
X57539925Y-115157000D01*
X57700075Y-115157000D01*
X57857142Y-115188242D01*
X57857142Y-115188242D01*
G37*
G36*
X57857142Y-112648242D02*
G01*
X58005101Y-112709529D01*
X58138255Y-112798499D01*
X58251501Y-112911745D01*
X58340471Y-113044899D01*
X58401758Y-113192858D01*
X58433000Y-113349925D01*
X58433000Y-113510075D01*
X58401758Y-113667142D01*
X58340471Y-113815101D01*
X58251501Y-113948255D01*
X58138255Y-114061501D01*
X58005101Y-114150471D01*
X57857142Y-114211758D01*
X57700075Y-114243000D01*
X57539925Y-114243000D01*
X57382858Y-114211758D01*
X57234899Y-114150471D01*
X57101745Y-114061501D01*
X56988499Y-113948255D01*
X56899529Y-113815101D01*
X56838242Y-113667142D01*
X56807000Y-113510075D01*
X56807000Y-113349925D01*
X56838242Y-113192858D01*
X56899529Y-113044899D01*
X56988499Y-112911745D01*
X57101745Y-112798499D01*
X57234899Y-112709529D01*
X57382858Y-112648242D01*
X57539925Y-112617000D01*
X57700075Y-112617000D01*
X57857142Y-112648242D01*
X57857142Y-112648242D01*
G37*
G36*
X42617142Y-112648242D02*
G01*
X42765101Y-112709529D01*
X42898255Y-112798499D01*
X43011501Y-112911745D01*
X43100471Y-113044899D01*
X43161758Y-113192858D01*
X43193000Y-113349925D01*
X43193000Y-113510075D01*
X43161758Y-113667142D01*
X43100471Y-113815101D01*
X43011501Y-113948255D01*
X42898255Y-114061501D01*
X42765101Y-114150471D01*
X42617142Y-114211758D01*
X42460075Y-114243000D01*
X42299925Y-114243000D01*
X42142858Y-114211758D01*
X41994899Y-114150471D01*
X41861745Y-114061501D01*
X41748499Y-113948255D01*
X41659529Y-113815101D01*
X41598242Y-113667142D01*
X41567000Y-113510075D01*
X41567000Y-113349925D01*
X41598242Y-113192858D01*
X41659529Y-113044899D01*
X41748499Y-112911745D01*
X41861745Y-112798499D01*
X41994899Y-112709529D01*
X42142858Y-112648242D01*
X42299925Y-112617000D01*
X42460075Y-112617000D01*
X42617142Y-112648242D01*
X42617142Y-112648242D01*
G37*
G36*
X57857142Y-110108242D02*
G01*
X58005101Y-110169529D01*
X58138255Y-110258499D01*
X58251501Y-110371745D01*
X58340471Y-110504899D01*
X58401758Y-110652858D01*
X58433000Y-110809925D01*
X58433000Y-110970075D01*
X58401758Y-111127142D01*
X58340471Y-111275101D01*
X58251501Y-111408255D01*
X58138255Y-111521501D01*
X58005101Y-111610471D01*
X57857142Y-111671758D01*
X57700075Y-111703000D01*
X57539925Y-111703000D01*
X57382858Y-111671758D01*
X57234899Y-111610471D01*
X57101745Y-111521501D01*
X56988499Y-111408255D01*
X56899529Y-111275101D01*
X56838242Y-111127142D01*
X56807000Y-110970075D01*
X56807000Y-110809925D01*
X56838242Y-110652858D01*
X56899529Y-110504899D01*
X56988499Y-110371745D01*
X57101745Y-110258499D01*
X57234899Y-110169529D01*
X57382858Y-110108242D01*
X57539925Y-110077000D01*
X57700075Y-110077000D01*
X57857142Y-110108242D01*
X57857142Y-110108242D01*
G37*
G36*
X42617142Y-110108242D02*
G01*
X42765101Y-110169529D01*
X42898255Y-110258499D01*
X43011501Y-110371745D01*
X43100471Y-110504899D01*
X43161758Y-110652858D01*
X43193000Y-110809925D01*
X43193000Y-110970075D01*
X43161758Y-111127142D01*
X43100471Y-111275101D01*
X43011501Y-111408255D01*
X42898255Y-111521501D01*
X42765101Y-111610471D01*
X42617142Y-111671758D01*
X42460075Y-111703000D01*
X42299925Y-111703000D01*
X42142858Y-111671758D01*
X41994899Y-111610471D01*
X41861745Y-111521501D01*
X41748499Y-111408255D01*
X41659529Y-111275101D01*
X41598242Y-111127142D01*
X41567000Y-110970075D01*
X41567000Y-110809925D01*
X41598242Y-110652858D01*
X41659529Y-110504899D01*
X41748499Y-110371745D01*
X41861745Y-110258499D01*
X41994899Y-110169529D01*
X42142858Y-110108242D01*
X42299925Y-110077000D01*
X42460075Y-110077000D01*
X42617142Y-110108242D01*
X42617142Y-110108242D01*
G37*
G36*
X57857142Y-107568242D02*
G01*
X58005101Y-107629529D01*
X58138255Y-107718499D01*
X58251501Y-107831745D01*
X58340471Y-107964899D01*
X58401758Y-108112858D01*
X58433000Y-108269925D01*
X58433000Y-108430075D01*
X58401758Y-108587142D01*
X58340471Y-108735101D01*
X58251501Y-108868255D01*
X58138255Y-108981501D01*
X58005101Y-109070471D01*
X57857142Y-109131758D01*
X57700075Y-109163000D01*
X57539925Y-109163000D01*
X57382858Y-109131758D01*
X57234899Y-109070471D01*
X57101745Y-108981501D01*
X56988499Y-108868255D01*
X56899529Y-108735101D01*
X56838242Y-108587142D01*
X56807000Y-108430075D01*
X56807000Y-108269925D01*
X56838242Y-108112858D01*
X56899529Y-107964899D01*
X56988499Y-107831745D01*
X57101745Y-107718499D01*
X57234899Y-107629529D01*
X57382858Y-107568242D01*
X57539925Y-107537000D01*
X57700075Y-107537000D01*
X57857142Y-107568242D01*
X57857142Y-107568242D01*
G37*
G36*
X42617142Y-107568242D02*
G01*
X42765101Y-107629529D01*
X42898255Y-107718499D01*
X43011501Y-107831745D01*
X43100471Y-107964899D01*
X43161758Y-108112858D01*
X43193000Y-108269925D01*
X43193000Y-108430075D01*
X43161758Y-108587142D01*
X43100471Y-108735101D01*
X43011501Y-108868255D01*
X42898255Y-108981501D01*
X42765101Y-109070471D01*
X42617142Y-109131758D01*
X42460075Y-109163000D01*
X42299925Y-109163000D01*
X42142858Y-109131758D01*
X41994899Y-109070471D01*
X41861745Y-108981501D01*
X41748499Y-108868255D01*
X41659529Y-108735101D01*
X41598242Y-108587142D01*
X41567000Y-108430075D01*
X41567000Y-108269925D01*
X41598242Y-108112858D01*
X41659529Y-107964899D01*
X41748499Y-107831745D01*
X41861745Y-107718499D01*
X41994899Y-107629529D01*
X42142858Y-107568242D01*
X42299925Y-107537000D01*
X42460075Y-107537000D01*
X42617142Y-107568242D01*
X42617142Y-107568242D01*
G37*
G36*
X42617142Y-105028242D02*
G01*
X42765101Y-105089529D01*
X42898255Y-105178499D01*
X43011501Y-105291745D01*
X43100471Y-105424899D01*
X43161758Y-105572858D01*
X43193000Y-105729925D01*
X43193000Y-105890075D01*
X43161758Y-106047142D01*
X43100471Y-106195101D01*
X43011501Y-106328255D01*
X42898255Y-106441501D01*
X42765101Y-106530471D01*
X42617142Y-106591758D01*
X42460075Y-106623000D01*
X42299925Y-106623000D01*
X42142858Y-106591758D01*
X41994899Y-106530471D01*
X41861745Y-106441501D01*
X41748499Y-106328255D01*
X41659529Y-106195101D01*
X41598242Y-106047142D01*
X41567000Y-105890075D01*
X41567000Y-105729925D01*
X41598242Y-105572858D01*
X41659529Y-105424899D01*
X41748499Y-105291745D01*
X41861745Y-105178499D01*
X41994899Y-105089529D01*
X42142858Y-105028242D01*
X42299925Y-104997000D01*
X42460075Y-104997000D01*
X42617142Y-105028242D01*
X42617142Y-105028242D01*
G37*
G36*
X57857142Y-105028242D02*
G01*
X58005101Y-105089529D01*
X58138255Y-105178499D01*
X58251501Y-105291745D01*
X58340471Y-105424899D01*
X58401758Y-105572858D01*
X58433000Y-105729925D01*
X58433000Y-105890075D01*
X58401758Y-106047142D01*
X58340471Y-106195101D01*
X58251501Y-106328255D01*
X58138255Y-106441501D01*
X58005101Y-106530471D01*
X57857142Y-106591758D01*
X57700075Y-106623000D01*
X57539925Y-106623000D01*
X57382858Y-106591758D01*
X57234899Y-106530471D01*
X57101745Y-106441501D01*
X56988499Y-106328255D01*
X56899529Y-106195101D01*
X56838242Y-106047142D01*
X56807000Y-105890075D01*
X56807000Y-105729925D01*
X56838242Y-105572858D01*
X56899529Y-105424899D01*
X56988499Y-105291745D01*
X57101745Y-105178499D01*
X57234899Y-105089529D01*
X57382858Y-105028242D01*
X57539925Y-104997000D01*
X57700075Y-104997000D01*
X57857142Y-105028242D01*
X57857142Y-105028242D01*
G37*
G36*
X42617142Y-102488242D02*
G01*
X42765101Y-102549529D01*
X42898255Y-102638499D01*
X43011501Y-102751745D01*
X43100471Y-102884899D01*
X43161758Y-103032858D01*
X43193000Y-103189925D01*
X43193000Y-103350075D01*
X43161758Y-103507142D01*
X43100471Y-103655101D01*
X43011501Y-103788255D01*
X42898255Y-103901501D01*
X42765101Y-103990471D01*
X42617142Y-104051758D01*
X42460075Y-104083000D01*
X42299925Y-104083000D01*
X42142858Y-104051758D01*
X41994899Y-103990471D01*
X41861745Y-103901501D01*
X41748499Y-103788255D01*
X41659529Y-103655101D01*
X41598242Y-103507142D01*
X41567000Y-103350075D01*
X41567000Y-103189925D01*
X41598242Y-103032858D01*
X41659529Y-102884899D01*
X41748499Y-102751745D01*
X41861745Y-102638499D01*
X41994899Y-102549529D01*
X42142858Y-102488242D01*
X42299925Y-102457000D01*
X42460075Y-102457000D01*
X42617142Y-102488242D01*
X42617142Y-102488242D01*
G37*
G36*
X57857142Y-102488242D02*
G01*
X58005101Y-102549529D01*
X58138255Y-102638499D01*
X58251501Y-102751745D01*
X58340471Y-102884899D01*
X58401758Y-103032858D01*
X58433000Y-103189925D01*
X58433000Y-103350075D01*
X58401758Y-103507142D01*
X58340471Y-103655101D01*
X58251501Y-103788255D01*
X58138255Y-103901501D01*
X58005101Y-103990471D01*
X57857142Y-104051758D01*
X57700075Y-104083000D01*
X57539925Y-104083000D01*
X57382858Y-104051758D01*
X57234899Y-103990471D01*
X57101745Y-103901501D01*
X56988499Y-103788255D01*
X56899529Y-103655101D01*
X56838242Y-103507142D01*
X56807000Y-103350075D01*
X56807000Y-103189925D01*
X56838242Y-103032858D01*
X56899529Y-102884899D01*
X56988499Y-102751745D01*
X57101745Y-102638499D01*
X57234899Y-102549529D01*
X57382858Y-102488242D01*
X57539925Y-102457000D01*
X57700075Y-102457000D01*
X57857142Y-102488242D01*
X57857142Y-102488242D01*
G37*
G36*
X42617142Y-99948242D02*
G01*
X42765101Y-100009529D01*
X42898255Y-100098499D01*
X43011501Y-100211745D01*
X43100471Y-100344899D01*
X43161758Y-100492858D01*
X43193000Y-100649925D01*
X43193000Y-100810075D01*
X43161758Y-100967142D01*
X43100471Y-101115101D01*
X43011501Y-101248255D01*
X42898255Y-101361501D01*
X42765101Y-101450471D01*
X42617142Y-101511758D01*
X42460075Y-101543000D01*
X42299925Y-101543000D01*
X42142858Y-101511758D01*
X41994899Y-101450471D01*
X41861745Y-101361501D01*
X41748499Y-101248255D01*
X41659529Y-101115101D01*
X41598242Y-100967142D01*
X41567000Y-100810075D01*
X41567000Y-100649925D01*
X41598242Y-100492858D01*
X41659529Y-100344899D01*
X41748499Y-100211745D01*
X41861745Y-100098499D01*
X41994899Y-100009529D01*
X42142858Y-99948242D01*
X42299925Y-99917000D01*
X42460075Y-99917000D01*
X42617142Y-99948242D01*
X42617142Y-99948242D01*
G37*
G36*
X57857142Y-99948242D02*
G01*
X58005101Y-100009529D01*
X58138255Y-100098499D01*
X58251501Y-100211745D01*
X58340471Y-100344899D01*
X58401758Y-100492858D01*
X58433000Y-100649925D01*
X58433000Y-100810075D01*
X58401758Y-100967142D01*
X58340471Y-101115101D01*
X58251501Y-101248255D01*
X58138255Y-101361501D01*
X58005101Y-101450471D01*
X57857142Y-101511758D01*
X57700075Y-101543000D01*
X57539925Y-101543000D01*
X57382858Y-101511758D01*
X57234899Y-101450471D01*
X57101745Y-101361501D01*
X56988499Y-101248255D01*
X56899529Y-101115101D01*
X56838242Y-100967142D01*
X56807000Y-100810075D01*
X56807000Y-100649925D01*
X56838242Y-100492858D01*
X56899529Y-100344899D01*
X56988499Y-100211745D01*
X57101745Y-100098499D01*
X57234899Y-100009529D01*
X57382858Y-99948242D01*
X57539925Y-99917000D01*
X57700075Y-99917000D01*
X57857142Y-99948242D01*
X57857142Y-99948242D01*
G37*
G36*
X57857142Y-97408242D02*
G01*
X58005101Y-97469529D01*
X58138255Y-97558499D01*
X58251501Y-97671745D01*
X58340471Y-97804899D01*
X58401758Y-97952858D01*
X58433000Y-98109925D01*
X58433000Y-98270075D01*
X58401758Y-98427142D01*
X58340471Y-98575101D01*
X58251501Y-98708255D01*
X58138255Y-98821501D01*
X58005101Y-98910471D01*
X57857142Y-98971758D01*
X57700075Y-99003000D01*
X57539925Y-99003000D01*
X57382858Y-98971758D01*
X57234899Y-98910471D01*
X57101745Y-98821501D01*
X56988499Y-98708255D01*
X56899529Y-98575101D01*
X56838242Y-98427142D01*
X56807000Y-98270075D01*
X56807000Y-98109925D01*
X56838242Y-97952858D01*
X56899529Y-97804899D01*
X56988499Y-97671745D01*
X57101745Y-97558499D01*
X57234899Y-97469529D01*
X57382858Y-97408242D01*
X57539925Y-97377000D01*
X57700075Y-97377000D01*
X57857142Y-97408242D01*
X57857142Y-97408242D01*
G37*
G36*
X42617142Y-97408242D02*
G01*
X42765101Y-97469529D01*
X42898255Y-97558499D01*
X43011501Y-97671745D01*
X43100471Y-97804899D01*
X43161758Y-97952858D01*
X43193000Y-98109925D01*
X43193000Y-98270075D01*
X43161758Y-98427142D01*
X43100471Y-98575101D01*
X43011501Y-98708255D01*
X42898255Y-98821501D01*
X42765101Y-98910471D01*
X42617142Y-98971758D01*
X42460075Y-99003000D01*
X42299925Y-99003000D01*
X42142858Y-98971758D01*
X41994899Y-98910471D01*
X41861745Y-98821501D01*
X41748499Y-98708255D01*
X41659529Y-98575101D01*
X41598242Y-98427142D01*
X41567000Y-98270075D01*
X41567000Y-98109925D01*
X41598242Y-97952858D01*
X41659529Y-97804899D01*
X41748499Y-97671745D01*
X41861745Y-97558499D01*
X41994899Y-97469529D01*
X42142858Y-97408242D01*
X42299925Y-97377000D01*
X42460075Y-97377000D01*
X42617142Y-97408242D01*
X42617142Y-97408242D01*
G37*
G36*
X57857142Y-94868242D02*
G01*
X58005101Y-94929529D01*
X58138255Y-95018499D01*
X58251501Y-95131745D01*
X58340471Y-95264899D01*
X58401758Y-95412858D01*
X58433000Y-95569925D01*
X58433000Y-95730075D01*
X58401758Y-95887142D01*
X58340471Y-96035101D01*
X58251501Y-96168255D01*
X58138255Y-96281501D01*
X58005101Y-96370471D01*
X57857142Y-96431758D01*
X57700075Y-96463000D01*
X57539925Y-96463000D01*
X57382858Y-96431758D01*
X57234899Y-96370471D01*
X57101745Y-96281501D01*
X56988499Y-96168255D01*
X56899529Y-96035101D01*
X56838242Y-95887142D01*
X56807000Y-95730075D01*
X56807000Y-95569925D01*
X56838242Y-95412858D01*
X56899529Y-95264899D01*
X56988499Y-95131745D01*
X57101745Y-95018499D01*
X57234899Y-94929529D01*
X57382858Y-94868242D01*
X57539925Y-94837000D01*
X57700075Y-94837000D01*
X57857142Y-94868242D01*
X57857142Y-94868242D01*
G37*
G36*
X42617142Y-94868242D02*
G01*
X42765101Y-94929529D01*
X42898255Y-95018499D01*
X43011501Y-95131745D01*
X43100471Y-95264899D01*
X43161758Y-95412858D01*
X43193000Y-95569925D01*
X43193000Y-95730075D01*
X43161758Y-95887142D01*
X43100471Y-96035101D01*
X43011501Y-96168255D01*
X42898255Y-96281501D01*
X42765101Y-96370471D01*
X42617142Y-96431758D01*
X42460075Y-96463000D01*
X42299925Y-96463000D01*
X42142858Y-96431758D01*
X41994899Y-96370471D01*
X41861745Y-96281501D01*
X41748499Y-96168255D01*
X41659529Y-96035101D01*
X41598242Y-95887142D01*
X41567000Y-95730075D01*
X41567000Y-95569925D01*
X41598242Y-95412858D01*
X41659529Y-95264899D01*
X41748499Y-95131745D01*
X41861745Y-95018499D01*
X41994899Y-94929529D01*
X42142858Y-94868242D01*
X42299925Y-94837000D01*
X42460075Y-94837000D01*
X42617142Y-94868242D01*
X42617142Y-94868242D01*
G37*
G36*
X57857142Y-92328242D02*
G01*
X58005101Y-92389529D01*
X58138255Y-92478499D01*
X58251501Y-92591745D01*
X58340471Y-92724899D01*
X58401758Y-92872858D01*
X58433000Y-93029925D01*
X58433000Y-93190075D01*
X58401758Y-93347142D01*
X58340471Y-93495101D01*
X58251501Y-93628255D01*
X58138255Y-93741501D01*
X58005101Y-93830471D01*
X57857142Y-93891758D01*
X57700075Y-93923000D01*
X57539925Y-93923000D01*
X57382858Y-93891758D01*
X57234899Y-93830471D01*
X57101745Y-93741501D01*
X56988499Y-93628255D01*
X56899529Y-93495101D01*
X56838242Y-93347142D01*
X56807000Y-93190075D01*
X56807000Y-93029925D01*
X56838242Y-92872858D01*
X56899529Y-92724899D01*
X56988499Y-92591745D01*
X57101745Y-92478499D01*
X57234899Y-92389529D01*
X57382858Y-92328242D01*
X57539925Y-92297000D01*
X57700075Y-92297000D01*
X57857142Y-92328242D01*
X57857142Y-92328242D01*
G37*
G36*
X42617142Y-92328242D02*
G01*
X42765101Y-92389529D01*
X42898255Y-92478499D01*
X43011501Y-92591745D01*
X43100471Y-92724899D01*
X43161758Y-92872858D01*
X43193000Y-93029925D01*
X43193000Y-93190075D01*
X43161758Y-93347142D01*
X43100471Y-93495101D01*
X43011501Y-93628255D01*
X42898255Y-93741501D01*
X42765101Y-93830471D01*
X42617142Y-93891758D01*
X42460075Y-93923000D01*
X42299925Y-93923000D01*
X42142858Y-93891758D01*
X41994899Y-93830471D01*
X41861745Y-93741501D01*
X41748499Y-93628255D01*
X41659529Y-93495101D01*
X41598242Y-93347142D01*
X41567000Y-93190075D01*
X41567000Y-93029925D01*
X41598242Y-92872858D01*
X41659529Y-92724899D01*
X41748499Y-92591745D01*
X41861745Y-92478499D01*
X41994899Y-92389529D01*
X42142858Y-92328242D01*
X42299925Y-92297000D01*
X42460075Y-92297000D01*
X42617142Y-92328242D01*
X42617142Y-92328242D01*
G37*
G36*
X57857142Y-89788242D02*
G01*
X58005101Y-89849529D01*
X58138255Y-89938499D01*
X58251501Y-90051745D01*
X58340471Y-90184899D01*
X58401758Y-90332858D01*
X58433000Y-90489925D01*
X58433000Y-90650075D01*
X58401758Y-90807142D01*
X58340471Y-90955101D01*
X58251501Y-91088255D01*
X58138255Y-91201501D01*
X58005101Y-91290471D01*
X57857142Y-91351758D01*
X57700075Y-91383000D01*
X57539925Y-91383000D01*
X57382858Y-91351758D01*
X57234899Y-91290471D01*
X57101745Y-91201501D01*
X56988499Y-91088255D01*
X56899529Y-90955101D01*
X56838242Y-90807142D01*
X56807000Y-90650075D01*
X56807000Y-90489925D01*
X56838242Y-90332858D01*
X56899529Y-90184899D01*
X56988499Y-90051745D01*
X57101745Y-89938499D01*
X57234899Y-89849529D01*
X57382858Y-89788242D01*
X57539925Y-89757000D01*
X57700075Y-89757000D01*
X57857142Y-89788242D01*
X57857142Y-89788242D01*
G37*
G36*
X42617142Y-89788242D02*
G01*
X42765101Y-89849529D01*
X42898255Y-89938499D01*
X43011501Y-90051745D01*
X43100471Y-90184899D01*
X43161758Y-90332858D01*
X43193000Y-90489925D01*
X43193000Y-90650075D01*
X43161758Y-90807142D01*
X43100471Y-90955101D01*
X43011501Y-91088255D01*
X42898255Y-91201501D01*
X42765101Y-91290471D01*
X42617142Y-91351758D01*
X42460075Y-91383000D01*
X42299925Y-91383000D01*
X42142858Y-91351758D01*
X41994899Y-91290471D01*
X41861745Y-91201501D01*
X41748499Y-91088255D01*
X41659529Y-90955101D01*
X41598242Y-90807142D01*
X41567000Y-90650075D01*
X41567000Y-90489925D01*
X41598242Y-90332858D01*
X41659529Y-90184899D01*
X41748499Y-90051745D01*
X41861745Y-89938499D01*
X41994899Y-89849529D01*
X42142858Y-89788242D01*
X42299925Y-89757000D01*
X42460075Y-89757000D01*
X42617142Y-89788242D01*
X42617142Y-89788242D01*
G37*
G36*
X57857142Y-87248242D02*
G01*
X58005101Y-87309529D01*
X58138255Y-87398499D01*
X58251501Y-87511745D01*
X58340471Y-87644899D01*
X58401758Y-87792858D01*
X58433000Y-87949925D01*
X58433000Y-88110075D01*
X58401758Y-88267142D01*
X58340471Y-88415101D01*
X58251501Y-88548255D01*
X58138255Y-88661501D01*
X58005101Y-88750471D01*
X57857142Y-88811758D01*
X57700075Y-88843000D01*
X57539925Y-88843000D01*
X57382858Y-88811758D01*
X57234899Y-88750471D01*
X57101745Y-88661501D01*
X56988499Y-88548255D01*
X56899529Y-88415101D01*
X56838242Y-88267142D01*
X56807000Y-88110075D01*
X56807000Y-87949925D01*
X56838242Y-87792858D01*
X56899529Y-87644899D01*
X56988499Y-87511745D01*
X57101745Y-87398499D01*
X57234899Y-87309529D01*
X57382858Y-87248242D01*
X57539925Y-87217000D01*
X57700075Y-87217000D01*
X57857142Y-87248242D01*
X57857142Y-87248242D01*
G37*
G36*
X42617142Y-87248242D02*
G01*
X42765101Y-87309529D01*
X42898255Y-87398499D01*
X43011501Y-87511745D01*
X43100471Y-87644899D01*
X43161758Y-87792858D01*
X43193000Y-87949925D01*
X43193000Y-88110075D01*
X43161758Y-88267142D01*
X43100471Y-88415101D01*
X43011501Y-88548255D01*
X42898255Y-88661501D01*
X42765101Y-88750471D01*
X42617142Y-88811758D01*
X42460075Y-88843000D01*
X42299925Y-88843000D01*
X42142858Y-88811758D01*
X41994899Y-88750471D01*
X41861745Y-88661501D01*
X41748499Y-88548255D01*
X41659529Y-88415101D01*
X41598242Y-88267142D01*
X41567000Y-88110075D01*
X41567000Y-87949925D01*
X41598242Y-87792858D01*
X41659529Y-87644899D01*
X41748499Y-87511745D01*
X41861745Y-87398499D01*
X41994899Y-87309529D01*
X42142858Y-87248242D01*
X42299925Y-87217000D01*
X42460075Y-87217000D01*
X42617142Y-87248242D01*
X42617142Y-87248242D01*
G37*
G36*
X42617142Y-84708242D02*
G01*
X42765101Y-84769529D01*
X42898255Y-84858499D01*
X43011501Y-84971745D01*
X43100471Y-85104899D01*
X43161758Y-85252858D01*
X43193000Y-85409925D01*
X43193000Y-85570075D01*
X43161758Y-85727142D01*
X43100471Y-85875101D01*
X43011501Y-86008255D01*
X42898255Y-86121501D01*
X42765101Y-86210471D01*
X42617142Y-86271758D01*
X42460075Y-86303000D01*
X42299925Y-86303000D01*
X42142858Y-86271758D01*
X41994899Y-86210471D01*
X41861745Y-86121501D01*
X41748499Y-86008255D01*
X41659529Y-85875101D01*
X41598242Y-85727142D01*
X41567000Y-85570075D01*
X41567000Y-85409925D01*
X41598242Y-85252858D01*
X41659529Y-85104899D01*
X41748499Y-84971745D01*
X41861745Y-84858499D01*
X41994899Y-84769529D01*
X42142858Y-84708242D01*
X42299925Y-84677000D01*
X42460075Y-84677000D01*
X42617142Y-84708242D01*
X42617142Y-84708242D01*
G37*
G36*
X57857142Y-84708242D02*
G01*
X58005101Y-84769529D01*
X58138255Y-84858499D01*
X58251501Y-84971745D01*
X58340471Y-85104899D01*
X58401758Y-85252858D01*
X58433000Y-85409925D01*
X58433000Y-85570075D01*
X58401758Y-85727142D01*
X58340471Y-85875101D01*
X58251501Y-86008255D01*
X58138255Y-86121501D01*
X58005101Y-86210471D01*
X57857142Y-86271758D01*
X57700075Y-86303000D01*
X57539925Y-86303000D01*
X57382858Y-86271758D01*
X57234899Y-86210471D01*
X57101745Y-86121501D01*
X56988499Y-86008255D01*
X56899529Y-85875101D01*
X56838242Y-85727142D01*
X56807000Y-85570075D01*
X56807000Y-85409925D01*
X56838242Y-85252858D01*
X56899529Y-85104899D01*
X56988499Y-84971745D01*
X57101745Y-84858499D01*
X57234899Y-84769529D01*
X57382858Y-84708242D01*
X57539925Y-84677000D01*
X57700075Y-84677000D01*
X57857142Y-84708242D01*
X57857142Y-84708242D01*
G37*
G36*
X22585642Y-80255781D02*
G01*
X22731414Y-80316162D01*
X22731416Y-80316163D01*
X22862608Y-80403822D01*
X22974178Y-80515392D01*
X23061837Y-80646584D01*
X23061838Y-80646586D01*
X23122219Y-80792358D01*
X23153000Y-80947107D01*
X23153000Y-81104893D01*
X23122219Y-81259642D01*
X23061838Y-81405414D01*
X23061837Y-81405416D01*
X22974178Y-81536608D01*
X22862608Y-81648178D01*
X22731416Y-81735837D01*
X22731415Y-81735838D01*
X22731414Y-81735838D01*
X22585642Y-81796219D01*
X22430893Y-81827000D01*
X22273107Y-81827000D01*
X22118358Y-81796219D01*
X21972586Y-81735838D01*
X21972585Y-81735838D01*
X21972584Y-81735837D01*
X21841392Y-81648178D01*
X21729822Y-81536608D01*
X21642163Y-81405416D01*
X21642162Y-81405414D01*
X21581781Y-81259642D01*
X21551000Y-81104893D01*
X21551000Y-80947107D01*
X21581781Y-80792358D01*
X21642162Y-80646586D01*
X21642163Y-80646584D01*
X21729822Y-80515392D01*
X21841392Y-80403822D01*
X21972584Y-80316163D01*
X21972586Y-80316162D01*
X22118358Y-80255781D01*
X22273107Y-80225000D01*
X22430893Y-80225000D01*
X22585642Y-80255781D01*
X22585642Y-80255781D01*
G37*
G36*
X30318059Y-65698860D02*
G01*
X30454732Y-65755472D01*
X30577735Y-65837660D01*
X30682340Y-65942265D01*
X30764528Y-66065268D01*
X30821140Y-66201941D01*
X30850000Y-66347033D01*
X30850000Y-66494967D01*
X30821140Y-66640059D01*
X30764528Y-66776732D01*
X30682340Y-66899735D01*
X30577735Y-67004340D01*
X30454732Y-67086528D01*
X30454731Y-67086529D01*
X30454730Y-67086529D01*
X30318059Y-67143140D01*
X30172968Y-67172000D01*
X30025032Y-67172000D01*
X29879941Y-67143140D01*
X29743270Y-67086529D01*
X29743269Y-67086529D01*
X29743268Y-67086528D01*
X29620265Y-67004340D01*
X29515660Y-66899735D01*
X29433472Y-66776732D01*
X29376860Y-66640059D01*
X29348000Y-66494967D01*
X29348000Y-66347033D01*
X29376860Y-66201941D01*
X29433472Y-66065268D01*
X29515660Y-65942265D01*
X29620265Y-65837660D01*
X29743268Y-65755472D01*
X29879941Y-65698860D01*
X30025032Y-65670000D01*
X30172968Y-65670000D01*
X30318059Y-65698860D01*
X30318059Y-65698860D01*
G37*
G36*
X37430059Y-63412860D02*
G01*
X37566732Y-63469472D01*
X37689735Y-63551660D01*
X37794340Y-63656265D01*
X37876528Y-63779268D01*
X37933140Y-63915941D01*
X37962000Y-64061033D01*
X37962000Y-64208967D01*
X37933140Y-64354059D01*
X37876528Y-64490732D01*
X37794340Y-64613735D01*
X37689735Y-64718340D01*
X37566732Y-64800528D01*
X37566731Y-64800529D01*
X37566730Y-64800529D01*
X37430059Y-64857140D01*
X37284968Y-64886000D01*
X37137032Y-64886000D01*
X36991941Y-64857140D01*
X36855270Y-64800529D01*
X36855269Y-64800529D01*
X36855268Y-64800528D01*
X36732265Y-64718340D01*
X36627660Y-64613735D01*
X36545472Y-64490732D01*
X36488860Y-64354059D01*
X36460000Y-64208967D01*
X36460000Y-64061033D01*
X36488860Y-63915941D01*
X36545472Y-63779268D01*
X36627660Y-63656265D01*
X36732265Y-63551660D01*
X36855268Y-63469472D01*
X36991941Y-63412860D01*
X37137032Y-63384000D01*
X37284968Y-63384000D01*
X37430059Y-63412860D01*
X37430059Y-63412860D01*
G37*
G36*
X34890059Y-63412860D02*
G01*
X35026732Y-63469472D01*
X35149735Y-63551660D01*
X35254340Y-63656265D01*
X35336528Y-63779268D01*
X35393140Y-63915941D01*
X35422000Y-64061033D01*
X35422000Y-64208967D01*
X35393140Y-64354059D01*
X35336528Y-64490732D01*
X35254340Y-64613735D01*
X35149735Y-64718340D01*
X35026732Y-64800528D01*
X35026731Y-64800529D01*
X35026730Y-64800529D01*
X34890059Y-64857140D01*
X34744968Y-64886000D01*
X34597032Y-64886000D01*
X34451941Y-64857140D01*
X34315270Y-64800529D01*
X34315269Y-64800529D01*
X34315268Y-64800528D01*
X34192265Y-64718340D01*
X34087660Y-64613735D01*
X34005472Y-64490732D01*
X33948860Y-64354059D01*
X33920000Y-64208967D01*
X33920000Y-64061033D01*
X33948860Y-63915941D01*
X34005472Y-63779268D01*
X34087660Y-63656265D01*
X34192265Y-63551660D01*
X34315268Y-63469472D01*
X34451941Y-63412860D01*
X34597032Y-63384000D01*
X34744968Y-63384000D01*
X34890059Y-63412860D01*
X34890059Y-63412860D01*
G37*
G36*
X30318059Y-63158860D02*
G01*
X30454732Y-63215472D01*
X30577735Y-63297660D01*
X30682340Y-63402265D01*
X30764528Y-63525268D01*
X30821140Y-63661941D01*
X30850000Y-63807033D01*
X30850000Y-63954967D01*
X30821140Y-64100059D01*
X30764528Y-64236732D01*
X30682340Y-64359735D01*
X30577735Y-64464340D01*
X30454732Y-64546528D01*
X30454731Y-64546529D01*
X30454730Y-64546529D01*
X30318059Y-64603140D01*
X30172968Y-64632000D01*
X30025032Y-64632000D01*
X29879941Y-64603140D01*
X29743270Y-64546529D01*
X29743269Y-64546529D01*
X29743268Y-64546528D01*
X29620265Y-64464340D01*
X29515660Y-64359735D01*
X29433472Y-64236732D01*
X29376860Y-64100059D01*
X29348000Y-63954967D01*
X29348000Y-63807033D01*
X29376860Y-63661941D01*
X29433472Y-63525268D01*
X29515660Y-63402265D01*
X29620265Y-63297660D01*
X29743268Y-63215472D01*
X29879941Y-63158860D01*
X30025032Y-63130000D01*
X30172968Y-63130000D01*
X30318059Y-63158860D01*
X30318059Y-63158860D01*
G37*
G36*
X22873647Y-51939004D02*
G01*
X23063097Y-52017477D01*
X23063098Y-52017478D01*
X23233599Y-52131402D01*
X23378598Y-52276401D01*
X23454719Y-52390326D01*
X23492523Y-52446903D01*
X23570996Y-52636353D01*
X23611000Y-52837469D01*
X23611000Y-53042531D01*
X23570996Y-53243647D01*
X23492523Y-53433097D01*
X23492522Y-53433098D01*
X23378598Y-53603599D01*
X23233599Y-53748598D01*
X23119674Y-53824719D01*
X23063097Y-53862523D01*
X22873647Y-53940996D01*
X22672531Y-53981000D01*
X22467469Y-53981000D01*
X22266353Y-53940996D01*
X22076903Y-53862523D01*
X22020326Y-53824719D01*
X21906401Y-53748598D01*
X21761402Y-53603599D01*
X21647478Y-53433098D01*
X21647477Y-53433097D01*
X21569004Y-53243647D01*
X21529000Y-53042531D01*
X21529000Y-52837469D01*
X21569004Y-52636353D01*
X21647477Y-52446903D01*
X21685281Y-52390326D01*
X21761402Y-52276401D01*
X21906401Y-52131402D01*
X22076902Y-52017478D01*
X22076903Y-52017477D01*
X22266353Y-51939004D01*
X22467469Y-51899000D01*
X22672531Y-51899000D01*
X22873647Y-51939004D01*
X22873647Y-51939004D01*
G37*
G36*
X25306564Y-45489389D02*
G01*
X25497833Y-45568615D01*
X25497835Y-45568616D01*
X25557606Y-45608554D01*
X25669973Y-45683635D01*
X25816365Y-45830027D01*
X25931385Y-46002167D01*
X26010611Y-46193436D01*
X26051000Y-46396484D01*
X26051000Y-46603516D01*
X26010611Y-46806564D01*
X25954154Y-46942864D01*
X25931384Y-46997835D01*
X25816365Y-47169973D01*
X25669973Y-47316365D01*
X25497835Y-47431384D01*
X25497834Y-47431385D01*
X25497833Y-47431385D01*
X25306564Y-47510611D01*
X25103516Y-47551000D01*
X24896484Y-47551000D01*
X24693436Y-47510611D01*
X24502167Y-47431385D01*
X24502166Y-47431385D01*
X24502165Y-47431384D01*
X24330027Y-47316365D01*
X24183635Y-47169973D01*
X24068616Y-46997835D01*
X24045846Y-46942864D01*
X23989389Y-46806564D01*
X23949000Y-46603516D01*
X23949000Y-46396484D01*
X23989389Y-46193436D01*
X24068615Y-46002167D01*
X24183635Y-45830027D01*
X24330027Y-45683635D01*
X24442394Y-45608554D01*
X24502165Y-45568616D01*
X24502167Y-45568615D01*
X24693436Y-45489389D01*
X24896484Y-45449000D01*
X25103516Y-45449000D01*
X25306564Y-45489389D01*
X25306564Y-45489389D01*
G37*
G36*
X30306564Y-45489389D02*
G01*
X30497833Y-45568615D01*
X30497835Y-45568616D01*
X30557606Y-45608554D01*
X30669973Y-45683635D01*
X30816365Y-45830027D01*
X30931385Y-46002167D01*
X31010611Y-46193436D01*
X31051000Y-46396484D01*
X31051000Y-46603516D01*
X31010611Y-46806564D01*
X30954154Y-46942864D01*
X30931384Y-46997835D01*
X30816365Y-47169973D01*
X30669973Y-47316365D01*
X30497835Y-47431384D01*
X30497834Y-47431385D01*
X30497833Y-47431385D01*
X30306564Y-47510611D01*
X30103516Y-47551000D01*
X29896484Y-47551000D01*
X29693436Y-47510611D01*
X29502167Y-47431385D01*
X29502166Y-47431385D01*
X29502165Y-47431384D01*
X29330027Y-47316365D01*
X29183635Y-47169973D01*
X29068616Y-46997835D01*
X29045846Y-46942864D01*
X28989389Y-46806564D01*
X28949000Y-46603516D01*
X28949000Y-46396484D01*
X28989389Y-46193436D01*
X29068615Y-46002167D01*
X29183635Y-45830027D01*
X29330027Y-45683635D01*
X29442394Y-45608554D01*
X29502165Y-45568616D01*
X29502167Y-45568615D01*
X29693436Y-45489389D01*
X29896484Y-45449000D01*
X30103516Y-45449000D01*
X30306564Y-45489389D01*
X30306564Y-45489389D01*
G37*
G36*
X27806564Y-45489389D02*
G01*
X27997833Y-45568615D01*
X27997835Y-45568616D01*
X28057606Y-45608554D01*
X28169973Y-45683635D01*
X28316365Y-45830027D01*
X28431385Y-46002167D01*
X28510611Y-46193436D01*
X28551000Y-46396484D01*
X28551000Y-46603516D01*
X28510611Y-46806564D01*
X28454154Y-46942864D01*
X28431384Y-46997835D01*
X28316365Y-47169973D01*
X28169973Y-47316365D01*
X27997835Y-47431384D01*
X27997834Y-47431385D01*
X27997833Y-47431385D01*
X27806564Y-47510611D01*
X27603516Y-47551000D01*
X27396484Y-47551000D01*
X27193436Y-47510611D01*
X27002167Y-47431385D01*
X27002166Y-47431385D01*
X27002165Y-47431384D01*
X26830027Y-47316365D01*
X26683635Y-47169973D01*
X26568616Y-46997835D01*
X26545846Y-46942864D01*
X26489389Y-46806564D01*
X26449000Y-46603516D01*
X26449000Y-46396484D01*
X26489389Y-46193436D01*
X26568615Y-46002167D01*
X26683635Y-45830027D01*
X26830027Y-45683635D01*
X26942394Y-45608554D01*
X27002165Y-45568616D01*
X27002167Y-45568615D01*
X27193436Y-45489389D01*
X27396484Y-45449000D01*
X27603516Y-45449000D01*
X27806564Y-45489389D01*
X27806564Y-45489389D01*
G37*
G36*
X72806564Y-45489389D02*
G01*
X72997833Y-45568615D01*
X72997835Y-45568616D01*
X73057606Y-45608554D01*
X73169973Y-45683635D01*
X73316365Y-45830027D01*
X73431385Y-46002167D01*
X73510611Y-46193436D01*
X73551000Y-46396484D01*
X73551000Y-46603516D01*
X73510611Y-46806564D01*
X73454154Y-46942864D01*
X73431384Y-46997835D01*
X73316365Y-47169973D01*
X73169973Y-47316365D01*
X72997835Y-47431384D01*
X72997834Y-47431385D01*
X72997833Y-47431385D01*
X72806564Y-47510611D01*
X72603516Y-47551000D01*
X72396484Y-47551000D01*
X72193436Y-47510611D01*
X72002167Y-47431385D01*
X72002166Y-47431385D01*
X72002165Y-47431384D01*
X71830027Y-47316365D01*
X71683635Y-47169973D01*
X71568616Y-46997835D01*
X71545846Y-46942864D01*
X71489389Y-46806564D01*
X71449000Y-46603516D01*
X71449000Y-46396484D01*
X71489389Y-46193436D01*
X71568615Y-46002167D01*
X71683635Y-45830027D01*
X71830027Y-45683635D01*
X71942394Y-45608554D01*
X72002165Y-45568616D01*
X72002167Y-45568615D01*
X72193436Y-45489389D01*
X72396484Y-45449000D01*
X72603516Y-45449000D01*
X72806564Y-45489389D01*
X72806564Y-45489389D01*
G37*
G36*
X75306564Y-45489389D02*
G01*
X75497833Y-45568615D01*
X75497835Y-45568616D01*
X75557606Y-45608554D01*
X75669973Y-45683635D01*
X75816365Y-45830027D01*
X75931385Y-46002167D01*
X76010611Y-46193436D01*
X76051000Y-46396484D01*
X76051000Y-46603516D01*
X76010611Y-46806564D01*
X75954154Y-46942864D01*
X75931384Y-46997835D01*
X75816365Y-47169973D01*
X75669973Y-47316365D01*
X75497835Y-47431384D01*
X75497834Y-47431385D01*
X75497833Y-47431385D01*
X75306564Y-47510611D01*
X75103516Y-47551000D01*
X74896484Y-47551000D01*
X74693436Y-47510611D01*
X74502167Y-47431385D01*
X74502166Y-47431385D01*
X74502165Y-47431384D01*
X74330027Y-47316365D01*
X74183635Y-47169973D01*
X74068616Y-46997835D01*
X74045846Y-46942864D01*
X73989389Y-46806564D01*
X73949000Y-46603516D01*
X73949000Y-46396484D01*
X73989389Y-46193436D01*
X74068615Y-46002167D01*
X74183635Y-45830027D01*
X74330027Y-45683635D01*
X74442394Y-45608554D01*
X74502165Y-45568616D01*
X74502167Y-45568615D01*
X74693436Y-45489389D01*
X74896484Y-45449000D01*
X75103516Y-45449000D01*
X75306564Y-45489389D01*
X75306564Y-45489389D01*
G37*
G36*
X70306564Y-45489389D02*
G01*
X70497833Y-45568615D01*
X70497835Y-45568616D01*
X70557606Y-45608554D01*
X70669973Y-45683635D01*
X70816365Y-45830027D01*
X70931385Y-46002167D01*
X71010611Y-46193436D01*
X71051000Y-46396484D01*
X71051000Y-46603516D01*
X71010611Y-46806564D01*
X70954154Y-46942864D01*
X70931384Y-46997835D01*
X70816365Y-47169973D01*
X70669973Y-47316365D01*
X70497835Y-47431384D01*
X70497834Y-47431385D01*
X70497833Y-47431385D01*
X70306564Y-47510611D01*
X70103516Y-47551000D01*
X69896484Y-47551000D01*
X69693436Y-47510611D01*
X69502167Y-47431385D01*
X69502166Y-47431385D01*
X69502165Y-47431384D01*
X69330027Y-47316365D01*
X69183635Y-47169973D01*
X69068616Y-46997835D01*
X69045846Y-46942864D01*
X68989389Y-46806564D01*
X68949000Y-46603516D01*
X68949000Y-46396484D01*
X68989389Y-46193436D01*
X69068615Y-46002167D01*
X69183635Y-45830027D01*
X69330027Y-45683635D01*
X69442394Y-45608554D01*
X69502165Y-45568616D01*
X69502167Y-45568615D01*
X69693436Y-45489389D01*
X69896484Y-45449000D01*
X70103516Y-45449000D01*
X70306564Y-45489389D01*
X70306564Y-45489389D01*
G37*
G36*
X22754068Y-45284629D02*
G01*
X22845209Y-45302758D01*
X23016915Y-45373881D01*
X23171446Y-45477136D01*
X23302864Y-45608554D01*
X23406119Y-45763085D01*
X23477242Y-45934791D01*
X23513500Y-46117073D01*
X23513500Y-46302927D01*
X23477242Y-46485209D01*
X23406119Y-46656915D01*
X23302864Y-46811446D01*
X23171446Y-46942864D01*
X23016915Y-47046119D01*
X22845209Y-47117242D01*
X22754068Y-47135371D01*
X22662928Y-47153500D01*
X22477072Y-47153500D01*
X22385932Y-47135371D01*
X22294791Y-47117242D01*
X22123085Y-47046119D01*
X21968554Y-46942864D01*
X21837136Y-46811446D01*
X21733881Y-46656915D01*
X21662758Y-46485209D01*
X21626500Y-46302927D01*
X21626500Y-46117073D01*
X21662758Y-45934791D01*
X21733881Y-45763085D01*
X21837136Y-45608554D01*
X21968554Y-45477136D01*
X22123085Y-45373881D01*
X22294791Y-45302758D01*
X22385932Y-45284629D01*
X22477072Y-45266500D01*
X22662928Y-45266500D01*
X22754068Y-45284629D01*
X22754068Y-45284629D01*
G37*
G36*
X77614068Y-45284629D02*
G01*
X77705209Y-45302758D01*
X77876915Y-45373881D01*
X78031446Y-45477136D01*
X78162864Y-45608554D01*
X78266119Y-45763085D01*
X78337242Y-45934791D01*
X78373500Y-46117073D01*
X78373500Y-46302927D01*
X78337242Y-46485209D01*
X78266119Y-46656915D01*
X78162864Y-46811446D01*
X78031446Y-46942864D01*
X77876915Y-47046119D01*
X77705209Y-47117242D01*
X77614068Y-47135371D01*
X77522928Y-47153500D01*
X77337072Y-47153500D01*
X77245932Y-47135371D01*
X77154791Y-47117242D01*
X76983085Y-47046119D01*
X76828554Y-46942864D01*
X76697136Y-46811446D01*
X76593881Y-46656915D01*
X76522758Y-46485209D01*
X76486500Y-46302927D01*
X76486500Y-46117073D01*
X76522758Y-45934791D01*
X76593881Y-45763085D01*
X76697136Y-45608554D01*
X76828554Y-45477136D01*
X76983085Y-45373881D01*
X77154791Y-45302758D01*
X77245932Y-45284629D01*
X77337072Y-45266500D01*
X77522928Y-45266500D01*
X77614068Y-45284629D01*
X77614068Y-45284629D01*
G37*
G36*
X23251000Y-40851000D02*
G01*
X20349000Y-40851000D01*
X20349000Y-37149000D01*
X23251000Y-37149000D01*
X23251000Y-40851000D01*
X23251000Y-40851000D01*
G37*
G36*
X34651000Y-40851000D02*
G01*
X31749000Y-40851000D01*
X31749000Y-37149000D01*
X34651000Y-37149000D01*
X34651000Y-40851000D01*
X34651000Y-40851000D01*
G37*
G36*
X68251000Y-40851000D02*
G01*
X65349000Y-40851000D01*
X65349000Y-37149000D01*
X68251000Y-37149000D01*
X68251000Y-40851000D01*
X68251000Y-40851000D01*
G37*
G36*
X79651000Y-40851000D02*
G01*
X76749000Y-40851000D01*
X76749000Y-37149000D01*
X79651000Y-37149000D01*
X79651000Y-40851000D01*
X79651000Y-40851000D01*
G37*
G36*
X22754068Y-30864629D02*
G01*
X22845209Y-30882758D01*
X23016915Y-30953881D01*
X23171446Y-31057136D01*
X23302864Y-31188554D01*
X23406119Y-31343085D01*
X23477242Y-31514791D01*
X23513500Y-31697073D01*
X23513500Y-31882927D01*
X23477242Y-32065209D01*
X23406119Y-32236915D01*
X23302864Y-32391446D01*
X23171446Y-32522864D01*
X23016915Y-32626119D01*
X22845209Y-32697242D01*
X22754068Y-32715371D01*
X22662928Y-32733500D01*
X22477072Y-32733500D01*
X22385932Y-32715371D01*
X22294791Y-32697242D01*
X22123085Y-32626119D01*
X21968554Y-32522864D01*
X21837136Y-32391446D01*
X21733881Y-32236915D01*
X21662758Y-32065209D01*
X21626500Y-31882927D01*
X21626500Y-31697073D01*
X21662758Y-31514791D01*
X21733881Y-31343085D01*
X21837136Y-31188554D01*
X21968554Y-31057136D01*
X22123085Y-30953881D01*
X22294791Y-30882758D01*
X22385932Y-30864629D01*
X22477072Y-30846500D01*
X22662928Y-30846500D01*
X22754068Y-30864629D01*
X22754068Y-30864629D01*
G37*
G36*
X77614068Y-30864629D02*
G01*
X77705209Y-30882758D01*
X77876915Y-30953881D01*
X78031446Y-31057136D01*
X78162864Y-31188554D01*
X78266119Y-31343085D01*
X78337242Y-31514791D01*
X78373500Y-31697073D01*
X78373500Y-31882927D01*
X78337242Y-32065209D01*
X78266119Y-32236915D01*
X78162864Y-32391446D01*
X78031446Y-32522864D01*
X77876915Y-32626119D01*
X77705209Y-32697242D01*
X77614068Y-32715371D01*
X77522928Y-32733500D01*
X77337072Y-32733500D01*
X77245932Y-32715371D01*
X77154791Y-32697242D01*
X76983085Y-32626119D01*
X76828554Y-32522864D01*
X76697136Y-32391446D01*
X76593881Y-32236915D01*
X76522758Y-32065209D01*
X76486500Y-31882927D01*
X76486500Y-31697073D01*
X76522758Y-31514791D01*
X76593881Y-31343085D01*
X76697136Y-31188554D01*
X76828554Y-31057136D01*
X76983085Y-30953881D01*
X77154791Y-30882758D01*
X77245932Y-30864629D01*
X77337072Y-30846500D01*
X77522928Y-30846500D01*
X77614068Y-30864629D01*
X77614068Y-30864629D01*
G37*
G36*
X44219059Y-30277860D02*
G01*
X44355732Y-30334472D01*
X44478735Y-30416660D01*
X44583340Y-30521265D01*
X44665528Y-30644268D01*
X44722140Y-30780941D01*
X44751000Y-30926033D01*
X44751000Y-31073967D01*
X44722140Y-31219059D01*
X44665528Y-31355732D01*
X44583340Y-31478735D01*
X44478735Y-31583340D01*
X44355732Y-31665528D01*
X44355731Y-31665529D01*
X44355730Y-31665529D01*
X44219059Y-31722140D01*
X44073968Y-31751000D01*
X43926032Y-31751000D01*
X43780941Y-31722140D01*
X43644270Y-31665529D01*
X43644269Y-31665529D01*
X43644268Y-31665528D01*
X43521265Y-31583340D01*
X43416660Y-31478735D01*
X43334472Y-31355732D01*
X43277860Y-31219059D01*
X43249000Y-31073967D01*
X43249000Y-30926033D01*
X43277860Y-30780941D01*
X43334472Y-30644268D01*
X43416660Y-30521265D01*
X43521265Y-30416660D01*
X43644268Y-30334472D01*
X43780941Y-30277860D01*
X43926032Y-30249000D01*
X44073968Y-30249000D01*
X44219059Y-30277860D01*
X44219059Y-30277860D01*
G37*
G36*
X57759059Y-30277860D02*
G01*
X57895732Y-30334472D01*
X58018735Y-30416660D01*
X58123340Y-30521265D01*
X58205528Y-30644268D01*
X58262140Y-30780941D01*
X58291000Y-30926033D01*
X58291000Y-31073967D01*
X58262140Y-31219059D01*
X58205528Y-31355732D01*
X58123340Y-31478735D01*
X58018735Y-31583340D01*
X57895732Y-31665528D01*
X57895731Y-31665529D01*
X57895730Y-31665529D01*
X57759059Y-31722140D01*
X57613968Y-31751000D01*
X57466032Y-31751000D01*
X57320941Y-31722140D01*
X57184270Y-31665529D01*
X57184269Y-31665529D01*
X57184268Y-31665528D01*
X57061265Y-31583340D01*
X56956660Y-31478735D01*
X56874472Y-31355732D01*
X56817860Y-31219059D01*
X56789000Y-31073967D01*
X56789000Y-30926033D01*
X56817860Y-30780941D01*
X56874472Y-30644268D01*
X56956660Y-30521265D01*
X57061265Y-30416660D01*
X57184268Y-30334472D01*
X57320941Y-30277860D01*
X57466032Y-30249000D01*
X57613968Y-30249000D01*
X57759059Y-30277860D01*
X57759059Y-30277860D01*
G37*
G36*
X46759059Y-30277860D02*
G01*
X46895732Y-30334472D01*
X47018735Y-30416660D01*
X47123340Y-30521265D01*
X47205528Y-30644268D01*
X47262140Y-30780941D01*
X47291000Y-30926033D01*
X47291000Y-31073967D01*
X47262140Y-31219059D01*
X47205528Y-31355732D01*
X47123340Y-31478735D01*
X47018735Y-31583340D01*
X46895732Y-31665528D01*
X46895731Y-31665529D01*
X46895730Y-31665529D01*
X46759059Y-31722140D01*
X46613968Y-31751000D01*
X46466032Y-31751000D01*
X46320941Y-31722140D01*
X46184270Y-31665529D01*
X46184269Y-31665529D01*
X46184268Y-31665528D01*
X46061265Y-31583340D01*
X45956660Y-31478735D01*
X45874472Y-31355732D01*
X45817860Y-31219059D01*
X45789000Y-31073967D01*
X45789000Y-30926033D01*
X45817860Y-30780941D01*
X45874472Y-30644268D01*
X45956660Y-30521265D01*
X46061265Y-30416660D01*
X46184268Y-30334472D01*
X46320941Y-30277860D01*
X46466032Y-30249000D01*
X46613968Y-30249000D01*
X46759059Y-30277860D01*
X46759059Y-30277860D01*
G37*
G36*
X55219059Y-30277860D02*
G01*
X55355732Y-30334472D01*
X55478735Y-30416660D01*
X55583340Y-30521265D01*
X55665528Y-30644268D01*
X55722140Y-30780941D01*
X55751000Y-30926033D01*
X55751000Y-31073967D01*
X55722140Y-31219059D01*
X55665528Y-31355732D01*
X55583340Y-31478735D01*
X55478735Y-31583340D01*
X55355732Y-31665528D01*
X55355731Y-31665529D01*
X55355730Y-31665529D01*
X55219059Y-31722140D01*
X55073968Y-31751000D01*
X54926032Y-31751000D01*
X54780941Y-31722140D01*
X54644270Y-31665529D01*
X54644269Y-31665529D01*
X54644268Y-31665528D01*
X54521265Y-31583340D01*
X54416660Y-31478735D01*
X54334472Y-31355732D01*
X54277860Y-31219059D01*
X54249000Y-31073967D01*
X54249000Y-30926033D01*
X54277860Y-30780941D01*
X54334472Y-30644268D01*
X54416660Y-30521265D01*
X54521265Y-30416660D01*
X54644268Y-30334472D01*
X54780941Y-30277860D01*
X54926032Y-30249000D01*
X55073968Y-30249000D01*
X55219059Y-30277860D01*
X55219059Y-30277860D01*
G37*
G36*
X51030443Y-24645519D02*
G01*
X51096627Y-24652037D01*
X51266466Y-24703557D01*
X51422991Y-24787222D01*
X51458729Y-24816552D01*
X51560186Y-24899814D01*
X51643448Y-25001271D01*
X51672778Y-25037009D01*
X51756443Y-25193534D01*
X51807963Y-25363373D01*
X51825359Y-25540000D01*
X51807963Y-25716627D01*
X51756443Y-25886466D01*
X51672778Y-26042991D01*
X51643448Y-26078729D01*
X51560186Y-26180186D01*
X51458729Y-26263448D01*
X51422991Y-26292778D01*
X51266466Y-26376443D01*
X51096627Y-26427963D01*
X51030442Y-26434482D01*
X50964260Y-26441000D01*
X50875740Y-26441000D01*
X50809558Y-26434482D01*
X50743373Y-26427963D01*
X50573534Y-26376443D01*
X50417009Y-26292778D01*
X50381271Y-26263448D01*
X50279814Y-26180186D01*
X50196552Y-26078729D01*
X50167222Y-26042991D01*
X50083557Y-25886466D01*
X50032037Y-25716627D01*
X50014641Y-25540000D01*
X50032037Y-25363373D01*
X50083557Y-25193534D01*
X50167222Y-25037009D01*
X50196552Y-25001271D01*
X50279814Y-24899814D01*
X50381271Y-24816552D01*
X50417009Y-24787222D01*
X50573534Y-24703557D01*
X50743373Y-24652037D01*
X50809557Y-24645519D01*
X50875740Y-24639000D01*
X50964260Y-24639000D01*
X51030443Y-24645519D01*
X51030443Y-24645519D01*
G37*
G36*
X43410443Y-24645519D02*
G01*
X43476627Y-24652037D01*
X43646466Y-24703557D01*
X43802991Y-24787222D01*
X43838729Y-24816552D01*
X43940186Y-24899814D01*
X44023448Y-25001271D01*
X44052778Y-25037009D01*
X44136443Y-25193534D01*
X44187963Y-25363373D01*
X44205359Y-25540000D01*
X44187963Y-25716627D01*
X44136443Y-25886466D01*
X44052778Y-26042991D01*
X44023448Y-26078729D01*
X43940186Y-26180186D01*
X43838729Y-26263448D01*
X43802991Y-26292778D01*
X43646466Y-26376443D01*
X43476627Y-26427963D01*
X43410442Y-26434482D01*
X43344260Y-26441000D01*
X43255740Y-26441000D01*
X43189558Y-26434482D01*
X43123373Y-26427963D01*
X42953534Y-26376443D01*
X42797009Y-26292778D01*
X42761271Y-26263448D01*
X42659814Y-26180186D01*
X42576552Y-26078729D01*
X42547222Y-26042991D01*
X42463557Y-25886466D01*
X42412037Y-25716627D01*
X42394641Y-25540000D01*
X42412037Y-25363373D01*
X42463557Y-25193534D01*
X42547222Y-25037009D01*
X42576552Y-25001271D01*
X42659814Y-24899814D01*
X42761271Y-24816552D01*
X42797009Y-24787222D01*
X42953534Y-24703557D01*
X43123373Y-24652037D01*
X43189557Y-24645519D01*
X43255740Y-24639000D01*
X43344260Y-24639000D01*
X43410443Y-24645519D01*
X43410443Y-24645519D01*
G37*
G36*
X56110443Y-24645519D02*
G01*
X56176627Y-24652037D01*
X56346466Y-24703557D01*
X56502991Y-24787222D01*
X56538729Y-24816552D01*
X56640186Y-24899814D01*
X56723448Y-25001271D01*
X56752778Y-25037009D01*
X56836443Y-25193534D01*
X56887963Y-25363373D01*
X56905359Y-25540000D01*
X56887963Y-25716627D01*
X56836443Y-25886466D01*
X56752778Y-26042991D01*
X56723448Y-26078729D01*
X56640186Y-26180186D01*
X56538729Y-26263448D01*
X56502991Y-26292778D01*
X56346466Y-26376443D01*
X56176627Y-26427963D01*
X56110442Y-26434482D01*
X56044260Y-26441000D01*
X55955740Y-26441000D01*
X55889558Y-26434482D01*
X55823373Y-26427963D01*
X55653534Y-26376443D01*
X55497009Y-26292778D01*
X55461271Y-26263448D01*
X55359814Y-26180186D01*
X55276552Y-26078729D01*
X55247222Y-26042991D01*
X55163557Y-25886466D01*
X55112037Y-25716627D01*
X55094641Y-25540000D01*
X55112037Y-25363373D01*
X55163557Y-25193534D01*
X55247222Y-25037009D01*
X55276552Y-25001271D01*
X55359814Y-24899814D01*
X55461271Y-24816552D01*
X55497009Y-24787222D01*
X55653534Y-24703557D01*
X55823373Y-24652037D01*
X55889557Y-24645519D01*
X55955740Y-24639000D01*
X56044260Y-24639000D01*
X56110443Y-24645519D01*
X56110443Y-24645519D01*
G37*
G36*
X45950443Y-24645519D02*
G01*
X46016627Y-24652037D01*
X46186466Y-24703557D01*
X46342991Y-24787222D01*
X46378729Y-24816552D01*
X46480186Y-24899814D01*
X46563448Y-25001271D01*
X46592778Y-25037009D01*
X46676443Y-25193534D01*
X46727963Y-25363373D01*
X46745359Y-25540000D01*
X46727963Y-25716627D01*
X46676443Y-25886466D01*
X46592778Y-26042991D01*
X46563448Y-26078729D01*
X46480186Y-26180186D01*
X46378729Y-26263448D01*
X46342991Y-26292778D01*
X46186466Y-26376443D01*
X46016627Y-26427963D01*
X45950442Y-26434482D01*
X45884260Y-26441000D01*
X45795740Y-26441000D01*
X45729558Y-26434482D01*
X45663373Y-26427963D01*
X45493534Y-26376443D01*
X45337009Y-26292778D01*
X45301271Y-26263448D01*
X45199814Y-26180186D01*
X45116552Y-26078729D01*
X45087222Y-26042991D01*
X45003557Y-25886466D01*
X44952037Y-25716627D01*
X44934641Y-25540000D01*
X44952037Y-25363373D01*
X45003557Y-25193534D01*
X45087222Y-25037009D01*
X45116552Y-25001271D01*
X45199814Y-24899814D01*
X45301271Y-24816552D01*
X45337009Y-24787222D01*
X45493534Y-24703557D01*
X45663373Y-24652037D01*
X45729557Y-24645519D01*
X45795740Y-24639000D01*
X45884260Y-24639000D01*
X45950443Y-24645519D01*
X45950443Y-24645519D01*
G37*
G36*
X53570443Y-24645519D02*
G01*
X53636627Y-24652037D01*
X53806466Y-24703557D01*
X53962991Y-24787222D01*
X53998729Y-24816552D01*
X54100186Y-24899814D01*
X54183448Y-25001271D01*
X54212778Y-25037009D01*
X54296443Y-25193534D01*
X54347963Y-25363373D01*
X54365359Y-25540000D01*
X54347963Y-25716627D01*
X54296443Y-25886466D01*
X54212778Y-26042991D01*
X54183448Y-26078729D01*
X54100186Y-26180186D01*
X53998729Y-26263448D01*
X53962991Y-26292778D01*
X53806466Y-26376443D01*
X53636627Y-26427963D01*
X53570442Y-26434482D01*
X53504260Y-26441000D01*
X53415740Y-26441000D01*
X53349558Y-26434482D01*
X53283373Y-26427963D01*
X53113534Y-26376443D01*
X52957009Y-26292778D01*
X52921271Y-26263448D01*
X52819814Y-26180186D01*
X52736552Y-26078729D01*
X52707222Y-26042991D01*
X52623557Y-25886466D01*
X52572037Y-25716627D01*
X52554641Y-25540000D01*
X52572037Y-25363373D01*
X52623557Y-25193534D01*
X52707222Y-25037009D01*
X52736552Y-25001271D01*
X52819814Y-24899814D01*
X52921271Y-24816552D01*
X52957009Y-24787222D01*
X53113534Y-24703557D01*
X53283373Y-24652037D01*
X53349557Y-24645519D01*
X53415740Y-24639000D01*
X53504260Y-24639000D01*
X53570443Y-24645519D01*
X53570443Y-24645519D01*
G37*
G36*
X48490443Y-24645519D02*
G01*
X48556627Y-24652037D01*
X48726466Y-24703557D01*
X48882991Y-24787222D01*
X48918729Y-24816552D01*
X49020186Y-24899814D01*
X49103448Y-25001271D01*
X49132778Y-25037009D01*
X49216443Y-25193534D01*
X49267963Y-25363373D01*
X49285359Y-25540000D01*
X49267963Y-25716627D01*
X49216443Y-25886466D01*
X49132778Y-26042991D01*
X49103448Y-26078729D01*
X49020186Y-26180186D01*
X48918729Y-26263448D01*
X48882991Y-26292778D01*
X48726466Y-26376443D01*
X48556627Y-26427963D01*
X48490442Y-26434482D01*
X48424260Y-26441000D01*
X48335740Y-26441000D01*
X48269558Y-26434482D01*
X48203373Y-26427963D01*
X48033534Y-26376443D01*
X47877009Y-26292778D01*
X47841271Y-26263448D01*
X47739814Y-26180186D01*
X47656552Y-26078729D01*
X47627222Y-26042991D01*
X47543557Y-25886466D01*
X47492037Y-25716627D01*
X47474641Y-25540000D01*
X47492037Y-25363373D01*
X47543557Y-25193534D01*
X47627222Y-25037009D01*
X47656552Y-25001271D01*
X47739814Y-24899814D01*
X47841271Y-24816552D01*
X47877009Y-24787222D01*
X48033534Y-24703557D01*
X48203373Y-24652037D01*
X48269557Y-24645519D01*
X48335740Y-24639000D01*
X48424260Y-24639000D01*
X48490443Y-24645519D01*
X48490443Y-24645519D01*
G37*
G36*
X32319059Y-24777860D02*
G01*
X32455732Y-24834472D01*
X32578735Y-24916660D01*
X32683340Y-25021265D01*
X32693861Y-25037011D01*
X32765529Y-25144270D01*
X32822140Y-25280941D01*
X32838537Y-25363373D01*
X32851000Y-25426033D01*
X32851000Y-25573967D01*
X32822140Y-25719059D01*
X32765528Y-25855732D01*
X32683340Y-25978735D01*
X32578735Y-26083340D01*
X32455732Y-26165528D01*
X32455731Y-26165529D01*
X32455730Y-26165529D01*
X32319059Y-26222140D01*
X32173968Y-26251000D01*
X32026032Y-26251000D01*
X31880941Y-26222140D01*
X31744270Y-26165529D01*
X31744269Y-26165529D01*
X31744268Y-26165528D01*
X31621265Y-26083340D01*
X31516660Y-25978735D01*
X31434472Y-25855732D01*
X31377860Y-25719059D01*
X31349000Y-25573967D01*
X31349000Y-25426033D01*
X31361464Y-25363373D01*
X31377860Y-25280941D01*
X31434471Y-25144270D01*
X31506139Y-25037011D01*
X31516660Y-25021265D01*
X31621265Y-24916660D01*
X31744268Y-24834472D01*
X31880941Y-24777860D01*
X32026032Y-24749000D01*
X32173968Y-24749000D01*
X32319059Y-24777860D01*
X32319059Y-24777860D01*
G37*
G36*
X68519059Y-24777860D02*
G01*
X68655732Y-24834472D01*
X68778735Y-24916660D01*
X68883340Y-25021265D01*
X68893861Y-25037011D01*
X68965529Y-25144270D01*
X69022140Y-25280941D01*
X69038537Y-25363373D01*
X69051000Y-25426033D01*
X69051000Y-25573967D01*
X69022140Y-25719059D01*
X68965528Y-25855732D01*
X68883340Y-25978735D01*
X68778735Y-26083340D01*
X68655732Y-26165528D01*
X68655731Y-26165529D01*
X68655730Y-26165529D01*
X68519059Y-26222140D01*
X68373968Y-26251000D01*
X68226032Y-26251000D01*
X68080941Y-26222140D01*
X67944270Y-26165529D01*
X67944269Y-26165529D01*
X67944268Y-26165528D01*
X67821265Y-26083340D01*
X67716660Y-25978735D01*
X67634472Y-25855732D01*
X67577860Y-25719059D01*
X67549000Y-25573967D01*
X67549000Y-25426033D01*
X67561464Y-25363373D01*
X67577860Y-25280941D01*
X67634471Y-25144270D01*
X67706139Y-25037011D01*
X67716660Y-25021265D01*
X67821265Y-24916660D01*
X67944268Y-24834472D01*
X68080941Y-24777860D01*
X68226032Y-24749000D01*
X68373968Y-24749000D01*
X68519059Y-24777860D01*
X68519059Y-24777860D01*
G37*
G36*
X75519059Y-24777860D02*
G01*
X75655732Y-24834472D01*
X75778735Y-24916660D01*
X75883340Y-25021265D01*
X75893861Y-25037011D01*
X75965529Y-25144270D01*
X76022140Y-25280941D01*
X76038537Y-25363373D01*
X76051000Y-25426033D01*
X76051000Y-25573967D01*
X76022140Y-25719059D01*
X75965528Y-25855732D01*
X75883340Y-25978735D01*
X75778735Y-26083340D01*
X75655732Y-26165528D01*
X75655731Y-26165529D01*
X75655730Y-26165529D01*
X75519059Y-26222140D01*
X75373968Y-26251000D01*
X75226032Y-26251000D01*
X75080941Y-26222140D01*
X74944270Y-26165529D01*
X74944269Y-26165529D01*
X74944268Y-26165528D01*
X74821265Y-26083340D01*
X74716660Y-25978735D01*
X74634472Y-25855732D01*
X74577860Y-25719059D01*
X74549000Y-25573967D01*
X74549000Y-25426033D01*
X74561464Y-25363373D01*
X74577860Y-25280941D01*
X74634471Y-25144270D01*
X74706139Y-25037011D01*
X74716660Y-25021265D01*
X74821265Y-24916660D01*
X74944268Y-24834472D01*
X75080941Y-24777860D01*
X75226032Y-24749000D01*
X75373968Y-24749000D01*
X75519059Y-24777860D01*
X75519059Y-24777860D01*
G37*
G36*
X25319059Y-24777860D02*
G01*
X25455732Y-24834472D01*
X25578735Y-24916660D01*
X25683340Y-25021265D01*
X25693861Y-25037011D01*
X25765529Y-25144270D01*
X25822140Y-25280941D01*
X25838537Y-25363373D01*
X25851000Y-25426033D01*
X25851000Y-25573967D01*
X25822140Y-25719059D01*
X25765528Y-25855732D01*
X25683340Y-25978735D01*
X25578735Y-26083340D01*
X25455732Y-26165528D01*
X25455731Y-26165529D01*
X25455730Y-26165529D01*
X25319059Y-26222140D01*
X25173968Y-26251000D01*
X25026032Y-26251000D01*
X24880941Y-26222140D01*
X24744270Y-26165529D01*
X24744269Y-26165529D01*
X24744268Y-26165528D01*
X24621265Y-26083340D01*
X24516660Y-25978735D01*
X24434472Y-25855732D01*
X24377860Y-25719059D01*
X24349000Y-25573967D01*
X24349000Y-25426033D01*
X24361464Y-25363373D01*
X24377860Y-25280941D01*
X24434471Y-25144270D01*
X24506139Y-25037011D01*
X24516660Y-25021265D01*
X24621265Y-24916660D01*
X24744268Y-24834472D01*
X24880941Y-24777860D01*
X25026032Y-24749000D01*
X25173968Y-24749000D01*
X25319059Y-24777860D01*
X25319059Y-24777860D01*
G37*
G36*
X56901000Y-23901000D02*
G01*
X55099000Y-23901000D01*
X55099000Y-22099000D01*
X56901000Y-22099000D01*
X56901000Y-23901000D01*
X56901000Y-23901000D01*
G37*
G36*
X53570443Y-22105519D02*
G01*
X53636627Y-22112037D01*
X53806466Y-22163557D01*
X53962991Y-22247222D01*
X53998729Y-22276552D01*
X54100186Y-22359814D01*
X54183448Y-22461271D01*
X54212778Y-22497009D01*
X54296443Y-22653534D01*
X54347963Y-22823373D01*
X54365359Y-23000000D01*
X54347963Y-23176627D01*
X54296443Y-23346466D01*
X54212778Y-23502991D01*
X54183448Y-23538729D01*
X54100186Y-23640186D01*
X53998729Y-23723448D01*
X53962991Y-23752778D01*
X53806466Y-23836443D01*
X53636627Y-23887963D01*
X53570442Y-23894482D01*
X53504260Y-23901000D01*
X53415740Y-23901000D01*
X53349558Y-23894482D01*
X53283373Y-23887963D01*
X53113534Y-23836443D01*
X52957009Y-23752778D01*
X52921271Y-23723448D01*
X52819814Y-23640186D01*
X52736552Y-23538729D01*
X52707222Y-23502991D01*
X52623557Y-23346466D01*
X52572037Y-23176627D01*
X52554641Y-23000000D01*
X52572037Y-22823373D01*
X52623557Y-22653534D01*
X52707222Y-22497009D01*
X52736552Y-22461271D01*
X52819814Y-22359814D01*
X52921271Y-22276552D01*
X52957009Y-22247222D01*
X53113534Y-22163557D01*
X53283373Y-22112037D01*
X53349558Y-22105518D01*
X53415740Y-22099000D01*
X53504260Y-22099000D01*
X53570443Y-22105519D01*
X53570443Y-22105519D01*
G37*
G36*
X51030443Y-22105519D02*
G01*
X51096627Y-22112037D01*
X51266466Y-22163557D01*
X51422991Y-22247222D01*
X51458729Y-22276552D01*
X51560186Y-22359814D01*
X51643448Y-22461271D01*
X51672778Y-22497009D01*
X51756443Y-22653534D01*
X51807963Y-22823373D01*
X51825359Y-23000000D01*
X51807963Y-23176627D01*
X51756443Y-23346466D01*
X51672778Y-23502991D01*
X51643448Y-23538729D01*
X51560186Y-23640186D01*
X51458729Y-23723448D01*
X51422991Y-23752778D01*
X51266466Y-23836443D01*
X51096627Y-23887963D01*
X51030442Y-23894482D01*
X50964260Y-23901000D01*
X50875740Y-23901000D01*
X50809558Y-23894482D01*
X50743373Y-23887963D01*
X50573534Y-23836443D01*
X50417009Y-23752778D01*
X50381271Y-23723448D01*
X50279814Y-23640186D01*
X50196552Y-23538729D01*
X50167222Y-23502991D01*
X50083557Y-23346466D01*
X50032037Y-23176627D01*
X50014641Y-23000000D01*
X50032037Y-22823373D01*
X50083557Y-22653534D01*
X50167222Y-22497009D01*
X50196552Y-22461271D01*
X50279814Y-22359814D01*
X50381271Y-22276552D01*
X50417009Y-22247222D01*
X50573534Y-22163557D01*
X50743373Y-22112037D01*
X50809558Y-22105518D01*
X50875740Y-22099000D01*
X50964260Y-22099000D01*
X51030443Y-22105519D01*
X51030443Y-22105519D01*
G37*
G36*
X48490443Y-22105519D02*
G01*
X48556627Y-22112037D01*
X48726466Y-22163557D01*
X48882991Y-22247222D01*
X48918729Y-22276552D01*
X49020186Y-22359814D01*
X49103448Y-22461271D01*
X49132778Y-22497009D01*
X49216443Y-22653534D01*
X49267963Y-22823373D01*
X49285359Y-23000000D01*
X49267963Y-23176627D01*
X49216443Y-23346466D01*
X49132778Y-23502991D01*
X49103448Y-23538729D01*
X49020186Y-23640186D01*
X48918729Y-23723448D01*
X48882991Y-23752778D01*
X48726466Y-23836443D01*
X48556627Y-23887963D01*
X48490442Y-23894482D01*
X48424260Y-23901000D01*
X48335740Y-23901000D01*
X48269558Y-23894482D01*
X48203373Y-23887963D01*
X48033534Y-23836443D01*
X47877009Y-23752778D01*
X47841271Y-23723448D01*
X47739814Y-23640186D01*
X47656552Y-23538729D01*
X47627222Y-23502991D01*
X47543557Y-23346466D01*
X47492037Y-23176627D01*
X47474641Y-23000000D01*
X47492037Y-22823373D01*
X47543557Y-22653534D01*
X47627222Y-22497009D01*
X47656552Y-22461271D01*
X47739814Y-22359814D01*
X47841271Y-22276552D01*
X47877009Y-22247222D01*
X48033534Y-22163557D01*
X48203373Y-22112037D01*
X48269558Y-22105518D01*
X48335740Y-22099000D01*
X48424260Y-22099000D01*
X48490443Y-22105519D01*
X48490443Y-22105519D01*
G37*
G36*
X45950443Y-22105519D02*
G01*
X46016627Y-22112037D01*
X46186466Y-22163557D01*
X46342991Y-22247222D01*
X46378729Y-22276552D01*
X46480186Y-22359814D01*
X46563448Y-22461271D01*
X46592778Y-22497009D01*
X46676443Y-22653534D01*
X46727963Y-22823373D01*
X46745359Y-23000000D01*
X46727963Y-23176627D01*
X46676443Y-23346466D01*
X46592778Y-23502991D01*
X46563448Y-23538729D01*
X46480186Y-23640186D01*
X46378729Y-23723448D01*
X46342991Y-23752778D01*
X46186466Y-23836443D01*
X46016627Y-23887963D01*
X45950442Y-23894482D01*
X45884260Y-23901000D01*
X45795740Y-23901000D01*
X45729558Y-23894482D01*
X45663373Y-23887963D01*
X45493534Y-23836443D01*
X45337009Y-23752778D01*
X45301271Y-23723448D01*
X45199814Y-23640186D01*
X45116552Y-23538729D01*
X45087222Y-23502991D01*
X45003557Y-23346466D01*
X44952037Y-23176627D01*
X44934641Y-23000000D01*
X44952037Y-22823373D01*
X45003557Y-22653534D01*
X45087222Y-22497009D01*
X45116552Y-22461271D01*
X45199814Y-22359814D01*
X45301271Y-22276552D01*
X45337009Y-22247222D01*
X45493534Y-22163557D01*
X45663373Y-22112037D01*
X45729558Y-22105518D01*
X45795740Y-22099000D01*
X45884260Y-22099000D01*
X45950443Y-22105519D01*
X45950443Y-22105519D01*
G37*
G36*
X43410443Y-22105519D02*
G01*
X43476627Y-22112037D01*
X43646466Y-22163557D01*
X43802991Y-22247222D01*
X43838729Y-22276552D01*
X43940186Y-22359814D01*
X44023448Y-22461271D01*
X44052778Y-22497009D01*
X44136443Y-22653534D01*
X44187963Y-22823373D01*
X44205359Y-23000000D01*
X44187963Y-23176627D01*
X44136443Y-23346466D01*
X44052778Y-23502991D01*
X44023448Y-23538729D01*
X43940186Y-23640186D01*
X43838729Y-23723448D01*
X43802991Y-23752778D01*
X43646466Y-23836443D01*
X43476627Y-23887963D01*
X43410442Y-23894482D01*
X43344260Y-23901000D01*
X43255740Y-23901000D01*
X43189558Y-23894482D01*
X43123373Y-23887963D01*
X42953534Y-23836443D01*
X42797009Y-23752778D01*
X42761271Y-23723448D01*
X42659814Y-23640186D01*
X42576552Y-23538729D01*
X42547222Y-23502991D01*
X42463557Y-23346466D01*
X42412037Y-23176627D01*
X42394641Y-23000000D01*
X42412037Y-22823373D01*
X42463557Y-22653534D01*
X42547222Y-22497009D01*
X42576552Y-22461271D01*
X42659814Y-22359814D01*
X42761271Y-22276552D01*
X42797009Y-22247222D01*
X42953534Y-22163557D01*
X43123373Y-22112037D01*
X43189557Y-22105519D01*
X43255740Y-22099000D01*
X43344260Y-22099000D01*
X43410443Y-22105519D01*
X43410443Y-22105519D01*
G37*
M02*
