G04 #@! TF.GenerationSoftware,KiCad,Pcbnew,(5.1.2)-2*
G04 #@! TF.CreationDate,2019-11-23T11:04:55-05:00*
G04 #@! TF.ProjectId,tdm_mainboard,74646d5f-6d61-4696-9e62-6f6172642e6b,rev?*
G04 #@! TF.SameCoordinates,Original*
G04 #@! TF.FileFunction,Legend,Bot*
G04 #@! TF.FilePolarity,Positive*
%FSLAX46Y46*%
G04 Gerber Fmt 4.6, Leading zero omitted, Abs format (unit mm)*
G04 Created by KiCad (PCBNEW (5.1.2)-2) date 2019-11-23 11:04:55*
%MOMM*%
%LPD*%
G04 APERTURE LIST*
%ADD10C,0.150000*%
%ADD11C,0.100000*%
%ADD12C,0.254000*%
G04 APERTURE END LIST*
D10*
X65432952Y-60463523D02*
X65432952Y-63320666D01*
X67932952Y-61892095D02*
X65432952Y-61892095D01*
X65432952Y-64511142D02*
X67932952Y-65701619D01*
X66147238Y-66654000D01*
X67932952Y-67606380D01*
X65432952Y-68796857D01*
X67932952Y-73558761D02*
X66742476Y-71892095D01*
X67932952Y-70701619D02*
X65432952Y-70701619D01*
X65432952Y-72606380D01*
X65552000Y-73082571D01*
X65671047Y-73320666D01*
X65909142Y-73558761D01*
X66266285Y-73558761D01*
X66504380Y-73320666D01*
X66623428Y-73082571D01*
X66742476Y-72606380D01*
X66742476Y-70701619D01*
X68171047Y-74511142D02*
X68171047Y-78320666D01*
X65432952Y-78796857D02*
X65432952Y-81654000D01*
X67932952Y-80225428D02*
X65432952Y-80225428D01*
X67932952Y-83320666D02*
X65432952Y-83320666D01*
X65432952Y-84511142D01*
X65552000Y-85225428D01*
X65790095Y-85701619D01*
X66028190Y-85939714D01*
X66504380Y-86177809D01*
X66861523Y-86177809D01*
X67337714Y-85939714D01*
X67575809Y-85701619D01*
X67813904Y-85225428D01*
X67932952Y-84511142D01*
X67932952Y-83320666D01*
X67932952Y-88320666D02*
X65432952Y-88320666D01*
X67218666Y-89987333D01*
X65432952Y-91654000D01*
X67932952Y-91654000D01*
X68171047Y-92844476D02*
X68171047Y-96654000D01*
X67932952Y-100701619D02*
X66742476Y-99034952D01*
X67932952Y-97844476D02*
X65432952Y-97844476D01*
X65432952Y-99749238D01*
X65552000Y-100225428D01*
X65671047Y-100463523D01*
X65909142Y-100701619D01*
X66266285Y-100701619D01*
X66504380Y-100463523D01*
X66623428Y-100225428D01*
X66742476Y-99749238D01*
X66742476Y-97844476D01*
X67694857Y-102844476D02*
X67813904Y-103082571D01*
X67932952Y-102844476D01*
X67813904Y-102606380D01*
X67694857Y-102844476D01*
X67932952Y-102844476D01*
X65671047Y-104987333D02*
X65552000Y-105225428D01*
X65432952Y-105701619D01*
X65432952Y-106892095D01*
X65552000Y-107368285D01*
X65671047Y-107606380D01*
X65909142Y-107844476D01*
X66147238Y-107844476D01*
X66504380Y-107606380D01*
X67932952Y-104749238D01*
X67932952Y-107844476D01*
X68171047Y-108796857D02*
X68171047Y-112606380D01*
X67932952Y-113796857D02*
X65432952Y-113796857D01*
X67218666Y-115463523D01*
X65432952Y-117130190D01*
X67932952Y-117130190D01*
D11*
X20035000Y-54000000D02*
X20035000Y-24015000D01*
X20035000Y-24015000D02*
X79965000Y-24000000D01*
X79965000Y-24000000D02*
X79965000Y-54000000D01*
X79965000Y-54000000D02*
X24000000Y-54000000D01*
D10*
X54470000Y-31900000D02*
X58070000Y-31900000D01*
X58070000Y-31900000D02*
X58570000Y-31400000D01*
X58570000Y-31400000D02*
X58570000Y-30600000D01*
X58570000Y-30600000D02*
X58070000Y-30100000D01*
X58070000Y-30100000D02*
X54470000Y-30100000D01*
X54470000Y-30100000D02*
X53970000Y-30600000D01*
X53970000Y-30600000D02*
X53970000Y-31400000D01*
X53970000Y-31400000D02*
X54470000Y-31900000D01*
X43470000Y-31900000D02*
X47070000Y-31900000D01*
X47070000Y-31900000D02*
X47570000Y-31400000D01*
X47570000Y-31400000D02*
X47570000Y-30600000D01*
X47570000Y-30600000D02*
X47070000Y-30100000D01*
X47070000Y-30100000D02*
X43470000Y-30100000D01*
X43470000Y-30100000D02*
X42970000Y-30600000D01*
X42970000Y-30600000D02*
X42970000Y-31400000D01*
X42970000Y-31400000D02*
X43470000Y-31900000D01*
D12*
X50967619Y-38304523D02*
X50967619Y-39332619D01*
X50907142Y-39453571D01*
X50846666Y-39514047D01*
X50725714Y-39574523D01*
X50483809Y-39574523D01*
X50362857Y-39514047D01*
X50302380Y-39453571D01*
X50241904Y-39332619D01*
X50241904Y-38304523D01*
X49455714Y-38848809D02*
X49576666Y-38788333D01*
X49637142Y-38727857D01*
X49697619Y-38606904D01*
X49697619Y-38546428D01*
X49637142Y-38425476D01*
X49576666Y-38365000D01*
X49455714Y-38304523D01*
X49213809Y-38304523D01*
X49092857Y-38365000D01*
X49032380Y-38425476D01*
X48971904Y-38546428D01*
X48971904Y-38606904D01*
X49032380Y-38727857D01*
X49092857Y-38788333D01*
X49213809Y-38848809D01*
X49455714Y-38848809D01*
X49576666Y-38909285D01*
X49637142Y-38969761D01*
X49697619Y-39090714D01*
X49697619Y-39332619D01*
X49637142Y-39453571D01*
X49576666Y-39514047D01*
X49455714Y-39574523D01*
X49213809Y-39574523D01*
X49092857Y-39514047D01*
X49032380Y-39453571D01*
X48971904Y-39332619D01*
X48971904Y-39090714D01*
X49032380Y-38969761D01*
X49092857Y-38909285D01*
X49213809Y-38848809D01*
D10*
X57531904Y-32452380D02*
X56960476Y-32452380D01*
X57246190Y-33452380D02*
X57246190Y-32452380D01*
X56627142Y-33452380D02*
X56627142Y-32452380D01*
X56246190Y-32452380D01*
X56150952Y-32500000D01*
X56103333Y-32547619D01*
X56055714Y-32642857D01*
X56055714Y-32785714D01*
X56103333Y-32880952D01*
X56150952Y-32928571D01*
X56246190Y-32976190D01*
X56627142Y-32976190D01*
X55674761Y-32547619D02*
X55627142Y-32500000D01*
X55531904Y-32452380D01*
X55293809Y-32452380D01*
X55198571Y-32500000D01*
X55150952Y-32547619D01*
X55103333Y-32642857D01*
X55103333Y-32738095D01*
X55150952Y-32880952D01*
X55722380Y-33452380D01*
X55103333Y-33452380D01*
X46531904Y-32452380D02*
X45960476Y-32452380D01*
X46246190Y-33452380D02*
X46246190Y-32452380D01*
X45627142Y-33452380D02*
X45627142Y-32452380D01*
X45246190Y-32452380D01*
X45150952Y-32500000D01*
X45103333Y-32547619D01*
X45055714Y-32642857D01*
X45055714Y-32785714D01*
X45103333Y-32880952D01*
X45150952Y-32928571D01*
X45246190Y-32976190D01*
X45627142Y-32976190D01*
X44103333Y-33452380D02*
X44674761Y-33452380D01*
X44389047Y-33452380D02*
X44389047Y-32452380D01*
X44484285Y-32595238D01*
X44579523Y-32690476D01*
X44674761Y-32738095D01*
M02*
