<?xml version="1.0" standalone="no"?>
 <!DOCTYPE svg PUBLIC "-//W3C//DTD SVG 1.1//EN" 
 "http://www.w3.org/Graphics/SVG/1.1/DTD/svg11.dtd"> 
<svg
  xmlns:svg="http://www.w3.org/2000/svg"
  xmlns="http://www.w3.org/2000/svg"
  xmlns:xlink="http://www.w3.org/1999/xlink"
  version="1.1"
  width="6.504940cm" height="10.002520cm" viewBox="0 0 65049400 100025200">
<title>SVG Picture created as frontplate-Edge_Cuts.svg date 2022/12/23 14:54:32 </title>
  <desc>Picture generated by PCBNEW </desc>
<g style="fill:#000000; fill-opacity:1.000000;stroke:#000000; stroke-opacity:1.000000;
stroke-linecap:round; stroke-linejoin:round;"
 transform="translate(0 0) scale(1 1)">
</g>
<g style="fill:#000000; fill-opacity:0.0; 
stroke:#000000; stroke-width:0.000000; stroke-opacity:1; 
stroke-linecap:round; stroke-linejoin:round;">
</g>
<g style="fill:#D0D2CD; fill-opacity:0.0; 
stroke:#D0D2CD; stroke-width:0.000000; stroke-opacity:1; 
stroke-linecap:round; stroke-linejoin:round;">
</g>
<g style="fill:#D0D2CD; fill-opacity:0.0; 
stroke:#D0D2CD; stroke-width:50000.000000; stroke-opacity:1; 
stroke-linecap:round; stroke-linejoin:round;">
<path d="M50975000.000000 44725000.000000 A999999.000000 999999.000000 0.0 0 0 51975000.000000 45725000.000000" />
<path d="M58075000.000000 41625000.000000 A999999.000000 999999.000000 0.0 0 0 57075000.000000 40625000.000000" />
<path d="M58075000 41625000
L58075000 44725000
" />
<path d="M51975000 40625000
L57075000 40625000
" />
<path d="M50975000 44725000
L50975000 41625000
" />
<path d="M57075000.000000 45725000.000000 A999999.000000 999999.000000 0.0 0 0 58075000.000000 44725000.000000" />
<path d="M51975000 45725000
L57075000 45725000
" />
<path d="M51975000.000000 40625000.000000 A999999.000000 999999.000000 0.0 0 0 50975000.000000 41625000.000000" />
<path d="M47075000 41625000
L47075000 44725000
" />
<path d="M39975000.000000 44725000.000000 A999999.000000 999999.000000 0.0 0 0 40975000.000000 45725000.000000" />
<path d="M47075000.000000 41625000.000000 A999999.000000 999999.000000 0.0 0 0 46075000.000000 40625000.000000" />
<path d="M39975000 44725000
L39975000 41625000
" />
<path d="M40975000 45725000
L46075000 45725000
" />
<path d="M46075000.000000 45725000.000000 A999999.000000 999999.000000 0.0 0 0 47075000.000000 44725000.000000" />
<path d="M40975000 40625000
L46075000 40625000
" />
<path d="M40975000.000000 40625000.000000 A999999.000000 999999.000000 0.0 0 0 39975000.000000 41625000.000000" />
<path d="M36075000 41625000
L36075000 44725000
" />
<path d="M28975000.000000 44725000.000000 A999999.000000 999999.000000 0.0 0 0 29975000.000000 45725000.000000" />
<path d="M29975000 40625000
L35075000 40625000
" />
<path d="M35075000.000000 45725000.000000 A999999.000000 999999.000000 0.0 0 0 36075000.000000 44725000.000000" />
<path d="M36075000.000000 41625000.000000 A999999.000000 999999.000000 0.0 0 0 35075000.000000 40625000.000000" />
<path d="M28975000 44725000
L28975000 41625000
" />
<path d="M29975000 45725000
L35075000 45725000
" />
<path d="M29975000.000000 40625000.000000 A999999.000000 999999.000000 0.0 0 0 28975000.000000 41625000.000000" />
<path d="M17975000.000000 44725000.000000 A999999.000000 999999.000000 0.0 0 0 18975000.000000 45725000.000000" />
<path d="M24075000.000000 45725000.000000 A999999.000000 999999.000000 0.0 0 0 25075000.000000 44725000.000000" />
<path d="M18975000 40625000
L24075000 40625000
" />
<path d="M17975000 44725000
L17975000 41625000
" />
<path d="M25075000 41625000
L25075000 44725000
" />
<path d="M18975000 45725000
L24075000 45725000
" />
<path d="M25075000.000000 41625000.000000 A999999.000000 999999.000000 0.0 0 0 24075000.000000 40625000.000000" />
<path d="M18975000.000000 40625000.000000 A999999.000000 999999.000000 0.0 0 0 17975000.000000 41625000.000000" />
<path d="M57075000 84625000
L51975000 84625000
" />
<path d="M50975000.000000 92725000.000000 A1000000.000000 1000000.000000 0.0 0 0 51975000.000000 93725000.000000" />
<path d="M51975000 93725000
L57075000 93725000
" />
<path d="M51975000.000000 84625000.000000 A1000000.000000 1000000.000000 0.0 0 0 50975000.000000 85625000.000000" />
<path d="M57075000.000000 93725000.000000 A1000000.000000 1000000.000000 0.0 0 0 58075000.000000 92725000.000000" />
<path d="M58075000.000000 85625000.000000 A1000000.000000 1000000.000000 0.0 0 0 57075000.000000 84625000.000000" />
<path d="M50975000 85625000
L50975000 92725000
" />
<path d="M58075000 92725000
L58075000 85625000
" />
<path d="M46075000 84625000
L40975000 84625000
" />
<path d="M39975000 85625000
L39975000 92725000
" />
<path d="M39975000.000000 92725000.000000 A1000000.000000 1000000.000000 0.0 0 0 40975000.000000 93725000.000000" />
<path d="M40975000 93725000
L46075000 93725000
" />
<path d="M47075000 92725000
L47075000 85625000
" />
<path d="M40975000.000000 84625000.000000 A1000000.000000 1000000.000000 0.0 0 0 39975000.000000 85625000.000000" />
<path d="M46075000.000000 93725000.000000 A1000000.000000 1000000.000000 0.0 0 0 47075000.000000 92725000.000000" />
<path d="M47075000.000000 85625000.000000 A1000000.000000 1000000.000000 0.0 0 0 46075000.000000 84625000.000000" />
<path d="M36075000 92725000
L36075000 85625000
" />
<path d="M28975000.000000 92725000.000000 A1000000.000000 1000000.000000 0.0 0 0 29975000.000000 93725000.000000" />
<path d="M29975000 93725000
L35075000 93725000
" />
<path d="M29975000.000000 84625000.000000 A1000000.000000 1000000.000000 0.0 0 0 28975000.000000 85625000.000000" />
<path d="M28975000 85625000
L28975000 92725000
" />
<path d="M35075000.000000 93725000.000000 A1000000.000000 1000000.000000 0.0 0 0 36075000.000000 92725000.000000" />
<path d="M36075000.000000 85625000.000000 A1000000.000000 1000000.000000 0.0 0 0 35075000.000000 84625000.000000" />
<path d="M35075000 84625000
L29975000 84625000
" />
<path d="M24075000 84625000
L18975000 84625000
" />
<path d="M17975000 85625000
L17975000 92725000
" />
<path d="M17975000.000000 92725000.000000 A1000000.000000 1000000.000000 0.0 0 0 18975000.000000 93725000.000000" />
<path d="M25075000 92725000
L25075000 85625000
" />
<path d="M18975000 93725000
L24075000 93725000
" />
<path d="M18975000.000000 84625000.000000 A1000000.000000 1000000.000000 0.0 0 0 17975000.000000 85625000.000000" />
<path d="M24075000.000000 93725000.000000 A1000000.000000 1000000.000000 0.0 0 0 25075000.000000 92725000.000000" />
<path d="M25075000.000000 85625000.000000 A1000000.000000 1000000.000000 0.0 0 0 24075000.000000 84625000.000000" />
<path d="M14075000 92725000
L14075000 85625000
" />
<path d="M6975000.000000 92725000.000000 A1000000.000000 1000000.000000 0.0 0 0 7975000.000000 93725000.000000" />
<path d="M7975000 93725000
L13075000 93725000
" />
<path d="M6975000 85625000
L6975000 92725000
" />
<path d="M13075000 84625000
L7975000 84625000
" />
<path d="M13075000.000000 93725000.000000 A1000000.000000 1000000.000000 0.0 0 0 14075000.000000 92725000.000000" />
<path d="M14075000.000000 85625000.000000 A1000000.000000 1000000.000000 0.0 0 0 13075000.000000 84625000.000000" />
<path d="M7975000.000000 84625000.000000 A1000000.000000 1000000.000000 0.0 0 0 6975000.000000 85625000.000000" />
<path d="M50975000.000000 80725000.000000 A1000000.000000 1000000.000000 0.0 0 0 51975000.000000 81725000.000000" />
<path d="M58075000 80725000
L58075000 73625000
" />
<path d="M51975000 81725000
L57075000 81725000
" />
<path d="M51975000.000000 72625000.000000 A1000000.000000 1000000.000000 0.0 0 0 50975000.000000 73625000.000000" />
<path d="M50975000 73625000
L50975000 80725000
" />
<path d="M58075000.000000 73625000.000000 A1000000.000000 1000000.000000 0.0 0 0 57075000.000000 72625000.000000" />
<path d="M57075000.000000 81725000.000000 A1000000.000000 1000000.000000 0.0 0 0 58075000.000000 80725000.000000" />
<path d="M57075000 72625000
L51975000 72625000
" />
<path d="M46075000 72625000
L40975000 72625000
" />
<path d="M39975000.000000 80725000.000000 A1000000.000000 1000000.000000 0.0 0 0 40975000.000000 81725000.000000" />
<path d="M39975000 73625000
L39975000 80725000
" />
<path d="M47075000 80725000
L47075000 73625000
" />
<path d="M40975000 81725000
L46075000 81725000
" />
<path d="M46075000.000000 81725000.000000 A1000000.000000 1000000.000000 0.0 0 0 47075000.000000 80725000.000000" />
<path d="M40975000.000000 72625000.000000 A1000000.000000 1000000.000000 0.0 0 0 39975000.000000 73625000.000000" />
<path d="M47075000.000000 73625000.000000 A1000000.000000 1000000.000000 0.0 0 0 46075000.000000 72625000.000000" />
<path d="M36075000 80725000
L36075000 73625000
" />
<path d="M28975000 73625000
L28975000 80725000
" />
<path d="M29975000 81725000
L35075000 81725000
" />
<path d="M28975000.000000 80725000.000000 A1000000.000000 1000000.000000 0.0 0 0 29975000.000000 81725000.000000" />
<path d="M29975000.000000 72625000.000000 A1000000.000000 1000000.000000 0.0 0 0 28975000.000000 73625000.000000" />
<path d="M35075000.000000 81725000.000000 A1000000.000000 1000000.000000 0.0 0 0 36075000.000000 80725000.000000" />
<path d="M36075000.000000 73625000.000000 A1000000.000000 1000000.000000 0.0 0 0 35075000.000000 72625000.000000" />
<path d="M35075000 72625000
L29975000 72625000
" />
<path d="M25075000 80725000
L25075000 73625000
" />
<path d="M24075000 72625000
L18975000 72625000
" />
<path d="M17975000.000000 80725000.000000 A1000000.000000 1000000.000000 0.0 0 0 18975000.000000 81725000.000000" />
<path d="M18975000.000000 72625000.000000 A1000000.000000 1000000.000000 0.0 0 0 17975000.000000 73625000.000000" />
<path d="M24075000.000000 81725000.000000 A1000000.000000 1000000.000000 0.0 0 0 25075000.000000 80725000.000000" />
<path d="M18975000 81725000
L24075000 81725000
" />
<path d="M17975000 73625000
L17975000 80725000
" />
<path d="M25075000.000000 73625000.000000 A1000000.000000 1000000.000000 0.0 0 0 24075000.000000 72625000.000000" />
<path d="M13075000 72625000
L7975000 72625000
" />
<path d="M6975000.000000 80725000.000000 A1000000.000000 1000000.000000 0.0 0 0 7975000.000000 81725000.000000" />
<path d="M7975000 81725000
L13075000 81725000
" />
<path d="M14075000 80725000
L14075000 73625000
" />
<path d="M7975000.000000 72625000.000000 A1000000.000000 1000000.000000 0.0 0 0 6975000.000000 73625000.000000" />
<path d="M6975000 73625000
L6975000 80725000
" />
<path d="M13075000.000000 81725000.000000 A1000000.000000 1000000.000000 0.0 0 0 14075000.000000 80725000.000000" />
<path d="M14075000.000000 73625000.000000 A1000000.000000 1000000.000000 0.0 0 0 13075000.000000 72625000.000000" />
<path d="M57075000 60625000
L51975000 60625000
" />
<path d="M51975000.000000 60625000.000000 A1000000.000000 1000000.000000 0.0 0 0 50975000.000000 61625000.000000" />
<path d="M51975000 69725000
L57075000 69725000
" />
<path d="M58075000 68725000
L58075000 61625000
" />
<path d="M57075000.000000 69725000.000000 A1000000.000000 1000000.000000 0.0 0 0 58075000.000000 68725000.000000" />
<path d="M50975000.000000 68725000.000000 A1000000.000000 1000000.000000 0.0 0 0 51975000.000000 69725000.000000" />
<path d="M50975000 61625000
L50975000 68725000
" />
<path d="M58075000.000000 61625000.000000 A1000000.000000 1000000.000000 0.0 0 0 57075000.000000 60625000.000000" />
<path d="M47075000 68725000
L47075000 61625000
" />
<path d="M40975000 69725000
L46075000 69725000
" />
<path d="M39975000 61625000
L39975000 68725000
" />
<path d="M40975000.000000 60625000.000000 A1000000.000000 1000000.000000 0.0 0 0 39975000.000000 61625000.000000" />
<path d="M46075000.000000 69725000.000000 A1000000.000000 1000000.000000 0.0 0 0 47075000.000000 68725000.000000" />
<path d="M46075000 60625000
L40975000 60625000
" />
<path d="M47075000.000000 61625000.000000 A1000000.000000 1000000.000000 0.0 0 0 46075000.000000 60625000.000000" />
<path d="M39975000.000000 68725000.000000 A1000000.000000 1000000.000000 0.0 0 0 40975000.000000 69725000.000000" />
<path d="M35075000 60625000
L29975000 60625000
" />
<path d="M28975000 61625000
L28975000 68725000
" />
<path d="M29975000 69725000
L35075000 69725000
" />
<path d="M36075000 68725000
L36075000 61625000
" />
<path d="M29975000.000000 60625000.000000 A1000000.000000 1000000.000000 0.0 0 0 28975000.000000 61625000.000000" />
<path d="M35075000.000000 69725000.000000 A1000000.000000 1000000.000000 0.0 0 0 36075000.000000 68725000.000000" />
<path d="M36075000.000000 61625000.000000 A1000000.000000 1000000.000000 0.0 0 0 35075000.000000 60625000.000000" />
<path d="M28975000.000000 68725000.000000 A1000000.000000 1000000.000000 0.0 0 0 29975000.000000 69725000.000000" />
<path d="M25075000 68725000
L25075000 61625000
" />
<path d="M17975000 61625000
L17975000 68725000
" />
<path d="M18975000 69725000
L24075000 69725000
" />
<path d="M24075000.000000 69725000.000000 A1000000.000000 1000000.000000 0.0 0 0 25075000.000000 68725000.000000" />
<path d="M24075000 60625000
L18975000 60625000
" />
<path d="M25075000.000000 61625000.000000 A1000000.000000 1000000.000000 0.0 0 0 24075000.000000 60625000.000000" />
<path d="M18975000.000000 60625000.000000 A1000000.000000 1000000.000000 0.0 0 0 17975000.000000 61625000.000000" />
<path d="M17975000.000000 68725000.000000 A1000000.000000 1000000.000000 0.0 0 0 18975000.000000 69725000.000000" />
<path d="M13075000 60625000
L7975000 60625000
" />
<path d="M6975000 61625000
L6975000 68725000
" />
<path d="M6975000.000000 68725000.000000 A1000000.000000 1000000.000000 0.0 0 0 7975000.000000 69725000.000000" />
<path d="M7975000.000000 60625000.000000 A1000000.000000 1000000.000000 0.0 0 0 6975000.000000 61625000.000000" />
<path d="M13075000.000000 69725000.000000 A1000000.000000 1000000.000000 0.0 0 0 14075000.000000 68725000.000000" />
<path d="M14075000.000000 61625000.000000 A1000000.000000 1000000.000000 0.0 0 0 13075000.000000 60625000.000000" />
<path d="M7975000 69725000
L13075000 69725000
" />
<path d="M14075000 68725000
L14075000 61625000
" />
<path d="M50975000.000000 56725000.000000 A1000000.000000 1000000.000000 0.0 0 0 51975000.000000 57725000.000000" />
<path d="M51975000 57725000
L57075000 57725000
" />
<path d="M50975000 49625000
L50975000 56725000
" />
<path d="M51975000.000000 48625000.000000 A1000000.000000 1000000.000000 0.0 0 0 50975000.000000 49625000.000000" />
<path d="M57075000.000000 57725000.000000 A1000000.000000 1000000.000000 0.0 0 0 58075000.000000 56725000.000000" />
<path d="M57075000 48625000
L51975000 48625000
" />
<path d="M58075000 56725000
L58075000 49625000
" />
<path d="M58075000.000000 49625000.000000 A1000000.000000 1000000.000000 0.0 0 0 57075000.000000 48625000.000000" />
<path d="M39975000 49625000
L39975000 56725000
" />
<path d="M39975000.000000 56725000.000000 A1000000.000000 1000000.000000 0.0 0 0 40975000.000000 57725000.000000" />
<path d="M40975000 57725000
L46075000 57725000
" />
<path d="M46075000 48625000
L40975000 48625000
" />
<path d="M40975000.000000 48625000.000000 A1000000.000000 1000000.000000 0.0 0 0 39975000.000000 49625000.000000" />
<path d="M47075000 56725000
L47075000 49625000
" />
<path d="M47075000.000000 49625000.000000 A1000000.000000 1000000.000000 0.0 0 0 46075000.000000 48625000.000000" />
<path d="M46075000.000000 57725000.000000 A1000000.000000 1000000.000000 0.0 0 0 47075000.000000 56725000.000000" />
<path d="M28975000 49625000
L28975000 56725000
" />
<path d="M29975000 57725000
L35075000 57725000
" />
<path d="M36075000 56725000
L36075000 49625000
" />
<path d="M29975000.000000 48625000.000000 A1000000.000000 1000000.000000 0.0 0 0 28975000.000000 49625000.000000" />
<path d="M35075000.000000 57725000.000000 A1000000.000000 1000000.000000 0.0 0 0 36075000.000000 56725000.000000" />
<path d="M35075000 48625000
L29975000 48625000
" />
<path d="M36075000.000000 49625000.000000 A1000000.000000 1000000.000000 0.0 0 0 35075000.000000 48625000.000000" />
<path d="M28975000.000000 56725000.000000 A1000000.000000 1000000.000000 0.0 0 0 29975000.000000 57725000.000000" />
<path d="M25075000 56725000
L25075000 49625000
" />
<path d="M17975000 49625000
L17975000 56725000
" />
<path d="M18975000 57725000
L24075000 57725000
" />
<path d="M17975000.000000 56725000.000000 A1000000.000000 1000000.000000 0.0 0 0 18975000.000000 57725000.000000" />
<path d="M24075000 48625000
L18975000 48625000
" />
<path d="M18975000.000000 48625000.000000 A1000000.000000 1000000.000000 0.0 0 0 17975000.000000 49625000.000000" />
<path d="M24075000.000000 57725000.000000 A1000000.000000 1000000.000000 0.0 0 0 25075000.000000 56725000.000000" />
<path d="M25075000.000000 49625000.000000 A1000000.000000 1000000.000000 0.0 0 0 24075000.000000 48625000.000000" />
<path d="M13075000 48625000
L7975000 48625000
" />
<path d="M14075000 56725000
L14075000 49625000
" />
<path d="M7975000 57725000
L13075000 57725000
" />
<path d="M6975000 49625000
L6975000 56725000
" />
<path d="M6975000.000000 56725000.000000 A1000000.000000 1000000.000000 0.0 0 0 7975000.000000 57725000.000000" />
<path d="M13075000.000000 57725000.000000 A1000000.000000 1000000.000000 0.0 0 0 14075000.000000 56725000.000000" />
<path d="M14075000.000000 49625000.000000 A1000000.000000 1000000.000000 0.0 0 0 13075000.000000 48625000.000000" />
<path d="M7975000.000000 48625000.000000 A1000000.000000 1000000.000000 0.0 0 0 6975000.000000 49625000.000000" />
<path d="M25000 98025000
L25000 2025000
" />
<path d="M61225000 36825000
L61225000 23825000
" />
<path d="M34415000 37415000
L34415000 27645000
" />
<path d="M2025000 25000
L63025000 25000
" />
<path d="M63025000.000000 100025000.000000 A1999999.000000 1999999.000000 0.0 0 0 65025000.000000 98025000.000000" />
<path d="M63025000 100025000
L2025000 100025000
" />
<path d="M65025000 2025000
L65025000 98025000
" />
<path d="M37725000 23825000
L61225000 23825000
" />
<path d="M7975000 45725000
L13075000 45725000
" />
<path d="M7975000.000000 40625000.000000 A999999.000000 999999.000000 0.0 0 0 6975000.000001 41625000.000000" />
<path d="M2025000.000000 25000.000000 A1999999.000000 1999999.000000 0.0 0 0 25000.000000 2025000.000000" />
<path d="M25000.000000 98025000.000000 A1999999.000000 1999999.000000 0.0 0 0 2025000.000000 100025000.000000" />
<path d="M6975000.000001 44725000.000000 A999999.000000 999999.000000 0.0 0 0 7975000.000000 45725000.000000" />
<path d="M7645000 37415000
L34415000 37415000
" />
<path d="M7645000 27645000
L7645000 37415000
" />
<path d="M14075000 41625000
L14075000 44725000
" />
<path d="M37725000 36825000
L61225000 36825000
" />
<path d="M13075000.000000 45725000.000000 A999999.000000 999999.000000 0.0 0 0 14075000.000000 44725000.000000" />
<path d="M7975000 40625000
L13075000 40625000
" />
<path d="M7645000 27645000
L34415000 27645000
" />
<path d="M65025000.000000 2025000.000000 A1999999.000000 1999999.000000 0.0 0 0 63025000.000000 25000.000000" />
<path d="M37725000 23825000
L37725000 36825000
" />
<path d="M14075000.000000 41625000.000000 A999999.000000 999999.000000 0.0 0 0 13075000.000000 40625000.000000" />
<path d="M6975000 44725000
L6975000 41625000
" />
<g >
</g>
<g >
</g>
<g >
</g>
<g >
</g>
<g >
</g>
<g >
</g>
<g >
</g>
<g >
</g>
<g >
</g>
<g >
</g>
<g >
</g>
</g> 
</svg>
