<?xml version="1.0" standalone="no"?>
 <!DOCTYPE svg PUBLIC "-//W3C//DTD SVG 1.1//EN" 
 "http://www.w3.org/Graphics/SVG/1.1/DTD/svg11.dtd"> 
<svg
  xmlns:svg="http://www.w3.org/2000/svg"
  xmlns="http://www.w3.org/2000/svg"
  xmlns:xlink="http://www.w3.org/1999/xlink"
  version="1.1"
  width="6.504940cm" height="10.002520cm" viewBox="0 0 65049400 100025200">
<title>SVG Picture created as frontplate-Edge_Cuts.svg date 2023/04/08 14:51:10 </title>
  <desc>Picture generated by PCBNEW </desc>
<g style="fill:#000000; fill-opacity:1.000000;stroke:#000000; stroke-opacity:1.000000;
stroke-linecap:round; stroke-linejoin:round;"
 transform="translate(0 0) scale(1 1)">
</g>
<g style="fill:#000000; fill-opacity:0.0; 
stroke:#000000; stroke-width:0.000000; stroke-opacity:1; 
stroke-linecap:round; stroke-linejoin:round;">
</g>
<g style="fill:#D0D2CD; fill-opacity:0.0; 
stroke:#D0D2CD; stroke-width:0.000000; stroke-opacity:1; 
stroke-linecap:round; stroke-linejoin:round;">
</g>
<g style="fill:#D0D2CD; fill-opacity:0.0; 
stroke:#D0D2CD; stroke-width:50000.000000; stroke-opacity:1; 
stroke-linecap:round; stroke-linejoin:round;">
<path d="M25000 98025000
L25000 2025000
" />
<path d="M61225000 36825000
L61225000 23825000
" />
<path d="M33915000 36415000
L33915000 28645000
" />
<path d="M46075000.000000 45725000.000000 A999999.000000 999999.000000 0.0 0 0 47075000.000000 44725000.000000" />
<path d="M47075000 41625000
L47075000 44725000
" />
<path d="M2025000 25000
L63025000 25000
" />
<path d="M63025000.000000 100025000.000000 A1999999.000000 1999999.000000 0.0 0 0 65025000.000000 98025000.000000" />
<path d="M63025000 100025000
L2025000 100025000
" />
<path d="M51975000 40625000
L57075000 40625000
" />
<path d="M25075000 41625000
L25075000 44725000
" />
<path d="M65025000 2025000
L65025000 98025000
" />
<path d="M17975000 44725000
L17975000 41625000
" />
<path d="M37725000 23825000
L61225000 23825000
" />
<path d="M7975000 45725000
L13075000 45725000
" />
<path d="M36075000 41625000
L36075000 44725000
" />
<path d="M7975000.000000 40625000.000000 A999999.000000 999999.000000 0.0 0 0 6975000.000001 41625000.000000" />
<path d="M2025000.000000 25000.000000 A1999999.000000 1999999.000000 0.0 0 0 25000.000000 2025000.000000" />
<path d="M18975000.000000 40625000.000000 A999999.000000 999999.000000 0.0 0 0 17975000.000000 41625000.000000" />
<path d="M29975000 45725000
L35075000 45725000
" />
<path d="M40975000 45725000
L46075000 45725000
" />
<path d="M25000.000000 98025000.000000 A1999999.000000 1999999.000000 0.0 0 0 2025000.000000 100025000.000000" />
<path d="M29975000 40625000
L35075000 40625000
" />
<path d="M6975000.000001 44725000.000000 A999999.000000 999999.000000 0.0 0 0 7975000.000000 45725000.000000" />
<path d="M8145000 36415000
L33915000 36415000
" />
<path d="M40975000.000000 40625000.000000 A999999.000000 999999.000000 0.0 0 0 39975000.000000 41625000.000000" />
<path d="M8145000 28645000
L8145000 36415000
" />
<path d="M14075000 41625000
L14075000 44725000
" />
<path d="M37725000 36825000
L61225000 36825000
" />
<path d="M39975000 44725000
L39975000 41625000
" />
<path d="M47075000.000000 41625000.000000 A999999.000000 999999.000000 0.0 0 0 46075000.000000 40625000.000000" />
<path d="M13075000.000000 45725000.000000 A999999.000000 999999.000000 0.0 0 0 14075000.000000 44725000.000000" />
<path d="M58075000 41625000
L58075000 44725000
" />
<path d="M7975000 40625000
L13075000 40625000
" />
<path d="M50975000 44725000
L50975000 41625000
" />
<path d="M24075000.000000 45725000.000000 A999999.000000 999999.000000 0.0 0 0 25075000.000000 44725000.000000" />
<path d="M18975000 40625000
L24075000 40625000
" />
<path d="M35075000.000000 45725000.000000 A999999.000000 999999.000000 0.0 0 0 36075000.000000 44725000.000000" />
<path d="M29975000.000000 40625000.000000 A999999.000000 999999.000000 0.0 0 0 28975000.000000 41625000.000000" />
<path d="M18975000 45725000
L24075000 45725000
" />
<path d="M8145000 28645000
L33915000 28645000
" />
<path d="M65025000.000000 2025000.000000 A1999999.000000 1999999.000000 0.0 0 0 63025000.000000 25000.000000" />
<path d="M58075000.000000 41625000.000000 A999999.000000 999999.000000 0.0 0 0 57075000.000000 40625000.000000" />
<path d="M40975000 40625000
L46075000 40625000
" />
<path d="M37725000 23825000
L37725000 36825000
" />
<path d="M28975000 44725000
L28975000 41625000
" />
<path d="M39975000.000000 44725000.000000 A999999.000000 999999.000000 0.0 0 0 40975000.000000 45725000.000000" />
<path d="M25075000.000000 41625000.000000 A999999.000000 999999.000000 0.0 0 0 24075000.000000 40625000.000000" />
<path d="M17975000.000000 44725000.000000 A999999.000000 999999.000000 0.0 0 0 18975000.000000 45725000.000000" />
<path d="M36075000.000000 41625000.000000 A999999.000000 999999.000000 0.0 0 0 35075000.000000 40625000.000000" />
<path d="M51975000.000000 40625000.000000 A999999.000000 999999.000000 0.0 0 0 50975000.000000 41625000.000000" />
<path d="M51975000 45725000
L57075000 45725000
" />
<path d="M14075000.000000 41625000.000000 A999999.000000 999999.000000 0.0 0 0 13075000.000000 40625000.000000" />
<path d="M28975000.000000 44725000.000000 A999999.000000 999999.000000 0.0 0 0 29975000.000000 45725000.000000" />
<path d="M57075000.000000 45725000.000000 A999999.000000 999999.000000 0.0 0 0 58075000.000000 44725000.000000" />
<path d="M50975000.000000 44725000.000000 A999999.000000 999999.000000 0.0 0 0 51975000.000000 45725000.000000" />
<path d="M6975000 44725000
L6975000 41625000
" />
</g>
<g style="fill:#D0D2CD; fill-opacity:0.0; 
stroke:#D0D2CD; stroke-width:120000.000000; stroke-opacity:1; 
stroke-linecap:round; stroke-linejoin:round;">
<path d="M57117893 93667893
L51925001 93667892
" />
<path d="M58124999 86675001
L58117893 92667893
" />
<path d="M51932107 85675000
L57124999 85675001
" />
<path d="M50925001 92667892
L50932107 86675000
" />
<path d="M50925001.000000 92667892.000000 A1000001.000000 1000001.000000 0.0 0 0 51925001.000000 93667891.999999" />
<path d="M57117893.000000 93667892.999999 A1000001.000000 1000001.000000 0.0 0 0 58117893.000000 92667893.000000" />
<path d="M58124999.000000 86675001.000000 A1000001.000000 1000001.000000 0.0 0 0 57124999.000000 85675001.000001" />
<path d="M51932107.000000 85675000.000001 A1000001.000000 1000001.000000 0.0 0 0 50932107.000000 86675000.000000" />
<path d="M46117893 93667893
L40925001 93667892
" />
<path d="M47124999 86675001
L47117893 92667893
" />
<path d="M40932107 85675000
L46124999 85675001
" />
<path d="M39925001 92667892
L39932107 86675000
" />
<path d="M39925001.000000 92667892.000000 A1000001.000000 1000001.000000 0.0 0 0 40925001.000000 93667891.999999" />
<path d="M46117893.000000 93667892.999999 A1000001.000000 1000001.000000 0.0 0 0 47117893.000000 92667893.000000" />
<path d="M47124999.000000 86675001.000000 A1000001.000000 1000001.000000 0.0 0 0 46124999.000000 85675001.000001" />
<path d="M40932107.000000 85675000.000001 A1000001.000000 1000001.000000 0.0 0 0 39932107.000000 86675000.000000" />
<path d="M35117893 93667893
L29925001 93667892
" />
<path d="M36124999 86675001
L36117893 92667893
" />
<path d="M29932107 85675000
L35124999 85675001
" />
<path d="M28925001 92667892
L28932107 86675000
" />
<path d="M28925001.000000 92667892.000000 A1000001.000000 1000001.000000 0.0 0 0 29925001.000000 93667891.999999" />
<path d="M35117893.000000 93667892.999999 A1000001.000000 1000001.000000 0.0 0 0 36117893.000000 92667893.000000" />
<path d="M36124999.000000 86675001.000000 A1000001.000000 1000001.000000 0.0 0 0 35124999.000000 85675001.000001" />
<path d="M29932107.000000 85675000.000001 A1000001.000000 1000001.000000 0.0 0 0 28932107.000000 86675000.000000" />
<path d="M24117893 93667893
L18925001 93667892
" />
<path d="M25124999 86675001
L25117893 92667893
" />
<path d="M18932107 85675000
L24124999 85675001
" />
<path d="M17925001 92667892
L17932107 86675000
" />
<path d="M17925001.000000 92667892.000000 A1000001.000000 1000001.000000 0.0 0 0 18925001.000000 93667891.999999" />
<path d="M24117893.000000 93667892.999999 A1000001.000000 1000001.000000 0.0 0 0 25117893.000000 92667893.000000" />
<path d="M25124999.000000 86675001.000000 A1000001.000000 1000001.000000 0.0 0 0 24124999.000000 85675001.000001" />
<path d="M18932107.000000 85675000.000001 A1000001.000000 1000001.000000 0.0 0 0 17932107.000000 86675000.000000" />
<path d="M13117893 93667893
L7925001 93667892
" />
<path d="M14124999 86675001
L14117893 92667893
" />
<path d="M7932107 85675000
L13124999 85675001
" />
<path d="M6925001 92667892
L6932107 86675000
" />
<path d="M6925001.000001 92667892.000000 A1000001.000000 1000001.000000 0.0 0 0 7925001.000000 93667891.999999" />
<path d="M13117893.000000 93667892.999999 A1000001.000000 1000001.000000 0.0 0 0 14117893.000000 92667893.000000" />
<path d="M14124999.000000 86675001.000000 A1000001.000000 1000001.000000 0.0 0 0 13124999.000000 85675001.000001" />
<path d="M7932107.000000 85675000.000001 A1000001.000000 1000001.000000 0.0 0 0 6932107.000001 86675000.000000" />
<path d="M57117893 81667893
L51925001 81667892
" />
<path d="M58124999 74675001
L58117893 80667893
" />
<path d="M51932107 73675000
L57124999 73675001
" />
<path d="M50925001 80667892
L50932107 74675000
" />
<path d="M50925001.000000 80667892.000000 A1000001.000000 1000001.000000 0.0 0 0 51925001.000000 81667891.999999" />
<path d="M57117893.000000 81667892.999999 A1000001.000000 1000001.000000 0.0 0 0 58117893.000000 80667893.000000" />
<path d="M58124999.000000 74675001.000000 A1000001.000000 1000001.000000 0.0 0 0 57124999.000000 73675001.000001" />
<path d="M51932107.000000 73675000.000001 A1000001.000000 1000001.000000 0.0 0 0 50932107.000000 74675000.000000" />
<path d="M46117893 81667893
L40925001 81667892
" />
<path d="M47124999 74675001
L47117893 80667893
" />
<path d="M40932107 73675000
L46124999 73675001
" />
<path d="M39925001 80667892
L39932107 74675000
" />
<path d="M39925001.000000 80667892.000000 A1000001.000000 1000001.000000 0.0 0 0 40925001.000000 81667891.999999" />
<path d="M46117893.000000 81667892.999999 A1000001.000000 1000001.000000 0.0 0 0 47117893.000000 80667893.000000" />
<path d="M47124999.000000 74675001.000000 A1000001.000000 1000001.000000 0.0 0 0 46124999.000000 73675001.000001" />
<path d="M40932107.000000 73675000.000001 A1000001.000000 1000001.000000 0.0 0 0 39932107.000000 74675000.000000" />
<path d="M35117893 81667893
L29925001 81667892
" />
<path d="M36124999 74675001
L36117893 80667893
" />
<path d="M29932107 73675000
L35124999 73675001
" />
<path d="M28925001 80667892
L28932107 74675000
" />
<path d="M28925001.000000 80667892.000000 A1000001.000000 1000001.000000 0.0 0 0 29925001.000000 81667891.999999" />
<path d="M35117893.000000 81667892.999999 A1000001.000000 1000001.000000 0.0 0 0 36117893.000000 80667893.000000" />
<path d="M36124999.000000 74675001.000000 A1000001.000000 1000001.000000 0.0 0 0 35124999.000000 73675001.000001" />
<path d="M29932107.000000 73675000.000001 A1000001.000000 1000001.000000 0.0 0 0 28932107.000000 74675000.000000" />
<path d="M24117893 81667893
L18925001 81667892
" />
<path d="M25124999 74675001
L25117893 80667893
" />
<path d="M18932107 73675000
L24124999 73675001
" />
<path d="M17925001 80667892
L17932107 74675000
" />
<path d="M17925001.000000 80667892.000000 A1000001.000000 1000001.000000 0.0 0 0 18925001.000000 81667891.999999" />
<path d="M24117893.000000 81667892.999999 A1000001.000000 1000001.000000 0.0 0 0 25117893.000000 80667893.000000" />
<path d="M25124999.000000 74675001.000000 A1000001.000000 1000001.000000 0.0 0 0 24124999.000000 73675001.000001" />
<path d="M18932107.000000 73675000.000001 A1000001.000000 1000001.000000 0.0 0 0 17932107.000000 74675000.000000" />
<path d="M13117893 81667893
L7925001 81667892
" />
<path d="M14124999 74675001
L14117893 80667893
" />
<path d="M7932107 73675000
L13124999 73675001
" />
<path d="M6925001 80667892
L6932107 74675000
" />
<path d="M6925001.000001 80667892.000000 A1000001.000000 1000001.000000 0.0 0 0 7925001.000000 81667891.999999" />
<path d="M13117893.000000 81667892.999999 A1000001.000000 1000001.000000 0.0 0 0 14117893.000000 80667893.000000" />
<path d="M14124999.000000 74675001.000000 A1000001.000000 1000001.000000 0.0 0 0 13124999.000000 73675001.000001" />
<path d="M7932107.000000 73675000.000001 A1000001.000000 1000001.000000 0.0 0 0 6932107.000001 74675000.000000" />
<path d="M57117893 69667893
L51925001 69667892
" />
<path d="M58124999 62675001
L58117893 68667893
" />
<path d="M51932107 61675000
L57124999 61675001
" />
<path d="M50925001 68667892
L50932107 62675000
" />
<path d="M50925001.000000 68667892.000000 A1000001.000000 1000001.000000 0.0 0 0 51925001.000000 69667891.999999" />
<path d="M57117893.000000 69667892.999999 A1000001.000000 1000001.000000 0.0 0 0 58117893.000000 68667893.000000" />
<path d="M58124999.000000 62675001.000000 A1000001.000000 1000001.000000 0.0 0 0 57124999.000000 61675001.000000" />
<path d="M51932107.000000 61675000.000000 A1000001.000000 1000001.000000 0.0 0 0 50932107.000000 62675000.000000" />
<path d="M46117893 69667893
L40925001 69667892
" />
<path d="M47124999 62675001
L47117893 68667893
" />
<path d="M40932107 61675000
L46124999 61675001
" />
<path d="M39925001 68667892
L39932107 62675000
" />
<path d="M39925001.000000 68667892.000000 A1000001.000000 1000001.000000 0.0 0 0 40925001.000000 69667891.999999" />
<path d="M46117893.000000 69667892.999999 A1000001.000000 1000001.000000 0.0 0 0 47117893.000000 68667893.000000" />
<path d="M47124999.000000 62675001.000000 A1000001.000000 1000001.000000 0.0 0 0 46124999.000000 61675001.000000" />
<path d="M40932107.000000 61675000.000000 A1000001.000000 1000001.000000 0.0 0 0 39932107.000000 62675000.000000" />
<path d="M35117893 69667893
L29925001 69667892
" />
<path d="M36124999 62675001
L36117893 68667893
" />
<path d="M29932107 61675000
L35124999 61675001
" />
<path d="M28925001 68667892
L28932107 62675000
" />
<path d="M28925001.000000 68667892.000000 A1000001.000000 1000001.000000 0.0 0 0 29925001.000000 69667891.999999" />
<path d="M35117893.000000 69667892.999999 A1000001.000000 1000001.000000 0.0 0 0 36117893.000000 68667893.000000" />
<path d="M36124999.000000 62675001.000000 A1000001.000000 1000001.000000 0.0 0 0 35124999.000000 61675001.000000" />
<path d="M29932107.000000 61675000.000000 A1000001.000000 1000001.000000 0.0 0 0 28932107.000000 62675000.000000" />
<path d="M24117893 69667893
L18925001 69667892
" />
<path d="M25124999 62675001
L25117893 68667893
" />
<path d="M18932107 61675000
L24124999 61675001
" />
<path d="M17925001 68667892
L17932107 62675000
" />
<path d="M17925001.000000 68667892.000000 A1000001.000000 1000001.000000 0.0 0 0 18925001.000000 69667891.999999" />
<path d="M24117893.000000 69667892.999999 A1000001.000000 1000001.000000 0.0 0 0 25117893.000000 68667893.000000" />
<path d="M25124999.000000 62675001.000000 A1000001.000000 1000001.000000 0.0 0 0 24124999.000000 61675001.000000" />
<path d="M18932107.000000 61675000.000000 A1000001.000000 1000001.000000 0.0 0 0 17932107.000000 62675000.000000" />
<path d="M13117893 69667893
L7925001 69667892
" />
<path d="M14124999 62675001
L14117893 68667893
" />
<path d="M7932107 61675000
L13124999 61675001
" />
<path d="M6925001 68667892
L6932107 62675000
" />
<path d="M6925001.000001 68667892.000000 A1000001.000000 1000001.000000 0.0 0 0 7925001.000000 69667891.999999" />
<path d="M13117893.000000 69667892.999999 A1000001.000000 1000001.000000 0.0 0 0 14117893.000000 68667893.000000" />
<path d="M14124999.000000 62675001.000000 A1000001.000000 1000001.000000 0.0 0 0 13124999.000000 61675001.000000" />
<path d="M7932107.000000 61675000.000000 A1000001.000000 1000001.000000 0.0 0 0 6932107.000001 62675000.000000" />
<path d="M57117893 57667893
L51925001 57667892
" />
<path d="M58124999 50675001
L58117893 56667893
" />
<path d="M51932107 49675000
L57124999 49675001
" />
<path d="M50925001 56667892
L50932107 50675000
" />
<path d="M50925001.000000 56667892.000000 A1000001.000000 1000001.000000 0.0 0 0 51925001.000000 57667892.000000" />
<path d="M57117893.000000 57667893.000000 A1000001.000000 1000001.000000 0.0 0 0 58117893.000000 56667893.000000" />
<path d="M58124999.000000 50675001.000000 A1000001.000000 1000001.000000 0.0 0 0 57124999.000000 49675001.000000" />
<path d="M51932107.000000 49675000.000000 A1000001.000000 1000001.000000 0.0 0 0 50932107.000000 50675000.000000" />
<path d="M46117893 57667893
L40925001 57667892
" />
<path d="M47124999 50675001
L47117893 56667893
" />
<path d="M40932107 49675000
L46124999 49675001
" />
<path d="M39925001 56667892
L39932107 50675000
" />
<path d="M39925001.000000 56667892.000000 A1000001.000000 1000001.000000 0.0 0 0 40925001.000000 57667892.000000" />
<path d="M46117893.000000 57667893.000000 A1000001.000000 1000001.000000 0.0 0 0 47117893.000000 56667893.000000" />
<path d="M47124999.000000 50675001.000000 A1000001.000000 1000001.000000 0.0 0 0 46124999.000000 49675001.000000" />
<path d="M40932107.000000 49675000.000000 A1000001.000000 1000001.000000 0.0 0 0 39932107.000000 50675000.000000" />
<path d="M35117893 57667893
L29925001 57667892
" />
<path d="M36124999 50675001
L36117893 56667893
" />
<path d="M29932107 49675000
L35124999 49675001
" />
<path d="M28925001 56667892
L28932107 50675000
" />
<path d="M28925001.000000 56667892.000000 A1000001.000000 1000001.000000 0.0 0 0 29925001.000000 57667892.000000" />
<path d="M35117893.000000 57667893.000000 A1000001.000000 1000001.000000 0.0 0 0 36117893.000000 56667893.000000" />
<path d="M36124999.000000 50675001.000000 A1000001.000000 1000001.000000 0.0 0 0 35124999.000000 49675001.000000" />
<path d="M29932107.000000 49675000.000000 A1000001.000000 1000001.000000 0.0 0 0 28932107.000000 50675000.000000" />
<path d="M24117893 57667893
L18925001 57667892
" />
<path d="M25124999 50675001
L25117893 56667893
" />
<path d="M18932107 49675000
L24124999 49675001
" />
<path d="M17925001 56667892
L17932107 50675000
" />
<path d="M17925001.000000 56667892.000000 A1000001.000000 1000001.000000 0.0 0 0 18925001.000000 57667892.000000" />
<path d="M24117893.000000 57667893.000000 A1000001.000000 1000001.000000 0.0 0 0 25117893.000000 56667893.000000" />
<path d="M25124999.000000 50675001.000000 A1000001.000000 1000001.000000 0.0 0 0 24124999.000000 49675001.000000" />
<path d="M18932107.000000 49675000.000000 A1000001.000000 1000001.000000 0.0 0 0 17932107.000000 50675000.000000" />
<path d="M13117893 57667893
L7925001 57667892
" />
<path d="M14124999 50675001
L14117893 56667893
" />
<path d="M7932107 49675000
L13124999 49675001
" />
<path d="M6925001 56667892
L6932107 50675000
" />
<path d="M6925001.000001 56667892.000000 A1000001.000000 1000001.000000 0.0 0 0 7925001.000000 57667892.000000" />
<path d="M13117893.000000 57667893.000000 A1000001.000000 1000001.000000 0.0 0 0 14117893.000000 56667893.000000" />
<path d="M14124999.000000 50675001.000000 A1000001.000000 1000001.000000 0.0 0 0 13124999.000000 49675001.000000" />
<path d="M7932107.000000 49675000.000000 A1000001.000000 1000001.000000 0.0 0 0 6932107.000001 50675000.000000" />
<g >
</g>
<g >
</g>
<g >
</g>
<g >
</g>
<g >
</g>
<g >
</g>
<g >
</g>
<g >
</g>
<g >
</g>
<g >
</g>
<g >
</g>
<g >
</g>
<g >
</g>
<g >
</g>
<g >
</g>
<g >
</g>
<g >
</g>
<g >
</g>
<g >
</g>
<g >
</g>
<g >
</g>
<g >
</g>
<g >
</g>
<g >
</g>
<g >
</g>
<g >
</g>
<g >
</g>
<g >
</g>
<g >
</g>
<g >
</g>
</g> 
</svg>
