G04 #@! TF.GenerationSoftware,KiCad,Pcbnew,(5.1.2)-2*
G04 #@! TF.CreationDate,2020-03-23T21:36:54-04:00*
G04 #@! TF.ProjectId,test_samd11,74657374-5f73-4616-9d64-31312e6b6963,rev?*
G04 #@! TF.SameCoordinates,Original*
G04 #@! TF.FileFunction,Soldermask,Top*
G04 #@! TF.FilePolarity,Negative*
%FSLAX46Y46*%
G04 Gerber Fmt 4.6, Leading zero omitted, Abs format (unit mm)*
G04 Created by KiCad (PCBNEW (5.1.2)-2) date 2020-03-23 21:36:54*
%MOMM*%
%LPD*%
G04 APERTURE LIST*
%ADD10C,0.100000*%
G04 APERTURE END LIST*
D10*
G36*
X74603059Y-64409752D02*
G01*
X74106670Y-64906141D01*
X73468859Y-64268330D01*
X73965248Y-63771941D01*
X74603059Y-64409752D01*
X74603059Y-64409752D01*
G37*
G36*
X77603059Y-64409752D02*
G01*
X77106670Y-64906141D01*
X76468859Y-64268330D01*
X76965248Y-63771941D01*
X77603059Y-64409752D01*
X77603059Y-64409752D01*
G37*
G36*
X47603059Y-64409752D02*
G01*
X47106670Y-64906141D01*
X46468859Y-64268330D01*
X46965248Y-63771941D01*
X47603059Y-64409752D01*
X47603059Y-64409752D01*
G37*
G36*
X50603059Y-64409752D02*
G01*
X50106670Y-64906141D01*
X49468859Y-64268330D01*
X49965248Y-63771941D01*
X50603059Y-64409752D01*
X50603059Y-64409752D01*
G37*
G36*
X53603059Y-64409752D02*
G01*
X53106670Y-64906141D01*
X52468859Y-64268330D01*
X52965248Y-63771941D01*
X53603059Y-64409752D01*
X53603059Y-64409752D01*
G37*
G36*
X56603059Y-64409752D02*
G01*
X56106670Y-64906141D01*
X55468859Y-64268330D01*
X55965248Y-63771941D01*
X56603059Y-64409752D01*
X56603059Y-64409752D01*
G37*
G36*
X59603059Y-64409752D02*
G01*
X59106670Y-64906141D01*
X58468859Y-64268330D01*
X58965248Y-63771941D01*
X59603059Y-64409752D01*
X59603059Y-64409752D01*
G37*
G36*
X62603059Y-64409752D02*
G01*
X62106670Y-64906141D01*
X61468859Y-64268330D01*
X61965248Y-63771941D01*
X62603059Y-64409752D01*
X62603059Y-64409752D01*
G37*
G36*
X65603059Y-64409752D02*
G01*
X65106670Y-64906141D01*
X64468859Y-64268330D01*
X64965248Y-63771941D01*
X65603059Y-64409752D01*
X65603059Y-64409752D01*
G37*
G36*
X68603059Y-64409752D02*
G01*
X68106670Y-64906141D01*
X67468859Y-64268330D01*
X67965248Y-63771941D01*
X68603059Y-64409752D01*
X68603059Y-64409752D01*
G37*
G36*
X71603059Y-64409752D02*
G01*
X71106670Y-64906141D01*
X70468859Y-64268330D01*
X70965248Y-63771941D01*
X71603059Y-64409752D01*
X71603059Y-64409752D01*
G37*
G36*
X45502770Y-63663751D02*
G01*
X45077091Y-64089430D01*
X44368570Y-63380909D01*
X44794249Y-62955230D01*
X45502770Y-63663751D01*
X45502770Y-63663751D01*
G37*
G36*
X40188600Y-64027600D02*
G01*
X39286600Y-64027600D01*
X39286600Y-63175600D01*
X40188600Y-63175600D01*
X40188600Y-64027600D01*
X40188600Y-64027600D01*
G37*
G36*
X41688600Y-64027600D02*
G01*
X40786600Y-64027600D01*
X40786600Y-63175600D01*
X41688600Y-63175600D01*
X41688600Y-64027600D01*
X41688600Y-64027600D01*
G37*
G36*
X63805141Y-63207670D02*
G01*
X63308752Y-63704059D01*
X62670941Y-63066248D01*
X63167330Y-62569859D01*
X63805141Y-63207670D01*
X63805141Y-63207670D01*
G37*
G36*
X48805141Y-63207670D02*
G01*
X48308752Y-63704059D01*
X47670941Y-63066248D01*
X48167330Y-62569859D01*
X48805141Y-63207670D01*
X48805141Y-63207670D01*
G37*
G36*
X51805141Y-63207670D02*
G01*
X51308752Y-63704059D01*
X50670941Y-63066248D01*
X51167330Y-62569859D01*
X51805141Y-63207670D01*
X51805141Y-63207670D01*
G37*
G36*
X54805141Y-63207670D02*
G01*
X54308752Y-63704059D01*
X53670941Y-63066248D01*
X54167330Y-62569859D01*
X54805141Y-63207670D01*
X54805141Y-63207670D01*
G37*
G36*
X78805141Y-63207670D02*
G01*
X78308752Y-63704059D01*
X77670941Y-63066248D01*
X78167330Y-62569859D01*
X78805141Y-63207670D01*
X78805141Y-63207670D01*
G37*
G36*
X57805141Y-63207670D02*
G01*
X57308752Y-63704059D01*
X56670941Y-63066248D01*
X57167330Y-62569859D01*
X57805141Y-63207670D01*
X57805141Y-63207670D01*
G37*
G36*
X75805141Y-63207670D02*
G01*
X75308752Y-63704059D01*
X74670941Y-63066248D01*
X75167330Y-62569859D01*
X75805141Y-63207670D01*
X75805141Y-63207670D01*
G37*
G36*
X60805141Y-63207670D02*
G01*
X60308752Y-63704059D01*
X59670941Y-63066248D01*
X60167330Y-62569859D01*
X60805141Y-63207670D01*
X60805141Y-63207670D01*
G37*
G36*
X72805141Y-63207670D02*
G01*
X72308752Y-63704059D01*
X71670941Y-63066248D01*
X72167330Y-62569859D01*
X72805141Y-63207670D01*
X72805141Y-63207670D01*
G37*
G36*
X69805141Y-63207670D02*
G01*
X69308752Y-63704059D01*
X68670941Y-63066248D01*
X69167330Y-62569859D01*
X69805141Y-63207670D01*
X69805141Y-63207670D01*
G37*
G36*
X66805141Y-63207670D02*
G01*
X66308752Y-63704059D01*
X65670941Y-63066248D01*
X66167330Y-62569859D01*
X66805141Y-63207670D01*
X66805141Y-63207670D01*
G37*
G36*
X43597770Y-62774751D02*
G01*
X43172091Y-63200430D01*
X42463570Y-62491909D01*
X42889249Y-62066230D01*
X43597770Y-62774751D01*
X43597770Y-62774751D01*
G37*
G36*
X46563430Y-62603091D02*
G01*
X46137751Y-63028770D01*
X45429230Y-62320249D01*
X45854909Y-61894570D01*
X46563430Y-62603091D01*
X46563430Y-62603091D01*
G37*
G36*
X44658430Y-61714091D02*
G01*
X44232751Y-62139770D01*
X43524230Y-61431249D01*
X43949909Y-61005570D01*
X44658430Y-61714091D01*
X44658430Y-61714091D01*
G37*
G36*
X68603059Y-61409752D02*
G01*
X68106670Y-61906141D01*
X67468859Y-61268330D01*
X67965248Y-60771941D01*
X68603059Y-61409752D01*
X68603059Y-61409752D01*
G37*
G36*
X71603059Y-61409752D02*
G01*
X71106670Y-61906141D01*
X70468859Y-61268330D01*
X70965248Y-60771941D01*
X71603059Y-61409752D01*
X71603059Y-61409752D01*
G37*
G36*
X65603059Y-61409752D02*
G01*
X65106670Y-61906141D01*
X64468859Y-61268330D01*
X64965248Y-60771941D01*
X65603059Y-61409752D01*
X65603059Y-61409752D01*
G37*
G36*
X62603059Y-61409752D02*
G01*
X62106670Y-61906141D01*
X61468859Y-61268330D01*
X61965248Y-60771941D01*
X62603059Y-61409752D01*
X62603059Y-61409752D01*
G37*
G36*
X59603059Y-61409752D02*
G01*
X59106670Y-61906141D01*
X58468859Y-61268330D01*
X58965248Y-60771941D01*
X59603059Y-61409752D01*
X59603059Y-61409752D01*
G37*
G36*
X50603059Y-61409752D02*
G01*
X50106670Y-61906141D01*
X49468859Y-61268330D01*
X49965248Y-60771941D01*
X50603059Y-61409752D01*
X50603059Y-61409752D01*
G37*
G36*
X53603059Y-61409752D02*
G01*
X53106670Y-61906141D01*
X52468859Y-61268330D01*
X52965248Y-60771941D01*
X53603059Y-61409752D01*
X53603059Y-61409752D01*
G37*
G36*
X74603059Y-61409752D02*
G01*
X74106670Y-61906141D01*
X73468859Y-61268330D01*
X73965248Y-60771941D01*
X74603059Y-61409752D01*
X74603059Y-61409752D01*
G37*
G36*
X47603059Y-61409752D02*
G01*
X47106670Y-61906141D01*
X46468859Y-61268330D01*
X46965248Y-60771941D01*
X47603059Y-61409752D01*
X47603059Y-61409752D01*
G37*
G36*
X77603059Y-61409752D02*
G01*
X77106670Y-61906141D01*
X76468859Y-61268330D01*
X76965248Y-60771941D01*
X77603059Y-61409752D01*
X77603059Y-61409752D01*
G37*
G36*
X56603059Y-61409752D02*
G01*
X56106670Y-61906141D01*
X55468859Y-61268330D01*
X55965248Y-60771941D01*
X56603059Y-61409752D01*
X56603059Y-61409752D01*
G37*
G36*
X45375770Y-60742751D02*
G01*
X44950091Y-61168430D01*
X44241570Y-60459909D01*
X44667249Y-60034230D01*
X45375770Y-60742751D01*
X45375770Y-60742751D01*
G37*
G36*
X63805141Y-60207670D02*
G01*
X63308752Y-60704059D01*
X62670941Y-60066248D01*
X63167330Y-59569859D01*
X63805141Y-60207670D01*
X63805141Y-60207670D01*
G37*
G36*
X51805141Y-60207670D02*
G01*
X51308752Y-60704059D01*
X50670941Y-60066248D01*
X51167330Y-59569859D01*
X51805141Y-60207670D01*
X51805141Y-60207670D01*
G37*
G36*
X69805141Y-60207670D02*
G01*
X69308752Y-60704059D01*
X68670941Y-60066248D01*
X69167330Y-59569859D01*
X69805141Y-60207670D01*
X69805141Y-60207670D01*
G37*
G36*
X72805141Y-60207670D02*
G01*
X72308752Y-60704059D01*
X71670941Y-60066248D01*
X72167330Y-59569859D01*
X72805141Y-60207670D01*
X72805141Y-60207670D01*
G37*
G36*
X66805141Y-60207670D02*
G01*
X66308752Y-60704059D01*
X65670941Y-60066248D01*
X66167330Y-59569859D01*
X66805141Y-60207670D01*
X66805141Y-60207670D01*
G37*
G36*
X60805141Y-60207670D02*
G01*
X60308752Y-60704059D01*
X59670941Y-60066248D01*
X60167330Y-59569859D01*
X60805141Y-60207670D01*
X60805141Y-60207670D01*
G37*
G36*
X54805141Y-60207670D02*
G01*
X54308752Y-60704059D01*
X53670941Y-60066248D01*
X54167330Y-59569859D01*
X54805141Y-60207670D01*
X54805141Y-60207670D01*
G37*
G36*
X57805141Y-60207670D02*
G01*
X57308752Y-60704059D01*
X56670941Y-60066248D01*
X57167330Y-59569859D01*
X57805141Y-60207670D01*
X57805141Y-60207670D01*
G37*
G36*
X78805141Y-60207670D02*
G01*
X78308752Y-60704059D01*
X77670941Y-60066248D01*
X78167330Y-59569859D01*
X78805141Y-60207670D01*
X78805141Y-60207670D01*
G37*
G36*
X48805141Y-60207670D02*
G01*
X48308752Y-60704059D01*
X47670941Y-60066248D01*
X48167330Y-59569859D01*
X48805141Y-60207670D01*
X48805141Y-60207670D01*
G37*
G36*
X75805141Y-60207670D02*
G01*
X75308752Y-60704059D01*
X74670941Y-60066248D01*
X75167330Y-59569859D01*
X75805141Y-60207670D01*
X75805141Y-60207670D01*
G37*
G36*
X43599300Y-60553800D02*
G01*
X42354300Y-60553800D01*
X42354300Y-59943800D01*
X43599300Y-59943800D01*
X43599300Y-60553800D01*
X43599300Y-60553800D01*
G37*
G36*
X37249300Y-60553800D02*
G01*
X36004300Y-60553800D01*
X36004300Y-59943800D01*
X37249300Y-59943800D01*
X37249300Y-60553800D01*
X37249300Y-60553800D01*
G37*
G36*
X46436430Y-59682091D02*
G01*
X46010751Y-60107770D01*
X45302230Y-59399249D01*
X45727909Y-58973570D01*
X46436430Y-59682091D01*
X46436430Y-59682091D01*
G37*
G36*
X43599300Y-59283800D02*
G01*
X42354300Y-59283800D01*
X42354300Y-58673800D01*
X43599300Y-58673800D01*
X43599300Y-59283800D01*
X43599300Y-59283800D01*
G37*
G36*
X37249300Y-59283800D02*
G01*
X36004300Y-59283800D01*
X36004300Y-58673800D01*
X37249300Y-58673800D01*
X37249300Y-59283800D01*
X37249300Y-59283800D01*
G37*
G36*
X68603059Y-58409752D02*
G01*
X68106670Y-58906141D01*
X67468859Y-58268330D01*
X67965248Y-57771941D01*
X68603059Y-58409752D01*
X68603059Y-58409752D01*
G37*
G36*
X50603059Y-58409752D02*
G01*
X50106670Y-58906141D01*
X49468859Y-58268330D01*
X49965248Y-57771941D01*
X50603059Y-58409752D01*
X50603059Y-58409752D01*
G37*
G36*
X53603059Y-58409752D02*
G01*
X53106670Y-58906141D01*
X52468859Y-58268330D01*
X52965248Y-57771941D01*
X53603059Y-58409752D01*
X53603059Y-58409752D01*
G37*
G36*
X56603059Y-58409752D02*
G01*
X56106670Y-58906141D01*
X55468859Y-58268330D01*
X55965248Y-57771941D01*
X56603059Y-58409752D01*
X56603059Y-58409752D01*
G37*
G36*
X59603059Y-58409752D02*
G01*
X59106670Y-58906141D01*
X58468859Y-58268330D01*
X58965248Y-57771941D01*
X59603059Y-58409752D01*
X59603059Y-58409752D01*
G37*
G36*
X62603059Y-58409752D02*
G01*
X62106670Y-58906141D01*
X61468859Y-58268330D01*
X61965248Y-57771941D01*
X62603059Y-58409752D01*
X62603059Y-58409752D01*
G37*
G36*
X65603059Y-58409752D02*
G01*
X65106670Y-58906141D01*
X64468859Y-58268330D01*
X64965248Y-57771941D01*
X65603059Y-58409752D01*
X65603059Y-58409752D01*
G37*
G36*
X47603059Y-58409752D02*
G01*
X47106670Y-58906141D01*
X46468859Y-58268330D01*
X46965248Y-57771941D01*
X47603059Y-58409752D01*
X47603059Y-58409752D01*
G37*
G36*
X71603059Y-58409752D02*
G01*
X71106670Y-58906141D01*
X70468859Y-58268330D01*
X70965248Y-57771941D01*
X71603059Y-58409752D01*
X71603059Y-58409752D01*
G37*
G36*
X77603059Y-58409752D02*
G01*
X77106670Y-58906141D01*
X76468859Y-58268330D01*
X76965248Y-57771941D01*
X77603059Y-58409752D01*
X77603059Y-58409752D01*
G37*
G36*
X74603059Y-58409752D02*
G01*
X74106670Y-58906141D01*
X73468859Y-58268330D01*
X73965248Y-57771941D01*
X74603059Y-58409752D01*
X74603059Y-58409752D01*
G37*
G36*
X45375770Y-57694751D02*
G01*
X44950091Y-58120430D01*
X44241570Y-57411909D01*
X44667249Y-56986230D01*
X45375770Y-57694751D01*
X45375770Y-57694751D01*
G37*
G36*
X43599300Y-58013800D02*
G01*
X42354300Y-58013800D01*
X42354300Y-57403800D01*
X43599300Y-57403800D01*
X43599300Y-58013800D01*
X43599300Y-58013800D01*
G37*
G36*
X37249300Y-58013800D02*
G01*
X36004300Y-58013800D01*
X36004300Y-57403800D01*
X37249300Y-57403800D01*
X37249300Y-58013800D01*
X37249300Y-58013800D01*
G37*
G36*
X69805141Y-57207670D02*
G01*
X69308752Y-57704059D01*
X68670941Y-57066248D01*
X69167330Y-56569859D01*
X69805141Y-57207670D01*
X69805141Y-57207670D01*
G37*
G36*
X75805141Y-57207670D02*
G01*
X75308752Y-57704059D01*
X74670941Y-57066248D01*
X75167330Y-56569859D01*
X75805141Y-57207670D01*
X75805141Y-57207670D01*
G37*
G36*
X72805141Y-57207670D02*
G01*
X72308752Y-57704059D01*
X71670941Y-57066248D01*
X72167330Y-56569859D01*
X72805141Y-57207670D01*
X72805141Y-57207670D01*
G37*
G36*
X48805141Y-57207670D02*
G01*
X48308752Y-57704059D01*
X47670941Y-57066248D01*
X48167330Y-56569859D01*
X48805141Y-57207670D01*
X48805141Y-57207670D01*
G37*
G36*
X51805141Y-57207670D02*
G01*
X51308752Y-57704059D01*
X50670941Y-57066248D01*
X51167330Y-56569859D01*
X51805141Y-57207670D01*
X51805141Y-57207670D01*
G37*
G36*
X54805141Y-57207670D02*
G01*
X54308752Y-57704059D01*
X53670941Y-57066248D01*
X54167330Y-56569859D01*
X54805141Y-57207670D01*
X54805141Y-57207670D01*
G37*
G36*
X66805141Y-57207670D02*
G01*
X66308752Y-57704059D01*
X65670941Y-57066248D01*
X66167330Y-56569859D01*
X66805141Y-57207670D01*
X66805141Y-57207670D01*
G37*
G36*
X63805141Y-57207670D02*
G01*
X63308752Y-57704059D01*
X62670941Y-57066248D01*
X63167330Y-56569859D01*
X63805141Y-57207670D01*
X63805141Y-57207670D01*
G37*
G36*
X60805141Y-57207670D02*
G01*
X60308752Y-57704059D01*
X59670941Y-57066248D01*
X60167330Y-56569859D01*
X60805141Y-57207670D01*
X60805141Y-57207670D01*
G37*
G36*
X57805141Y-57207670D02*
G01*
X57308752Y-57704059D01*
X56670941Y-57066248D01*
X57167330Y-56569859D01*
X57805141Y-57207670D01*
X57805141Y-57207670D01*
G37*
G36*
X78805141Y-57207670D02*
G01*
X78308752Y-57704059D01*
X77670941Y-57066248D01*
X78167330Y-56569859D01*
X78805141Y-57207670D01*
X78805141Y-57207670D01*
G37*
G36*
X46436430Y-56634091D02*
G01*
X46010751Y-57059770D01*
X45302230Y-56351249D01*
X45727909Y-55925570D01*
X46436430Y-56634091D01*
X46436430Y-56634091D01*
G37*
G36*
X43599300Y-56743800D02*
G01*
X42354300Y-56743800D01*
X42354300Y-56133800D01*
X43599300Y-56133800D01*
X43599300Y-56743800D01*
X43599300Y-56743800D01*
G37*
G36*
X37249300Y-56743800D02*
G01*
X36004300Y-56743800D01*
X36004300Y-56133800D01*
X37249300Y-56133800D01*
X37249300Y-56743800D01*
X37249300Y-56743800D01*
G37*
G36*
X65603059Y-55409752D02*
G01*
X65106670Y-55906141D01*
X64468859Y-55268330D01*
X64965248Y-54771941D01*
X65603059Y-55409752D01*
X65603059Y-55409752D01*
G37*
G36*
X53603059Y-55409752D02*
G01*
X53106670Y-55906141D01*
X52468859Y-55268330D01*
X52965248Y-54771941D01*
X53603059Y-55409752D01*
X53603059Y-55409752D01*
G37*
G36*
X77603059Y-55409752D02*
G01*
X77106670Y-55906141D01*
X76468859Y-55268330D01*
X76965248Y-54771941D01*
X77603059Y-55409752D01*
X77603059Y-55409752D01*
G37*
G36*
X56603059Y-55409752D02*
G01*
X56106670Y-55906141D01*
X55468859Y-55268330D01*
X55965248Y-54771941D01*
X56603059Y-55409752D01*
X56603059Y-55409752D01*
G37*
G36*
X50603059Y-55409752D02*
G01*
X50106670Y-55906141D01*
X49468859Y-55268330D01*
X49965248Y-54771941D01*
X50603059Y-55409752D01*
X50603059Y-55409752D01*
G37*
G36*
X59603059Y-55409752D02*
G01*
X59106670Y-55906141D01*
X58468859Y-55268330D01*
X58965248Y-54771941D01*
X59603059Y-55409752D01*
X59603059Y-55409752D01*
G37*
G36*
X47603059Y-55409752D02*
G01*
X47106670Y-55906141D01*
X46468859Y-55268330D01*
X46965248Y-54771941D01*
X47603059Y-55409752D01*
X47603059Y-55409752D01*
G37*
G36*
X68603059Y-55409752D02*
G01*
X68106670Y-55906141D01*
X67468859Y-55268330D01*
X67965248Y-54771941D01*
X68603059Y-55409752D01*
X68603059Y-55409752D01*
G37*
G36*
X71603059Y-55409752D02*
G01*
X71106670Y-55906141D01*
X70468859Y-55268330D01*
X70965248Y-54771941D01*
X71603059Y-55409752D01*
X71603059Y-55409752D01*
G37*
G36*
X74603059Y-55409752D02*
G01*
X74106670Y-55906141D01*
X73468859Y-55268330D01*
X73965248Y-54771941D01*
X74603059Y-55409752D01*
X74603059Y-55409752D01*
G37*
G36*
X62603059Y-55409752D02*
G01*
X62106670Y-55906141D01*
X61468859Y-55268330D01*
X61965248Y-54771941D01*
X62603059Y-55409752D01*
X62603059Y-55409752D01*
G37*
G36*
X37249300Y-55473800D02*
G01*
X36004300Y-55473800D01*
X36004300Y-54863800D01*
X37249300Y-54863800D01*
X37249300Y-55473800D01*
X37249300Y-55473800D01*
G37*
G36*
X43599300Y-55473800D02*
G01*
X42354300Y-55473800D01*
X42354300Y-54863800D01*
X43599300Y-54863800D01*
X43599300Y-55473800D01*
X43599300Y-55473800D01*
G37*
G36*
X45375770Y-54773751D02*
G01*
X44950091Y-55199430D01*
X44241570Y-54490909D01*
X44667249Y-54065230D01*
X45375770Y-54773751D01*
X45375770Y-54773751D01*
G37*
G36*
X51805141Y-54207670D02*
G01*
X51308752Y-54704059D01*
X50670941Y-54066248D01*
X51167330Y-53569859D01*
X51805141Y-54207670D01*
X51805141Y-54207670D01*
G37*
G36*
X54805141Y-54207670D02*
G01*
X54308752Y-54704059D01*
X53670941Y-54066248D01*
X54167330Y-53569859D01*
X54805141Y-54207670D01*
X54805141Y-54207670D01*
G37*
G36*
X57805141Y-54207670D02*
G01*
X57308752Y-54704059D01*
X56670941Y-54066248D01*
X57167330Y-53569859D01*
X57805141Y-54207670D01*
X57805141Y-54207670D01*
G37*
G36*
X60805141Y-54207670D02*
G01*
X60308752Y-54704059D01*
X59670941Y-54066248D01*
X60167330Y-53569859D01*
X60805141Y-54207670D01*
X60805141Y-54207670D01*
G37*
G36*
X63805141Y-54207670D02*
G01*
X63308752Y-54704059D01*
X62670941Y-54066248D01*
X63167330Y-53569859D01*
X63805141Y-54207670D01*
X63805141Y-54207670D01*
G37*
G36*
X66805141Y-54207670D02*
G01*
X66308752Y-54704059D01*
X65670941Y-54066248D01*
X66167330Y-53569859D01*
X66805141Y-54207670D01*
X66805141Y-54207670D01*
G37*
G36*
X69805141Y-54207670D02*
G01*
X69308752Y-54704059D01*
X68670941Y-54066248D01*
X69167330Y-53569859D01*
X69805141Y-54207670D01*
X69805141Y-54207670D01*
G37*
G36*
X72805141Y-54207670D02*
G01*
X72308752Y-54704059D01*
X71670941Y-54066248D01*
X72167330Y-53569859D01*
X72805141Y-54207670D01*
X72805141Y-54207670D01*
G37*
G36*
X75805141Y-54207670D02*
G01*
X75308752Y-54704059D01*
X74670941Y-54066248D01*
X75167330Y-53569859D01*
X75805141Y-54207670D01*
X75805141Y-54207670D01*
G37*
G36*
X78805141Y-54207670D02*
G01*
X78308752Y-54704059D01*
X77670941Y-54066248D01*
X78167330Y-53569859D01*
X78805141Y-54207670D01*
X78805141Y-54207670D01*
G37*
G36*
X48805141Y-54207670D02*
G01*
X48308752Y-54704059D01*
X47670941Y-54066248D01*
X48167330Y-53569859D01*
X48805141Y-54207670D01*
X48805141Y-54207670D01*
G37*
G36*
X43599300Y-54203800D02*
G01*
X42354300Y-54203800D01*
X42354300Y-53593800D01*
X43599300Y-53593800D01*
X43599300Y-54203800D01*
X43599300Y-54203800D01*
G37*
G36*
X37249300Y-54203800D02*
G01*
X36004300Y-54203800D01*
X36004300Y-53593800D01*
X37249300Y-53593800D01*
X37249300Y-54203800D01*
X37249300Y-54203800D01*
G37*
G36*
X46436430Y-53713091D02*
G01*
X46010751Y-54138770D01*
X45302230Y-53430249D01*
X45727909Y-53004570D01*
X46436430Y-53713091D01*
X46436430Y-53713091D01*
G37*
G36*
X43599300Y-52933800D02*
G01*
X42354300Y-52933800D01*
X42354300Y-52323800D01*
X43599300Y-52323800D01*
X43599300Y-52933800D01*
X43599300Y-52933800D01*
G37*
G36*
X37249300Y-52933800D02*
G01*
X36004300Y-52933800D01*
X36004300Y-52323800D01*
X37249300Y-52323800D01*
X37249300Y-52933800D01*
X37249300Y-52933800D01*
G37*
G36*
X50603059Y-52409752D02*
G01*
X50106670Y-52906141D01*
X49468859Y-52268330D01*
X49965248Y-51771941D01*
X50603059Y-52409752D01*
X50603059Y-52409752D01*
G37*
G36*
X47603059Y-52409752D02*
G01*
X47106670Y-52906141D01*
X46468859Y-52268330D01*
X46965248Y-51771941D01*
X47603059Y-52409752D01*
X47603059Y-52409752D01*
G37*
G36*
X74603059Y-52409752D02*
G01*
X74106670Y-52906141D01*
X73468859Y-52268330D01*
X73965248Y-51771941D01*
X74603059Y-52409752D01*
X74603059Y-52409752D01*
G37*
G36*
X59603059Y-52409752D02*
G01*
X59106670Y-52906141D01*
X58468859Y-52268330D01*
X58965248Y-51771941D01*
X59603059Y-52409752D01*
X59603059Y-52409752D01*
G37*
G36*
X65603059Y-52409752D02*
G01*
X65106670Y-52906141D01*
X64468859Y-52268330D01*
X64965248Y-51771941D01*
X65603059Y-52409752D01*
X65603059Y-52409752D01*
G37*
G36*
X68603059Y-52409752D02*
G01*
X68106670Y-52906141D01*
X67468859Y-52268330D01*
X67965248Y-51771941D01*
X68603059Y-52409752D01*
X68603059Y-52409752D01*
G37*
G36*
X77603059Y-52409752D02*
G01*
X77106670Y-52906141D01*
X76468859Y-52268330D01*
X76965248Y-51771941D01*
X77603059Y-52409752D01*
X77603059Y-52409752D01*
G37*
G36*
X71603059Y-52409752D02*
G01*
X71106670Y-52906141D01*
X70468859Y-52268330D01*
X70965248Y-51771941D01*
X71603059Y-52409752D01*
X71603059Y-52409752D01*
G37*
G36*
X53603059Y-52409752D02*
G01*
X53106670Y-52906141D01*
X52468859Y-52268330D01*
X52965248Y-51771941D01*
X53603059Y-52409752D01*
X53603059Y-52409752D01*
G37*
G36*
X62603059Y-52409752D02*
G01*
X62106670Y-52906141D01*
X61468859Y-52268330D01*
X61965248Y-51771941D01*
X62603059Y-52409752D01*
X62603059Y-52409752D01*
G37*
G36*
X56603059Y-52409752D02*
G01*
X56106670Y-52906141D01*
X55468859Y-52268330D01*
X55965248Y-51771941D01*
X56603059Y-52409752D01*
X56603059Y-52409752D01*
G37*
G36*
X45375770Y-51598751D02*
G01*
X44950091Y-52024430D01*
X44241570Y-51315909D01*
X44667249Y-50890230D01*
X45375770Y-51598751D01*
X45375770Y-51598751D01*
G37*
G36*
X48805141Y-51207670D02*
G01*
X48308752Y-51704059D01*
X47670941Y-51066248D01*
X48167330Y-50569859D01*
X48805141Y-51207670D01*
X48805141Y-51207670D01*
G37*
G36*
X78805141Y-51207670D02*
G01*
X78308752Y-51704059D01*
X77670941Y-51066248D01*
X78167330Y-50569859D01*
X78805141Y-51207670D01*
X78805141Y-51207670D01*
G37*
G36*
X75805141Y-51207670D02*
G01*
X75308752Y-51704059D01*
X74670941Y-51066248D01*
X75167330Y-50569859D01*
X75805141Y-51207670D01*
X75805141Y-51207670D01*
G37*
G36*
X69805141Y-51207670D02*
G01*
X69308752Y-51704059D01*
X68670941Y-51066248D01*
X69167330Y-50569859D01*
X69805141Y-51207670D01*
X69805141Y-51207670D01*
G37*
G36*
X66805141Y-51207670D02*
G01*
X66308752Y-51704059D01*
X65670941Y-51066248D01*
X66167330Y-50569859D01*
X66805141Y-51207670D01*
X66805141Y-51207670D01*
G37*
G36*
X54805141Y-51207670D02*
G01*
X54308752Y-51704059D01*
X53670941Y-51066248D01*
X54167330Y-50569859D01*
X54805141Y-51207670D01*
X54805141Y-51207670D01*
G37*
G36*
X63805141Y-51207670D02*
G01*
X63308752Y-51704059D01*
X62670941Y-51066248D01*
X63167330Y-50569859D01*
X63805141Y-51207670D01*
X63805141Y-51207670D01*
G37*
G36*
X51805141Y-51207670D02*
G01*
X51308752Y-51704059D01*
X50670941Y-51066248D01*
X51167330Y-50569859D01*
X51805141Y-51207670D01*
X51805141Y-51207670D01*
G37*
G36*
X60805141Y-51207670D02*
G01*
X60308752Y-51704059D01*
X59670941Y-51066248D01*
X60167330Y-50569859D01*
X60805141Y-51207670D01*
X60805141Y-51207670D01*
G37*
G36*
X57805141Y-51207670D02*
G01*
X57308752Y-51704059D01*
X56670941Y-51066248D01*
X57167330Y-50569859D01*
X57805141Y-51207670D01*
X57805141Y-51207670D01*
G37*
G36*
X72805141Y-51207670D02*
G01*
X72308752Y-51704059D01*
X71670941Y-51066248D01*
X72167330Y-50569859D01*
X72805141Y-51207670D01*
X72805141Y-51207670D01*
G37*
G36*
X46436430Y-50538091D02*
G01*
X46010751Y-50963770D01*
X45302230Y-50255249D01*
X45727909Y-49829570D01*
X46436430Y-50538091D01*
X46436430Y-50538091D01*
G37*
G36*
X62603059Y-49409752D02*
G01*
X62106670Y-49906141D01*
X61468859Y-49268330D01*
X61965248Y-48771941D01*
X62603059Y-49409752D01*
X62603059Y-49409752D01*
G37*
G36*
X77603059Y-49409752D02*
G01*
X77106670Y-49906141D01*
X76468859Y-49268330D01*
X76965248Y-48771941D01*
X77603059Y-49409752D01*
X77603059Y-49409752D01*
G37*
G36*
X47603059Y-49409752D02*
G01*
X47106670Y-49906141D01*
X46468859Y-49268330D01*
X46965248Y-48771941D01*
X47603059Y-49409752D01*
X47603059Y-49409752D01*
G37*
G36*
X50603059Y-49409752D02*
G01*
X50106670Y-49906141D01*
X49468859Y-49268330D01*
X49965248Y-48771941D01*
X50603059Y-49409752D01*
X50603059Y-49409752D01*
G37*
G36*
X53603059Y-49409752D02*
G01*
X53106670Y-49906141D01*
X52468859Y-49268330D01*
X52965248Y-48771941D01*
X53603059Y-49409752D01*
X53603059Y-49409752D01*
G37*
G36*
X74603059Y-49409752D02*
G01*
X74106670Y-49906141D01*
X73468859Y-49268330D01*
X73965248Y-48771941D01*
X74603059Y-49409752D01*
X74603059Y-49409752D01*
G37*
G36*
X56603059Y-49409752D02*
G01*
X56106670Y-49906141D01*
X55468859Y-49268330D01*
X55965248Y-48771941D01*
X56603059Y-49409752D01*
X56603059Y-49409752D01*
G37*
G36*
X59603059Y-49409752D02*
G01*
X59106670Y-49906141D01*
X58468859Y-49268330D01*
X58965248Y-48771941D01*
X59603059Y-49409752D01*
X59603059Y-49409752D01*
G37*
G36*
X71603059Y-49409752D02*
G01*
X71106670Y-49906141D01*
X70468859Y-49268330D01*
X70965248Y-48771941D01*
X71603059Y-49409752D01*
X71603059Y-49409752D01*
G37*
G36*
X65603059Y-49409752D02*
G01*
X65106670Y-49906141D01*
X64468859Y-49268330D01*
X64965248Y-48771941D01*
X65603059Y-49409752D01*
X65603059Y-49409752D01*
G37*
G36*
X68603059Y-49409752D02*
G01*
X68106670Y-49906141D01*
X67468859Y-49268330D01*
X67965248Y-48771941D01*
X68603059Y-49409752D01*
X68603059Y-49409752D01*
G37*
G36*
X42836400Y-49161000D02*
G01*
X41034400Y-49161000D01*
X41034400Y-47359000D01*
X42836400Y-47359000D01*
X42836400Y-49161000D01*
X42836400Y-49161000D01*
G37*
G36*
X45502770Y-48677751D02*
G01*
X45077091Y-49103430D01*
X44368570Y-48394909D01*
X44794249Y-47969230D01*
X45502770Y-48677751D01*
X45502770Y-48677751D01*
G37*
G36*
X72805141Y-48207670D02*
G01*
X72308752Y-48704059D01*
X71670941Y-48066248D01*
X72167330Y-47569859D01*
X72805141Y-48207670D01*
X72805141Y-48207670D01*
G37*
G36*
X69805141Y-48207670D02*
G01*
X69308752Y-48704059D01*
X68670941Y-48066248D01*
X69167330Y-47569859D01*
X69805141Y-48207670D01*
X69805141Y-48207670D01*
G37*
G36*
X66805141Y-48207670D02*
G01*
X66308752Y-48704059D01*
X65670941Y-48066248D01*
X66167330Y-47569859D01*
X66805141Y-48207670D01*
X66805141Y-48207670D01*
G37*
G36*
X78805141Y-48207670D02*
G01*
X78308752Y-48704059D01*
X77670941Y-48066248D01*
X78167330Y-47569859D01*
X78805141Y-48207670D01*
X78805141Y-48207670D01*
G37*
G36*
X63805141Y-48207670D02*
G01*
X63308752Y-48704059D01*
X62670941Y-48066248D01*
X63167330Y-47569859D01*
X63805141Y-48207670D01*
X63805141Y-48207670D01*
G37*
G36*
X75805141Y-48207670D02*
G01*
X75308752Y-48704059D01*
X74670941Y-48066248D01*
X75167330Y-47569859D01*
X75805141Y-48207670D01*
X75805141Y-48207670D01*
G37*
G36*
X54805141Y-48207670D02*
G01*
X54308752Y-48704059D01*
X53670941Y-48066248D01*
X54167330Y-47569859D01*
X54805141Y-48207670D01*
X54805141Y-48207670D01*
G37*
G36*
X51805141Y-48207670D02*
G01*
X51308752Y-48704059D01*
X50670941Y-48066248D01*
X51167330Y-47569859D01*
X51805141Y-48207670D01*
X51805141Y-48207670D01*
G37*
G36*
X48805141Y-48207670D02*
G01*
X48308752Y-48704059D01*
X47670941Y-48066248D01*
X48167330Y-47569859D01*
X48805141Y-48207670D01*
X48805141Y-48207670D01*
G37*
G36*
X60805141Y-48207670D02*
G01*
X60308752Y-48704059D01*
X59670941Y-48066248D01*
X60167330Y-47569859D01*
X60805141Y-48207670D01*
X60805141Y-48207670D01*
G37*
G36*
X57805141Y-48207670D02*
G01*
X57308752Y-48704059D01*
X56670941Y-48066248D01*
X57167330Y-47569859D01*
X57805141Y-48207670D01*
X57805141Y-48207670D01*
G37*
G36*
X46563430Y-47617091D02*
G01*
X46137751Y-48042770D01*
X45429230Y-47334249D01*
X45854909Y-46908570D01*
X46563430Y-47617091D01*
X46563430Y-47617091D01*
G37*
G36*
X62603059Y-46409752D02*
G01*
X62106670Y-46906141D01*
X61468859Y-46268330D01*
X61965248Y-45771941D01*
X62603059Y-46409752D01*
X62603059Y-46409752D01*
G37*
G36*
X53603059Y-46409752D02*
G01*
X53106670Y-46906141D01*
X52468859Y-46268330D01*
X52965248Y-45771941D01*
X53603059Y-46409752D01*
X53603059Y-46409752D01*
G37*
G36*
X56603059Y-46409752D02*
G01*
X56106670Y-46906141D01*
X55468859Y-46268330D01*
X55965248Y-45771941D01*
X56603059Y-46409752D01*
X56603059Y-46409752D01*
G37*
G36*
X59603059Y-46409752D02*
G01*
X59106670Y-46906141D01*
X58468859Y-46268330D01*
X58965248Y-45771941D01*
X59603059Y-46409752D01*
X59603059Y-46409752D01*
G37*
G36*
X50603059Y-46409752D02*
G01*
X50106670Y-46906141D01*
X49468859Y-46268330D01*
X49965248Y-45771941D01*
X50603059Y-46409752D01*
X50603059Y-46409752D01*
G37*
G36*
X65603059Y-46409752D02*
G01*
X65106670Y-46906141D01*
X64468859Y-46268330D01*
X64965248Y-45771941D01*
X65603059Y-46409752D01*
X65603059Y-46409752D01*
G37*
G36*
X47603059Y-46409752D02*
G01*
X47106670Y-46906141D01*
X46468859Y-46268330D01*
X46965248Y-45771941D01*
X47603059Y-46409752D01*
X47603059Y-46409752D01*
G37*
G36*
X68603059Y-46409752D02*
G01*
X68106670Y-46906141D01*
X67468859Y-46268330D01*
X67965248Y-45771941D01*
X68603059Y-46409752D01*
X68603059Y-46409752D01*
G37*
G36*
X77603059Y-46409752D02*
G01*
X77106670Y-46906141D01*
X76468859Y-46268330D01*
X76965248Y-45771941D01*
X77603059Y-46409752D01*
X77603059Y-46409752D01*
G37*
G36*
X71603059Y-46409752D02*
G01*
X71106670Y-46906141D01*
X70468859Y-46268330D01*
X70965248Y-45771941D01*
X71603059Y-46409752D01*
X71603059Y-46409752D01*
G37*
G36*
X74603059Y-46409752D02*
G01*
X74106670Y-46906141D01*
X73468859Y-46268330D01*
X73965248Y-45771941D01*
X74603059Y-46409752D01*
X74603059Y-46409752D01*
G37*
G36*
X42045842Y-44825518D02*
G01*
X42112027Y-44832037D01*
X42281866Y-44883557D01*
X42438391Y-44967222D01*
X42471957Y-44994769D01*
X42575586Y-45079814D01*
X42658848Y-45181271D01*
X42688178Y-45217009D01*
X42771843Y-45373534D01*
X42823363Y-45543373D01*
X42840759Y-45720000D01*
X42823363Y-45896627D01*
X42771843Y-46066466D01*
X42688178Y-46222991D01*
X42658848Y-46258729D01*
X42575586Y-46360186D01*
X42474129Y-46443448D01*
X42438391Y-46472778D01*
X42281866Y-46556443D01*
X42112027Y-46607963D01*
X42045842Y-46614482D01*
X41979660Y-46621000D01*
X41891140Y-46621000D01*
X41824958Y-46614482D01*
X41758773Y-46607963D01*
X41588934Y-46556443D01*
X41432409Y-46472778D01*
X41396671Y-46443448D01*
X41295214Y-46360186D01*
X41211952Y-46258729D01*
X41182622Y-46222991D01*
X41098957Y-46066466D01*
X41047437Y-45896627D01*
X41030041Y-45720000D01*
X41047437Y-45543373D01*
X41098957Y-45373534D01*
X41182622Y-45217009D01*
X41211952Y-45181271D01*
X41295214Y-45079814D01*
X41398843Y-44994769D01*
X41432409Y-44967222D01*
X41588934Y-44883557D01*
X41758773Y-44832037D01*
X41824958Y-44825518D01*
X41891140Y-44819000D01*
X41979660Y-44819000D01*
X42045842Y-44825518D01*
X42045842Y-44825518D01*
G37*
G36*
X45375770Y-45629751D02*
G01*
X44950091Y-46055430D01*
X44241570Y-45346909D01*
X44667249Y-44921230D01*
X45375770Y-45629751D01*
X45375770Y-45629751D01*
G37*
G36*
X48805141Y-45207670D02*
G01*
X48308752Y-45704059D01*
X47670941Y-45066248D01*
X48167330Y-44569859D01*
X48805141Y-45207670D01*
X48805141Y-45207670D01*
G37*
G36*
X78805141Y-45207670D02*
G01*
X78308752Y-45704059D01*
X77670941Y-45066248D01*
X78167330Y-44569859D01*
X78805141Y-45207670D01*
X78805141Y-45207670D01*
G37*
G36*
X72805141Y-45207670D02*
G01*
X72308752Y-45704059D01*
X71670941Y-45066248D01*
X72167330Y-44569859D01*
X72805141Y-45207670D01*
X72805141Y-45207670D01*
G37*
G36*
X69805141Y-45207670D02*
G01*
X69308752Y-45704059D01*
X68670941Y-45066248D01*
X69167330Y-44569859D01*
X69805141Y-45207670D01*
X69805141Y-45207670D01*
G37*
G36*
X66805141Y-45207670D02*
G01*
X66308752Y-45704059D01*
X65670941Y-45066248D01*
X66167330Y-44569859D01*
X66805141Y-45207670D01*
X66805141Y-45207670D01*
G37*
G36*
X75805141Y-45207670D02*
G01*
X75308752Y-45704059D01*
X74670941Y-45066248D01*
X75167330Y-44569859D01*
X75805141Y-45207670D01*
X75805141Y-45207670D01*
G37*
G36*
X63805141Y-45207670D02*
G01*
X63308752Y-45704059D01*
X62670941Y-45066248D01*
X63167330Y-44569859D01*
X63805141Y-45207670D01*
X63805141Y-45207670D01*
G37*
G36*
X60805141Y-45207670D02*
G01*
X60308752Y-45704059D01*
X59670941Y-45066248D01*
X60167330Y-44569859D01*
X60805141Y-45207670D01*
X60805141Y-45207670D01*
G37*
G36*
X57805141Y-45207670D02*
G01*
X57308752Y-45704059D01*
X56670941Y-45066248D01*
X57167330Y-44569859D01*
X57805141Y-45207670D01*
X57805141Y-45207670D01*
G37*
G36*
X54805141Y-45207670D02*
G01*
X54308752Y-45704059D01*
X53670941Y-45066248D01*
X54167330Y-44569859D01*
X54805141Y-45207670D01*
X54805141Y-45207670D01*
G37*
G36*
X51805141Y-45207670D02*
G01*
X51308752Y-45704059D01*
X50670941Y-45066248D01*
X51167330Y-44569859D01*
X51805141Y-45207670D01*
X51805141Y-45207670D01*
G37*
G36*
X46436430Y-44569091D02*
G01*
X46010751Y-44994770D01*
X45302230Y-44286249D01*
X45727909Y-43860570D01*
X46436430Y-44569091D01*
X46436430Y-44569091D01*
G37*
G36*
X42045842Y-42285518D02*
G01*
X42112027Y-42292037D01*
X42281866Y-42343557D01*
X42438391Y-42427222D01*
X42474129Y-42456552D01*
X42575586Y-42539814D01*
X42658848Y-42641271D01*
X42688178Y-42677009D01*
X42771843Y-42833534D01*
X42823363Y-43003373D01*
X42840759Y-43180000D01*
X42823363Y-43356627D01*
X42771843Y-43526466D01*
X42688178Y-43682991D01*
X42658848Y-43718729D01*
X42575586Y-43820186D01*
X42474129Y-43903448D01*
X42438391Y-43932778D01*
X42281866Y-44016443D01*
X42112027Y-44067963D01*
X42045843Y-44074481D01*
X41979660Y-44081000D01*
X41891140Y-44081000D01*
X41824957Y-44074481D01*
X41758773Y-44067963D01*
X41588934Y-44016443D01*
X41432409Y-43932778D01*
X41396671Y-43903448D01*
X41295214Y-43820186D01*
X41211952Y-43718729D01*
X41182622Y-43682991D01*
X41098957Y-43526466D01*
X41047437Y-43356627D01*
X41030041Y-43180000D01*
X41047437Y-43003373D01*
X41098957Y-42833534D01*
X41182622Y-42677009D01*
X41211952Y-42641271D01*
X41295214Y-42539814D01*
X41396671Y-42456552D01*
X41432409Y-42427222D01*
X41588934Y-42343557D01*
X41758773Y-42292037D01*
X41824958Y-42285518D01*
X41891140Y-42279000D01*
X41979660Y-42279000D01*
X42045842Y-42285518D01*
X42045842Y-42285518D01*
G37*
G36*
X47603059Y-43409752D02*
G01*
X47106670Y-43906141D01*
X46468859Y-43268330D01*
X46965248Y-42771941D01*
X47603059Y-43409752D01*
X47603059Y-43409752D01*
G37*
G36*
X68603059Y-43409752D02*
G01*
X68106670Y-43906141D01*
X67468859Y-43268330D01*
X67965248Y-42771941D01*
X68603059Y-43409752D01*
X68603059Y-43409752D01*
G37*
G36*
X59603059Y-43409752D02*
G01*
X59106670Y-43906141D01*
X58468859Y-43268330D01*
X58965248Y-42771941D01*
X59603059Y-43409752D01*
X59603059Y-43409752D01*
G37*
G36*
X56603059Y-43409752D02*
G01*
X56106670Y-43906141D01*
X55468859Y-43268330D01*
X55965248Y-42771941D01*
X56603059Y-43409752D01*
X56603059Y-43409752D01*
G37*
G36*
X53603059Y-43409752D02*
G01*
X53106670Y-43906141D01*
X52468859Y-43268330D01*
X52965248Y-42771941D01*
X53603059Y-43409752D01*
X53603059Y-43409752D01*
G37*
G36*
X50603059Y-43409752D02*
G01*
X50106670Y-43906141D01*
X49468859Y-43268330D01*
X49965248Y-42771941D01*
X50603059Y-43409752D01*
X50603059Y-43409752D01*
G37*
G36*
X74603059Y-43409752D02*
G01*
X74106670Y-43906141D01*
X73468859Y-43268330D01*
X73965248Y-42771941D01*
X74603059Y-43409752D01*
X74603059Y-43409752D01*
G37*
G36*
X65603059Y-43409752D02*
G01*
X65106670Y-43906141D01*
X64468859Y-43268330D01*
X64965248Y-42771941D01*
X65603059Y-43409752D01*
X65603059Y-43409752D01*
G37*
G36*
X71603059Y-43409752D02*
G01*
X71106670Y-43906141D01*
X70468859Y-43268330D01*
X70965248Y-42771941D01*
X71603059Y-43409752D01*
X71603059Y-43409752D01*
G37*
G36*
X62603059Y-43409752D02*
G01*
X62106670Y-43906141D01*
X61468859Y-43268330D01*
X61965248Y-42771941D01*
X62603059Y-43409752D01*
X62603059Y-43409752D01*
G37*
G36*
X77603059Y-43409752D02*
G01*
X77106670Y-43906141D01*
X76468859Y-43268330D01*
X76965248Y-42771941D01*
X77603059Y-43409752D01*
X77603059Y-43409752D01*
G37*
G36*
X45629770Y-42581751D02*
G01*
X45204091Y-43007430D01*
X44495570Y-42298909D01*
X44921249Y-41873230D01*
X45629770Y-42581751D01*
X45629770Y-42581751D01*
G37*
G36*
X48805141Y-42207670D02*
G01*
X48308752Y-42704059D01*
X47670941Y-42066248D01*
X48167330Y-41569859D01*
X48805141Y-42207670D01*
X48805141Y-42207670D01*
G37*
G36*
X51805141Y-42207670D02*
G01*
X51308752Y-42704059D01*
X50670941Y-42066248D01*
X51167330Y-41569859D01*
X51805141Y-42207670D01*
X51805141Y-42207670D01*
G37*
G36*
X66805141Y-42207670D02*
G01*
X66308752Y-42704059D01*
X65670941Y-42066248D01*
X66167330Y-41569859D01*
X66805141Y-42207670D01*
X66805141Y-42207670D01*
G37*
G36*
X63805141Y-42207670D02*
G01*
X63308752Y-42704059D01*
X62670941Y-42066248D01*
X63167330Y-41569859D01*
X63805141Y-42207670D01*
X63805141Y-42207670D01*
G37*
G36*
X54805141Y-42207670D02*
G01*
X54308752Y-42704059D01*
X53670941Y-42066248D01*
X54167330Y-41569859D01*
X54805141Y-42207670D01*
X54805141Y-42207670D01*
G37*
G36*
X57805141Y-42207670D02*
G01*
X57308752Y-42704059D01*
X56670941Y-42066248D01*
X57167330Y-41569859D01*
X57805141Y-42207670D01*
X57805141Y-42207670D01*
G37*
G36*
X60805141Y-42207670D02*
G01*
X60308752Y-42704059D01*
X59670941Y-42066248D01*
X60167330Y-41569859D01*
X60805141Y-42207670D01*
X60805141Y-42207670D01*
G37*
G36*
X69805141Y-42207670D02*
G01*
X69308752Y-42704059D01*
X68670941Y-42066248D01*
X69167330Y-41569859D01*
X69805141Y-42207670D01*
X69805141Y-42207670D01*
G37*
G36*
X72805141Y-42207670D02*
G01*
X72308752Y-42704059D01*
X71670941Y-42066248D01*
X72167330Y-41569859D01*
X72805141Y-42207670D01*
X72805141Y-42207670D01*
G37*
G36*
X75805141Y-42207670D02*
G01*
X75308752Y-42704059D01*
X74670941Y-42066248D01*
X75167330Y-41569859D01*
X75805141Y-42207670D01*
X75805141Y-42207670D01*
G37*
G36*
X78805141Y-42207670D02*
G01*
X78308752Y-42704059D01*
X77670941Y-42066248D01*
X78167330Y-41569859D01*
X78805141Y-42207670D01*
X78805141Y-42207670D01*
G37*
G36*
X46690430Y-41521091D02*
G01*
X46264751Y-41946770D01*
X45556230Y-41238249D01*
X45981909Y-40812570D01*
X46690430Y-41521091D01*
X46690430Y-41521091D01*
G37*
G36*
X42045842Y-39745518D02*
G01*
X42112027Y-39752037D01*
X42281866Y-39803557D01*
X42438391Y-39887222D01*
X42474129Y-39916552D01*
X42575586Y-39999814D01*
X42646668Y-40086429D01*
X42688178Y-40137009D01*
X42771843Y-40293534D01*
X42823363Y-40463373D01*
X42840759Y-40640000D01*
X42823363Y-40816627D01*
X42771843Y-40986466D01*
X42688178Y-41142991D01*
X42658848Y-41178729D01*
X42575586Y-41280186D01*
X42474129Y-41363448D01*
X42438391Y-41392778D01*
X42281866Y-41476443D01*
X42112027Y-41527963D01*
X42045842Y-41534482D01*
X41979660Y-41541000D01*
X41891140Y-41541000D01*
X41824958Y-41534482D01*
X41758773Y-41527963D01*
X41588934Y-41476443D01*
X41432409Y-41392778D01*
X41396671Y-41363448D01*
X41295214Y-41280186D01*
X41211952Y-41178729D01*
X41182622Y-41142991D01*
X41098957Y-40986466D01*
X41047437Y-40816627D01*
X41030041Y-40640000D01*
X41047437Y-40463373D01*
X41098957Y-40293534D01*
X41182622Y-40137009D01*
X41224132Y-40086429D01*
X41295214Y-39999814D01*
X41396671Y-39916552D01*
X41432409Y-39887222D01*
X41588934Y-39803557D01*
X41758773Y-39752037D01*
X41824958Y-39745518D01*
X41891140Y-39739000D01*
X41979660Y-39739000D01*
X42045842Y-39745518D01*
X42045842Y-39745518D01*
G37*
G36*
X65603059Y-40409752D02*
G01*
X65106670Y-40906141D01*
X64468859Y-40268330D01*
X64965248Y-39771941D01*
X65603059Y-40409752D01*
X65603059Y-40409752D01*
G37*
G36*
X74603059Y-40409752D02*
G01*
X74106670Y-40906141D01*
X73468859Y-40268330D01*
X73965248Y-39771941D01*
X74603059Y-40409752D01*
X74603059Y-40409752D01*
G37*
G36*
X77603059Y-40409752D02*
G01*
X77106670Y-40906141D01*
X76468859Y-40268330D01*
X76965248Y-39771941D01*
X77603059Y-40409752D01*
X77603059Y-40409752D01*
G37*
G36*
X47603059Y-40409752D02*
G01*
X47106670Y-40906141D01*
X46468859Y-40268330D01*
X46965248Y-39771941D01*
X47603059Y-40409752D01*
X47603059Y-40409752D01*
G37*
G36*
X50603059Y-40409752D02*
G01*
X50106670Y-40906141D01*
X49468859Y-40268330D01*
X49965248Y-39771941D01*
X50603059Y-40409752D01*
X50603059Y-40409752D01*
G37*
G36*
X53603059Y-40409752D02*
G01*
X53106670Y-40906141D01*
X52468859Y-40268330D01*
X52965248Y-39771941D01*
X53603059Y-40409752D01*
X53603059Y-40409752D01*
G37*
G36*
X56603059Y-40409752D02*
G01*
X56106670Y-40906141D01*
X55468859Y-40268330D01*
X55965248Y-39771941D01*
X56603059Y-40409752D01*
X56603059Y-40409752D01*
G37*
G36*
X59603059Y-40409752D02*
G01*
X59106670Y-40906141D01*
X58468859Y-40268330D01*
X58965248Y-39771941D01*
X59603059Y-40409752D01*
X59603059Y-40409752D01*
G37*
G36*
X62603059Y-40409752D02*
G01*
X62106670Y-40906141D01*
X61468859Y-40268330D01*
X61965248Y-39771941D01*
X62603059Y-40409752D01*
X62603059Y-40409752D01*
G37*
G36*
X71603059Y-40409752D02*
G01*
X71106670Y-40906141D01*
X70468859Y-40268330D01*
X70965248Y-39771941D01*
X71603059Y-40409752D01*
X71603059Y-40409752D01*
G37*
G36*
X68603059Y-40409752D02*
G01*
X68106670Y-40906141D01*
X67468859Y-40268330D01*
X67965248Y-39771941D01*
X68603059Y-40409752D01*
X68603059Y-40409752D01*
G37*
G36*
X45248770Y-39660751D02*
G01*
X44823091Y-40086430D01*
X44114570Y-39377909D01*
X44540249Y-38952230D01*
X45248770Y-39660751D01*
X45248770Y-39660751D01*
G37*
G36*
X78805141Y-39207670D02*
G01*
X78308752Y-39704059D01*
X77670941Y-39066248D01*
X78167330Y-38569859D01*
X78805141Y-39207670D01*
X78805141Y-39207670D01*
G37*
G36*
X75805141Y-39207670D02*
G01*
X75308752Y-39704059D01*
X74670941Y-39066248D01*
X75167330Y-38569859D01*
X75805141Y-39207670D01*
X75805141Y-39207670D01*
G37*
G36*
X48805141Y-39207670D02*
G01*
X48308752Y-39704059D01*
X47670941Y-39066248D01*
X48167330Y-38569859D01*
X48805141Y-39207670D01*
X48805141Y-39207670D01*
G37*
G36*
X72805141Y-39207670D02*
G01*
X72308752Y-39704059D01*
X71670941Y-39066248D01*
X72167330Y-38569859D01*
X72805141Y-39207670D01*
X72805141Y-39207670D01*
G37*
G36*
X51805141Y-39207670D02*
G01*
X51308752Y-39704059D01*
X50670941Y-39066248D01*
X51167330Y-38569859D01*
X51805141Y-39207670D01*
X51805141Y-39207670D01*
G37*
G36*
X54805141Y-39207670D02*
G01*
X54308752Y-39704059D01*
X53670941Y-39066248D01*
X54167330Y-38569859D01*
X54805141Y-39207670D01*
X54805141Y-39207670D01*
G37*
G36*
X66805141Y-39207670D02*
G01*
X66308752Y-39704059D01*
X65670941Y-39066248D01*
X66167330Y-38569859D01*
X66805141Y-39207670D01*
X66805141Y-39207670D01*
G37*
G36*
X57805141Y-39207670D02*
G01*
X57308752Y-39704059D01*
X56670941Y-39066248D01*
X57167330Y-38569859D01*
X57805141Y-39207670D01*
X57805141Y-39207670D01*
G37*
G36*
X63805141Y-39207670D02*
G01*
X63308752Y-39704059D01*
X62670941Y-39066248D01*
X63167330Y-38569859D01*
X63805141Y-39207670D01*
X63805141Y-39207670D01*
G37*
G36*
X60805141Y-39207670D02*
G01*
X60308752Y-39704059D01*
X59670941Y-39066248D01*
X60167330Y-38569859D01*
X60805141Y-39207670D01*
X60805141Y-39207670D01*
G37*
G36*
X69805141Y-39207670D02*
G01*
X69308752Y-39704059D01*
X68670941Y-39066248D01*
X69167330Y-38569859D01*
X69805141Y-39207670D01*
X69805141Y-39207670D01*
G37*
G36*
X46309430Y-38600091D02*
G01*
X45883751Y-39025770D01*
X45175230Y-38317249D01*
X45600909Y-37891570D01*
X46309430Y-38600091D01*
X46309430Y-38600091D01*
G37*
G36*
X42045842Y-37205518D02*
G01*
X42112027Y-37212037D01*
X42281866Y-37263557D01*
X42438391Y-37347222D01*
X42474129Y-37376552D01*
X42575586Y-37459814D01*
X42658848Y-37561271D01*
X42688178Y-37597009D01*
X42771843Y-37753534D01*
X42823363Y-37923373D01*
X42840759Y-38100000D01*
X42823363Y-38276627D01*
X42771843Y-38446466D01*
X42688178Y-38602991D01*
X42658848Y-38638729D01*
X42575586Y-38740186D01*
X42474129Y-38823448D01*
X42438391Y-38852778D01*
X42281866Y-38936443D01*
X42112027Y-38987963D01*
X42045843Y-38994481D01*
X41979660Y-39001000D01*
X41891140Y-39001000D01*
X41824957Y-38994481D01*
X41758773Y-38987963D01*
X41588934Y-38936443D01*
X41432409Y-38852778D01*
X41396671Y-38823448D01*
X41295214Y-38740186D01*
X41211952Y-38638729D01*
X41182622Y-38602991D01*
X41098957Y-38446466D01*
X41047437Y-38276627D01*
X41030041Y-38100000D01*
X41047437Y-37923373D01*
X41098957Y-37753534D01*
X41182622Y-37597009D01*
X41211952Y-37561271D01*
X41295214Y-37459814D01*
X41396671Y-37376552D01*
X41432409Y-37347222D01*
X41588934Y-37263557D01*
X41758773Y-37212037D01*
X41824958Y-37205518D01*
X41891140Y-37199000D01*
X41979660Y-37199000D01*
X42045842Y-37205518D01*
X42045842Y-37205518D01*
G37*
G36*
X47603059Y-37409752D02*
G01*
X47106670Y-37906141D01*
X46468859Y-37268330D01*
X46965248Y-36771941D01*
X47603059Y-37409752D01*
X47603059Y-37409752D01*
G37*
G36*
X50603059Y-37409752D02*
G01*
X50106670Y-37906141D01*
X49468859Y-37268330D01*
X49965248Y-36771941D01*
X50603059Y-37409752D01*
X50603059Y-37409752D01*
G37*
G36*
X53603059Y-37409752D02*
G01*
X53106670Y-37906141D01*
X52468859Y-37268330D01*
X52965248Y-36771941D01*
X53603059Y-37409752D01*
X53603059Y-37409752D01*
G37*
G36*
X56603059Y-37409752D02*
G01*
X56106670Y-37906141D01*
X55468859Y-37268330D01*
X55965248Y-36771941D01*
X56603059Y-37409752D01*
X56603059Y-37409752D01*
G37*
G36*
X59603059Y-37409752D02*
G01*
X59106670Y-37906141D01*
X58468859Y-37268330D01*
X58965248Y-36771941D01*
X59603059Y-37409752D01*
X59603059Y-37409752D01*
G37*
G36*
X65603059Y-37409752D02*
G01*
X65106670Y-37906141D01*
X64468859Y-37268330D01*
X64965248Y-36771941D01*
X65603059Y-37409752D01*
X65603059Y-37409752D01*
G37*
G36*
X68603059Y-37409752D02*
G01*
X68106670Y-37906141D01*
X67468859Y-37268330D01*
X67965248Y-36771941D01*
X68603059Y-37409752D01*
X68603059Y-37409752D01*
G37*
G36*
X71603059Y-37409752D02*
G01*
X71106670Y-37906141D01*
X70468859Y-37268330D01*
X70965248Y-36771941D01*
X71603059Y-37409752D01*
X71603059Y-37409752D01*
G37*
G36*
X77603059Y-37409752D02*
G01*
X77106670Y-37906141D01*
X76468859Y-37268330D01*
X76965248Y-36771941D01*
X77603059Y-37409752D01*
X77603059Y-37409752D01*
G37*
G36*
X74603059Y-37409752D02*
G01*
X74106670Y-37906141D01*
X73468859Y-37268330D01*
X73965248Y-36771941D01*
X74603059Y-37409752D01*
X74603059Y-37409752D01*
G37*
G36*
X62603059Y-37409752D02*
G01*
X62106670Y-37906141D01*
X61468859Y-37268330D01*
X61965248Y-36771941D01*
X62603059Y-37409752D01*
X62603059Y-37409752D01*
G37*
G36*
X45248770Y-36739751D02*
G01*
X44823091Y-37165430D01*
X44114570Y-36456909D01*
X44540249Y-36031230D01*
X45248770Y-36739751D01*
X45248770Y-36739751D01*
G37*
G36*
X66805141Y-36207670D02*
G01*
X66308752Y-36704059D01*
X65670941Y-36066248D01*
X66167330Y-35569859D01*
X66805141Y-36207670D01*
X66805141Y-36207670D01*
G37*
G36*
X51805141Y-36207670D02*
G01*
X51308752Y-36704059D01*
X50670941Y-36066248D01*
X51167330Y-35569859D01*
X51805141Y-36207670D01*
X51805141Y-36207670D01*
G37*
G36*
X54805141Y-36207670D02*
G01*
X54308752Y-36704059D01*
X53670941Y-36066248D01*
X54167330Y-35569859D01*
X54805141Y-36207670D01*
X54805141Y-36207670D01*
G37*
G36*
X57805141Y-36207670D02*
G01*
X57308752Y-36704059D01*
X56670941Y-36066248D01*
X57167330Y-35569859D01*
X57805141Y-36207670D01*
X57805141Y-36207670D01*
G37*
G36*
X60805141Y-36207670D02*
G01*
X60308752Y-36704059D01*
X59670941Y-36066248D01*
X60167330Y-35569859D01*
X60805141Y-36207670D01*
X60805141Y-36207670D01*
G37*
G36*
X63805141Y-36207670D02*
G01*
X63308752Y-36704059D01*
X62670941Y-36066248D01*
X63167330Y-35569859D01*
X63805141Y-36207670D01*
X63805141Y-36207670D01*
G37*
G36*
X69805141Y-36207670D02*
G01*
X69308752Y-36704059D01*
X68670941Y-36066248D01*
X69167330Y-35569859D01*
X69805141Y-36207670D01*
X69805141Y-36207670D01*
G37*
G36*
X72805141Y-36207670D02*
G01*
X72308752Y-36704059D01*
X71670941Y-36066248D01*
X72167330Y-35569859D01*
X72805141Y-36207670D01*
X72805141Y-36207670D01*
G37*
G36*
X75805141Y-36207670D02*
G01*
X75308752Y-36704059D01*
X74670941Y-36066248D01*
X75167330Y-35569859D01*
X75805141Y-36207670D01*
X75805141Y-36207670D01*
G37*
G36*
X78805141Y-36207670D02*
G01*
X78308752Y-36704059D01*
X77670941Y-36066248D01*
X78167330Y-35569859D01*
X78805141Y-36207670D01*
X78805141Y-36207670D01*
G37*
G36*
X48805141Y-36207670D02*
G01*
X48308752Y-36704059D01*
X47670941Y-36066248D01*
X48167330Y-35569859D01*
X48805141Y-36207670D01*
X48805141Y-36207670D01*
G37*
G36*
X46309430Y-35679091D02*
G01*
X45883751Y-36104770D01*
X45175230Y-35396249D01*
X45600909Y-34970570D01*
X46309430Y-35679091D01*
X46309430Y-35679091D01*
G37*
G36*
X71603059Y-34409752D02*
G01*
X71106670Y-34906141D01*
X70468859Y-34268330D01*
X70965248Y-33771941D01*
X71603059Y-34409752D01*
X71603059Y-34409752D01*
G37*
G36*
X47603059Y-34409752D02*
G01*
X47106670Y-34906141D01*
X46468859Y-34268330D01*
X46965248Y-33771941D01*
X47603059Y-34409752D01*
X47603059Y-34409752D01*
G37*
G36*
X50603059Y-34409752D02*
G01*
X50106670Y-34906141D01*
X49468859Y-34268330D01*
X49965248Y-33771941D01*
X50603059Y-34409752D01*
X50603059Y-34409752D01*
G37*
G36*
X53603059Y-34409752D02*
G01*
X53106670Y-34906141D01*
X52468859Y-34268330D01*
X52965248Y-33771941D01*
X53603059Y-34409752D01*
X53603059Y-34409752D01*
G37*
G36*
X56603059Y-34409752D02*
G01*
X56106670Y-34906141D01*
X55468859Y-34268330D01*
X55965248Y-33771941D01*
X56603059Y-34409752D01*
X56603059Y-34409752D01*
G37*
G36*
X62603059Y-34409752D02*
G01*
X62106670Y-34906141D01*
X61468859Y-34268330D01*
X61965248Y-33771941D01*
X62603059Y-34409752D01*
X62603059Y-34409752D01*
G37*
G36*
X65603059Y-34409752D02*
G01*
X65106670Y-34906141D01*
X64468859Y-34268330D01*
X64965248Y-33771941D01*
X65603059Y-34409752D01*
X65603059Y-34409752D01*
G37*
G36*
X77603059Y-34409752D02*
G01*
X77106670Y-34906141D01*
X76468859Y-34268330D01*
X76965248Y-33771941D01*
X77603059Y-34409752D01*
X77603059Y-34409752D01*
G37*
G36*
X68603059Y-34409752D02*
G01*
X68106670Y-34906141D01*
X67468859Y-34268330D01*
X67965248Y-33771941D01*
X68603059Y-34409752D01*
X68603059Y-34409752D01*
G37*
G36*
X74603059Y-34409752D02*
G01*
X74106670Y-34906141D01*
X73468859Y-34268330D01*
X73965248Y-33771941D01*
X74603059Y-34409752D01*
X74603059Y-34409752D01*
G37*
G36*
X59603059Y-34409752D02*
G01*
X59106670Y-34906141D01*
X58468859Y-34268330D01*
X58965248Y-33771941D01*
X59603059Y-34409752D01*
X59603059Y-34409752D01*
G37*
G36*
X45121770Y-33818751D02*
G01*
X44696091Y-34244430D01*
X43987570Y-33535909D01*
X44413249Y-33110230D01*
X45121770Y-33818751D01*
X45121770Y-33818751D01*
G37*
G36*
X57805141Y-33207670D02*
G01*
X57308752Y-33704059D01*
X56670941Y-33066248D01*
X57167330Y-32569859D01*
X57805141Y-33207670D01*
X57805141Y-33207670D01*
G37*
G36*
X78805141Y-33207670D02*
G01*
X78308752Y-33704059D01*
X77670941Y-33066248D01*
X78167330Y-32569859D01*
X78805141Y-33207670D01*
X78805141Y-33207670D01*
G37*
G36*
X69805141Y-33207670D02*
G01*
X69308752Y-33704059D01*
X68670941Y-33066248D01*
X69167330Y-32569859D01*
X69805141Y-33207670D01*
X69805141Y-33207670D01*
G37*
G36*
X66805141Y-33207670D02*
G01*
X66308752Y-33704059D01*
X65670941Y-33066248D01*
X66167330Y-32569859D01*
X66805141Y-33207670D01*
X66805141Y-33207670D01*
G37*
G36*
X63805141Y-33207670D02*
G01*
X63308752Y-33704059D01*
X62670941Y-33066248D01*
X63167330Y-32569859D01*
X63805141Y-33207670D01*
X63805141Y-33207670D01*
G37*
G36*
X60805141Y-33207670D02*
G01*
X60308752Y-33704059D01*
X59670941Y-33066248D01*
X60167330Y-32569859D01*
X60805141Y-33207670D01*
X60805141Y-33207670D01*
G37*
G36*
X75805141Y-33207670D02*
G01*
X75308752Y-33704059D01*
X74670941Y-33066248D01*
X75167330Y-32569859D01*
X75805141Y-33207670D01*
X75805141Y-33207670D01*
G37*
G36*
X54805141Y-33207670D02*
G01*
X54308752Y-33704059D01*
X53670941Y-33066248D01*
X54167330Y-32569859D01*
X54805141Y-33207670D01*
X54805141Y-33207670D01*
G37*
G36*
X51805141Y-33207670D02*
G01*
X51308752Y-33704059D01*
X50670941Y-33066248D01*
X51167330Y-32569859D01*
X51805141Y-33207670D01*
X51805141Y-33207670D01*
G37*
G36*
X48805141Y-33207670D02*
G01*
X48308752Y-33704059D01*
X47670941Y-33066248D01*
X48167330Y-32569859D01*
X48805141Y-33207670D01*
X48805141Y-33207670D01*
G37*
G36*
X72805141Y-33207670D02*
G01*
X72308752Y-33704059D01*
X71670941Y-33066248D01*
X72167330Y-32569859D01*
X72805141Y-33207670D01*
X72805141Y-33207670D01*
G37*
G36*
X46182430Y-32758091D02*
G01*
X45756751Y-33183770D01*
X45048230Y-32475249D01*
X45473909Y-32049570D01*
X46182430Y-32758091D01*
X46182430Y-32758091D01*
G37*
G36*
X77603059Y-31409752D02*
G01*
X77106670Y-31906141D01*
X76468859Y-31268330D01*
X76965248Y-30771941D01*
X77603059Y-31409752D01*
X77603059Y-31409752D01*
G37*
G36*
X65603059Y-31409752D02*
G01*
X65106670Y-31906141D01*
X64468859Y-31268330D01*
X64965248Y-30771941D01*
X65603059Y-31409752D01*
X65603059Y-31409752D01*
G37*
G36*
X62603059Y-31409752D02*
G01*
X62106670Y-31906141D01*
X61468859Y-31268330D01*
X61965248Y-30771941D01*
X62603059Y-31409752D01*
X62603059Y-31409752D01*
G37*
G36*
X59603059Y-31409752D02*
G01*
X59106670Y-31906141D01*
X58468859Y-31268330D01*
X58965248Y-30771941D01*
X59603059Y-31409752D01*
X59603059Y-31409752D01*
G37*
G36*
X56603059Y-31409752D02*
G01*
X56106670Y-31906141D01*
X55468859Y-31268330D01*
X55965248Y-30771941D01*
X56603059Y-31409752D01*
X56603059Y-31409752D01*
G37*
G36*
X53603059Y-31409752D02*
G01*
X53106670Y-31906141D01*
X52468859Y-31268330D01*
X52965248Y-30771941D01*
X53603059Y-31409752D01*
X53603059Y-31409752D01*
G37*
G36*
X50603059Y-31409752D02*
G01*
X50106670Y-31906141D01*
X49468859Y-31268330D01*
X49965248Y-30771941D01*
X50603059Y-31409752D01*
X50603059Y-31409752D01*
G37*
G36*
X47603059Y-31409752D02*
G01*
X47106670Y-31906141D01*
X46468859Y-31268330D01*
X46965248Y-30771941D01*
X47603059Y-31409752D01*
X47603059Y-31409752D01*
G37*
G36*
X71603059Y-31409752D02*
G01*
X71106670Y-31906141D01*
X70468859Y-31268330D01*
X70965248Y-30771941D01*
X71603059Y-31409752D01*
X71603059Y-31409752D01*
G37*
G36*
X74603059Y-31409752D02*
G01*
X74106670Y-31906141D01*
X73468859Y-31268330D01*
X73965248Y-30771941D01*
X74603059Y-31409752D01*
X74603059Y-31409752D01*
G37*
G36*
X68603059Y-31409752D02*
G01*
X68106670Y-31906141D01*
X67468859Y-31268330D01*
X67965248Y-30771941D01*
X68603059Y-31409752D01*
X68603059Y-31409752D01*
G37*
G36*
X69805141Y-30207670D02*
G01*
X69308752Y-30704059D01*
X68670941Y-30066248D01*
X69167330Y-29569859D01*
X69805141Y-30207670D01*
X69805141Y-30207670D01*
G37*
G36*
X75805141Y-30207670D02*
G01*
X75308752Y-30704059D01*
X74670941Y-30066248D01*
X75167330Y-29569859D01*
X75805141Y-30207670D01*
X75805141Y-30207670D01*
G37*
G36*
X72805141Y-30207670D02*
G01*
X72308752Y-30704059D01*
X71670941Y-30066248D01*
X72167330Y-29569859D01*
X72805141Y-30207670D01*
X72805141Y-30207670D01*
G37*
G36*
X48805141Y-30207670D02*
G01*
X48308752Y-30704059D01*
X47670941Y-30066248D01*
X48167330Y-29569859D01*
X48805141Y-30207670D01*
X48805141Y-30207670D01*
G37*
G36*
X51805141Y-30207670D02*
G01*
X51308752Y-30704059D01*
X50670941Y-30066248D01*
X51167330Y-29569859D01*
X51805141Y-30207670D01*
X51805141Y-30207670D01*
G37*
G36*
X54805141Y-30207670D02*
G01*
X54308752Y-30704059D01*
X53670941Y-30066248D01*
X54167330Y-29569859D01*
X54805141Y-30207670D01*
X54805141Y-30207670D01*
G37*
G36*
X57805141Y-30207670D02*
G01*
X57308752Y-30704059D01*
X56670941Y-30066248D01*
X57167330Y-29569859D01*
X57805141Y-30207670D01*
X57805141Y-30207670D01*
G37*
G36*
X60805141Y-30207670D02*
G01*
X60308752Y-30704059D01*
X59670941Y-30066248D01*
X60167330Y-29569859D01*
X60805141Y-30207670D01*
X60805141Y-30207670D01*
G37*
G36*
X63805141Y-30207670D02*
G01*
X63308752Y-30704059D01*
X62670941Y-30066248D01*
X63167330Y-29569859D01*
X63805141Y-30207670D01*
X63805141Y-30207670D01*
G37*
G36*
X66805141Y-30207670D02*
G01*
X66308752Y-30704059D01*
X65670941Y-30066248D01*
X66167330Y-29569859D01*
X66805141Y-30207670D01*
X66805141Y-30207670D01*
G37*
G36*
X78805141Y-30207670D02*
G01*
X78308752Y-30704059D01*
X77670941Y-30066248D01*
X78167330Y-29569859D01*
X78805141Y-30207670D01*
X78805141Y-30207670D01*
G37*
M02*
