G04 #@! TF.GenerationSoftware,KiCad,Pcbnew,(5.1.2)-2*
G04 #@! TF.CreationDate,2020-03-23T21:36:54-04:00*
G04 #@! TF.ProjectId,test_samd11,74657374-5f73-4616-9d64-31312e6b6963,rev?*
G04 #@! TF.SameCoordinates,Original*
G04 #@! TF.FileFunction,Legend,Bot*
G04 #@! TF.FilePolarity,Positive*
%FSLAX46Y46*%
G04 Gerber Fmt 4.6, Leading zero omitted, Abs format (unit mm)*
G04 Created by KiCad (PCBNEW (5.1.2)-2) date 2020-03-23 21:36:54*
%MOMM*%
%LPD*%
G04 APERTURE LIST*
%ADD10C,0.300000*%
%ADD11C,0.120000*%
G04 APERTURE END LIST*
D10*
X71801959Y-55814364D02*
X71195868Y-56420456D01*
X72692156Y-57045488D02*
X71498913Y-56117410D01*
X71429465Y-58308178D02*
X71214808Y-57512683D01*
X72035557Y-57702087D02*
X70842314Y-56774009D01*
X70438253Y-57178070D01*
X70394059Y-57323280D01*
X70400373Y-57417982D01*
X70463507Y-57556878D01*
X70633970Y-57689460D01*
X70798120Y-57727341D01*
X70905449Y-57721027D01*
X71063285Y-57664206D01*
X71467346Y-57260145D01*
X70349865Y-58276611D02*
X69996312Y-58630165D01*
X70469821Y-59267823D02*
X70974897Y-58762747D01*
X69781654Y-57834669D01*
X69276578Y-58339746D01*
X69390220Y-59236256D02*
X69036667Y-59589810D01*
X69510176Y-60227468D02*
X70015252Y-59722392D01*
X68822009Y-58794314D01*
X68316933Y-59299391D01*
X74871293Y-47246350D02*
X73678051Y-46318273D01*
X74176814Y-47334739D01*
X72970944Y-47025380D01*
X74164187Y-47953457D01*
X72263837Y-47732486D02*
X72061807Y-47934517D01*
X72017612Y-48079726D01*
X72030239Y-48269130D01*
X72207016Y-48496414D01*
X72604764Y-48805773D01*
X72882556Y-48932043D01*
X73097213Y-48919416D01*
X73255049Y-48862595D01*
X73457080Y-48660564D01*
X73501274Y-48515355D01*
X73488647Y-48325951D01*
X73311870Y-48098667D01*
X72914123Y-47789307D01*
X72636331Y-47663038D01*
X72421673Y-47675665D01*
X72263837Y-47732486D01*
X72547943Y-49569701D02*
X71354700Y-48641624D01*
X71941851Y-50175793D01*
X70748608Y-49247715D01*
X70811743Y-50194733D02*
X70458189Y-50548287D01*
X70931698Y-51185945D02*
X71436775Y-50680869D01*
X70243532Y-49752792D01*
X69738456Y-50257868D01*
X69706889Y-51400603D02*
X70275099Y-51842545D01*
X69435410Y-50560914D02*
X69706889Y-51400603D01*
X68728303Y-51268020D01*
X78425832Y-35563812D02*
X77232589Y-34635735D01*
X77800800Y-35077676D02*
X77194708Y-35683768D01*
X77819740Y-36169904D02*
X76626497Y-35241826D01*
X77314664Y-36674980D02*
X76121421Y-35746903D01*
X76809587Y-37180056D02*
X75616345Y-36251979D01*
X75363807Y-36504517D01*
X75269105Y-36700234D01*
X75281732Y-36889638D01*
X75344866Y-37028534D01*
X75521643Y-37255818D01*
X75692106Y-37388400D01*
X75969898Y-37514669D01*
X76134048Y-37552550D01*
X76348705Y-37539923D01*
X76557049Y-37432595D01*
X76809587Y-37180056D01*
X75748927Y-38240717D02*
X74555685Y-37312639D01*
X74303146Y-37565177D01*
X74208445Y-37760894D01*
X74221072Y-37950298D01*
X74284206Y-38089194D01*
X74460983Y-38316478D01*
X74631446Y-38449061D01*
X74909238Y-38575330D01*
X75073388Y-38613210D01*
X75288045Y-38600583D01*
X75496389Y-38493255D01*
X75748927Y-38240717D01*
X74063235Y-38815241D02*
X73709682Y-39168794D01*
X74183191Y-39806453D02*
X74688267Y-39301377D01*
X73495024Y-38373299D01*
X72989948Y-38878375D01*
X73728622Y-40261022D02*
X72535380Y-39332944D01*
X73122531Y-40867113D01*
X71929288Y-39939036D01*
X58647391Y-54490933D02*
X58041299Y-55097025D01*
X59537587Y-55722056D02*
X58344345Y-54793979D01*
X58880988Y-56378656D02*
X57687746Y-55450578D01*
X58255956Y-55892520D02*
X57649865Y-56498611D01*
X58274897Y-56984747D02*
X57081654Y-56056669D01*
X57144789Y-57003687D02*
X56791235Y-57357241D01*
X57264744Y-57994900D02*
X57769821Y-57489823D01*
X56576578Y-56561746D01*
X56071502Y-57066822D01*
X48775352Y-43526201D02*
X48270275Y-44031277D01*
X49217293Y-43690350D02*
X47670497Y-43115826D01*
X48510187Y-44397457D01*
X47178048Y-44618428D02*
X47083346Y-44814145D01*
X47089660Y-44908847D01*
X47152794Y-45047743D01*
X47323257Y-45180326D01*
X47487407Y-45218206D01*
X47594736Y-45211893D01*
X47752572Y-45155072D01*
X48156633Y-44751011D01*
X46963391Y-43822933D01*
X46609837Y-44176486D01*
X46565643Y-44321696D01*
X46571956Y-44416398D01*
X46635091Y-44555294D01*
X46748733Y-44643682D01*
X46912883Y-44681563D01*
X47020212Y-44675249D01*
X47178048Y-44618428D01*
X47531601Y-44264875D01*
X45700700Y-45085624D02*
X45498669Y-45287654D01*
X45454475Y-45432864D01*
X45467102Y-45622267D01*
X45643879Y-45849552D01*
X46041626Y-46158911D01*
X46319418Y-46285180D01*
X46534076Y-46272553D01*
X46691912Y-46215732D01*
X46893943Y-46013701D01*
X46938137Y-45868492D01*
X46925510Y-45679088D01*
X46748733Y-45451804D01*
X46350986Y-45142445D01*
X46073194Y-45016176D01*
X45858536Y-45028803D01*
X45700700Y-45085624D01*
X44791563Y-45994761D02*
X45757521Y-46746062D01*
X45820655Y-46884958D01*
X45826969Y-46979660D01*
X45782775Y-47124869D01*
X45580744Y-47326900D01*
X45422908Y-47383721D01*
X45315579Y-47390034D01*
X45151429Y-47352153D01*
X44185471Y-46600853D01*
X43831918Y-46954406D02*
X43225826Y-47560497D01*
X44722115Y-48185529D02*
X43528872Y-47257452D01*
X58999482Y-44486841D02*
X58393391Y-45092933D01*
X59889679Y-45717965D02*
X58696436Y-44789887D01*
X59233080Y-46374564D02*
X58039837Y-45446486D01*
X58608048Y-45888428D02*
X58001956Y-46494520D01*
X58626988Y-46980656D02*
X57433746Y-46052578D01*
X57496880Y-46999596D02*
X57143327Y-47353149D01*
X57616836Y-47990808D02*
X58121912Y-47485732D01*
X56928669Y-46557654D01*
X56423593Y-47062730D01*
X57162267Y-48445377D02*
X55969024Y-47517299D01*
X56467787Y-48533765D01*
X55261918Y-48224406D01*
X56455160Y-49152484D01*
X62252436Y-32089887D02*
X61646345Y-32695979D01*
X63142633Y-33321011D02*
X61949391Y-32392933D01*
X61861002Y-33491474D02*
X61507449Y-33845027D01*
X61980958Y-34482686D02*
X62486034Y-33977610D01*
X61292791Y-33049532D01*
X60787715Y-33554608D01*
X61021313Y-35442331D02*
X61526389Y-34937255D01*
X60333146Y-34009177D01*
X60162683Y-36300961D02*
X60667760Y-35795884D01*
X59474517Y-34867807D01*
D11*
X65268333Y-59579503D02*
X62215046Y-62632790D01*
X59341364Y-61195949D02*
X62753861Y-57783451D01*
X59341364Y-61195949D02*
G75*
G02X58982154Y-60836739I-179605J179605D01*
G01*
X69399251Y-57603846D02*
X66525569Y-60477528D01*
X64549912Y-58861082D02*
X59161759Y-64249236D01*
X66525569Y-60477528D02*
G75*
G02X66166359Y-60118318I-179605J179605D01*
G01*
X62574256Y-62992000D02*
X66345964Y-59220292D01*
X59161759Y-64249236D02*
G75*
G02X58802549Y-63890026I-179605J179605D01*
G01*
X62753862Y-57783452D02*
G75*
G02X63831492Y-58861082I538815J-538815D01*
G01*
X65807148Y-54011744D02*
X58982154Y-60836739D01*
X66345964Y-59220293D02*
G75*
G02X66705174Y-59579503I179605J-179605D01*
G01*
X63831492Y-58861082D02*
X58802549Y-63890026D01*
X66166359Y-60118318D02*
X66705174Y-59579503D01*
X64549913Y-58861081D02*
G75*
G02X65268333Y-59579503I359210J-359211D01*
G01*
X62574256Y-62992000D02*
G75*
G02X62215046Y-62632790I-179605J179605D01*
G01*
X65807149Y-54011744D02*
G75*
G02X69399251Y-57603846I1796051J-1796051D01*
G01*
X55870333Y-35449503D02*
X52817046Y-38502790D01*
X49943364Y-37065949D02*
X53355861Y-33653451D01*
X49943364Y-37065949D02*
G75*
G02X49584154Y-36706739I-179605J179605D01*
G01*
X60001251Y-33473846D02*
X57127569Y-36347528D01*
X55151912Y-34731082D02*
X49763759Y-40119236D01*
X57127569Y-36347528D02*
G75*
G02X56768359Y-35988318I-179605J179605D01*
G01*
X53176256Y-38862000D02*
X56947964Y-35090292D01*
X49763759Y-40119236D02*
G75*
G02X49404549Y-39760026I-179605J179605D01*
G01*
X53355862Y-33653452D02*
G75*
G02X54433492Y-34731082I538815J-538815D01*
G01*
X56409148Y-29881744D02*
X49584154Y-36706739D01*
X56947964Y-35090293D02*
G75*
G02X57307174Y-35449503I179605J-179605D01*
G01*
X54433492Y-34731082D02*
X49404549Y-39760026D01*
X56768359Y-35988318D02*
X57307174Y-35449503D01*
X55151913Y-34731081D02*
G75*
G02X55870333Y-35449503I359210J-359211D01*
G01*
X53176256Y-38862000D02*
G75*
G02X52817046Y-38502790I-179605J179605D01*
G01*
X56409149Y-29881744D02*
G75*
G02X60001251Y-33473846I1796051J-1796051D01*
G01*
X42662333Y-45101503D02*
X39609046Y-48154790D01*
X36735364Y-46717949D02*
X40147861Y-43305451D01*
X36735364Y-46717949D02*
G75*
G02X36376154Y-46358739I-179605J179605D01*
G01*
X46793251Y-43125846D02*
X43919569Y-45999528D01*
X41943912Y-44383082D02*
X36555759Y-49771236D01*
X43919569Y-45999528D02*
G75*
G02X43560359Y-45640318I-179605J179605D01*
G01*
X39968256Y-48514000D02*
X43739964Y-44742292D01*
X36555759Y-49771236D02*
G75*
G02X36196549Y-49412026I-179605J179605D01*
G01*
X40147862Y-43305452D02*
G75*
G02X41225492Y-44383082I538815J-538815D01*
G01*
X43201148Y-39533744D02*
X36376154Y-46358739D01*
X43739964Y-44742293D02*
G75*
G02X44099174Y-45101503I179605J-179605D01*
G01*
X41225492Y-44383082D02*
X36196549Y-49412026D01*
X43560359Y-45640318D02*
X44099174Y-45101503D01*
X41943913Y-44383081D02*
G75*
G02X42662333Y-45101503I359210J-359211D01*
G01*
X39968256Y-48514000D02*
G75*
G02X39609046Y-48154790I-179605J179605D01*
G01*
X43201149Y-39533744D02*
G75*
G02X46793251Y-43125846I1796051J-1796051D01*
G01*
X53076333Y-57293503D02*
X50023046Y-60346790D01*
X47149364Y-58909949D02*
X50561861Y-55497451D01*
X47149364Y-58909949D02*
G75*
G02X46790154Y-58550739I-179605J179605D01*
G01*
X57207251Y-55317846D02*
X54333569Y-58191528D01*
X52357912Y-56575082D02*
X46969759Y-61963236D01*
X54333569Y-58191528D02*
G75*
G02X53974359Y-57832318I-179605J179605D01*
G01*
X50382256Y-60706000D02*
X54153964Y-56934292D01*
X46969759Y-61963236D02*
G75*
G02X46610549Y-61604026I-179605J179605D01*
G01*
X50561862Y-55497452D02*
G75*
G02X51639492Y-56575082I538815J-538815D01*
G01*
X53615148Y-51725744D02*
X46790154Y-58550739D01*
X54153964Y-56934293D02*
G75*
G02X54513174Y-57293503I179605J-179605D01*
G01*
X51639492Y-56575082D02*
X46610549Y-61604026D01*
X53974359Y-57832318D02*
X54513174Y-57293503D01*
X52357913Y-56575081D02*
G75*
G02X53076333Y-57293503I359210J-359211D01*
G01*
X50382256Y-60706000D02*
G75*
G02X50023046Y-60346790I-179605J179605D01*
G01*
X53615149Y-51725744D02*
G75*
G02X57207251Y-55317846I1796051J-1796051D01*
G01*
X56124333Y-44339503D02*
X53071046Y-47392790D01*
X50197364Y-45955949D02*
X53609861Y-42543451D01*
X50197364Y-45955949D02*
G75*
G02X49838154Y-45596739I-179605J179605D01*
G01*
X60255251Y-42363846D02*
X57381569Y-45237528D01*
X55405912Y-43621082D02*
X50017759Y-49009236D01*
X57381569Y-45237528D02*
G75*
G02X57022359Y-44878318I-179605J179605D01*
G01*
X53430256Y-47752000D02*
X57201964Y-43980292D01*
X50017759Y-49009236D02*
G75*
G02X49658549Y-48650026I-179605J179605D01*
G01*
X53609862Y-42543452D02*
G75*
G02X54687492Y-43621082I538815J-538815D01*
G01*
X56663148Y-38771744D02*
X49838154Y-45596739D01*
X57201964Y-43980293D02*
G75*
G02X57561174Y-44339503I179605J-179605D01*
G01*
X54687492Y-43621082D02*
X49658549Y-48650026D01*
X57022359Y-44878318D02*
X57561174Y-44339503D01*
X55405913Y-43621081D02*
G75*
G02X56124333Y-44339503I359210J-359211D01*
G01*
X53430256Y-47752000D02*
G75*
G02X53071046Y-47392790I-179605J179605D01*
G01*
X56663149Y-38771744D02*
G75*
G02X60255251Y-42363846I1796051J-1796051D01*
G01*
X68824333Y-48403503D02*
X65771046Y-51456790D01*
X62897364Y-50019949D02*
X66309861Y-46607451D01*
X62897364Y-50019949D02*
G75*
G02X62538154Y-49660739I-179605J179605D01*
G01*
X72955251Y-46427846D02*
X70081569Y-49301528D01*
X68105912Y-47685082D02*
X62717759Y-53073236D01*
X70081569Y-49301528D02*
G75*
G02X69722359Y-48942318I-179605J179605D01*
G01*
X66130256Y-51816000D02*
X69901964Y-48044292D01*
X62717759Y-53073236D02*
G75*
G02X62358549Y-52714026I-179605J179605D01*
G01*
X66309862Y-46607452D02*
G75*
G02X67387492Y-47685082I538815J-538815D01*
G01*
X69363148Y-42835744D02*
X62538154Y-49660739D01*
X69901964Y-48044293D02*
G75*
G02X70261174Y-48403503I179605J-179605D01*
G01*
X67387492Y-47685082D02*
X62358549Y-52714026D01*
X69722359Y-48942318D02*
X70261174Y-48403503D01*
X68105913Y-47685081D02*
G75*
G02X68824333Y-48403503I359210J-359211D01*
G01*
X66130256Y-51816000D02*
G75*
G02X65771046Y-51456790I-179605J179605D01*
G01*
X69363149Y-42835744D02*
G75*
G02X72955251Y-46427846I1796051J-1796051D01*
G01*
X74548359Y-35988318D02*
X75087174Y-35449503D01*
X72931913Y-34731081D02*
G75*
G02X73650333Y-35449503I359210J-359211D01*
G01*
X74189149Y-29881744D02*
G75*
G02X77781251Y-33473846I1796051J-1796051D01*
G01*
X70956256Y-38862000D02*
G75*
G02X70597046Y-38502790I-179605J179605D01*
G01*
X74907569Y-36347528D02*
G75*
G02X74548359Y-35988318I-179605J179605D01*
G01*
X70956256Y-38862000D02*
X74727964Y-35090292D01*
X67543759Y-40119236D02*
G75*
G02X67184549Y-39760026I-179605J179605D01*
G01*
X74727964Y-35090293D02*
G75*
G02X75087174Y-35449503I179605J-179605D01*
G01*
X72213492Y-34731082D02*
X67184549Y-39760026D01*
X71135862Y-33653452D02*
G75*
G02X72213492Y-34731082I538815J-538815D01*
G01*
X77781251Y-33473846D02*
X74907569Y-36347528D01*
X74189148Y-29881744D02*
X67364154Y-36706739D01*
X67723364Y-37065949D02*
G75*
G02X67364154Y-36706739I-179605J179605D01*
G01*
X72931912Y-34731082D02*
X67543759Y-40119236D01*
X67723364Y-37065949D02*
X71135861Y-33653451D01*
X73650333Y-35449503D02*
X70597046Y-38502790D01*
M02*
