M48
; DRILL file {KiCad (5.1.2)-2} date 3/23/2020 9:36:56 PM
; FORMAT={-:-/ absolute / inch / decimal}
; #@! TF.CreationDate,2020-03-23T21:36:56-04:00
; #@! TF.GenerationSoftware,Kicad,Pcbnew,(5.1.2)-2
FMAT,2
INCH
T1C0.0157
T2C0.0394
%
G90
G05
T1
X1.491Y-2.434
X1.512Y-2.364
X1.544Y-2.332
X1.621Y-2.328
X1.622Y-2.232
X1.6237Y-2.1914
X1.6405Y-2.3718
X1.729Y-1.845
X1.733Y-2.55
X1.752Y-2.205
X1.758Y-2.326
X1.799Y-2.176
X1.91Y-1.25
X1.93Y-1.155
X1.935Y-2.455
X1.955Y-1.4
X1.955Y-1.52
X1.955Y-1.64
X1.955Y-1.755
X1.955Y-1.88
X1.955Y-1.995
X1.955Y-2.105
X1.955Y-2.22
X1.955Y-2.345
X2.04Y-1.39
X2.04Y-1.5
X2.04Y-1.625
X2.04Y-1.735
X2.04Y-1.86
X2.04Y-1.98
X2.04Y-2.095
X2.04Y-2.215
X2.04Y-2.335
X2.05Y-2.45
X2.06Y-1.16
X2.09Y-1.278
X2.174Y-1.512
X2.174Y-1.63
X2.174Y-1.75
X2.174Y-1.866
X2.174Y-1.98
X2.174Y-2.098
X2.174Y-2.222
X2.174Y-2.342
X2.174Y-2.452
X2.175Y-1.284
X2.175Y-1.388
X2.179Y-1.165
X2.293Y-2.452
X2.3Y-1.156
X2.3Y-1.279
X2.3Y-1.394
X2.3Y-1.512
X2.303Y-1.636
X2.303Y-1.755
X2.303Y-1.872
X2.303Y-1.986
X2.303Y-2.105
X2.303Y-2.213
X2.303Y-2.336
X2.407Y-1.621
X2.409Y-2.455
X2.41Y-1.167
X2.41Y-1.275
X2.41Y-1.399
X2.41Y-1.511
X2.414Y-1.746
X2.414Y-1.869
X2.414Y-1.986
X2.414Y-2.11
X2.414Y-2.229
X2.414Y-2.341
X2.522Y-1.862
X2.529Y-1.744
X2.531Y-1.981
X2.531Y-2.107
X2.531Y-2.221
X2.531Y-2.327
X2.531Y-2.454
X2.537Y-1.159
X2.537Y-1.282
X2.537Y-1.39
X2.537Y-1.521
X2.537Y-1.629
X2.65Y-1.99
X2.65Y-2.094
X2.65Y-2.224
X2.65Y-2.342
X2.65Y-2.458
X2.651Y-1.858
X2.661Y-1.159
X2.661Y-1.283
X2.661Y-1.402
X2.661Y-1.511
X2.661Y-1.633
X2.661Y-1.751
X2.759Y-1.985
X2.771Y-2.1
X2.771Y-2.226
X2.771Y-2.342
X2.771Y-2.455
X2.773Y-1.163
X2.773Y-1.277
X2.773Y-1.398
X2.773Y-1.519
X2.773Y-1.628
X2.773Y-1.747
X2.773Y-1.879
X2.88Y-2.094
X2.884Y-2.223
X2.888Y-2.336
X2.888Y-2.464
X2.891Y-1.161
X2.891Y-1.286
X2.891Y-1.409
X2.891Y-1.517
X2.891Y-1.638
X2.891Y-1.753
X2.891Y-1.867
X2.891Y-1.98
X2.996Y-2.34
X2.996Y-2.452
X3.007Y-1.161
X3.007Y-1.29
X3.007Y-1.409
X3.007Y-1.519
X3.007Y-1.645
X3.007Y-1.753
X3.007Y-1.866
X3.007Y-1.983
X3.007Y-2.103
X3.007Y-2.22
X3.083Y-2.429
T2
X1.651Y-1.5
X1.651Y-1.6
X1.651Y-1.7
X1.651Y-1.8
X1.651Y-1.9
T0
M30
