G04 #@! TF.GenerationSoftware,KiCad,Pcbnew,(5.1.2)-2*
G04 #@! TF.CreationDate,2020-03-23T21:36:54-04:00*
G04 #@! TF.ProjectId,test_samd11,74657374-5f73-4616-9d64-31312e6b6963,rev?*
G04 #@! TF.SameCoordinates,Original*
G04 #@! TF.FileFunction,Soldermask,Bot*
G04 #@! TF.FilePolarity,Negative*
%FSLAX46Y46*%
G04 Gerber Fmt 4.6, Leading zero omitted, Abs format (unit mm)*
G04 Created by KiCad (PCBNEW (5.1.2)-2) date 2020-03-23 21:36:54*
%MOMM*%
%LPD*%
G04 APERTURE LIST*
%ADD10C,0.100000*%
G04 APERTURE END LIST*
D10*
G36*
X42836400Y-49161000D02*
G01*
X41034400Y-49161000D01*
X41034400Y-47359000D01*
X42836400Y-47359000D01*
X42836400Y-49161000D01*
X42836400Y-49161000D01*
G37*
G36*
X42045842Y-44825518D02*
G01*
X42112027Y-44832037D01*
X42281866Y-44883557D01*
X42438391Y-44967222D01*
X42474129Y-44996552D01*
X42575586Y-45079814D01*
X42658848Y-45181271D01*
X42688178Y-45217009D01*
X42771843Y-45373534D01*
X42823363Y-45543373D01*
X42840759Y-45720000D01*
X42823363Y-45896627D01*
X42771843Y-46066466D01*
X42688178Y-46222991D01*
X42658848Y-46258729D01*
X42575586Y-46360186D01*
X42474129Y-46443448D01*
X42438391Y-46472778D01*
X42281866Y-46556443D01*
X42112027Y-46607963D01*
X42045842Y-46614482D01*
X41979660Y-46621000D01*
X41891140Y-46621000D01*
X41824958Y-46614482D01*
X41758773Y-46607963D01*
X41588934Y-46556443D01*
X41432409Y-46472778D01*
X41396671Y-46443448D01*
X41295214Y-46360186D01*
X41211952Y-46258729D01*
X41182622Y-46222991D01*
X41098957Y-46066466D01*
X41047437Y-45896627D01*
X41030041Y-45720000D01*
X41047437Y-45543373D01*
X41098957Y-45373534D01*
X41182622Y-45217009D01*
X41211952Y-45181271D01*
X41295214Y-45079814D01*
X41396671Y-44996552D01*
X41432409Y-44967222D01*
X41588934Y-44883557D01*
X41758773Y-44832037D01*
X41824958Y-44825518D01*
X41891140Y-44819000D01*
X41979660Y-44819000D01*
X42045842Y-44825518D01*
X42045842Y-44825518D01*
G37*
G36*
X42045842Y-42285518D02*
G01*
X42112027Y-42292037D01*
X42281866Y-42343557D01*
X42438391Y-42427222D01*
X42474129Y-42456552D01*
X42575586Y-42539814D01*
X42658848Y-42641271D01*
X42688178Y-42677009D01*
X42771843Y-42833534D01*
X42823363Y-43003373D01*
X42840759Y-43180000D01*
X42823363Y-43356627D01*
X42771843Y-43526466D01*
X42688178Y-43682991D01*
X42658848Y-43718729D01*
X42575586Y-43820186D01*
X42474129Y-43903448D01*
X42438391Y-43932778D01*
X42281866Y-44016443D01*
X42112027Y-44067963D01*
X42045843Y-44074481D01*
X41979660Y-44081000D01*
X41891140Y-44081000D01*
X41824957Y-44074481D01*
X41758773Y-44067963D01*
X41588934Y-44016443D01*
X41432409Y-43932778D01*
X41396671Y-43903448D01*
X41295214Y-43820186D01*
X41211952Y-43718729D01*
X41182622Y-43682991D01*
X41098957Y-43526466D01*
X41047437Y-43356627D01*
X41030041Y-43180000D01*
X41047437Y-43003373D01*
X41098957Y-42833534D01*
X41182622Y-42677009D01*
X41211952Y-42641271D01*
X41295214Y-42539814D01*
X41396671Y-42456552D01*
X41432409Y-42427222D01*
X41588934Y-42343557D01*
X41758773Y-42292037D01*
X41824958Y-42285518D01*
X41891140Y-42279000D01*
X41979660Y-42279000D01*
X42045842Y-42285518D01*
X42045842Y-42285518D01*
G37*
G36*
X42045842Y-39745518D02*
G01*
X42112027Y-39752037D01*
X42281866Y-39803557D01*
X42438391Y-39887222D01*
X42474129Y-39916552D01*
X42575586Y-39999814D01*
X42658848Y-40101271D01*
X42688178Y-40137009D01*
X42771843Y-40293534D01*
X42823363Y-40463373D01*
X42840759Y-40640000D01*
X42823363Y-40816627D01*
X42771843Y-40986466D01*
X42688178Y-41142991D01*
X42658848Y-41178729D01*
X42575586Y-41280186D01*
X42474129Y-41363448D01*
X42438391Y-41392778D01*
X42281866Y-41476443D01*
X42112027Y-41527963D01*
X42045842Y-41534482D01*
X41979660Y-41541000D01*
X41891140Y-41541000D01*
X41824958Y-41534482D01*
X41758773Y-41527963D01*
X41588934Y-41476443D01*
X41432409Y-41392778D01*
X41396671Y-41363448D01*
X41295214Y-41280186D01*
X41211952Y-41178729D01*
X41182622Y-41142991D01*
X41098957Y-40986466D01*
X41047437Y-40816627D01*
X41030041Y-40640000D01*
X41047437Y-40463373D01*
X41098957Y-40293534D01*
X41182622Y-40137009D01*
X41211952Y-40101271D01*
X41295214Y-39999814D01*
X41396671Y-39916552D01*
X41432409Y-39887222D01*
X41588934Y-39803557D01*
X41758773Y-39752037D01*
X41824958Y-39745518D01*
X41891140Y-39739000D01*
X41979660Y-39739000D01*
X42045842Y-39745518D01*
X42045842Y-39745518D01*
G37*
G36*
X42045842Y-37205518D02*
G01*
X42112027Y-37212037D01*
X42281866Y-37263557D01*
X42438391Y-37347222D01*
X42474129Y-37376552D01*
X42575586Y-37459814D01*
X42658848Y-37561271D01*
X42688178Y-37597009D01*
X42771843Y-37753534D01*
X42823363Y-37923373D01*
X42840759Y-38100000D01*
X42823363Y-38276627D01*
X42771843Y-38446466D01*
X42688178Y-38602991D01*
X42658848Y-38638729D01*
X42575586Y-38740186D01*
X42474129Y-38823448D01*
X42438391Y-38852778D01*
X42281866Y-38936443D01*
X42112027Y-38987963D01*
X42045843Y-38994481D01*
X41979660Y-39001000D01*
X41891140Y-39001000D01*
X41824957Y-38994481D01*
X41758773Y-38987963D01*
X41588934Y-38936443D01*
X41432409Y-38852778D01*
X41396671Y-38823448D01*
X41295214Y-38740186D01*
X41211952Y-38638729D01*
X41182622Y-38602991D01*
X41098957Y-38446466D01*
X41047437Y-38276627D01*
X41030041Y-38100000D01*
X41047437Y-37923373D01*
X41098957Y-37753534D01*
X41182622Y-37597009D01*
X41211952Y-37561271D01*
X41295214Y-37459814D01*
X41396671Y-37376552D01*
X41432409Y-37347222D01*
X41588934Y-37263557D01*
X41758773Y-37212037D01*
X41824958Y-37205518D01*
X41891140Y-37199000D01*
X41979660Y-37199000D01*
X42045842Y-37205518D01*
X42045842Y-37205518D01*
G37*
M02*
