<?xml version="1.0" encoding="UTF-8" standalone="no"?>
<!-- Created with Inkscape (http://www.inkscape.org/) -->

<svg
   xmlns:dc="http://purl.org/dc/elements/1.1/"
   xmlns:cc="http://creativecommons.org/ns#"
   xmlns:rdf="http://www.w3.org/1999/02/22-rdf-syntax-ns#"
   xmlns:svg="http://www.w3.org/2000/svg"
   xmlns="http://www.w3.org/2000/svg"
   xmlns:sodipodi="http://sodipodi.sourceforge.net/DTD/sodipodi-0.dtd"
   xmlns:inkscape="http://www.inkscape.org/namespaces/inkscape"
   width="210mm"
   height="297mm"
   viewBox="0 0 210 297"
   version="1.1"
   id="svg8"
   inkscape:version="0.92.4 (5da689c313, 2019-01-14)"
   sodipodi:docname="backDrawing.svg">
  <defs
     id="defs2" />
  <sodipodi:namedview
     id="base"
     pagecolor="#ffffff"
     bordercolor="#666666"
     borderopacity="1.0"
     inkscape:pageopacity="0.0"
     inkscape:pageshadow="2"
     inkscape:zoom="2.2968386"
     inkscape:cx="126.93256"
     inkscape:cy="892.01598"
     inkscape:document-units="mm"
     inkscape:current-layer="layer1"
     showgrid="false"
     inkscape:window-width="1680"
     inkscape:window-height="987"
     inkscape:window-x="-8"
     inkscape:window-y="-8"
     inkscape:window-maximized="1" />
  <metadata
     id="metadata5">
    <rdf:RDF>
      <cc:Work
         rdf:about="">
        <dc:format>image/svg+xml</dc:format>
        <dc:type
           rdf:resource="http://purl.org/dc/dcmitype/StillImage" />
        <dc:title></dc:title>
      </cc:Work>
    </rdf:RDF>
  </metadata>
  <g
     inkscape:label="Layer 1"
     inkscape:groupmode="layer"
     id="layer1">
    <path
       style="fill:none;stroke:#000000;stroke-width:0.26458332px;stroke-linecap:butt;stroke-linejoin:miter;stroke-opacity:1"
       d="m 12.095238,21.077381 c 2.572129,-0.670264 1.118476,4.504809 1.511905,5.291666 0.159368,0.318738 0.596583,0.437216 0.755952,0.755954 0.112691,0.22538 0,0.503968 0,0.755952 0,0.251983 0,0.503967 0,0.755951 0,1.259922 0,2.519842 0,3.779764 0,4.283728 0,8.567459 0,12.851188"
       id="path4518"
       inkscape:connector-curvature="0" />
    <path
       style="fill:none;stroke:#000000;stroke-width:0.26458332px;stroke-linecap:butt;stroke-linejoin:miter;stroke-opacity:1"
       d="m 12.095238,21.077381 c -0.755952,2.519841 -1.751917,4.97982 -2.2678572,7.559523 -0.049418,0.247092 0.5039682,0 0.7559522,0 1.772843,0 -0.356359,0.178181 1.511905,-0.755951 0.225381,-0.112692 0.503968,0 0.755952,0 3.665519,0 -0.598713,-0.304398 3.02381,-1.511906 0.416776,-0.138925 2.862188,0.161623 3.023809,0 1.007937,-1.007936 -1.25992,-0.755952 0.755953,-0.755952 0.251984,0 0.503968,0 0.755952,0 0.251984,0 0.530571,0.112691 0.755952,0 0.318738,-0.159369 0.437215,-0.596584 0.755953,-0.755953 0.225381,-0.11269 0.530571,0.112691 0.755952,0 0.318738,-0.159368 1.091551,-0.636095 0.755953,-0.755952 C 19.750575,22.785494 15.875,22.085317 12.095238,21.077381"
       id="path4520"
       inkscape:connector-curvature="0" />
    <path
       style="fill:none;stroke:#000000;stroke-width:0.26458332px;stroke-linecap:butt;stroke-linejoin:miter;stroke-opacity:1"
       d="m 14.363095,45.267856 c 2.267857,-3.527777 4.416389,-7.13518 6.803571,-10.583334 0.143432,-0.207179 -0.178179,0.577774 0,0.755955 0.398422,0.39842 1.113483,0.357528 1.511905,0.755951 0.03042,0.03042 0,2.746195 0,3.023809 0,0.503968 0,1.007936 0,1.511906 0,0.503968 -0.159369,1.033799 0,1.511904 0.112691,0.338074 0.596584,0.437216 0.755953,0.755954 0.225381,0.450762 -0.225382,1.06114 0,1.511903 0.159368,0.318738 0.437214,0.596585 0.755952,0.755952 0.225381,0.112691 0.755952,-0.251984 0.755952,0 0,0.251983 -0.755952,0.251983 -0.755952,0 0,-0.796843 0.599678,-1.486488 0.755952,-2.267855 0.148255,-0.741273 -0.239053,-1.550699 0,-2.267858 1.007937,-3.023809 0.725382,0.152853 1.511905,-3.779763 0.197673,-0.988362 -0.197673,-2.035445 0,-3.023809 0.156273,-0.78137 0.562689,-1.494806 0.755952,-2.267858 0.0686,-0.274394 -0.0926,-2.175256 0,-2.267857 0.178181,-0.178179 0.755954,-0.251984 0.755954,0 0,0.251984 -0.755954,-0.251984 -0.755954,0 0,0.796845 0.562689,1.494806 0.755954,2.267857 0.177869,0.711486 -0.177872,1.556375 0,2.267858 0.136657,0.546632 0.57777,0.977365 0.755951,1.511906 0.15937,0.478104 0,1.007935 0,1.511903 0,1.007938 0,2.015874 0,3.023809 0,0.50397 0,1.007938 0,1.511906 0,0.251984 -0.178181,0.577773 0,0.755952 0.398423,0.398422 1.113484,0.357531 1.511904,0.755954 0.178181,0.178178 -0.112689,0.530569 0,0.755951 0.159369,0.318739 0.596585,0.437214 0.755954,0.755952 0.112689,0.225383 -0.112691,0.530572 0,0.755952 0.251984,0.50397 1.375246,1.302583 1.511903,0.755954 0.195988,-0.783953 -0.146989,-4.262731 0,-5.291667 0.146931,-1.028515 0.627087,-1.992876 0.755954,-3.023809 0.125019,-1.000154 0,-2.015873 0,-3.023812 0,-0.755951 -0.148256,-1.526585 0,-2.267854 0.110501,-0.552514 0.619295,-0.965277 0.755952,-1.511906 0.12223,-0.488921 -0.159369,-1.033799 0,-1.511906 0.112691,-0.338072 0.64326,-0.41788 0.755952,-0.755952 0.478107,-0.678365 -0.239054,-1.550696 0,-2.267857 0.178181,-0.534539 0.577773,-0.977365 0.755951,-1.511905 0.07968,-0.239052 0,-0.503968 0,-0.755952 0,-0.503968 0,-1.007936 0,-1.511905 0.151944,2.169812 4.041535,3.576712 4.535716,6.04762 0.148255,0.741272 0,1.511905 0,2.267857 0,0.755952 0,1.511905 0,2.267857 0,3.275794 0,6.551587 0,9.827381 0,2.267857 0,4.535714 0,6.803571 0,1.007937 0,2.015873 0,3.02381 0,0.251984 0.251984,0.755952 0,0.755952 -0.251984,0 0,-0.503968 0,-0.755952 0,-1.511905 0,-3.02381 0,-4.535714 0,-3.02381 0,-6.047619 0,-9.071429 0,-1.007936 -0.111308,-2.022038 0,-3.023809 0.141891,-1.277014 0.596584,-2.504812 0.755953,-3.779762 0.05194,-0.415542 -0.160769,-4.97013 0,-5.291667 0.11269,-0.225381 0.643261,0.225381 0.755952,0 0.160646,-0.321291 0,-3.146273 0,-3.779762 0,-0.251984 -0.17818,-0.577773 0,-0.755952 0.17818,-0.17818 0.577773,0.178179 0.755952,0 0.17818,-0.17818 -0.178179,-0.577773 0,-0.755953 0.17818,-0.178179 0.503969,0 0.755953,0 0.251984,0 0.530571,-0.11269 0.755952,0 0.318738,0.159369 0.437215,0.596584 0.755952,0.755953 0.225382,0.11269 0.577773,-0.17818 0.755953,0 0.17818,0.178179 -0.17818,0.577772 0,0.755952 0.463077,0.463077 1.978407,0.643555 2.267857,1.511905 0.159369,0.478106 0,1.007936 0,1.511905 0,1.763889 0,3.527777 0,5.291666 0,0.251984 0,0.503969 0,0.755953 0,0.251984 0.17818,0.577772 0,0.755952 -0.17818,0.17818 -0.530571,-0.112691 -0.755952,0 -0.318738,0.159369 -0.437215,0.596584 -0.755953,0.755952 -0.604762,0.302381 -1.663095,-0.302381 -2.267857,0 -0.318737,0.159369 -0.437215,0.596584 -0.755952,0.755953 -0.450763,0.225381 -1.033799,-0.159369 -1.511905,0 -0.534539,0.178179 -0.977366,0.577773 -1.511905,0.755952 -0.239053,0.07969 -0.577773,-0.178179 -0.755952,0 -0.17818,0.17818 -0.17818,0.577773 0,0.755953 0.356359,0.356359 1.155545,-0.35636 1.511905,0 0.178179,0.178179 -0.17818,0.577772 0,0.755952 7.21e-4,7.21e-4 2.26443,-0.0011 2.267857,0 0.676144,0.225381 0.874429,1.193167 1.511904,1.511905 0.225382,0.11269 0.530571,-0.112691 0.755953,0 0.318737,0.159368 0.437215,0.596583 0.755952,0.755952 0.450763,0.225382 1.061142,-0.225381 1.511905,0 0.318738,0.159369 0.437215,0.596584 0.755952,0.755952 0.225382,0.112691 0.577773,-0.178179 0.755953,0 0.398422,0.398422 0.443404,1.043083 0.755952,1.511905 0.197673,0.296509 0.596584,0.437215 0.755953,0.755953 0.225381,0.450763 -0.35636,1.155545 0,1.511904 0.178179,0.17818 0.577772,-0.178179 0.755952,0 0.356359,0.35636 -0.356359,1.155546 0,1.511905 0.17818,0.17818 0.503968,0 0.755952,0 0.251984,0 0.503969,0 0.755953,0"
       id="path4522"
       inkscape:connector-curvature="0" />
    <path
       style="fill:none;stroke:#000000;stroke-width:0.26458332px;stroke-linecap:butt;stroke-linejoin:miter;stroke-opacity:1"
       d="m 20.60808,49.132855 c 0.0896,0.265149 -0.0384,0.545761 0,0.814548 0.02557,0.178988 0.104887,0.396116 0.162909,0.570183 0.09333,0.279995 0.174429,0.51149 0.244365,0.814549 0.09314,0.403592 0.05835,0.512625 0.16291,0.896003 0.302206,1.108091 0.05353,-0.01241 0.244365,0.814549 0.05629,0.243917 0.08929,0.49384 0.162909,0.733094 0.03571,0.116057 0.130961,0.208672 0.16291,0.325819 0.05052,0.185227 0.03828,0.383111 0.08146,0.570185 0.03861,0.167325 0.112408,0.324601 0.16291,0.48873 0.05813,0.188926 0.118462,0.377579 0.162909,0.570183 0.03714,0.160927 0.05191,0.326236 0.08145,0.48873 0.02477,0.136213 0.0587,0.270711 0.08146,0.407273 0.03156,0.189378 0.03828,0.383111 0.08145,0.570185 0.03861,0.167323 0.132191,0.319776 0.162909,0.488728 0.02429,0.133569 -0.01351,0.27219 0,0.407276 0.01378,0.137758 0.06617,0.269674 0.08146,0.407273 0.01199,0.107942 -0.01536,0.218305 0,0.325821 0.03387,0.237114 0.123376,0.287081 0.244365,0.488728 0.03124,0.05206 0.06673,0.10401 0.08146,0.162909 0.02109,0.08438 0,0.232418 0,0.325821"
       id="path4524"
       inkscape:connector-curvature="0" />
    <path
       style="fill:none;stroke:#000000;stroke-width:0.26458332px;stroke-linecap:butt;stroke-linejoin:miter;stroke-opacity:1"
       d="m 15.069149,52.961232 c 0.255192,5.3e-4 0.484701,-0.13186 0.733094,-0.162909 0.107768,-0.01347 0.219799,0.02355 0.325819,0 1.354732,-0.301051 -0.766057,-0.03523 0.977459,-0.325818 0.133911,-0.02233 0.272073,0.01228 0.407274,0 0.164479,-0.01495 0.323992,-0.06969 0.488729,-0.08146 0.216661,-0.01548 0.434426,0 0.651639,0 0.380123,0 0.760246,0 1.140368,0 1.384733,0 2.769465,0 4.154198,0 0.543032,0 1.086065,0 1.629097,0 0.190062,0 0.382033,0.02688 0.570184,0 0.304502,0.05264 0.533928,-0.204274 0.81455,-0.244363 0.107513,-0.01537 0.218689,0.01786 0.325818,0 0.561584,-0.0936 -0.06524,-0.08145 0.244364,-0.08145"
       id="path4526"
       inkscape:connector-curvature="0" />
    <path
       style="fill:none;stroke:#000000;stroke-width:0.26458332px;stroke-linecap:butt;stroke-linejoin:miter;stroke-opacity:1"
       d="m 26.14701,52.391045 c 0.02715,0.597336 0.03377,1.195961 0.08145,1.792009 0.0068,0.08559 0.05787,0.161809 0.08146,0.244367 0.03075,0.10764 0.06757,0.214733 0.08145,0.325818 0.01347,0.107768 -0.01199,0.217877 0,0.325819 0.03812,0.343067 0.160642,0.642567 0.244364,0.977458 0.138305,0.55322 0.0176,0.342522 0.244366,0.977461 0.06955,0.194733 0.187555,0.371358 0.244364,0.570182 0.05274,0.184605 0.04123,0.382455 0.08145,0.570185 0.150082,0.700387 0.183353,0.49408 0.407273,1.221822 0.08847,0.287536 0.05996,0.45855 0.162912,0.733094 0.06395,0.170543 0.162909,0.325819 0.244364,0.488731 0.02715,0.0543 0.06226,0.105312 0.08145,0.162909 0.01622,0.04868 -0.04215,0.162909 0.08146,0.162909 0.02715,0 0,-0.0543 0,-0.08145 0,-0.08145 0,-0.162909 0,-0.244364"
       id="path4528"
       inkscape:connector-curvature="0" />
    <path
       style="fill:none;stroke:#000000;stroke-width:0.26458332px;stroke-linecap:butt;stroke-linejoin:miter;stroke-opacity:1"
       d="m 26.14701,52.391045 c 0.298668,0.298669 0.573565,0.623173 0.896005,0.896006 0.04145,0.03508 0.108606,0 0.162909,0 0.60193,0 -0.308621,0.02429 0.325818,-0.08145 0.10713,-0.01786 0.217215,0 0.325821,0 0.135758,-0.0543 0.264539,-0.131191 0.407274,-0.162909 0.106021,-0.02355 0.218051,0.01347 0.325818,0 0.111085,-0.01389 0.214736,-0.06757 0.325821,-0.08145 0.107768,-0.01347 0.217877,0.01199 0.325819,0 0.137599,-0.01529 0.269674,-0.06617 0.407275,-0.08145 0.107943,-0.01199 0.217213,0 0.325819,0 0.244364,0 0.48873,0 0.733094,0 0.190061,0 0.380122,0 0.570183,0 0.08145,0 0.167089,-0.02577 0.244366,0 0.09287,0.03096 0.16709,0.102806 0.244364,0.162909 0.455041,0.353923 0.448641,0.367186 0.814549,0.733094 0.280683,0.280684 0.670496,0.476287 0.896003,0.814549 0.0621,0.09315 0.03139,0.22569 0.08146,0.325819 0.06071,0.121425 0.189227,0.201763 0.244364,0.325821 0.101666,0.228748 0.0643,0.503007 0.162909,0.733091 0.03856,0.08998 0.141674,0.148799 0.162912,0.244367 0.03534,0.15903 0,0.325818 0,0.488728 0,0.108606 0,0.217212 0,0.325821 0,0.108606 0,0.217212 0,0.325818 0,0.08145 0.02238,0.166045 0,0.244364 -0.03689,0.12912 -0.357061,0.662795 -0.407276,0.733094 -0.04464,0.06249 -0.114935,0.102942 -0.162909,0.16291 -0.06116,0.07645 -0.09369,0.175141 -0.162909,0.244364 -0.096,0.096 -0.21535,0.165457 -0.325821,0.244366 -0.230315,0.16451 -0.464902,0.304123 -0.733092,0.407273 -0.184491,0.07096 -0.380855,0.106111 -0.570185,0.162909 -0.08224,0.02469 -0.161068,0.06063 -0.244364,0.08145 -0.671878,0.167971 -0.14777,-0.0043 -0.733094,0.162912 -0.165116,0.04718 -0.322136,0.121261 -0.488731,0.162909 -0.02633,0.0066 -0.0543,0 -0.08145,0 -0.121238,0 -0.103968,-0.01214 -0.244364,0.08145 -0.03195,0.0213 -0.04711,0.06428 -0.08145,0.08145 -0.02429,0.01214 -0.0543,0 -0.08145,0 -0.02715,0 -0.0543,0 -0.08146,0 -0.07892,0 -0.440161,-0.01619 -0.48873,0 -0.0576,0.01921 -0.105312,0.06226 -0.16291,0.08145 -0.06556,0.02186 -0.273767,-0.02604 -0.325818,0 -0.03435,0.01717 -0.04711,0.06428 -0.08146,0.08145 -0.02429,0.01214 -0.05717,-0.01214 -0.08146,0 -0.03434,0.01717 -0.04711,0.06428 -0.08146,0.08145 -0.06516,0.03258 -0.179199,-0.03258 -0.244363,0 -0.03434,0.01717 -0.04711,0.06428 -0.08145,0.08145 -0.02429,0.01214 -0.08146,-0.02715 -0.08146,0 -2e-6,0.06071 0.0543,0.108611 0.08144,0.162915"
       id="path4530"
       inkscape:connector-curvature="0" />
    <path
       style="fill:none;stroke:#000000;stroke-width:0.26458332px;stroke-linecap:butt;stroke-linejoin:miter;stroke-opacity:1"
       d="m 36.491777,53.775781 c 0.08702,0.217554 0.217385,0.490265 0.244364,0.733095 0.015,0.134926 -0.01228,0.272073 0,0.407273 0.05024,0.552651 0.112334,0.48678 0.244367,1.058912 0.182287,0.789919 0.01691,0.186071 0.08145,0.896004 0.01495,0.164481 0.0543,0.325821 0.08145,0.48873 0.02715,0.217213 0.06466,0.43338 0.08145,0.65164 0.0155,0.201697 -0.02172,0.825407 0,0.977458 0.02795,0.195681 0.130413,0.375206 0.162909,0.570182 0.02233,0.133911 0,0.271519 0,0.407276 0,0.217213 0,0.434425 0,0.65164 0,0.108606 0,0.217212 0,0.325818 0,0.02715 0,0.0543 0,0.08145 0,0.02715 0.02715,0.08145 0,0.08145 -0.02715,0 0,-0.0543 0,-0.08145 0,-0.162909 -0.02304,-0.327456 0,-0.48873 0.01214,-0.085 0.06931,-0.159367 0.08146,-0.244364 0.01537,-0.107514 -0.0108,-0.217752 0,-0.325819 0.01643,-0.164338 0.0581,-0.325234 0.08145,-0.48873 0.337235,-2.360644 -0.222163,0.970108 0.325821,-1.221822 0.05963,-0.238527 0.01566,-0.496194 0.08145,-0.733094 0.07157,-0.257657 0.241255,-0.479404 0.325818,-0.733095 0.07916,-0.237479 0.105577,-0.489421 0.16291,-0.733094 0.05128,-0.217945 0.108606,-0.434425 0.162909,-0.651637 0.05431,-0.217212 0.09974,-0.43684 0.162912,-0.65164 0.07268,-0.247115 0.168611,-0.486902 0.244364,-0.733094 0.06584,-0.213997 0.09211,-0.439229 0.162909,-0.651637 0.01921,-0.0576 0.0543,-0.108609 0.08145,-0.162912 0.02715,-0.0543 0.04778,-0.112392 0.08145,-0.162909 0.0213,-0.03195 0.04711,-0.09863 0.08145,-0.08145 0.103034,0.05152 0.169397,0.156904 0.244366,0.244364 0.08835,0.103077 0.16291,0.217215 0.244364,0.325821 0.08145,0.108607 0.166513,0.214601 0.244364,0.325819 0.112281,0.160401 0.208344,0.332094 0.325821,0.48873 0.127236,0.169649 0.289642,0.312283 0.407273,0.488728 0.101031,0.151548 0.152591,0.331401 0.244364,0.48873 0.09866,0.169122 0.227166,0.319607 0.325821,0.488728 0.107268,0.183891 0.339268,0.669322 0.407273,0.896004 0.03978,0.132609 0.04788,0.272962 0.08145,0.407275 0.04794,0.191765 0.124145,0.376354 0.162909,0.570183 0.01598,0.07988 -0.02238,0.166044 0,0.244366 0.03336,0.116753 0.113597,0.214858 0.16291,0.325819 0.0079,0.01767 0.226454,0.544163 0.244366,0.651639 0.09422,0.565344 -0.149254,-0.121943 0.08145,0.570183 0.0384,0.115194 0.139096,0.206753 0.162909,0.325821 0,0.08146 0,0.162909 0,0.244364 0.02715,0.02715 0.06931,0.04503 0.08145,0.08145 0.01717,0.05152 -0.02429,0.11434 0,0.16291 0.03435,0.06869 0.120311,0.09901 0.162909,0.162909 0.01505,0.0226 0,0.0543 0,0.08146 0.02715,0.0543 0.03853,0.11998 0.08145,0.162912 0.01921,0.01921 0,-0.0543 0,-0.08145 0,-0.13576 -0.02662,-0.274153 0,-0.407276 0.0556,-0.277966 0.192125,-0.535932 0.244367,-0.814549 0.242289,-1.292214 -0.37251,0.465884 0.162909,-1.140367 0.06539,-0.19617 0.183552,-0.372547 0.244364,-0.570185 0.355092,-1.154052 -0.252526,0.233002 0.244364,-1.058913 0.06538,-0.169997 0.162912,-0.325818 0.244366,-0.488728 0.135758,-0.271518 0.263353,-0.547269 0.407274,-0.814549 0.103782,-0.192738 0.227922,-0.37439 0.325818,-0.570185 0.09248,-0.184949 0.157713,-0.382436 0.244367,-0.570185 0.07633,-0.165372 0.182118,-0.317555 0.244363,-0.488727 0.227793,-0.626433 -0.150735,-0.279945 0.407274,-0.977458 0.08481,-0.106011 0.246911,-0.133895 0.325821,-0.244364 0.06507,-0.0911 0.04605,-0.219618 0.08145,-0.325821 0.07886,-0.236599 0.08524,-0.113655 0.244364,-0.325819 0.03643,-0.04857 0.06226,-0.105312 0.08145,-0.162909 0.0086,-0.02577 -0.01921,-0.06226 0,-0.08145 0.01921,-0.01921 0.0543,0 0.08145,0 0.02715,0 0.06639,-0.0226 0.08145,0 0.04763,0.07144 0.04957,0.164642 0.08146,0.244364 0.05979,0.149487 0.288359,0.697812 0.407273,0.896004 0.100735,0.167891 0.244801,0.310485 0.325819,0.488727 0.05729,0.126037 0.02821,0.27948 0.08146,0.407276 0.08419,0.202065 0.23959,0.36898 0.325821,0.570182 0.07786,0.181687 0.09195,0.385694 0.162909,0.570185 0.214021,0.428043 0.253571,0.473321 0.407273,0.896004 0.08492,0.233534 0.277458,0.83322 0.325821,1.058913 0.04023,0.18773 0.025,0.386683 0.08145,0.570185 0.05356,0.174082 0.2062,0.310634 0.244364,0.488727 0.04551,0.212392 -0.03072,0.436611 0,0.65164 0.04857,0.339992 0.269359,0.638688 0.325818,0.977458 0.02678,0.160695 -0.02914,0.328449 0,0.488731 0.02617,0.143856 0.127447,0.265422 0.162912,0.407273 0.03951,0.158046 -0.02678,0.328035 0,0.48873 0.102873,0.617241 0.01659,0.03319 0.162909,0.325819 0.01215,0.02429 0,0.0543 0,0.08145 0,0.02715 0,0.0543 0,0.08145"
       id="path4532"
       inkscape:connector-curvature="0" />
    <path
       style="fill:none;stroke:#000000;stroke-width:0.26458332px;stroke-linecap:butt;stroke-linejoin:miter;stroke-opacity:1"
       d="m 4.154198,28.524774 c 0.135758,0 0.2755696,0.03293 0.4072742,0 0.094974,-0.02373 0.1534699,-0.12655 0.2443646,-0.162909 0.050419,-0.02016 0.1093454,0.0089 0.1629098,0 0.1104257,-0.01842 0.2147348,-0.06757 0.3258193,-0.08146 0.107768,-0.01347 0.2216261,0.03064 0.3258196,0 0.3628112,-0.106709 0.6985373,-0.292611 1.058913,-0.407276 0.2410325,-0.07669 1.4428777,-0.30254 1.6290972,-0.325818 0.3512802,-0.04391 0.7057991,-0.05623 1.0589133,-0.08145 0.4071411,-0.02908 0.818538,-0.01844 1.221823,-0.08146 2.045385,-0.31959 0.730642,-0.372948 2.85092,-0.570185 0.676413,-0.06292 1.361016,-0.008 2.036372,-0.08145 0.577036,-0.06272 1.132611,-0.272058 1.710552,-0.325819 0.594767,-0.05533 1.19526,0.02652 1.792007,0 0.979879,-0.04355 1.952253,-0.206668 2.932375,-0.244365 0.35271,-0.01356 0.705942,0 1.058913,0 0.325819,0 0.651639,0 0.977458,0 0.298668,0 0.598818,0.02972 0.896004,0 0.249083,-0.02491 0.486174,-0.121756 0.733093,-0.162909 0.242523,-0.04042 0.490085,-0.04407 0.733094,-0.08145 0.110647,-0.01702 0.214736,-0.06757 0.325819,-0.08146 0.107767,-0.01347 0.219323,0.0213 0.325821,0 0.03765,-0.0075 0.0442,-0.07214 0.08146,-0.08145 0.07902,-0.01976 0.162909,0 0.244363,0 0.02715,0 0.05717,0.01214 0.08145,0 0.03435,-0.01717 0.04711,-0.06428 0.08146,-0.08146 0.02429,-0.01214 0.0543,0 0.08145,0 0.02715,0 0.0543,0 0.08145,0"
       id="path4534"
       inkscape:connector-curvature="0" />
    <path
       style="fill:none;stroke:#000000;stroke-width:0.26458332px;stroke-linecap:butt;stroke-linejoin:miter;stroke-opacity:1"
       d="m 9.937493,30.153872 c 0.027152,-0.135758 -0.00971,-0.303083 0.081455,-0.407274 0.119939,-0.137075 0.318188,-0.180411 0.488729,-0.244366 0.642194,-0.240821 1.12486,-0.294143 1.792007,-0.488728 0.329706,-0.09617 0.646734,-0.233217 0.977458,-0.325821 0.348832,-0.09767 0.711591,-0.141454 1.058914,-0.244364 0.387007,-0.114668 0.750609,-0.302339 1.140368,-0.407273 0.318956,-0.08587 0.656366,-0.0854 0.977458,-0.162912 0.467696,-0.11289 0.918867,-0.287049 1.384733,-0.407273 0.376419,-0.09714 0.764982,-0.143298 1.140368,-0.244364 0.331635,-0.08929 0.642193,-0.251317 0.977458,-0.325821 0.401094,-0.08913 0.815722,-0.100431 1.221823,-0.162909 0.300034,-0.04616 0.595223,-0.121894 0.896003,-0.162909 0.29715,-0.04052 0.599774,-0.03468 0.896004,-0.08145 0.221158,-0.03492 0.432089,-0.119 0.651639,-0.16291 0.188262,-0.03765 0.382765,-0.03981 0.570184,-0.08146 0.05927,-0.01317 0.104009,-0.06673 0.162909,-0.08145 0.05268,-0.01317 0.111393,0.01717 0.16291,0 0.359559,-0.119853 -0.295939,-0.08146 0.244365,-0.08146"
       id="path4536"
       inkscape:connector-curvature="0" />
    <path
       style="fill:none;stroke:#000000;stroke-width:0.26458332px;stroke-linecap:butt;stroke-linejoin:miter;stroke-opacity:1"
       d="m 20.60808,34.063704 c 0.08145,0.162909 0.18212,0.317558 0.244364,0.48873 0.192816,0.22215 0.01081,0.497594 0.08146,0.733095 0.05234,0.174455 0.172617,0.321315 0.244365,0.488727 0.09138,0.213228 0.16634,0.433171 0.244365,0.65164 0.05776,0.161719 0.09095,0.332812 0.162909,0.488728 0.09173,0.198758 0.234086,0.37143 0.32582,0.570185 0.07196,0.155916 0.09095,0.332814 0.162909,0.48873 0.09173,0.198755 0.247238,0.365871 0.32582,0.570183 0.05929,0.154149 0.01225,0.338775 0.08146,0.48873 0.09788,0.212069 0.30282,0.361275 0.407274,0.570182 0.0884,0.1768 0.108606,0.380125 0.16291,0.570185 0.108606,0.244364 0.199978,0.497142 0.325819,0.733095 0.09214,0.172757 0.238258,0.313605 0.32582,0.488727 0.0768,0.153594 0.09185,0.332402 0.162909,0.488731 0.520381,1.144836 1.28e-4,-0.305104 0.407275,0.814549 0.117019,0.321804 0.217441,0.652322 0.325819,0.977458 0.0543,0.162909 0.102614,0.32794 0.16291,0.488728 0.02132,0.05685 0.06955,0.103378 0.08146,0.162911 0.01598,0.07987 0,0.16291 0,0.244364 0,0.02715 -0.01214,0.05717 0,0.08145 0.01717,0.03435 0.06428,0.04711 0.08145,0.08146 0.0124,0.02479 0,0.207682 0,0.244363 0,0.02715 0.02715,0.08145 0,0.08145 -0.02715,0 0,-0.0543 0,-0.08145 0,-0.108606 0.02356,-0.219797 0,-0.325818 -0.03172,-0.142735 -0.131191,-0.264541 -0.162909,-0.407276 -0.03534,-0.159028 0,-0.325818 0,-0.488728 0,-0.407273 0,-0.814548 0,-1.221822 0,-0.407275 0,-0.814548 0,-1.221824 0,-0.217213 -0.01205,-0.434761 0,-0.651637 0.01514,-0.272452 0.06783,-0.54202 0.08146,-0.814549 0.101844,-2.036895 -0.137073,0.474726 0.08145,-1.710552 0.02447,-0.24465 0.02182,-0.494568 0.08145,-0.733095 0.05015,-0.200607 0.203812,-0.367419 0.244365,-0.570185 0.0426,-0.212995 -0.02694,-0.436102 0,-0.651637 0.02777,-0.22217 0.112564,-0.433475 0.16291,-0.651639 0.03113,-0.134901 0.03284,-0.277644 0.08145,-0.407276 0.03437,-0.09166 0.131953,-0.15149 0.16291,-0.244364 0.05223,-0.156681 0.06322,-0.324583 0.08146,-0.488728 0.009,-0.08096 -0.03209,-0.169497 0,-0.244366 0.05348,-0.12478 0.183652,-0.204394 0.244365,-0.325819 0.283318,-0.566637 -0.01008,-0.12261 0.08146,-0.48873 0.04929,-0.197162 0.122651,-0.163534 0.244364,-0.325819 0.151101,-0.201467 0.01181,-0.28726 0.16291,-0.488727 0.04608,-0.06144 0.138625,-0.09006 0.162909,-0.162912 0.03434,-0.103032 -0.02355,-0.219798 0,-0.325819 0.05366,-0.241456 0.2257,-0.507825 0.325821,-0.733094 0.05938,-0.133612 0.0919,-0.279458 0.162909,-0.407273 0.06593,-0.118674 0.193945,-0.199771 0.244364,-0.325821 0.02625,-0.06561 0.15897,-1.037244 0.162909,-1.058913 0.04422,-0.243184 0.150982,-0.581089 0.244367,-0.814549 0.02254,-0.05637 0.06673,-0.104008 0.08145,-0.162909 0,-0.370806 -0.0384,-0.0047 0.08146,-0.244364 0.01214,-0.02429 0,-0.108606 0,-0.08145 0,0.446937 -0.0089,-0.252185 0.08145,0.65164 0.07313,0.73129 -0.144635,-0.159081 0.08145,0.896003 0.04142,0.193279 0.130413,0.375206 0.16291,0.570183 0.02233,0.133911 -0.0104,0.271917 0,0.407276 0.03358,0.436514 0.108606,0.868852 0.162909,1.303276 0.02715,0.217213 0.03636,0.437431 0.08145,0.65164 0.06378,0.302935 0.188987,0.59142 0.244367,0.896003 0.05365,0.295061 0.04834,0.597938 0.08145,0.896004 0.05931,0.533786 0.133141,0.737679 0.162909,1.303276 0.01426,0.271143 0,0.543034 0,0.814549 0,0.16291 -0.01902,0.326935 0,0.488731 0.03547,0.301485 0.134128,0.593804 0.162909,0.896003 0.02574,0.270293 0,0.543031 0,0.814547 0,0.244366 0,0.48873 0,0.733094 0,0.135757 -0.0123,0.272073 0,0.407276 0.01495,0.164478 0.06879,0.324059 0.08145,0.488727 0.01458,0.189503 -0.01577,0.380781 0,0.570185 0.01151,0.137967 0.05669,0.271061 0.08145,0.407273 0.02955,0.162494 0.04432,0.327803 0.08146,0.488731 0.04445,0.192603 0.130413,0.375205 0.162912,0.570185 0.02233,0.133911 -0.0123,0.272074 0,0.407273 0.108236,1.190606 0.08145,-0.210249 0.08145,0.977458 0,0.856078 -0.02635,-0.210727 0.08145,0.65164 0.01347,0.107767 -0.02984,0.22139 0,0.325818 0.32562,0.488432 0.06512,-2.14e-4 0.162909,0.488731 0.01191,0.05953 0.06673,0.104007 0.08145,0.162909 0.01511,0.06046 -0.025,0.300818 0,0.325818 0.01921,0.01921 0.06226,0.01921 0.08146,0 0.268634,-0.268631 0.12301,-0.33869 0.244363,-0.733094 0.237668,-0.772419 0.240713,-0.337143 0.407276,-1.058913 0.04317,-0.187073 0.01688,-0.389376 0.08145,-0.570182 0.07362,-0.206153 0.222805,-0.377034 0.325818,-0.570185 0.114284,-0.214281 0.240549,-0.424249 0.325821,-0.65164 0.152252,-0.406011 0.215228,-1.068062 0.325819,-1.466186 0.06209,-0.22352 0.171005,-0.431561 0.244364,-0.651639 0.524499,-1.573498 -0.0071,-0.05431 0.407276,-1.629098 0.06555,-0.249103 0.162909,-0.488728 0.244363,-0.733094 0.08145,-0.244364 0.158637,-0.490194 0.244364,-0.733092 0.07721,-0.21876 0.17517,-0.430218 0.244364,-0.651639 0.494694,-1.583018 -0.113326,0.208944 0.244367,-1.221825 0.06247,-0.249891 0.167534,-0.487236 0.244364,-0.733092 0.117916,-0.377338 0.217212,-0.760246 0.325818,-1.14037 0.0543,-0.190061 0.121494,-0.376904 0.162912,-0.570182 0.04023,-0.18773 0.02074,-0.388046 0.08145,-0.570185 0.05006,-0.150196 0.194299,-0.25708 0.244363,-0.407273 0.06071,-0.182139 0.02871,-0.38558 0.08145,-0.570185 0.05681,-0.198824 0.183552,-0.372547 0.244364,-0.570185 0.06076,-0.197469 0.0679,-0.600779 0.162909,-0.814547 0.0643,-0.144676 0.202708,-0.254534 0.244367,-0.407275 0.04286,-0.157171 -0.01799,-0.326816 0,-0.488728 0.0095,-0.08534 0.06734,-0.159673 0.08145,-0.244367 0.01339,-0.08035 -0.01339,-0.164017 0,-0.244363 0.01413,-0.08469 0.0543,-0.16291 0.08145,-0.244364 0.0543,-0.16291 0.102613,-0.327941 0.162909,-0.488731 0.02133,-0.05684 0.06955,-0.103375 0.08145,-0.162909 0.01598,-0.07987 -0.01151,-0.163729 0,-0.244364 0.01582,-0.110823 0.0595,-0.216045 0.08145,-0.325821 0.0362,-0.181009 -0.108606,0 0,-0.325818 0.177972,-0.533912 0.16291,-0.07243 0.16291,-0.32582 0,-0.232644 -0.02864,-0.431447 0.08146,-0.651639 0.01717,-0.03434 0.06428,-0.04711 0.08145,-0.08146 0.02558,-0.0512 -0.02561,-0.274623 0,-0.325819 0.01214,-0.02429 0.0543,0 0.08145,0 0.02715,-0.0543 0.06225,-0.105312 0.08145,-0.16291 0.01717,-0.05152 -0.01717,-0.111393 0,-0.162909 0.19667,-0.590012 -0.0235,0.128422 0.162909,-0.244365 0.02429,-0.04857 -0.0384,-0.124512 0,-0.16291 0.01921,-0.0192 0.06226,0.0192 0.08145,0 7.6e-5,-7.8e-5 -1.22e-4,-0.243995 0,-0.244364 0.01214,-0.03643 0.06016,-0.04951 0.08145,-0.08146 0.172003,-0.258002 0.01392,-0.20463 0.08145,-0.407275 0.01214,-0.03643 0.06428,-0.04711 0.08146,-0.08145 0.01214,-0.02429 -0.01215,-0.05717 0,-0.08145 0.01717,-0.03435 0.110577,-0.05643 0.08145,-0.08146 -0.378288,-0.325094 -0.804254,-0.590192 -1.206381,-0.885288"
       id="path4538"
       inkscape:connector-curvature="0" />
    <path
       style="fill:none;stroke:#000000;stroke-width:0.26458332px;stroke-linecap:butt;stroke-linejoin:miter;stroke-opacity:1"
       d="m 39.587064,22.904389 c 0.08145,0.108606 0.178432,0.207145 0.244364,0.325819 0.260675,0.469215 0.306731,1.113442 0.488727,1.629098 0.758016,1.895032 -0.01236,-0.137252 0.488731,1.466187 0.06919,0.221422 0.19404,0.425181 0.244364,0.65164 0.0592,0.266372 0.01826,0.549098 0.08145,0.814547 0.07361,0.30916 0.252212,0.586845 0.325821,0.896003 0.01638,0.06874 0.161081,1.690452 0.16291,1.710552 0.02715,0.29867 0.06648,0.59648 0.08145,0.896004 0.0122,0.24406 0,0.48873 0,0.733094 0,0.868852 0,1.737704 0,2.606556 0,2.796617 0,5.593233 0,8.38985 0,2.14498 0,4.289957 0,6.434934 0,0.434427 0,0.868852 0,1.303279 0,0.143373 0.06737,0.16291 -0.08145,0.16291"
       id="path4540"
       inkscape:connector-curvature="0" />
    <path
       style="fill:none;stroke:#000000;stroke-width:0.26458332px;stroke-linecap:butt;stroke-linejoin:miter;stroke-opacity:1"
       d="m 41.297613,24.126212 c 0.534435,-0.334021 0.688044,-0.441941 1.221825,-0.733094 0.106598,-0.05814 0.222851,-0.09855 0.325819,-0.16291 0.115122,-0.07195 0.207144,-0.178434 0.325818,-0.244364 0.127818,-0.07101 0.276495,-0.09752 0.407276,-0.16291 0.195791,-0.0979 0.374391,-0.227923 0.570185,-0.325819 0.27015,-0.135076 0.685376,-0.285575 0.977458,-0.407275 0.190873,-0.07953 0.371359,-0.187557 0.570182,-0.244364 0.184605,-0.05274 0.380807,-0.04989 0.570185,-0.08146 0.845315,-0.140886 -0.05853,-0.0057 0.896004,-0.244365 0.300749,-0.07519 0.595254,-0.08772 0.896003,-0.162909 0.225058,-0.05626 0.426583,-0.188101 0.65164,-0.244365 0.07902,-0.01976 0.163727,0.01152 0.244364,0 0.708475,-0.101211 -0.0071,-0.08146 0.570182,-0.08146 0.05431,0 0.110228,-0.01317 0.162912,0 0.0589,0.01472 0.105312,0.06226 0.162909,0.08146 0.106204,0.0354 0.230886,0.02212 0.325819,0.08145 0.130246,0.0814 0.217212,0.217213 0.325821,0.325819 0.519221,0.519224 0.308494,0.242644 0.651637,0.814549 0.08145,0.135758 0.162909,0.271516 0.244367,0.407274 0.08145,0.135758 0.185565,0.260278 0.244363,0.407275 0.146257,0.365641 0.04402,0.440188 0.08146,0.814548 0.01378,0.13776 0.06617,0.269675 0.08145,0.407274 0.01198,0.107943 0,0.217213 0,0.32582 0,0.217213 0,0.434426 0,0.651639 0,0.135758 0,0.271516 0,0.407274 0,0.08145 0.01011,0.163539 0,0.244365 -0.04954,0.396271 -0.159076,0.720462 -0.407273,1.058914 -0.158952,0.216749 -0.387872,0.372676 -0.570185,0.570182 -0.143839,0.155824 -0.27626,0.321982 -0.407276,0.488731 -0.167749,0.213497 -0.296738,0.459647 -0.488728,0.651637 -0.245869,0.245869 -0.554667,0.420634 -0.814549,0.651639 -0.229592,0.204084 -0.441542,0.427535 -0.65164,0.65164 -0.197402,0.210563 -0.35297,0.461576 -0.570182,0.65164 -1.928294,1.687255 0.118126,-0.347142 -1.14037,0.814548 -0.225719,0.208357 -0.425916,0.443281 -0.651637,0.651637 -0.127751,0.117923 -0.277333,0.210318 -0.407276,0.325822 -0.114794,0.102039 -0.217212,0.217212 -0.325818,0.325818 -0.135758,0.108606 -0.275275,0.212675 -0.407276,0.325819 -0.05831,0.04998 -0.1046,0.112932 -0.162909,0.162909 -0.132001,0.113144 -0.28434,0.202888 -0.407273,0.325821 -0.096,0.096 -0.135758,0.244364 -0.244364,0.325818 -0.116975,0.08773 -0.288295,0.07793 -0.407276,0.16291 -0.07966,0.0569 -0.0877,0.181694 -0.162909,0.244366 -0.09328,0.07774 -0.224788,0.09556 -0.325819,0.162909 -0.0639,0.0426 -0.09901,0.120312 -0.162912,0.16291 -0.101031,0.06735 -0.217212,0.108606 -0.325818,0.162909 -0.108606,0.0543 -0.214212,0.115078 -0.325819,0.162909 -0.07892,0.03383 -0.17074,0.03728 -0.244366,0.08145 -0.06585,0.03951 -0.10147,0.116832 -0.162909,0.162912 -0.04857,0.03643 -0.108606,0.0543 -0.16291,0.08145 -0.108606,0.0543 -0.221697,0.100436 -0.325818,0.16291 -0.03293,0.01976 -0.05074,0.05841 -0.08146,0.08145 -0.400306,0.300231 -0.09142,0.05485 -0.407275,0.244364 -0.296617,0.177972 -0.138243,0.162909 -0.325819,0.162909 -0.20756,0 -0.108569,0.09501 -0.244364,0.162912 -0.02429,0.01215 -0.108609,0 -0.08146,0 0.597336,0 1.194673,0 1.792007,0 0.217215,0 0.434803,-0.01275 0.65164,0 0.245443,0.01445 0.48891,0.05273 0.733094,0.08146 0.217403,0.02558 0.437594,0.03559 0.651639,0.08145 0.16791,0.03598 0.325819,0.108606 0.488728,0.162909 0.162909,0.0543 0.325821,0.108606 0.488731,0.162909 0.08145,0.02715 0.169814,0.03886 0.244363,0.08145 0.117872,0.06736 0.20795,0.177011 0.325819,0.244366 0.07455,0.0426 0.172924,0.03383 0.244366,0.08146 0.09585,0.0639 0.156901,0.169397 0.244364,0.244364 0.103074,0.08835 0.229823,0.148367 0.325819,0.244364 0.06922,0.06922 0.100237,0.169158 0.162909,0.244363 0.07375,0.0885 0.183314,0.14668 0.244367,0.244367 0.07749,0.123989 0.103526,0.273658 0.162909,0.407273 0.04932,0.110961 0.103939,0.219676 0.162909,0.325819 0.07689,0.138398 0.183473,0.261133 0.244364,0.407275 0.404077,0.969785 -0.101605,0.186547 0.407276,1.058913 0.09866,0.169122 0.227163,0.319609 0.325818,0.48873 0.09178,0.157327 0.146579,0.335066 0.244364,0.488728 0.09334,0.146675 0.24139,0.255299 0.325821,0.407276 0.53236,0.958249 -0.559517,-0.447355 0.325819,0.733092 0.06912,0.09216 0.170619,0.155871 0.244364,0.244366 0.06267,0.0752 0.101756,0.167921 0.162912,0.244364 0.04797,0.05997 0.108606,0.108606 0.162909,0.162909 0.130479,0.130479 0.195339,0.195339 0.325818,0.325821 0.08146,0.08146 0.16291,0.16291 0.244364,0.244364 0.02715,0.02715 0.05074,0.05841 0.08145,0.08145 0.07832,0.05874 0.175143,0.09369 0.244366,0.162909 0.09599,0.096 0.148368,0.229825 0.244364,0.325819 0.269653,0.269652 0.250754,0.07028 0.570185,0.325821 0.04741,0.03793 0.03852,0.119978 0.08145,0.162909 0.09599,0.096 0.223649,0.154966 0.325818,0.244364 1.005507,0.879819 0.0054,-0.01357 0.407276,0.48873 0.07196,0.08995 0.169397,0.156901 0.244364,0.244364 0.580885,0.677699 -0.01593,0.06552 0.407273,0.48873 0.0543,0.0543 0.101473,0.11683 0.162909,0.16291 0.04857,0.03643 0.11434,0.04503 0.162912,0.08145 0.06144,0.04608 0.108606,0.108607 0.162909,0.16291 0.02715,0.02715 0.04711,0.06428 0.08145,0.08145 0.04857,0.02429 0.12451,-0.0384 0.162909,0 0.04293,0.04293 0.03094,0.129233 0.08145,0.162909 0.01622,0.01082 0.351869,0 0.407276,0"
       id="path4542"
       inkscape:connector-curvature="0" />
    <path
       style="fill:none;stroke:#000000;stroke-width:0.26458332px;stroke-linecap:butt;stroke-linejoin:miter;stroke-opacity:1"
       d="m 21.015354,50.761952 c 0.01386,0.09699 0.128135,0.928508 0.16291,1.058913 0.06637,0.248886 0.167534,0.487236 0.244365,0.733094 0.05896,0.188669 0.107134,0.380548 0.162909,0.570183 0.159972,0.543906 0.332978,1.083968 0.488729,1.629097 0.231677,0.810869 0.425933,1.631104 0.651639,2.443647 0.165873,0.597138 0.349268,1.187675 0.488729,1.792007 0.03113,0.134901 0.06768,0.269515 0.08145,0.407273 0.01351,0.135086 -0.01229,0.272074 0,0.407276 0.120989,1.33087 -0.0068,-0.19009 0.244365,0.814549 0.02634,0.105362 0,0.217212 0,0.325818 0,0.02715 -0.0086,0.0557 0,0.08145 0.0192,0.0576 0.06673,0.10401 0.08145,0.162909 0.01976,0.07902 0,0.162909 0,0.244364"
       id="path4544"
       inkscape:connector-curvature="0" />
    <path
       style="fill:none;stroke:#000000;stroke-width:0.26458332px;stroke-linecap:butt;stroke-linejoin:miter;stroke-opacity:1"
       d="m 13.521507,53.531417 c 0.363694,-0.155868 0.537077,-0.265998 0.896004,-0.325821 0.05356,-0.0089 0.111393,0.01717 0.162909,0 0.115195,-0.0384 0.208672,-0.130961 0.32582,-0.162909 0.464221,-0.126606 1.152697,-0.08145 1.629097,-0.08145 0.515881,0 1.031761,0 1.547642,0 2.00922,0 4.01844,0 6.02766,0 0.597336,0 1.194671,0 1.792007,0 0.190061,0 0.380122,0 0.570184,0 0.0543,0 0.108606,0 0.162909,0 0.02715,0 0.09913,0.02061 0.08145,0 -0.174924,-0.204081 -0.380122,-0.380124 -0.570183,-0.570187"
       id="path4546"
       inkscape:connector-curvature="0" />
    <path
       style="fill:none;stroke:#000000;stroke-width:0.26458332px;stroke-linecap:butt;stroke-linejoin:miter;stroke-opacity:1"
       d="m 27.857563,53.205602 c 3.575984,-0.435671 -0.465947,1.023022 -0.244366,1.466183 0.0708,0.141605 0.188775,0.259035 0.244366,0.407273 0.0286,0.07627 -0.01011,0.163539 0,0.244366 0.01717,0.137377 0.05032,0.272373 0.08146,0.407274 0.05035,0.218164 0.10522,0.4353 0.162909,0.651639 0.05093,0.190992 0.126482,0.375902 0.16291,0.570183 0.04531,0.241657 0.0308,0.4925 0.08145,0.733094 0.0584,0.277392 0.185968,0.53716 0.244364,0.814549 0.05065,0.240596 0.04896,0.489384 0.08146,0.733094 0.02183,0.163708 0.05634,0.325493 0.08146,0.48873 0.02919,0.189757 0.04123,0.382453 0.08145,0.570183 0.04142,0.193281 0.130413,0.375208 0.162909,0.570185 0.02233,0.133911 0,0.271515 0,0.407273 0,0.108606 0,0.217212 0,0.325821 0,0.108606 -0.01786,0.218689 0,0.325819 0.01,0.05989 0.06673,0.10401 0.08145,0.162909 0.143825,0.575304 -0.392146,-0.572125 0.244364,0.48873 0.01397,0.02328 0,0.0543 0,0.08145 0,0.0543 0,0.108606 0,0.162909 0,0.318199 -0.02429,0.0086 0.08146,0.325819 0.02577,0.07728 -0.02577,0.167089 0,0.244366 0.01214,0.03643 0.0543,0.0543 0.08145,0.08145"
       id="path4548"
       inkscape:connector-curvature="0" />
    <path
       style="fill:none;stroke:#000000;stroke-width:0.26458332px;stroke-linecap:butt;stroke-linejoin:miter;stroke-opacity:1"
       d="m 26.147006,52.39105 c -0.35297,-0.13576 -0.71463,-0.250785 -1.058909,-0.407276 -0.04944,-0.02246 0.108607,0 0.16291,0 0.0543,0 0.108606,0 0.16291,0 0.217213,0 0.434425,0 0.651639,0 0.488728,0 0.977459,0 1.466186,0 0.16291,0 0.326234,-0.01161 0.488731,0 0.436694,0.03119 0.866984,0.126553 1.303276,0.16291 0.108233,0.009 0.218967,-0.01942 0.325821,0 0.308438,0.05608 0.753494,0.234193 1.058913,0.325821 0.107228,0.03217 0.222922,0.03735 0.325819,0.08145 0.08998,0.03856 0.156802,0.119129 0.244364,0.16291 0.164274,0.08214 0.264929,0.05615 0.407275,0.162909 0.122873,0.09215 0.202946,0.233664 0.325819,0.325818 0.266033,0.199525 0.07643,-0.06738 0.325821,0.244367 0.0543,0.08145 0.108606,0.162909 0.162909,0.244364 0,0.02715 -0.01397,0.05817 0,0.08145 0.06985,0.116412 0.172413,0.210696 0.244364,0.325819 0.06436,0.10297 0.09555,0.224787 0.162909,0.325821 0.0426,0.0639 0.120312,0.09901 0.16291,0.162909 0.06735,0.101031 0.102666,0.220393 0.162911,0.325819 0.04857,0.085 0.114338,0.159366 0.16291,0.244366 0.06024,0.105426 0.108606,0.217213 0.162909,0.325819 0.0543,0.108606 0.115078,0.214212 0.162909,0.325818 0.117668,0.274556 0.05957,0.260176 0.162909,0.570185 0.07475,0.224232 0.187172,0.42286 0.244367,0.65164 0.0066,0.02635 0,0.0543 0,0.08145 0,0.08145 -0.01598,0.164492 0,0.244364 0.01191,0.05953 0.06225,0.105312 0.08145,0.16291 0.01717,0.05152 0,0.108606 0,0.162909 0,0.217215 0,0.434427 0,0.651639 0,0.152231 0.02577,0.354714 -0.08145,0.488731 -0.06116,0.07644 -0.190063,0.08145 -0.244367,0.162909 -0.465203,0.697807 0.518954,-0.07736 -0.407273,0.733094 -0.09138,0.07996 -0.227012,0.09233 -0.325821,0.16291 -0.09374,0.06696 -0.150624,0.177408 -0.244364,0.244363 -0.780412,0.557438 0.07113,-0.187227 -0.570182,0.325819 -0.05997,0.04797 -0.09623,0.124809 -0.162912,0.162912 -0.12695,0.07254 -0.276495,0.09752 -0.407273,0.162909 -0.08756,0.04378 -0.156803,0.119129 -0.244364,0.162909 -0.0768,0.0384 -0.167568,0.04306 -0.244366,0.08145 -0.08756,0.04378 -0.159367,0.11434 -0.244364,0.162909 -0.432607,0.247203 -0.189418,0.09206 -0.570183,0.244364 -0.292883,0.117155 -0.09523,0.100962 -0.48873,0.325821 -0.05766,0.248359 -0.22569,0.03139 -0.325819,0.08145 -0.201308,0.100653 0.02811,0.08145 -0.162911,0.08145 -0.06991,0 -0.441071,-0.01588 -0.488728,0 -0.03643,0.01214 -0.04503,0.06931 -0.08146,0.08145 -0.04504,0.015 -0.406701,0 -0.48873,0 -0.0543,0 -0.117727,-0.03012 -0.162909,0 -0.280792,0.187195 0.06297,0.162909 -0.16291,0.162909 -0.02715,0 -0.0543,0 -0.08145,0 -0.02715,0 -0.0843,0.027 -0.08145,0 0.05467,-0.519401 0.162904,-1.031758 0.244353,-1.547637"
       id="path4550"
       inkscape:connector-curvature="0" />
    <path
       style="fill:none;stroke:#000000;stroke-width:0.26458332px;stroke-linecap:butt;stroke-linejoin:miter;stroke-opacity:1"
       d="m 38.935417,62.98018 c 0,-0.01975 0.0026,-0.241764 0,-0.244364 -0.0192,-0.01921 -0.0693,0.02429 -0.08145,0 -0.04857,-0.09714 0.04034,-0.22498 0,-0.325821 -0.03636,-0.09089 -0.131949,-0.151494 -0.162909,-0.244364 -0.05152,-0.154548 0.03195,-0.328983 0,-0.488727 -0.01191,-0.05953 -0.07146,-0.103022 -0.08146,-0.162912 -0.01786,-0.107127 0,-0.217213 0,-0.325819 0,-0.381476 0.0142,-0.676306 -0.08145,-1.058913 -0.04165,-0.166594 -0.117729,-0.323058 -0.162909,-0.48873 -0.237164,-0.869543 0.11367,0.0886 -0.244364,-0.896003 -0.04997,-0.137412 -0.122739,-0.266685 -0.162909,-0.407274 -0.06877,-0.240694 -0.09921,-0.491011 -0.162909,-0.733094 -0.07214,-0.274137 -0.168497,-0.541419 -0.244367,-0.814549 -0.05992,-0.215728 -0.08429,-0.441997 -0.162909,-0.651637 -0.08527,-0.227391 -0.249019,-0.421251 -0.325819,-0.651639 -0.399303,-1.197908 0.269754,0.05924 -0.244366,-1.140368 -0.08623,-0.201205 -0.272729,-0.357817 -0.325819,-0.570185 -0.03358,-0.134313 0.217208,-0.380123 0.08145,-0.407273 -0.13575,-0.02715 -0.0543,0.271516 -0.08145,0.407273 0.217213,-0.0543 0.427742,-0.162909 0.65164,-0.162909 0.0979,0 0.160419,0.112543 0.244365,0.16291 0.05206,0.03124 0.110196,0.05133 0.162909,0.08145 0.225377,0.128787 0.708126,0.424057 0.896004,0.570184 0.09093,0.07072 0.156902,0.169397 0.244364,0.244364 0.103076,0.08835 0.217213,0.16291 0.32582,0.244365 0.16291,0.135758 0.330233,0.266389 0.488729,0.407274 0.781967,0.695082 -0.50683,-0.362021 0.651639,0.651639 0.07368,0.06447 0.180654,0.08858 0.244365,0.16291 0.103033,0.120205 0.147165,0.282304 0.244364,0.407274 0.0943,0.121239 0.229871,0.205884 0.32582,0.32582 0.122311,0.152888 0.201835,0.337193 0.325819,0.488729 0.218837,0.267467 0.520926,0.460306 0.733094,0.733094 0.194398,0.24994 0.28022,0.576253 0.488729,0.814548 0.0894,0.102169 0.238909,0.140073 0.325819,0.244365 0.05497,0.06596 0.03728,0.170739 0.08146,0.244364 0.04095,0.06825 0.452459,0.440369 0.488729,0.48873 0.01629,0.02172 -0.01214,0.05717 0,0.08145 -0.02122,0.172095 0.129233,0.03094 0.16291,0.08145 0.04763,0.07144 0.04306,0.167569 0.08146,0.244365 0.208589,0.417177 -0.04568,-0.254267 0.16291,0.16291 0.100309,0.200619 -0.236442,-0.07353 0.08145,0.244364 0.04293,0.04293 0.119979,0.03852 0.162909,0.08146 0.0192,0.0192 -0.0192,0.06226 0,0.08145 0.0192,0.0192 0.0543,0 0.08146,0 0.02715,0 0.07487,0.02634 0.08145,0 0.02634,-0.105364 -0.01081,-0.217752 0,-0.32582 0.01643,-0.164337 0.0665,-0.32425 0.08145,-0.488729 0.0684,-0.75239 -0.11593,-0.05633 0.08145,-0.977458 0.141563,-0.66063 0.208819,-0.519823 0.325819,-1.221823 0.04486,-0.269158 0.01527,-0.549825 0.08145,-0.814549 0.07093,-0.2837 0.233344,-0.537123 0.32582,-0.814548 0.0708,-0.212409 0.105219,-0.435301 0.162909,-0.651639 0.05093,-0.190993 0.111979,-0.379192 0.16291,-0.570184 0.05769,-0.216338 0.09211,-0.439231 0.16291,-0.651639 0.06539,-0.196169 0.178975,-0.374015 0.244364,-0.570184 0.04378,-0.131342 0.04788,-0.272961 0.08145,-0.407274 0.04794,-0.191765 0.12755,-0.375706 0.16291,-0.570184 0.01943,-0.106855 -0.03434,-0.222787 0,-0.32582 0.02429,-0.07286 0.124808,-0.09623 0.16291,-0.16291 0.07254,-0.126951 0.0919,-0.279458 0.162909,-0.407274 0.06593,-0.118674 0.190887,-0.201038 0.244365,-0.325819 0.03209,-0.07487 -0.01976,-0.165342 0,-0.244365 0.145166,-0.580663 0.107204,-0.251546 0.407274,-0.651639 0.01629,-0.02172 0,-0.0543 0,-0.08146 0.08145,-0.08145 0.16291,-0.162909 0.244365,-0.244364 0.02715,-0.02715 0.0543,-0.0543 0.08146,-0.08145 0.02715,-0.02715 0.0543,-0.108607 0.08145,-0.08145 0.02715,0.02715 -0.119853,0.08145 -0.08145,0.08145 0.254546,0 0.142546,-0.380123 0.488729,0.08145 0.103033,0.137377 0.08611,0.335136 0.16291,0.488729 0.06071,0.121426 0.183651,0.204394 0.244364,0.325819 0.103746,0.207493 0.161088,0.435118 0.244365,0.651639 0.126709,0.329444 0.280565,0.648015 0.407274,0.977459 0.06164,0.160275 0.101265,0.328453 0.16291,0.488729 0.07423,0.192998 0.170134,0.377186 0.244364,0.570184 0.06164,0.160276 0.09913,0.329289 0.16291,0.488729 0.09932,0.248286 0.235879,0.48126 0.32582,0.733094 0.04656,0.130381 0.03489,0.276893 0.08145,0.407274 0.08994,0.251834 0.246057,0.477854 0.32582,0.733094 0.05727,0.183251 0.04123,0.382455 0.08146,0.570184 0.128945,0.601745 0.236874,0.664278 0.407274,1.303278 0.04256,0.15958 0.04432,0.327801 0.08146,0.488729 0.04445,0.192605 0.108606,0.380122 0.16291,0.570184 0.123593,0.432578 0.175541,0.645648 0.325819,1.058913 0.04997,0.137413 0.120895,0.267225 0.16291,0.407274 0.03978,0.132608 0.06428,0.269897 0.08145,0.407275 0.02411,0.192848 -0.05117,0.311898 0.08146,0.488729 0.03643,0.04857 0.135758,0.02715 0.162909,0.08146 0.04596,0.09192 -0.03177,0.311956 0,0.407274 0.0192,0.0576 0.0543,0.108606 0.08145,0.16291"
       id="path4552"
       inkscape:connector-curvature="0" />
    <path
       style="fill:none;stroke:#000000;stroke-width:0.26458332px;stroke-linecap:butt;stroke-linejoin:miter;stroke-opacity:1"
       d="m 21.195801,73.868115 c -0.626473,0.104413 -0.712156,0.06809 -1.267141,0.345586 -0.04857,0.02429 -0.06662,0.09091 -0.115194,0.115194 -0.217213,0.108606 -0.473955,0.121782 -0.691168,0.230388 -0.138233,0.06912 -0.20735,0.276466 -0.345583,0.345583 -0.03434,0.01717 -0.08085,-0.01717 -0.115195,0 -0.479412,0.239707 0.123147,-0.008 -0.115194,0.230389 -0.238342,0.238342 0.0093,-0.364218 -0.230389,0.115197 -0.01717,0.03434 0.01214,0.07877 0,0.115194 -0.02715,0.08146 -0.0768,0.153591 -0.115195,0.230389 -0.0384,0.0768 -0.06757,0.158948 -0.115195,0.230388 -0.03012,0.04518 -0.09091,0.06662 -0.115194,0.115195 -0.152603,0.305207 -0.115195,0.594383 -0.115195,0.921557 0,0.0768 0.03435,0.1617 0,0.230388 -0.04857,0.09714 -0.170145,0.140023 -0.230389,0.230389 -0.0213,0.03195 0,0.0768 0,0.115197 0,0.09773 -0.01911,0.614738 0,0.691165 0.102395,0.409581 0.0896,0.0896 0.345584,0.345586 0.02715,0.02715 -0.0213,0.08324 0,0.115194 0.0768,0.0768 0.153593,0.153591 0.230389,0.230389 0.0384,0 0.08324,-0.0213 0.115195,0 0.132916,0.08861 0.212666,0.256971 0.345583,0.345583 0.07144,0.04763 0.158949,0.06757 0.230389,0.115194 0.09037,0.06025 0.133249,0.181819 0.230389,0.230388 0.108607,0.05431 0.227784,0.08575 0.345584,0.115197 0.03725,0.0093 0.08804,-0.02715 0.115195,0 0.06071,0.06071 0.05448,0.169675 0.115194,0.230389 0.02715,0.02715 0.07877,-0.01214 0.115195,0 0.08146,0.02715 0.158949,0.06757 0.230389,0.115194 0.382052,0.382053 -0.108607,-0.0543 0.230389,0.115195 0.351293,0.175646 -0.210684,0.09132 0.345584,0.230388 0.0745,0.01863 0.153593,0 0.230389,0 0.0384,0 0.08324,-0.0213 0.115195,0 0.09037,0.06025 0.140023,0.170146 0.230389,0.230389 0.0639,0.0426 0.1617,-0.03434 0.230389,0 0.04857,0.02429 0.06368,0.09802 0.115194,0.115197 0.109284,0.03642 0.23039,0 0.345584,0 0.307186,0 0.614371,0 0.921557,0 0.268787,0 0.537574,0 0.806362,0 0.0768,0 0.155885,0.01863 0.230389,0 0.166595,-0.04165 0.297868,-0.176088 0.460778,-0.230392 0.03643,-0.01214 0.08085,0.01717 0.115195,0 0.123878,-0.06194 0.403554,-0.302479 0.575973,-0.345582 0.0745,-0.01863 0.1617,0.03435 0.230389,0 0.03434,-0.01717 -0.03195,-0.0939 0,-0.115195 0.101032,-0.06735 0.236977,-0.06089 0.345583,-0.115194 0.04857,-0.02429 0.07001,-0.08507 0.115195,-0.115194 0.07144,-0.04763 0.169676,-0.05448 0.230389,-0.115195 0.02715,-0.02715 -0.02715,-0.08804 0,-0.115197 0.06071,-0.06071 0.169676,-0.05448 0.230389,-0.115194 0.02715,-0.02715 -0.01214,-0.07877 0,-0.115194 0.02715,-0.08145 0.06368,-0.1617 0.115195,-0.230389 0.06516,-0.08688 0.170145,-0.140022 0.230388,-0.230388 0.0213,-0.03195 -0.0093,-0.07794 0,-0.115195 0.02945,-0.1178 0.04784,-0.244551 0.115195,-0.345585 0.0213,-0.03195 0.08804,0.02715 0.115194,0 0.02715,-0.02715 -0.0093,-0.07794 0,-0.115194 0.02945,-0.117801 0.08575,-0.227783 0.115197,-0.345583 0.01519,-0.06079 -0.02567,-0.307092 0,-0.345583 0.06024,-0.09037 0.170143,-0.140023 0.230388,-0.230391 0.0213,-0.03195 0,-0.0768 0,-0.115195 0,-0.0384 0,-0.0768 0,-0.115194 0,-0.135385 -0.02603,-0.587042 0,-0.691166 0.02945,-0.1178 0.08574,-0.227785 0.115195,-0.345585 0.0093,-0.03725 0,-0.07679 0,-0.115194 0,-0.0768 0,-0.153594 0,-0.230389 0,-0.153593 0,-0.307187 0,-0.460777 0,-0.05188 0.01752,-0.310528 0,-0.345586 -0.04604,-0.09208 -0.184349,-0.138303 -0.230389,-0.230388 -0.01717,-0.03435 0.02715,-0.08804 0,-0.115195 -0.0543,-0.0543 -0.1617,0.03434 -0.230391,0 -0.04857,-0.02429 -0.06662,-0.09091 -0.115194,-0.115194 -0.06869,-0.03435 -0.1617,0.03434 -0.230389,0 -0.262199,-0.262199 0.02386,-0.03045 -0.230389,-0.115194 -0.834402,-0.278135 0.181617,0.03321 -0.345584,-0.230389 -0.06869,-0.03435 -0.1617,0.03434 -0.230389,0 -0.04857,-0.02429 -0.06662,-0.09091 -0.115194,-0.115197 -0.06797,-0.03398 -0.266349,0.02641 -0.345584,0 -0.08145,-0.02715 -0.147092,-0.09437 -0.230389,-0.115194 -0.108419,-0.0271 -0.237165,0.02711 -0.345584,0 -0.1178,-0.02945 -0.227783,-0.08574 -0.345584,-0.115194 -0.09546,-0.02387 -0.45467,0 -0.575972,0 -0.0384,0 -0.08804,0.02715 -0.115195,0 -0.02715,-0.02715 0.03435,-0.09802 0,-0.115195 -0.06869,-0.03434 -0.153593,0 -0.230389,0 -0.230389,0 -0.460778,0 -0.691167,0 -0.230389,0 -0.460779,0 -0.691168,0 -0.0768,0 -0.159085,-0.02852 -0.230389,0 -0.15944,0.06378 -0.293146,0.193138 -0.460778,0.230389 -0.183682,0.04082 -0.564837,0 -0.806362,0"
       id="path4554"
       inkscape:connector-curvature="0" />
    <path
       style="fill:none;stroke:#000000;stroke-width:0.26458332px;stroke-linecap:butt;stroke-linejoin:miter;stroke-opacity:1"
       d="m 36.862263,72.946558 c -0.46078,0 -0.921557,0 -1.382337,0 -0.115194,0 -0.236299,-0.03642 -0.345583,0 -0.05152,0.01717 -0.0768,0.0768 -0.115194,0.115197 -0.07679,0.07679 -0.137261,0.174511 -0.230389,0.230389 -0.138673,0.0832 -0.693396,0.192733 -0.806362,0.230388 -0.08146,0.02715 -0.15584,0.0726 -0.230389,0.115194 -0.194397,0.111086 -0.393779,0.215445 -0.575974,0.345583 -0.08838,0.06313 -0.137258,0.174514 -0.230389,0.230392 -1.107178,0.664305 0.474046,-0.528328 -0.691165,0.345582 -0.130329,0.09775 -0.230392,0.230389 -0.345586,0.345583 -0.0768,0.0768 -0.153593,0.153594 -0.230388,0.230389 -0.0384,0.0384 -0.08507,0.07001 -0.115195,0.115197 -0.04763,0.07144 -0.05448,0.169674 -0.115194,0.230388 -0.02715,0.02715 -0.09802,-0.03435 -0.115194,0 -0.05152,0.103032 0,0.230389 0,0.345583 0,0.383982 0,0.767964 0,1.151946 0,0.691168 0,1.382334 0,2.073502 0,0.166595 -0.02432,0.684718 0,0.806363 0.01683,0.08419 0.08804,0.148934 0.115194,0.230389 0.01214,0.03643 -0.01717,0.08085 0,0.115194 0.08586,0.171722 0.325019,0.209825 0.460777,0.345583 0.02715,0.02715 -0.02715,0.08804 0,0.115197 0.02715,0.02715 0.08325,-0.0213 0.115194,0 0.450649,0.300429 -0.0047,0.305604 0.46078,0.460777 0.03643,0.01214 0.0768,0 0.115195,0 0.07679,0 0.153593,0 0.230388,0 0.230389,0 0.460777,0 0.691168,0 0.345583,0 0.691166,0 1.036752,0 0.0768,0 0.15359,0 0.230388,0 0.0768,0 0.159086,0.02852 0.230389,0 0.128545,-0.05142 0.214241,-0.186608 0.345583,-0.230389 0.109283,-0.03643 0.23863,0.04278 0.345585,0 0.100838,-0.04033 0.145582,-0.162544 0.230389,-0.230388 0.108109,-0.08649 0.230388,-0.153594 0.345583,-0.230392 0.153593,-0.115194 0.313288,-0.222673 0.46078,-0.345582 0.08343,-0.06953 0.145581,-0.162545 0.230388,-0.230389 0.108109,-0.08649 0.240467,-0.14029 0.345583,-0.230389 0.270952,-0.232243 0.547336,-0.547338 0.806363,-0.806362 0.0034,-0.0034 0.437515,-0.41425 0.460777,-0.46078 0.01717,-0.03434 -0.01717,-0.08085 0,-0.115194 0.02429,-0.04857 0.0768,-0.0768 0.115194,-0.115195 0.0768,-0.0768 0.162544,-0.145581 0.230391,-0.230388 0.33967,-0.42459 0.130236,-0.217062 0.345583,-0.575974 0.07123,-0.118716 0.178972,-0.217038 0.230389,-0.345583 0.02852,-0.0713 -0.02852,-0.159086 0,-0.230389 0.05142,-0.128545 0.147322,-0.234825 0.230388,-0.345583 0.03258,-0.04344 0.102026,-0.06251 0.115195,-0.115194 0.02794,-0.111757 -0.02794,-0.233831 0,-0.345585 0.01318,-0.05268 0.09802,-0.06368 0.115197,-0.115195 0.03643,-0.109283 0,-0.230388 0,-0.345583 0,-0.0768 0,-0.153593 0,-0.230388 0,-0.0384 0.01717,-0.08085 0,-0.115197 -0.06912,-0.138232 -0.276469,-0.207349 -0.345586,-0.345583 -0.01717,-0.03434 0.0213,-0.08325 0,-0.115194 -0.06024,-0.09037 -0.165224,-0.143505 -0.230388,-0.230389 -0.05152,-0.06869 -0.05448,-0.169677 -0.115195,-0.230388 -0.02715,-0.02715 -0.08325,0.0213 -0.115194,0 -0.746112,-0.497409 0.09588,0.02863 -0.230389,-0.46078 -0.04763,-0.07144 -0.169677,-0.05448 -0.230391,-0.115195 -0.02715,-0.02715 0.02715,-0.08804 0,-0.115194 -0.02715,-0.02715 -0.08804,0.02715 -0.115194,0 -0.06071,-0.06071 -0.05448,-0.169677 -0.115194,-0.230388 -0.290971,-0.290971 -0.132795,-0.04426 -0.345583,-0.115195 -0.08146,-0.02715 -0.148934,-0.08804 -0.230389,-0.115194 -0.09772,-0.03257 -0.341413,0.0199 -0.46078,0 -0.193127,-0.03219 -0.38018,-0.115197 -0.575971,-0.115197 -0.271518,0 -0.536506,0.08521 -0.806363,0.115197 -0.152654,0.01696 -0.307186,0 -0.460777,0 -0.268788,0 -0.537575,0 -0.806363,0 -0.0768,0 -0.153593,0 -0.230388,0 -0.0384,0 -0.115195,0.0384 -0.115195,0 0,-0.0384 0.0768,0 0.115195,0"
       id="path4556"
       inkscape:connector-curvature="0" />
    <path
       style="fill:none;stroke:#000000;stroke-width:0.26458332px;stroke-linecap:butt;stroke-linejoin:miter;stroke-opacity:1"
       d="m 22.69333,75.711229 c -0.124507,0.49803 -0.115194,0.302458 -0.115194,0.575974 0,0.0384 -0.01717,0.08085 0,0.115194 0.02429,0.04857 0.0768,0.0768 0.115194,0.115195 0.0384,0.0384 0.06662,0.09091 0.115195,0.115194 0.03502,0.01752 0.381234,0 0.460778,0 0.0768,0 0.153593,0 0.230389,0 0.0384,0 0.115195,-0.0384 0.115195,0 0,0.0384 -0.115195,0.0384 -0.115195,0 0,-0.0543 0.09091,-0.06663 0.115195,-0.115194 0.01717,-0.03435 0,-0.0768 0,-0.115195 0,-0.0768 -0.02429,-0.157535 0,-0.230391 0.03434,-0.103031 0.196045,-0.127354 0.230389,-0.230388 0.09553,-0.286584 -0.128052,-0.211104 0.115194,-0.575972 0.03012,-0.04518 0.09091,-0.06663 0.115195,-0.115194 0.01753,-0.03506 0,-0.293706 0,-0.345586 0,-0.0384 0.03434,-0.09802 0,-0.115194 -0.01802,-0.009 -0.543768,0 -0.575973,0 -0.07926,0 -0.624092,-0.02236 -0.691167,0 -0.20922,0.06974 -0.213784,0.09859 -0.345584,0.230389 -0.0384,0.0384 -0.09091,0.06662 -0.115194,0.115194 -0.08107,0.162131 0.298747,0.513524 0.345583,0.575974 z"
       id="path4558"
       inkscape:connector-curvature="0" />
    <path
       style="fill:none;stroke:#000000;stroke-width:0.26458332px;stroke-linecap:butt;stroke-linejoin:miter;stroke-opacity:1"
       d="m 36.401483,76.287203 c -0.206743,-0.145711 -0.472601,0.07285 -0.691166,0 -0.05152,-0.01717 -0.06251,-0.102026 -0.115194,-0.115197 -0.121235,-0.03031 -0.525817,0 -0.691168,0 -0.05188,0 -0.310526,-0.01754 -0.345583,0 -0.06152,0.03076 -0.284938,0.284938 -0.345586,0.345586 -0.0384,0.0384 -0.0768,0.0768 -0.115194,0.115194 -0.0384,0.0384 -0.09091,0.06663 -0.115194,0.115194 -0.01717,0.03434 0,0.0768 0,0.115195 0,0.0384 0,0.0768 0,0.115194 0,0.230388 0,0.46078 0,0.691168 0,0.09653 -0.02447,0.527013 0,0.575972 0.0095,0.01902 0.314936,0 0.345583,0 0.307186,0 -0.0384,-0.0384 0.115196,0.115194 0.02715,0.02715 0.0768,0 0.115195,0 0.268787,0 0.537572,0 0.80636,0 0.0384,0 0.0768,0 0.115194,0 0.0384,0 0.08805,0.02715 0.115197,0 0.02715,-0.02715 -0.02715,-0.08804 0,-0.115194 0.06071,-0.06071 0.153591,-0.0768 0.230389,-0.115195 0.278958,-0.13948 0.169674,-0.05448 0.345582,-0.230388 0.0384,-0.0384 0.08508,-0.07001 0.115195,-0.115195 0.04763,-0.07144 0.08804,-0.148933 0.115194,-0.230388 0.07093,-0.212791 -0.175776,-0.05461 0.115194,-0.345586 0.02715,-0.02715 0.09802,0.03435 0.115197,0 0.0069,-0.01381 0.02212,-0.405489 0,-0.460777 -0.06378,-0.15944 -0.08028,-0.377383 -0.230391,-0.460777 -0.237347,-0.13186 -0.537575,-0.0768 -0.80636,-0.115197"
       id="path4560"
       inkscape:connector-curvature="0" />
    <path
       style="fill:none;stroke:#000000;stroke-width:0.26458332px;stroke-linecap:butt;stroke-linejoin:miter;stroke-opacity:1"
       d="m 29.48981,77.669537 c -0.269706,0.06743 -0.467971,0.08159 -0.691169,0.230389 -0.220731,0.147156 -0.249922,0.499845 -0.345583,0.691168 -0.06191,0.12383 -0.15916,0.226867 -0.230388,0.345583 -0.04417,0.07363 -0.07102,0.156763 -0.115194,0.230389 -0.07123,0.118718 -0.153594,0.230388 -0.230389,0.345582 -0.0768,0.115197 -0.143904,0.237477 -0.230391,0.345586 -0.06784,0.08481 -0.162542,0.145582 -0.230389,0.230389 -0.20905,0.13468 -0.211246,0.396853 -0.345583,0.575974 -0.06516,0.08688 -0.153593,0.15359 -0.230388,0.230388 -0.0384,0.0384 -0.09091,0.06662 -0.115197,0.115195 -0.0543,0.108606 -0.06089,0.236976 -0.115194,0.345582 -0.02429,0.04857 -0.08507,0.07001 -0.115195,0.115195 -0.04763,0.07144 -0.06757,0.158948 -0.115194,0.230388 -0.08861,0.132919 -0.256972,0.21267 -0.345583,0.345586 -0.04763,0.07144 -0.06757,0.158948 -0.115195,0.230388 -0.03012,0.04518 -0.115195,0.06089 -0.115195,0.115195 0,0.0384 0.0768,0 0.115195,0 0.115195,0 0.230389,0 0.345584,0 0.191991,0 0.383982,0 0.575974,0 0.0384,0 0.09802,0.03434 0.115194,0 0.06869,-0.137377 -0.0852,-0.332981 0,-0.460777 0.04763,-0.07144 0.169675,-0.05448 0.230389,-0.115195 0.02715,-0.02715 -0.01214,-0.07877 0,-0.115197 0.02715,-0.08145 0.08804,-0.148934 0.115194,-0.230388 0.01214,-0.03643 -0.01717,-0.08085 0,-0.115195 0.04857,-0.09714 0.170146,-0.140022 0.230389,-0.230388 0.218228,0.01312 0.0768,-0.268788 0.115194,-0.345583 0.02429,-0.04857 0.09091,-0.06663 0.115194,-0.115194 0.01717,-0.03435 -0.01717,-0.08085 0,-0.115197 0.239707,-0.479412 -0.0079,0.123147 0.230391,-0.115195 0.0543,-0.0543 -0.0543,-0.176085 0,-0.230388 0.02715,-0.02715 0.0768,0 0.115195,0 0,-0.0768 -0.02429,-0.157533 0,-0.230389 0.09889,-0.296685 0.230388,0.102651 0.230388,-0.230388 0,-0.0384 0,-0.0768 0,-0.115195 0,-0.0384 -0.01717,-0.08085 0,-0.115197 0.02429,-0.04857 0.09091,-0.06662 0.115194,-0.115194 0.01717,-0.03434 -0.01717,-0.08085 0,-0.115194 0.02429,-0.04857 0.0768,-0.07679 0.115195,-0.115194 0.02249,-0.02249 0.14564,-0.199943 0.230388,-0.115195 0.02715,0.02715 0,0.0768 0,0.115195 0,0.0384 0,0.0768 0,0.115194 0,0.268787 0,0.537575 0,0.806363 0,0.191992 0,0.383981 0,0.575974 0,0.0384 0,0.0768 0,0.115194 0,0.0384 -0.01717,0.08085 0,0.115194 0.02429,0.04857 0.09091,0.06662 0.115195,0.115195 0.01717,0.03434 -0.01717,0.08085 0,0.115194 0.02429,0.04857 0.09091,0.06663 0.115197,0.115194 0.03398,0.06797 -0.02641,0.266348 0,0.345583 0.02715,0.08146 0.09437,0.147092 0.115194,0.230391 0.01863,0.0745 0,0.153591 0,0.230389 0,0.0384 -0.01717,0.08085 0,0.115194 0.02429,0.04857 0.09091,0.06663 0.115194,0.115194 0.03434,0.06869 -0.02429,0.157533 0,0.230389 0.02715,0.08146 0.08804,0.148934 0.115194,0.230389 0.01495,0.04483 -0.01788,0.327707 0,0.345585 0.02715,0.02715 0.0768,0 0.115195,0 0.227129,0 0.250528,0.05477 0.345583,-0.230389 0.03643,-0.109283 -0.02794,-0.23383 0,-0.345585 0.02082,-0.0833 0.08804,-0.148934 0.115194,-0.230389 0.02167,-0.06499 0,-0.269888 0,-0.345582 0,-0.307187 0,-0.614374 0,-0.921557 0,-0.0768 0,-0.153594 0,-0.230389 0,-0.0384 -0.02715,-0.08804 0,-0.115194 0.07945,-0.07945 0.215395,0.0852 0.230391,0.115194 0.01717,0.03434 -0.01214,0.07877 0,0.115194 0.02715,0.08145 0.06757,0.158949 0.115194,0.230389 0.03012,0.04518 0.09802,0.06368 0.115195,0.115194 0.01757,0.05269 -0.02564,0.40952 0,0.460777 0.262199,0.2622 0.03045,-0.02387 0.115194,0.230392 0.0071,0.0214 0.198445,0.49272 0.345583,0.345582 0.02715,-0.02715 0,-0.0768 0,-0.115194 0,-0.0768 0,-0.153593 0,-0.230388 0,-0.0768 0.01863,-0.155888 0,-0.230392 -0.02082,-0.0833 -0.09437,-0.14709 -0.115194,-0.230388 -0.01863,-0.0745 0,-0.153594 0,-0.230389 0,-0.0384 0.01717,-0.08085 0,-0.115194 -0.02429,-0.04857 -0.09091,-0.06662 -0.115195,-0.115194 -0.01717,-0.03435 0.01717,-0.08085 0,-0.115195 -0.02429,-0.04857 -0.09802,-0.06368 -0.115194,-0.115194 -0.02429,-0.07286 0.03434,-0.1617 0,-0.230391 -0.01717,-0.03434 -0.08804,0.02715 -0.115194,0 -0.03536,-0.03536 0.02138,-0.375272 0,-0.460777 -0.02082,-0.0833 -0.08804,-0.148934 -0.115195,-0.230389 -0.02429,-0.07286 0,-0.153593 0,-0.230389 0,-0.268787 0,-0.537575 0,-0.806362 0,-0.767964 0,-1.535928 0,-2.303891"
       id="path4562"
       inkscape:connector-curvature="0" />
    <path
       style="fill:none;stroke:#000000;stroke-width:0.26458332px;stroke-linecap:butt;stroke-linejoin:miter;stroke-opacity:1"
       d="m 33.52162,85.387573 c -0.30022,0.08417 -0.61855,-0.0505 -0.921556,0 -0.119775,0.01995 -0.225381,0.09802 -0.345583,0.115194 -0.301043,0.04301 -0.620517,-0.04301 -0.921557,0 -0.156729,0.02238 -0.304052,0.09281 -0.46078,0.115195 -0.114036,0.0163 -0.2363,-0.03643 -0.345583,0 -0.131342,0.04378 -0.21704,0.178972 -0.345583,0.230388 -0.0713,0.02852 -0.153593,0 -0.230391,0 -0.153591,0 -0.308729,-0.02172 -0.460777,0 -0.120206,0.01717 -0.227783,0.08575 -0.345583,0.115195 -0.03725,0.0093 -0.07754,-0.0075 -0.115194,0 -0.155247,0.03105 -0.304052,0.0928 -0.46078,0.115194 -0.235188,0.0336 -0.582372,-0.0448 -0.806363,0 -1.394796,0.278961 -0.09546,0.230391 -1.151945,0.230391 -2.726271,0 -5.452542,0 -8.178814,0 -0.652769,0 -1.305538,0 -1.958308,0 -0.268787,0 -0.537574,0 -0.806362,0 -0.153592,0 -0.310168,-0.03012 -0.460778,0 -0.119068,0.02381 -0.227783,0.08574 -0.345584,0.115194 -0.120536,0.03013 -0.349946,-0.03694 -0.460778,0 -0.08146,0.02715 -0.148934,0.08804 -0.230389,0.115195 -0.07286,0.02429 -0.157534,-0.02429 -0.230389,0 -0.834402,0.278132 0.181617,-0.03321 -0.345584,0.230388 -0.03434,0.01717 -0.08804,-0.02715 -0.115195,0 -0.02715,0.02715 0.0213,0.08325 0,0.115195 0.276246,0.356758 -0.310504,0.19531 -0.345583,0.230388 -0.02715,0.02715 0.02715,0.08805 0,0.115197 -0.22861,0.228608 -0.03641,-0.545534 -0.230389,0.230389 -0.02794,0.111754 0.03643,0.236299 0,0.345583 -0.02715,0.08145 -0.06757,0.158948 -0.115195,0.230388 -0.03012,0.04518 -0.09802,0.06368 -0.115194,0.115194 -0.02064,0.06193 0,0.36325 0,0.46078 0,0.108495 -0.02184,0.510442 0,0.575972 0.01717,0.05152 0.09091,0.06662 0.115194,0.115194 0.03435,0.06869 -0.0543,0.176088 0,0.230391 0.06071,0.06071 0.169676,0.05448 0.230389,0.115194 0.02715,0.02715 -0.01717,0.08085 0,0.115195 0.05105,0.1021 0.275675,0.24072 0.345584,0.345583 0.01431,0.02146 0.223007,0.453398 0.230389,0.460779 0.02715,0.02715 0.08085,-0.01717 0.115195,0 0.138233,0.06911 0.20735,0.276466 0.345584,0.345583 0.06081,0.0304 0.29542,-0.03344 0.345583,0 0.09037,0.06024 0.129551,0.190053 0.230389,0.230389 0.02929,0.01172 1.03049,0 1.036751,0 0.691168,0 1.382335,0 2.073503,0 2.073502,0 4.147004,0 6.220506,0 2.34229,0 4.684581,0 7.026868,0 0.614373,0 1.228744,0 1.843114,0 0.230389,0 0.460777,0 0.691168,0 0.115195,0 0.2363,0.03643 0.345583,0 0.05152,-0.01717 0.06662,-0.09091 0.115195,-0.115194 0.0679,-0.03395 0.624273,0.03345 0.691168,0 0.09714,-0.04857 0.140023,-0.170146 0.230389,-0.230389 0.03195,-0.0213 0.07679,0 0.115194,0 0.0384,0 0.0768,0 0.115194,0 0.08456,0 0.651007,0.02008 0.691169,0 0.04857,-0.02429 0.06368,-0.09802 0.115194,-0.115194 0.106717,-0.03557 0.465592,0.03679 0.575971,0 0.08146,-0.02715 0.148937,-0.08804 0.230392,-0.115195 0.09868,-0.0329 0.35915,0.0254 0.460777,0 0.166595,-0.04165 0.297868,-0.176088 0.460777,-0.230391 0.172794,-0.0576 0.115197,0.115195 0.345585,0 0.03434,-0.01717 -0.02715,-0.08804 0,-0.115194 0.02715,-0.02715 0.08085,0.01717 0.115195,0 0.04857,-0.02429 0.06662,-0.09091 0.115194,-0.115194 0.03435,-0.01717 0.08085,0.01717 0.115194,0 0.03485,-0.01744 0.443352,-0.425927 0.46078,-0.460778 0.261427,-0.146716 0.03807,-0.396012 0.115194,-0.575974 0.0882,-0.205793 0.245452,-0.375711 0.345583,-0.575971 0.01717,-0.03435 -0.0093,-0.07794 0,-0.115194 0.02945,-0.117801 0.08574,-0.227785 0.115195,-0.345586 0.02664,-0.106561 0,-0.602578 0,-0.691166 0,-0.09753 0.02064,-0.398848 0,-0.460779 -0.06706,-0.201182 -0.560031,-0.266902 -0.691169,-0.345583 -0.09313,-0.05588 -0.145582,-0.162544 -0.230388,-0.230389 -0.767435,-0.61395 -0.0086,-0.04126 -0.575972,-0.230391 -0.05152,-0.01717 -0.07001,-0.08507 -0.115194,-0.115194 -0.07144,-0.04762 -0.158949,-0.06757 -0.230391,-0.115195 -0.04518,-0.03012 -0.06662,-0.09091 -0.115195,-0.115194 -0.06869,-0.03434 -0.157533,0.02429 -0.230388,0 -0.08146,-0.02715 -0.147093,-0.09437 -0.230389,-0.115194 -0.0745,-0.01863 -0.157533,0.02429 -0.230388,0 -0.05152,-0.01717 -0.06663,-0.09091 -0.115195,-0.115195 -0.03506,-0.01754 -0.293706,0 -0.345585,0 -0.268788,0 -0.537575,0 -0.806363,0 -0.10156,0 -0.247428,0.02453 -0.345583,0 -0.1178,-0.02945 -0.226515,-0.09138 -0.345583,-0.115194 -0.07531,-0.01506 -0.157533,0.02429 -0.230388,0 -0.05152,-0.01717 -0.06663,-0.09091 -0.115195,-0.115194 -0.03435,-0.01717 -0.07877,0.01214 -0.115196,0 -0.07968,-0.02656 -0.227288,-0.162515 -0.345583,-0.115194 -0.159441,0.06378 -0.307187,0.15359 -0.460778,0.230388 z"
       id="path4564"
       inkscape:connector-curvature="0" />
    <path
       style="fill:none;stroke:#000000;stroke-width:0.26458332px;stroke-linecap:butt;stroke-linejoin:miter;stroke-opacity:1"
       d="m 21.080606,86.424324 c 0.240109,0.159092 0.06364,0.484937 0.115195,0.691166 0.02083,0.0833 0.0768,0.153593 0.115194,0.230391 0.0768,0.153591 0.145191,0.311682 0.230389,0.460778 0.06869,0.120205 0.200356,0.210433 0.23039,0.345582 0.04998,0.224904 -0.07873,0.47465 0,0.691169 0.08402,0.231066 0.350822,0.35606 0.460778,0.575974 0.08756,0.175122 0.03418,0.397727 0.115195,0.575971 0.888992,1.33349 0.180477,0.08066 0.575972,1.26714 0.0543,0.162909 0.162745,0.302943 0.230389,0.46078 0.0069,0.01601 0.226904,0.685358 0.23039,0.691166 0.05588,0.09313 0.170145,0.140023 0.230389,0.230388 0.0213,0.03195 0,0.0768 0,0.115197 0,0.0384 0,0.0768 0,0.115195"
       id="path4566"
       inkscape:connector-curvature="0" />
    <path
       style="fill:none;stroke:#000000;stroke-width:0.26458332px;stroke-linecap:butt;stroke-linejoin:miter;stroke-opacity:1"
       d="m 26.840336,85.04199 c 0.732451,1.953207 0.02085,0.267931 0.575971,1.26714 0.208489,0.37528 0.383982,0.767964 0.575974,1.151946 0.153591,0.307184 0.333224,0.602676 0.460777,0.921557 0.10382,0.259548 0.136369,0.543102 0.230389,0.80636 0.09836,0.275397 0.236977,0.534847 0.345586,0.806362 0.0451,0.112742 0.06089,0.236977 0.115194,0.345583 0.100129,0.200261 0.236847,0.380251 0.345583,0.575974 0.0834,0.150112 0.14519,0.311682 0.230388,0.460777 0.137377,0.240411 0.314026,0.456364 0.46078,0.691169 0.118666,0.189865 0.257384,0.370178 0.345583,0.575971 0.213519,0.498213 -0.205285,0.02511 0.115194,0.345586"
       id="path4568"
       inkscape:connector-curvature="0" />
    <path
       style="fill:none;stroke:#000000;stroke-width:0.26458332px;stroke-linecap:butt;stroke-linejoin:miter;stroke-opacity:1"
       d="m 33.52162,85.387573 c 0.268788,0.19199 0.557774,0.35846 0.806361,0.575972 0.06462,0.05654 0.0726,0.155842 0.115196,0.230391 0.953897,1.669322 -0.08127,-0.318363 0.460778,1.036751 0.09566,0.23916 0.240969,0.455785 0.345582,0.691166 0.04932,0.110961 0.07256,0.231889 0.115195,0.345583 0.07261,0.193616 0.156159,0.382976 0.230391,0.575974 0.117771,0.306207 0.212339,0.621757 0.345583,0.921557 0.02207,0.04962 0.0768,0.0768 0.115194,0.115194 0.115194,0.230389 0.255141,0.449985 0.345583,0.691168 0.02697,0.07191 -0.03434,0.161701 0,0.230389 0.08586,0.171723 0.239088,0.301032 0.345586,0.460777 0.04894,0.07341 0.326903,0.616448 0.345582,0.691169 0.01863,0.0745 -0.02429,0.157532 0,0.230388 0.01717,0.05152 0.0768,0.0768 0.115195,0.115194 0.0384,0.0384 0.07679,0.0768 0.115194,0.115195"
       id="path4570"
       inkscape:connector-curvature="0" />
    <path
       style="fill:none;stroke:#000000;stroke-width:0.26458332px;stroke-linecap:butt;stroke-linejoin:miter;stroke-opacity:1"
       d="m 14.860099,77.208757 c -1.075149,0 -2.150298,0 -3.225448,0 -0.191991,0 -0.383981,0 -0.575972,0 -0.0768,0 -0.161701,-0.03434 -0.23039,0 -0.09714,0.04857 -0.133248,0.181819 -0.230389,0.230392 -0.09215,0.04608 -0.253428,-0.04608 -0.345583,0 -0.04857,0.02429 -0.07001,0.08507 -0.115195,0.115194 -0.07144,0.04762 -0.1617002,0.06368 -0.230389,0.115194 -0.086885,0.06516 -0.140023,0.170146 -0.2303891,0.230389 -0.031949,0.0213 -0.08085,-0.01717 -0.1151945,0 -0.04857,0.02429 -0.09091,0.06662 -0.1151948,0.115194 -0.017171,0.03435 0.034344,0.09802 0,0.115194 -0.068689,0.03435 -0.1575338,-0.02429 -0.2303892,0 -0.051516,0.01717 -0.076796,0.0768 -0.1151945,0.115195 -0.076796,0.0768 -0.1701451,0.140022 -0.2303891,0.230391 -0.021299,0.03195 0.012142,0.07877 0,0.115194 -0.027152,0.08146 -0.088043,0.148934 -0.1151946,0.230389 -0.022894,0.06869 0,0.579559 0,0.691165 0,0.03065 -0.019024,0.336074 0,0.345586 0.068689,0.03434 0.1575337,-0.02429 0.2303891,0 0.051517,0.01717 0.066625,0.09091 0.1151946,0.115194 0.034344,0.01717 0.078767,-0.01214 0.1151945,0 0.081455,0.02715 0.147092,0.09437 0.2303892,0.115195 0.1490069,0.03725 0.3150674,-0.04857 0.4607784,0 0.051517,0.01717 0.063678,0.09802 0.115195,0.115194 0.103675,0.03456 0.241908,-0.03456 0.345583,0 0.08146,0.02715 0.148934,0.08804 0.230389,0.115194 0.03643,0.01214 0.08085,-0.01717 0.115195,0 0.04857,0.02429 0.06368,0.09802 0.115194,0.115194 0.06193,0.02064 0.363249,0 0.460779,0 0.383982,0 0.767964,0 1.151946,0"
       id="path4572"
       inkscape:connector-curvature="0" />
    <path
       style="fill:none;stroke:#000000;stroke-width:0.26458332px;stroke-linecap:butt;stroke-linejoin:miter;stroke-opacity:1"
       d="m 42.506796,78.245509 c 1.549096,0.527132 0.02802,-0.04047 0.806363,0.115194 0.119068,0.02381 0.225809,0.09523 0.345583,0.115197 0.113628,0.01894 0.231957,-0.01894 0.345583,0 0.119774,0.01995 0.225811,0.09523 0.345585,0.115194 0.113626,0.01894 0.232625,-0.02259 0.345583,0 0.08419,0.01683 0.147093,0.09437 0.230389,0.115194 0.149008,0.03725 0.315068,-0.04857 0.460779,0 0.05152,0.01717 0.06368,0.09802 0.115195,0.115195 0.273746,0.09125 0.209219,-0.136364 0.460777,0.115194 0.02715,0.02715 -0.01717,0.08085 0,0.115194 0.08822,0.17643 0.20528,0.09009 0.345583,0.230389 0.06071,0.06071 0.05448,0.169677 0.115194,0.230388 0.06071,0.06071 0.178874,0.04651 0.230391,0.115197 0.175276,0.233702 0.115195,0.962224 0.115195,1.26714 0,0.345583 0,0.691166 0,1.036752 0,0.0768 0.0426,0.166489 0,0.230388 -0.04763,0.07144 -0.169678,0.05448 -0.230389,0.115194 -0.02715,0.02715 0.01717,0.08085 0,0.115195 -0.01863,0.03723 -0.408331,0.425812 -0.46078,0.460779 -0.05801,0.253791 -0.236976,0.06089 -0.345583,0.115195 -0.12383,0.06192 -0.21704,0.178969 -0.345583,0.230388 -0.0713,0.02852 -0.154638,-0.01262 -0.230391,0 -0.156165,0.02604 -0.304048,0.09281 -0.460777,0.115195 -0.114038,0.0163 -0.230388,0 -0.345583,0 -0.422381,0 -0.844761,0 -1.267142,0 -0.268785,0 -0.537573,0 -0.80636,0 -0.0768,0 -0.153594,0 -0.230392,0 -0.0384,0 -0.08085,0.01717 -0.115194,0 -0.04857,-0.02429 -0.06662,-0.09091 -0.115194,-0.115195 -0.03283,-0.0164 -0.55431,0 -0.230389,0"
       id="path4574"
       inkscape:connector-curvature="0" />
    <path
       style="fill:none;stroke:#000000;stroke-width:0.26458332px;stroke-linecap:butt;stroke-linejoin:miter;stroke-opacity:1"
       d="m 14.053738,73.637726 c 0.0768,-0.268787 0.116855,-0.550912 0.230389,-0.806362 0.09393,-0.211344 0.744958,-0.540152 0.806362,-0.575972 0.267405,-0.155987 0.529468,-0.322331 0.806361,-0.460779 0.184951,-0.09247 0.397361,-0.126199 0.575973,-0.230389 0.285318,-0.166436 0.525048,-0.402855 0.806362,-0.575972 1.345279,-0.827865 0.005,0.112903 1.49753,-0.575974 0.251408,-0.116033 0.456362,-0.314026 0.691167,-0.460777 0.07281,-0.0455 0.153593,-0.0768 0.230389,-0.115194 0.153593,-0.115194 0.301033,-0.239088 0.460778,-0.345586 0.07144,-0.04762 0.158949,-0.06757 0.23039,-0.115194 0.04518,-0.03012 0.0768,-0.0768 0.115194,-0.115194 0.0384,-0.0384 0.09091,-0.06663 0.115195,-0.115194 0.01717,-0.03435 -0.02715,-0.08804 0,-0.115195 0.06071,-0.06071 0.169676,-0.05448 0.230389,-0.115194 0.0543,-0.0543 -0.02429,-0.157536 0,-0.230389 0.07025,-0.210748 0.1973,-0.312496 0.345584,-0.460779 0.264122,-0.264123 -0.07286,0.04857 0.345583,-0.230389 0.132917,-0.08861 0.212667,-0.256974 0.345584,-0.345583 0.01716,-0.01146 0.307754,0 0.345584,0 0.0384,0 0.0768,0 0.115195,0 0.0384,0 0.08804,-0.02715 0.115194,0 0.02715,0.02715 -0.01214,0.07877 0,0.115194 0.0543,0.16291 0.196712,0.292391 0.230389,0.460778 0.03334,0.166674 -0.04171,0.524324 0,0.691168 0.02083,0.0833 0.09836,0.146195 0.115195,0.230389 0.02259,0.112958 -0.01894,0.231957 0,0.345582 0.01996,0.119775 0.09138,0.226518 0.115194,0.345586 0.123083,0.615413 -0.218896,-0.259255 0.115195,0.575971 0.03189,0.07972 0.06757,0.158949 0.115194,0.230389 0.03012,0.04518 0.09802,0.06368 0.115195,0.115194 0.116526,0.349578 -0.219095,0.161124 0.230389,0.46078 0.03195,0.0213 0.0768,0 0.115195,0 0.456135,0 0.04279,0.0543 0.575972,-0.345583 0.179119,-0.134339 0.39378,-0.215447 0.575973,-0.345585 0.08838,-0.06312 0.143504,-0.165225 0.23039,-0.230389 0.221514,-0.166137 0.469652,-0.294643 0.691167,-0.460777 0.08688,-0.06516 0.140023,-0.170146 0.230389,-0.230391 0.142881,-0.09525 0.317897,-0.135134 0.460778,-0.230389 0.09037,-0.06024 0.145582,-0.162541 0.230389,-0.230388 0.108108,-0.08649 0.234828,-0.14732 0.345585,-0.230389 0.09647,-0.07235 0.251317,-0.29845 0.345583,-0.345586 0.03434,-0.01717 0.08804,0.02715 0.115194,0 0.06071,-0.06071 0.05448,-0.169674 0.115195,-0.230388 0.02715,-0.02715 0.07877,0.01214 0.115194,0 0.08145,-0.02715 0.148934,-0.08804 0.230391,-0.115194 0.03643,-0.01214 0.0768,0 0.115194,0 0.0768,0 0.153591,0 0.230389,0 0.0384,0 0.08804,-0.02715 0.115194,0 0.0927,0.0927 0.196649,0.497247 0.230389,0.575974 0.101467,0.236754 0.24992,0.452006 0.345583,0.691165 0.0451,0.112742 0.0701,0.232844 0.115197,0.345586 0.09533,0.238331 0.250248,0.452832 0.345582,0.691166 0.02852,0.0713 -0.03434,0.1617 0,0.230388 0.02429,0.04857 0.0768,0.0768 0.115195,0.115197 0.0384,0.0384 0.06662,0.09091 0.115194,0.115194 0.03435,0.01717 0.0768,0 0.115194,0 0.153594,0 0.311772,0.03725 0.46078,0 0.564563,-0.141141 1.167045,-0.843399 1.612723,-1.151945 0.254532,-0.176215 0.542708,-0.298532 0.806363,-0.46078 0.235817,-0.145119 0.460777,-0.307184 0.691165,-0.460777 0.230391,-0.153593 0.464328,-0.30199 0.691169,-0.46078 0.157284,-0.110098 0.304548,-0.233989 0.460779,-0.345583 0.225317,-0.16094 0.469652,-0.294642 0.691166,-0.460777 0.0303,-0.02273 0.219321,-0.227624 0.230389,-0.230391 0.495202,-0.123799 0.430691,0.141848 0.691168,0.575974 0.115194,0.19199 0.23685,0.380251 0.345583,0.575971 0.0834,0.150114 0.142039,0.313529 0.230391,0.46078 0.834049,1.390081 0.164529,0.09867 0.691166,1.151946 0.0768,0.153593 0.162745,0.30294 0.230389,0.460777 0.04783,0.111609 0.05272,0.241464 0.115194,0.345585 0.345585,0.575972 0.115197,0 0.345585,0.345583 0.04763,0.07144 0.04375,0.182761 0.115195,0.230389 0.0639,0.0426 0.154638,0.01262 0.230388,0 0.457071,-0.07618 0.449744,-0.09085 0.806363,-0.345583 0.793557,-0.566827 0.136586,-0.131239 1.036751,-0.806363 0.221515,-0.166134 0.453734,-0.318317 0.691166,-0.460777 0.07363,-0.04417 0.161703,-0.06368 0.230391,-0.115194 0.130326,-0.09775 0.210034,-0.25522 0.345583,-0.345586 0.07144,-0.04762 0.148934,-0.08804 0.230389,-0.115194 0.02529,-0.0084 0.443653,-0.0086 0.460779,0 0.123831,0.06191 0.276895,0.110183 0.345583,0.230389 0.09714,0.169997 0.04645,0.392647 0.115195,0.575974 0.04861,0.129632 0.174159,0.21907 0.230388,0.345583 0.09863,0.221922 0.140198,0.465685 0.230389,0.691168 0.06378,0.159441 0.176088,0.297868 0.230391,0.460777 0.06191,0.185746 0.0875,0.382149 0.115194,0.575974 0.02172,0.152048 -0.03725,0.311772 0,0.460777 0.02082,0.0833 0.08804,0.148934 0.115195,0.230389 0.02225,0.06673 0,0.360953 0,0.46078"
       id="path4576"
       inkscape:connector-curvature="0" />
  </g>
</svg>
